<?xml version="1.0" encoding="UTF-8" standalone="no"?>
<!DOCTYPE svg PUBLIC "-//W3C//DTD SVG 1.0//EN" "http://www.w3.org/TR/2001/PR-SVG-20010719/DTD/svg10.dtd">
<svg width="67cm" height="6cm" viewBox="18 74 1323 108" xmlns="http://www.w3.org/2000/svg" xmlns:xlink="http://www.w3.org/1999/xlink">
  <g>
    <rect style="fill: #ffff00" x="20" y="140" width="40" height="40"/>
    <rect style="fill: none; fill-opacity:0; stroke-width: 2; stroke: #000000" x="20" y="140" width="40" height="40"/>
  </g>
  <g>
    <rect style="fill: #ffff00" x="60" y="140" width="40" height="40"/>
    <rect style="fill: none; fill-opacity:0; stroke-width: 2; stroke: #000000" x="60" y="140" width="40" height="40"/>
  </g>
  <g>
    <rect style="fill: #ffff00" x="100" y="140" width="40" height="40"/>
    <rect style="fill: none; fill-opacity:0; stroke-width: 2; stroke: #000000" x="100" y="140" width="40" height="40"/>
  </g>
  <g>
    <rect style="fill: #ffff00" x="140" y="140" width="40" height="40"/>
    <rect style="fill: none; fill-opacity:0; stroke-width: 2; stroke: #000000" x="140" y="140" width="40" height="40"/>
  </g>
  <g>
    <rect style="fill: #ffa4a4" x="180" y="140" width="40" height="40"/>
    <rect style="fill: none; fill-opacity:0; stroke-width: 4; stroke: #000000" x="180" y="140" width="40" height="40"/>
  </g>
  <g>
    <rect style="fill: #ffa4a4" x="220" y="140" width="40" height="40"/>
    <rect style="fill: none; fill-opacity:0; stroke-width: 2; stroke: #000000" x="220" y="140" width="40" height="40"/>
  </g>
  <g>
    <rect style="fill: #ffa4a4" x="260" y="140" width="40" height="40"/>
    <rect style="fill: none; fill-opacity:0; stroke-width: 2; stroke: #000000" x="260" y="140" width="40" height="40"/>
  </g>
  <g>
    <rect style="fill: #ffa4a4" x="300" y="140" width="40" height="40"/>
    <rect style="fill: none; fill-opacity:0; stroke-width: 2; stroke: #000000" x="300" y="140" width="40" height="40"/>
  </g>
  <g>
    <line style="fill: none; fill-opacity:0; stroke-width: 2; stroke: #000000" x1="40" y1="100" x2="40" y2="130.264"/>
    <polygon style="fill: #000000" points="40,137.764 35,127.764 40,130.264 45,127.764 "/>
    <polygon style="fill: none; fill-opacity:0; stroke-width: 2; stroke: #000000" points="40,137.764 35,127.764 40,130.264 45,127.764 "/>
  </g>
  <g>
    <rect style="fill: #ffa4a4" x="340" y="140" width="40" height="40"/>
    <rect style="fill: none; fill-opacity:0; stroke-width: 2; stroke: #000000" x="340" y="140" width="40" height="40"/>
  </g>
  <g>
    <rect style="fill: #ffa4a4" x="380" y="140" width="40" height="40"/>
    <rect style="fill: none; fill-opacity:0; stroke-width: 2; stroke: #000000" x="380" y="140" width="40" height="40"/>
  </g>
  <g>
    <rect style="fill: #ffa4a4" x="420" y="140" width="40" height="40"/>
    <rect style="fill: none; fill-opacity:0; stroke-width: 2; stroke: #000000" x="420" y="140" width="40" height="40"/>
  </g>
  <g>
    <rect style="fill: #ffa4a4" x="460" y="140" width="40" height="40"/>
    <rect style="fill: none; fill-opacity:0; stroke-width: 2; stroke: #000000" x="460" y="140" width="40" height="40"/>
  </g>
  <g>
    <rect style="fill: #7f7f7f" x="500" y="140" width="40" height="40"/>
    <rect style="fill: none; fill-opacity:0; stroke-width: 4; stroke: #000000" x="500" y="140" width="40" height="40"/>
  </g>
  <g>
    <rect style="fill: #7f7f7f" x="540" y="140" width="40" height="40"/>
    <rect style="fill: none; fill-opacity:0; stroke-width: 2; stroke: #000000" x="540" y="140" width="40" height="40"/>
  </g>
  <g>
    <rect style="fill: #7f7f7f" x="580" y="140" width="40" height="40"/>
    <rect style="fill: none; fill-opacity:0; stroke-width: 2; stroke: #000000" x="580" y="140" width="40" height="40"/>
  </g>
  <g>
    <rect style="fill: #7f7f7f" x="620" y="140" width="40" height="40"/>
    <rect style="fill: none; fill-opacity:0; stroke-width: 2; stroke: #000000" x="620" y="140" width="40" height="40"/>
  </g>
  <g>
    <rect style="fill: #7f7f7f" x="660" y="140" width="40" height="40"/>
    <rect style="fill: none; fill-opacity:0; stroke-width: 2; stroke: #000000" x="660" y="140" width="40" height="40"/>
  </g>
  <g>
    <line style="fill: none; fill-opacity:0; stroke-width: 2; stroke: #000000" x1="360" y1="100" x2="360" y2="130.264"/>
    <polygon style="fill: #000000" points="360,137.764 355,127.764 360,130.264 365,127.764 "/>
    <polygon style="fill: none; fill-opacity:0; stroke-width: 2; stroke: #000000" points="360,137.764 355,127.764 360,130.264 365,127.764 "/>
  </g>
  <g>
    <rect style="fill: #7f7f7f" x="700" y="140" width="40" height="40"/>
    <rect style="fill: none; fill-opacity:0; stroke-width: 2; stroke: #000000" x="700" y="140" width="40" height="40"/>
  </g>
  <g>
    <rect style="fill: #7f7f7f" x="740" y="140" width="40" height="40"/>
    <rect style="fill: none; fill-opacity:0; stroke-width: 2; stroke: #000000" x="740" y="140" width="40" height="40"/>
  </g>
  <g>
    <rect style="fill: #7f7f7f" x="780" y="140" width="40" height="40"/>
    <rect style="fill: none; fill-opacity:0; stroke-width: 2; stroke: #000000" x="780" y="140" width="40" height="40"/>
  </g>
  <g>
    <rect style="fill: #5bbfde" x="820" y="140" width="40" height="40"/>
    <rect style="fill: none; fill-opacity:0; stroke-width: 4; stroke: #000000" x="820" y="140" width="40" height="40"/>
  </g>
  <g>
    <rect style="fill: #5bbfde" x="860" y="140" width="40" height="40"/>
    <rect style="fill: none; fill-opacity:0; stroke-width: 2; stroke: #000000" x="860" y="140" width="40" height="40"/>
  </g>
  <g>
    <rect style="fill: #5bbfde" x="900" y="140" width="40" height="40"/>
    <rect style="fill: none; fill-opacity:0; stroke-width: 2; stroke: #000000" x="900" y="140" width="40" height="40"/>
  </g>
  <g>
    <rect style="fill: #5bbfde" x="940" y="140" width="40" height="40"/>
    <rect style="fill: none; fill-opacity:0; stroke-width: 2; stroke: #000000" x="940" y="140" width="40" height="40"/>
  </g>
  <g>
    <rect style="fill: #5bbfde" x="980" y="140" width="40" height="40"/>
    <rect style="fill: none; fill-opacity:0; stroke-width: 2; stroke: #000000" x="980" y="140" width="40" height="40"/>
  </g>
  <g>
    <rect style="fill: #5bbfde" x="1020" y="140" width="40" height="40"/>
    <rect style="fill: none; fill-opacity:0; stroke-width: 2; stroke: #000000" x="1020" y="140" width="40" height="40"/>
  </g>
  <g>
    <line style="fill: none; fill-opacity:0; stroke-width: 2; stroke: #000000" x1="680" y1="100" x2="680" y2="130.264"/>
    <polygon style="fill: #000000" points="680,137.764 675,127.764 680,130.264 685,127.764 "/>
    <polygon style="fill: none; fill-opacity:0; stroke-width: 2; stroke: #000000" points="680,137.764 675,127.764 680,130.264 685,127.764 "/>
  </g>
  <g>
    <rect style="fill: #5bbfde" x="1060" y="140" width="40" height="40"/>
    <rect style="fill: none; fill-opacity:0; stroke-width: 2; stroke: #000000" x="1060" y="140" width="40" height="40"/>
  </g>
  <g>
    <rect style="fill: #5bbfde" x="1100" y="140" width="40" height="40"/>
    <rect style="fill: none; fill-opacity:0; stroke-width: 2; stroke: #000000" x="1100" y="140" width="40" height="40"/>
  </g>
  <g>
    <rect style="fill: #90ee90" x="1180" y="140" width="40" height="40"/>
    <rect style="fill: none; fill-opacity:0; stroke-width: 2; stroke: #000000" x="1180" y="140" width="40" height="40"/>
  </g>
  <g>
    <rect style="fill: #90ee90" x="1220" y="140" width="40" height="40"/>
    <rect style="fill: none; fill-opacity:0; stroke-width: 2; stroke: #000000" x="1220" y="140" width="40" height="40"/>
  </g>
  <g>
    <rect style="fill: #90ee90" x="1260" y="140" width="40" height="40"/>
    <rect style="fill: none; fill-opacity:0; stroke-width: 2; stroke: #000000" x="1260" y="140" width="40" height="40"/>
  </g>
  <g>
    <rect style="fill: #90ee90" x="1300" y="140" width="40" height="40"/>
    <rect style="fill: none; fill-opacity:0; stroke-width: 2; stroke: #000000" x="1300" y="140" width="40" height="40"/>
  </g>
  <g>
    <line style="fill: none; fill-opacity:0; stroke-width: 2; stroke: #000000" x1="1000" y1="100" x2="1000" y2="130.264"/>
    <polygon style="fill: #000000" points="1000,137.764 995,127.764 1000,130.264 1005,127.764 "/>
    <polygon style="fill: none; fill-opacity:0; stroke-width: 2; stroke: #000000" points="1000,137.764 995,127.764 1000,130.264 1005,127.764 "/>
  </g>
  <g>
    <line style="fill: none; fill-opacity:0; stroke-width: 2; stroke: #000000" x1="1320" y1="100" x2="1320" y2="130.264"/>
    <polygon style="fill: #000000" points="1320,137.764 1315,127.764 1320,130.264 1325,127.764 "/>
    <polygon style="fill: none; fill-opacity:0; stroke-width: 2; stroke: #000000" points="1320,137.764 1315,127.764 1320,130.264 1325,127.764 "/>
  </g>
  <g>
    <rect style="fill: #90ee90" x="1140" y="140" width="40" height="40"/>
    <rect style="fill: none; fill-opacity:0; stroke-width: 4; stroke: #000000" x="1140" y="140" width="40" height="40"/>
  </g>
  <text font-size="27.0929" style="fill: #000000;text-anchor:end;font-family:sans-serif;font-style:normal;font-weight:normal" x="700" y="100">
    <tspan x="700" y="100">0</tspan>
  </text>
  <text font-size="27.0929" style="fill: #000000;text-anchor:end;font-family:sans-serif;font-style:normal;font-weight:normal" x="1020" y="100">
    <tspan x="1020" y="100">1</tspan>
  </text>
  <text font-size="27.0929" style="fill: #000000;text-anchor:end;font-family:sans-serif;font-style:normal;font-weight:normal" x="1340" y="100">
    <tspan x="1340" y="100">2</tspan>
  </text>
  <text font-size="27.0929" style="fill: #000000;text-anchor:end;font-family:sans-serif;font-style:normal;font-weight:normal" x="380" y="100">
    <tspan x="380" y="100">-1</tspan>
  </text>
  <text font-size="27.0929" style="fill: #000000;text-anchor:end;font-family:sans-serif;font-style:normal;font-weight:normal" x="60" y="100">
    <tspan x="60" y="100">-2</tspan>
  </text>
</svg>
