<?xml version="1.0" encoding="UTF-8" standalone="no"?>
<!DOCTYPE svg PUBLIC "-//W3C//DTD SVG 1.0//EN" "http://www.w3.org/TR/2001/PR-SVG-20010719/DTD/svg10.dtd">
<svg width="67cm" height="6cm" viewBox="18 14 1323 108" xmlns="http://www.w3.org/2000/svg" xmlns:xlink="http://www.w3.org/1999/xlink">
  <g>
    <rect style="fill: #ffff00" x="20" y="80" width="40" height="40"/>
    <rect style="fill: none; fill-opacity:0; stroke-width: 2; stroke: #000000" x="20" y="80" width="40" height="40"/>
  </g>
  <g>
    <rect style="fill: #ffff00" x="60" y="80" width="40" height="40"/>
    <rect style="fill: none; fill-opacity:0; stroke-width: 2; stroke: #000000" x="60" y="80" width="40" height="40"/>
  </g>
  <g>
    <rect style="fill: #ffff00" x="100" y="80" width="40" height="40"/>
    <rect style="fill: none; fill-opacity:0; stroke-width: 2; stroke: #000000" x="100" y="80" width="40" height="40"/>
  </g>
  <g>
    <rect style="fill: #ffff00" x="140" y="80" width="40" height="40"/>
    <rect style="fill: none; fill-opacity:0; stroke-width: 2; stroke: #000000" x="140" y="80" width="40" height="40"/>
  </g>
  <g>
    <rect style="fill: #ffa4a4" x="180" y="80" width="40" height="40"/>
    <rect style="fill: none; fill-opacity:0; stroke-width: 4; stroke: #000000" x="180" y="80" width="40" height="40"/>
  </g>
  <g>
    <rect style="fill: #ffa4a4" x="220" y="80" width="40" height="40"/>
    <rect style="fill: none; fill-opacity:0; stroke-width: 2; stroke: #000000" x="220" y="80" width="40" height="40"/>
  </g>
  <g>
    <rect style="fill: #ffa4a4" x="260" y="80" width="40" height="40"/>
    <rect style="fill: none; fill-opacity:0; stroke-width: 2; stroke: #000000" x="260" y="80" width="40" height="40"/>
  </g>
  <g>
    <rect style="fill: #ffa4a4" x="300" y="80" width="40" height="40"/>
    <rect style="fill: none; fill-opacity:0; stroke-width: 2; stroke: #000000" x="300" y="80" width="40" height="40"/>
  </g>
  <g>
    <line style="fill: none; fill-opacity:0; stroke-width: 2; stroke: #000000" x1="40" y1="40" x2="40" y2="70.2639"/>
    <polygon style="fill: #000000" points="40,77.7639 35,67.7639 40,70.2639 45,67.7639 "/>
    <polygon style="fill: none; fill-opacity:0; stroke-width: 2; stroke: #000000" points="40,77.7639 35,67.7639 40,70.2639 45,67.7639 "/>
  </g>
  <g>
    <rect style="fill: #ffa4a4" x="340" y="80" width="40" height="40"/>
    <rect style="fill: none; fill-opacity:0; stroke-width: 2; stroke: #000000" x="340" y="80" width="40" height="40"/>
  </g>
  <g>
    <rect style="fill: #ffa4a4" x="380" y="80" width="40" height="40"/>
    <rect style="fill: none; fill-opacity:0; stroke-width: 2; stroke: #000000" x="380" y="80" width="40" height="40"/>
  </g>
  <g>
    <rect style="fill: #ffa4a4" x="420" y="80" width="40" height="40"/>
    <rect style="fill: none; fill-opacity:0; stroke-width: 2; stroke: #000000" x="420" y="80" width="40" height="40"/>
  </g>
  <g>
    <rect style="fill: #ffa4a4" x="460" y="80" width="40" height="40"/>
    <rect style="fill: none; fill-opacity:0; stroke-width: 2; stroke: #000000" x="460" y="80" width="40" height="40"/>
  </g>
  <g>
    <rect style="fill: #7f7f7f" x="500" y="80" width="40" height="40"/>
    <rect style="fill: none; fill-opacity:0; stroke-width: 4; stroke: #000000" x="500" y="80" width="40" height="40"/>
  </g>
  <g>
    <rect style="fill: #7f7f7f" x="540" y="80" width="40" height="40"/>
    <rect style="fill: none; fill-opacity:0; stroke-width: 2; stroke: #000000" x="540" y="80" width="40" height="40"/>
  </g>
  <g>
    <rect style="fill: #7f7f7f" x="580" y="80" width="40" height="40"/>
    <rect style="fill: none; fill-opacity:0; stroke-width: 2; stroke: #000000" x="580" y="80" width="40" height="40"/>
  </g>
  <g>
    <rect style="fill: #7f7f7f" x="620" y="80" width="40" height="40"/>
    <rect style="fill: none; fill-opacity:0; stroke-width: 2; stroke: #000000" x="620" y="80" width="40" height="40"/>
  </g>
  <g>
    <rect style="fill: #7f7f7f" x="660" y="80" width="40" height="40"/>
    <rect style="fill: none; fill-opacity:0; stroke-width: 2; stroke: #000000" x="660" y="80" width="40" height="40"/>
  </g>
  <g>
    <line style="fill: none; fill-opacity:0; stroke-width: 2; stroke: #000000" x1="360" y1="40" x2="360" y2="70.2639"/>
    <polygon style="fill: #000000" points="360,77.7639 355,67.7639 360,70.2639 365,67.7639 "/>
    <polygon style="fill: none; fill-opacity:0; stroke-width: 2; stroke: #000000" points="360,77.7639 355,67.7639 360,70.2639 365,67.7639 "/>
  </g>
  <g>
    <rect style="fill: #7f7f7f" x="700" y="80" width="40" height="40"/>
    <rect style="fill: none; fill-opacity:0; stroke-width: 2; stroke: #000000" x="700" y="80" width="40" height="40"/>
  </g>
  <g>
    <rect style="fill: #7f7f7f" x="740" y="80" width="40" height="40"/>
    <rect style="fill: none; fill-opacity:0; stroke-width: 2; stroke: #000000" x="740" y="80" width="40" height="40"/>
  </g>
  <g>
    <rect style="fill: #7f7f7f" x="780" y="80" width="40" height="40"/>
    <rect style="fill: none; fill-opacity:0; stroke-width: 2; stroke: #000000" x="780" y="80" width="40" height="40"/>
  </g>
  <g>
    <rect style="fill: #7f7f7f" x="820" y="80" width="40" height="40"/>
    <rect style="fill: none; fill-opacity:0; stroke-width: 4; stroke: #000000" x="820" y="80" width="40" height="40"/>
  </g>
  <g>
    <rect style="fill: #5bbfde" x="860" y="80" width="40" height="40"/>
    <rect style="fill: none; fill-opacity:0; stroke-width: 2; stroke: #000000" x="860" y="80" width="40" height="40"/>
  </g>
  <g>
    <rect style="fill: #5bbfde" x="900" y="80" width="40" height="40"/>
    <rect style="fill: none; fill-opacity:0; stroke-width: 2; stroke: #000000" x="900" y="80" width="40" height="40"/>
  </g>
  <g>
    <rect style="fill: #5bbfde" x="940" y="80" width="40" height="40"/>
    <rect style="fill: none; fill-opacity:0; stroke-width: 2; stroke: #000000" x="940" y="80" width="40" height="40"/>
  </g>
  <g>
    <rect style="fill: #5bbfde" x="980" y="80" width="40" height="40"/>
    <rect style="fill: none; fill-opacity:0; stroke-width: 2; stroke: #000000" x="980" y="80" width="40" height="40"/>
  </g>
  <g>
    <rect style="fill: #5bbfde" x="1020" y="80" width="40" height="40"/>
    <rect style="fill: none; fill-opacity:0; stroke-width: 2; stroke: #000000" x="1020" y="80" width="40" height="40"/>
  </g>
  <g>
    <line style="fill: none; fill-opacity:0; stroke-width: 2; stroke: #000000" x1="680" y1="40" x2="680" y2="70.2639"/>
    <polygon style="fill: #000000" points="680,77.7639 675,67.7639 680,70.2639 685,67.7639 "/>
    <polygon style="fill: none; fill-opacity:0; stroke-width: 2; stroke: #000000" points="680,77.7639 675,67.7639 680,70.2639 685,67.7639 "/>
  </g>
  <g>
    <rect style="fill: #5bbfde" x="1060" y="80" width="40" height="40"/>
    <rect style="fill: none; fill-opacity:0; stroke-width: 2; stroke: #000000" x="1060" y="80" width="40" height="40"/>
  </g>
  <g>
    <rect style="fill: #5bbfde" x="1100" y="80" width="40" height="40"/>
    <rect style="fill: none; fill-opacity:0; stroke-width: 2; stroke: #000000" x="1100" y="80" width="40" height="40"/>
  </g>
  <g>
    <rect style="fill: #90ee90" x="1180" y="80" width="40" height="40"/>
    <rect style="fill: none; fill-opacity:0; stroke-width: 2; stroke: #000000" x="1180" y="80" width="40" height="40"/>
  </g>
  <g>
    <rect style="fill: #90ee90" x="1220" y="80" width="40" height="40"/>
    <rect style="fill: none; fill-opacity:0; stroke-width: 2; stroke: #000000" x="1220" y="80" width="40" height="40"/>
  </g>
  <g>
    <rect style="fill: #90ee90" x="1260" y="80" width="40" height="40"/>
    <rect style="fill: none; fill-opacity:0; stroke-width: 2; stroke: #000000" x="1260" y="80" width="40" height="40"/>
  </g>
  <g>
    <rect style="fill: #90ee90" x="1300" y="80" width="40" height="40"/>
    <rect style="fill: none; fill-opacity:0; stroke-width: 2; stroke: #000000" x="1300" y="80" width="40" height="40"/>
  </g>
  <g>
    <line style="fill: none; fill-opacity:0; stroke-width: 2; stroke: #000000" x1="1000" y1="40" x2="1000" y2="70.2639"/>
    <polygon style="fill: #000000" points="1000,77.7639 995,67.7639 1000,70.2639 1005,67.7639 "/>
    <polygon style="fill: none; fill-opacity:0; stroke-width: 2; stroke: #000000" points="1000,77.7639 995,67.7639 1000,70.2639 1005,67.7639 "/>
  </g>
  <g>
    <line style="fill: none; fill-opacity:0; stroke-width: 2; stroke: #000000" x1="1320" y1="40" x2="1320" y2="70.2639"/>
    <polygon style="fill: #000000" points="1320,77.7639 1315,67.7639 1320,70.2639 1325,67.7639 "/>
    <polygon style="fill: none; fill-opacity:0; stroke-width: 2; stroke: #000000" points="1320,77.7639 1315,67.7639 1320,70.2639 1325,67.7639 "/>
  </g>
  <g>
    <rect style="fill: #5bbfde" x="1140" y="80" width="40" height="40"/>
    <rect style="fill: none; fill-opacity:0; stroke-width: 4; stroke: #000000" x="1140" y="80" width="40" height="40"/>
  </g>
  <text font-size="27.0929" style="fill: #000000;text-anchor:end;font-family:sans-serif;font-style:normal;font-weight:normal" x="700" y="40">
    <tspan x="700" y="40">0</tspan>
  </text>
  <text font-size="27.0929" style="fill: #000000;text-anchor:end;font-family:sans-serif;font-style:normal;font-weight:normal" x="1020" y="40">
    <tspan x="1020" y="40">1</tspan>
  </text>
  <text font-size="27.0929" style="fill: #000000;text-anchor:end;font-family:sans-serif;font-style:normal;font-weight:normal" x="1340" y="40">
    <tspan x="1340" y="40">2</tspan>
  </text>
  <text font-size="27.0929" style="fill: #000000;text-anchor:end;font-family:sans-serif;font-style:normal;font-weight:normal" x="380" y="40">
    <tspan x="380" y="40">-1</tspan>
  </text>
  <text font-size="27.0929" style="fill: #000000;text-anchor:end;font-family:sans-serif;font-style:normal;font-weight:normal" x="60" y="40">
    <tspan x="60" y="40">-2</tspan>
  </text>
</svg>
