<?xml version="1.0" encoding="UTF-8" standalone="no"?>
<!DOCTYPE svg PUBLIC "-//W3C//DTD SVG 1.0//EN" "http://www.w3.org/TR/2001/PR-SVG-20010719/DTD/svg10.dtd">
<svg width="55cm" height="65cm" viewBox="-2 -202 1083 1297" xmlns="http://www.w3.org/2000/svg" xmlns:xlink="http://www.w3.org/1999/xlink">
  <g>
    <rect style="fill: #90ee90" x="0" y="-200" width="1080" height="1294.65" rx="40" ry="40"/>
    <rect style="fill: none; fill-opacity:0; stroke-width: 2; stroke-linejoin: round; stroke: #000000" x="0" y="-200" width="1080" height="1294.65" rx="40" ry="40"/>
  </g>
  <g>
    <line style="fill: none; fill-opacity:0; stroke-width: 6; stroke-linejoin: round; stroke: #000000" x1="300" y1="500" x2="385.792" y2="500"/>
    <polygon style="fill: #000000" points="393.292,500 383.292,505 385.792,500 383.292,495 "/>
    <polygon style="fill: none; fill-opacity:0; stroke-width: 6; stroke: #000000" points="393.292,500 383.292,505 385.792,500 383.292,495 "/>
  </g>
  <g>
    <rect style="fill: #c8dfe6" x="480" y="-160" width="269.721" height="107.739"/>
    <rect style="fill: none; fill-opacity:0; stroke-width: 2; stroke: #000000" x="480" y="-160" width="269.721" height="107.739"/>
  </g>
  <text font-size="27.0933" style="fill: #000000;text-anchor:middle;font-family:sans-serif;font-style:normal;font-weight:normal" x="614.861" y="-130.622">
    <tspan x="614.861" y="-130.622">Build C&amp;C</tspan>
    <tspan x="614.861" y="-96.7556">Channel to</tspan>
    <tspan x="614.861" y="-62.8889">FPGA</tspan>
  </text>
  <g>
    <rect style="fill: #c8dfe6" x="480" y="0" width="269.721" height="107.739"/>
    <rect style="fill: none; fill-opacity:0; stroke-width: 2; stroke: #000000" x="480" y="0" width="269.721" height="107.739"/>
  </g>
  <text font-size="27.0933" style="fill: #000000;text-anchor:middle;font-family:sans-serif;font-style:normal;font-weight:normal" x="614.861" y="29.3777">
    <tspan x="614.861" y="29.3777">Build Diagnostic</tspan>
    <tspan x="614.861" y="63.2444">Tools for FPGA</tspan>
    <tspan x="614.861" y="97.1111">designs</tspan>
  </text>
  <g>
    <rect style="fill: #c8dfe6" x="400" y="460" width="240" height="80"/>
    <rect style="fill: none; fill-opacity:0; stroke-width: 2; stroke: #000000" x="400" y="460" width="240" height="80"/>
  </g>
  <text font-size="27.0933" style="fill: #000000;text-anchor:middle;font-family:sans-serif;font-style:normal;font-weight:normal" x="520" y="492.442">
    <tspan x="520" y="492.442">Measure</tspan>
    <tspan x="520" y="526.308">Logic Values</tspan>
  </text>
  <g>
    <rect style="fill: #c8dfe6" x="700" y="460" width="260" height="80"/>
    <rect style="fill: none; fill-opacity:0; stroke-width: 2; stroke: #000000" x="700" y="460" width="260" height="80"/>
  </g>
  <text font-size="27.0933" style="fill: #000000;text-anchor:middle;font-family:sans-serif;font-style:normal;font-weight:normal" x="830" y="492.442">
    <tspan x="830" y="492.442">Report and</tspan>
    <tspan x="830" y="526.308">Examine Results</tspan>
  </text>
  <g>
    <line style="fill: none; fill-opacity:0; stroke-width: 6; stroke: #000000" x1="640" y1="500" x2="685.792" y2="500"/>
    <polygon style="fill: #000000" points="693.292,500 683.292,505 685.792,500 683.292,495 "/>
    <polygon style="fill: none; fill-opacity:0; stroke-width: 6; stroke: #000000" points="693.292,500 683.292,505 685.792,500 683.292,495 "/>
  </g>
  <g>
    <line style="fill: none; fill-opacity:0; stroke-width: 6; stroke: #000000" x1="300" y1="740" x2="385.792" y2="740"/>
    <polygon style="fill: #000000" points="393.292,740 383.292,745 385.792,740 383.292,735 "/>
    <polygon style="fill: none; fill-opacity:0; stroke-width: 6; stroke: #000000" points="393.292,740 383.292,745 385.792,740 383.292,735 "/>
  </g>
  <g>
    <rect style="fill: #c8dfe6" x="400" y="700" width="240" height="80"/>
    <rect style="fill: none; fill-opacity:0; stroke-width: 2; stroke: #000000" x="400" y="700" width="240" height="80"/>
  </g>
  <text font-size="27.0933" style="fill: #000000;text-anchor:middle;font-family:sans-serif;font-style:normal;font-weight:normal" x="520" y="732.442">
    <tspan x="520" y="732.442">Measure</tspan>
    <tspan x="520" y="766.308">Logic Values</tspan>
  </text>
  <g>
    <rect style="fill: #c8dfe6" x="700" y="700" width="260" height="80"/>
    <rect style="fill: none; fill-opacity:0; stroke-width: 2; stroke: #000000" x="700" y="700" width="260" height="80"/>
  </g>
  <text font-size="27.0933" style="fill: #000000;text-anchor:middle;font-family:sans-serif;font-style:normal;font-weight:normal" x="830" y="732.442">
    <tspan x="830" y="732.442">Report and</tspan>
    <tspan x="830" y="766.308">Examine Results</tspan>
  </text>
  <g>
    <line style="fill: none; fill-opacity:0; stroke-width: 6; stroke: #000000" x1="640" y1="740" x2="685.792" y2="740"/>
    <polygon style="fill: #000000" points="693.292,740 683.292,745 685.792,740 683.292,735 "/>
    <polygon style="fill: none; fill-opacity:0; stroke-width: 6; stroke: #000000" points="693.292,740 683.292,745 685.792,740 683.292,735 "/>
  </g>
  <g>
    <line style="fill: none; fill-opacity:0; stroke-width: 6; stroke: #000000" x1="300" y1="960" x2="385.792" y2="960"/>
    <polygon style="fill: #000000" points="393.292,960 383.292,965 385.792,960 383.292,955 "/>
    <polygon style="fill: none; fill-opacity:0; stroke-width: 6; stroke: #000000" points="393.292,960 383.292,965 385.792,960 383.292,955 "/>
  </g>
  <g>
    <rect style="fill: #c8dfe6" x="400" y="920" width="240" height="80"/>
    <rect style="fill: none; fill-opacity:0; stroke-width: 2; stroke: #000000" x="400" y="920" width="240" height="80"/>
  </g>
  <text font-size="27.0933" style="fill: #000000;text-anchor:middle;font-family:sans-serif;font-style:normal;font-weight:normal" x="520" y="952.442">
    <tspan x="520" y="952.442">Measure</tspan>
    <tspan x="520" y="986.308">Logic Values</tspan>
  </text>
  <g>
    <rect style="fill: #c8dfe6" x="700" y="920" width="260" height="80"/>
    <rect style="fill: none; fill-opacity:0; stroke-width: 2; stroke: #000000" x="700" y="920" width="260" height="80"/>
  </g>
  <text font-size="27.0933" style="fill: #000000;text-anchor:middle;font-family:sans-serif;font-style:normal;font-weight:normal" x="830" y="952.442">
    <tspan x="830" y="952.442">Report and</tspan>
    <tspan x="830" y="986.308">Examine Results</tspan>
  </text>
  <g>
    <line style="fill: none; fill-opacity:0; stroke-width: 6; stroke: #000000" x1="640" y1="960" x2="685.792" y2="960"/>
    <polygon style="fill: #000000" points="693.292,960 683.292,965 685.792,960 683.292,955 "/>
    <polygon style="fill: none; fill-opacity:0; stroke-width: 6; stroke: #000000" points="693.292,960 683.292,965 685.792,960 683.292,955 "/>
  </g>
  <g>
    <line style="fill: none; fill-opacity:0; stroke-width: 4; stroke: #000000" x1="614.861" y1="-52.2612" x2="614.861" y2="-11.9721"/>
    <polygon style="fill: #000000" points="614.861,-4.47214 609.861,-14.4721 614.861,-11.9721 619.861,-14.4721 "/>
    <polygon style="fill: none; fill-opacity:0; stroke-width: 4; stroke: #000000" points="614.861,-4.47214 609.861,-14.4721 614.861,-11.9721 619.861,-14.4721 "/>
  </g>
  <g>
    <path style="fill: none; fill-opacity:0; stroke-width: 6; stroke: #000000" d="M 960 740 C 974.279,744 1040,760 1040,700 C 1040,640 1040,640 1040,534.208"/>
    <polygon style="fill: #000000" points="1040,526.708 1045,536.708 1040,534.208 1035,536.708 "/>
    <polygon style="fill: none; fill-opacity:0; stroke-width: 6; stroke: #000000" points="1040,526.708 1045,536.708 1040,534.208 1035,536.708 "/>
  </g>
  <g>
    <path style="fill: none; fill-opacity:0; stroke-width: 6; stroke: #000000" d="M 960 960 C 978.279,964 1040,980 1040,920 C 1040,860 1040,860 1040,754.208"/>
    <polygon style="fill: #000000" points="1040,746.708 1045,756.708 1040,754.208 1035,756.708 "/>
    <polygon style="fill: none; fill-opacity:0; stroke-width: 6; stroke: #000000" points="1040,746.708 1045,756.708 1040,754.208 1035,756.708 "/>
  </g>
  <g>
    <path style="fill: none; fill-opacity:0; stroke-width: 6; stroke: #000000" d="M 614.861 107.739 C 600,220 480,200 460,160 C 440,120 420,-40 380,-100 C 340,-160 200,-200 200,-94.2082"/>
    <polygon style="fill: #000000" points="200,-86.7082 195,-96.7082 200,-94.2082 205,-96.7082 "/>
    <polygon style="fill: none; fill-opacity:0; stroke-width: 6; stroke: #000000" points="200,-86.7082 195,-96.7082 200,-94.2082 205,-96.7082 "/>
  </g>
  <g>
    <g>
      <rect style="fill: #ffff00" x="40" y="-80" width="320" height="1120" rx="40" ry="40"/>
      <rect style="fill: none; fill-opacity:0; stroke-width: 2; stroke-linejoin: round; stroke: #000000" x="40" y="-80" width="320" height="1120" rx="40" ry="40"/>
    </g>
    <g>
      <rect style="fill: #ffffff" x="100" y="80" width="200" height="60"/>
      <rect style="fill: none; fill-opacity:0; stroke-width: 2; stroke: #000000" x="100" y="80" width="200" height="60"/>
    </g>
    <text font-size="27.0933" style="fill: #000000;text-anchor:middle;font-family:sans-serif;font-style:normal;font-weight:normal" x="200" y="119.375">
      <tspan x="200" y="119.375">Design</tspan>
    </text>
    <g>
      <rect style="fill: #ffffff" x="80" y="300" width="240" height="120"/>
      <rect style="fill: none; fill-opacity:0; stroke-width: 2; stroke: #000000" x="80" y="300" width="240" height="120"/>
    </g>
    <text font-size="27.0933" style="fill: #000000;text-anchor:middle;font-family:sans-serif;font-style:normal;font-weight:normal" x="200" y="335.508">
      <tspan x="200" y="335.508">Build a </tspan>
      <tspan x="200" y="369.375">self-contained</tspan>
      <tspan x="200" y="403.242">Testbench</tspan>
    </text>
    <g>
      <line style="fill: none; fill-opacity:0; stroke-width: 4; stroke: #000000" x1="200" y1="140" x2="200" y2="168.028"/>
      <polygon style="fill: #000000" points="200,175.528 195,165.528 200,168.028 205,165.528 "/>
      <polygon style="fill: none; fill-opacity:0; stroke-width: 4; stroke: #000000" points="200,175.528 195,165.528 200,168.028 205,165.528 "/>
    </g>
    <g>
      <rect style="fill: #ffffff" x="80" y="-40" width="240" height="80"/>
      <rect style="fill: none; fill-opacity:0; stroke-width: 2; stroke: #000000" x="80" y="-40" width="240" height="80"/>
    </g>
    <text font-size="27.0933" style="fill: #000000;text-anchor:middle;font-family:sans-serif;font-style:normal;font-weight:normal" x="200" y="-7.55833">
      <tspan x="200" y="-7.55833">Research </tspan>
      <tspan x="200" y="26.3083">Interface Specs</tspan>
    </text>
    <g>
      <rect style="fill: #ffffff" x="100" y="180" width="200" height="80"/>
      <rect style="fill: none; fill-opacity:0; stroke-width: 2; stroke: #000000" x="100" y="180" width="200" height="80"/>
    </g>
    <text font-size="27.0933" style="fill: #000000;text-anchor:middle;font-family:sans-serif;font-style:normal;font-weight:normal" x="200" y="212.442">
      <tspan x="200" y="212.442">Build</tspan>
      <tspan x="200" y="246.308">Simulator</tspan>
    </text>
    <g>
      <line style="fill: none; fill-opacity:0; stroke-width: 4; stroke: #000000" x1="200" y1="260" x2="200" y2="288.028"/>
      <polygon style="fill: #000000" points="200,295.528 195,285.528 200,288.028 205,285.528 "/>
      <polygon style="fill: none; fill-opacity:0; stroke-width: 4; stroke: #000000" points="200,295.528 195,285.528 200,288.028 205,285.528 "/>
    </g>
    <g>
      <rect style="fill: #ffffff" x="100" y="460" width="200" height="80"/>
      <rect style="fill: none; fill-opacity:0; stroke-width: 2; stroke: #000000" x="100" y="460" width="200" height="80"/>
    </g>
    <text font-size="27.0933" style="fill: #000000;text-anchor:middle;font-family:sans-serif;font-style:normal;font-weight:normal" x="200" y="492.442">
      <tspan x="200" y="492.442">Bench/Sim </tspan>
      <tspan x="200" y="526.308">Test</tspan>
    </text>
    <g>
      <line style="fill: none; fill-opacity:0; stroke-width: 4; stroke: #000000" x1="200" y1="540" x2="200" y2="568.028"/>
      <polygon style="fill: #000000" points="200,575.528 195,565.528 200,568.028 205,565.528 "/>
      <polygon style="fill: none; fill-opacity:0; stroke-width: 4; stroke: #000000" points="200,575.528 195,565.528 200,568.028 205,565.528 "/>
    </g>
    <g>
      <rect style="fill: #ffffff" x="100" y="700" width="200" height="80"/>
      <rect style="fill: none; fill-opacity:0; stroke-width: 2; stroke: #000000" x="100" y="700" width="200" height="80"/>
    </g>
    <text font-size="27.0933" style="fill: #000000;text-anchor:middle;font-family:sans-serif;font-style:normal;font-weight:normal" x="200" y="749.375">
      <tspan x="200" y="749.375">HITL Test</tspan>
    </text>
    <g>
      <rect style="fill: #ffffff" x="100" y="820" width="200" height="60"/>
      <rect style="fill: none; fill-opacity:0; stroke-width: 2; stroke: #000000" x="100" y="820" width="200" height="60"/>
    </g>
    <text font-size="27.0933" style="fill: #000000;text-anchor:middle;font-family:sans-serif;font-style:normal;font-weight:normal" x="200" y="859.375">
      <tspan x="200" y="859.375">Integrate</tspan>
    </text>
    <g>
      <line style="fill: none; fill-opacity:0; stroke-width: 4; stroke: #000000" x1="200" y1="660" x2="200" y2="688.028"/>
      <polygon style="fill: #000000" points="200,695.528 195,685.528 200,688.028 205,685.528 "/>
      <polygon style="fill: none; fill-opacity:0; stroke-width: 4; stroke: #000000" points="200,695.528 195,685.528 200,688.028 205,685.528 "/>
    </g>
    <g>
      <line style="fill: none; fill-opacity:0; stroke-width: 4; stroke: #000000" x1="200" y1="780" x2="200" y2="808.028"/>
      <polygon style="fill: #000000" points="200,815.528 195,805.528 200,808.028 205,805.528 "/>
      <polygon style="fill: none; fill-opacity:0; stroke-width: 4; stroke: #000000" points="200,815.528 195,805.528 200,808.028 205,805.528 "/>
    </g>
    <g>
      <rect style="fill: #ffffff" x="100" y="580" width="200" height="80"/>
      <rect style="fill: none; fill-opacity:0; stroke-width: 2; stroke: #000000" x="100" y="580" width="200" height="80"/>
    </g>
    <text font-size="27.0933" style="fill: #000000;text-anchor:middle;font-family:sans-serif;font-style:normal;font-weight:normal" x="200" y="612.442">
      <tspan x="200" y="612.442">Implement</tspan>
      <tspan x="200" y="646.308">on FPGA</tspan>
    </text>
    <g>
      <line style="fill: none; fill-opacity:0; stroke-width: 4; stroke: #000000" x1="200" y1="880" x2="200" y2="908.028"/>
      <polygon style="fill: #000000" points="200,915.528 195,905.528 200,908.028 205,905.528 "/>
      <polygon style="fill: none; fill-opacity:0; stroke-width: 4; stroke: #000000" points="200,915.528 195,905.528 200,908.028 205,905.528 "/>
    </g>
    <g>
      <rect style="fill: #ffffff" x="100" y="920" width="200" height="80"/>
      <rect style="fill: none; fill-opacity:0; stroke-width: 2; stroke: #000000" x="100" y="920" width="200" height="80"/>
    </g>
    <text font-size="27.0933" style="fill: #000000;text-anchor:middle;font-family:sans-serif;font-style:normal;font-weight:normal" x="200" y="969.375">
      <tspan x="200" y="969.375">Test</tspan>
    </text>
    <g>
      <line style="fill: none; fill-opacity:0; stroke-width: 4; stroke: #000000" x1="200" y1="40" x2="200" y2="68.0279"/>
      <polygon style="fill: #000000" points="200,75.5279 195,65.5279 200,68.0279 205,65.5279 "/>
      <polygon style="fill: none; fill-opacity:0; stroke-width: 4; stroke: #000000" points="200,75.5279 195,65.5279 200,68.0279 205,65.5279 "/>
    </g>
    <g>
      <line style="fill: none; fill-opacity:0; stroke-width: 4; stroke: #000000" x1="200" y1="420" x2="200" y2="448.028"/>
      <polygon style="fill: #000000" points="200,455.528 195,445.528 200,448.028 205,445.528 "/>
      <polygon style="fill: none; fill-opacity:0; stroke-width: 4; stroke: #000000" points="200,455.528 195,445.528 200,448.028 205,445.528 "/>
    </g>
  </g>
  <g>
    <path style="fill: none; fill-opacity:0; stroke-width: 6; stroke: #000000" d="M 960 500 C 950.133,500 1040,520 1040,480 C 1040,440 1040,400 1000,360 C 960,320 540,320 480,240 C 420,160 420,100 314.159,108.82"/>
    <polygon style="fill: #000000" points="306.685,109.443 316.235,103.63 314.159,108.82 317.066,113.595 "/>
    <polygon style="fill: none; fill-opacity:0; stroke-width: 6; stroke: #000000" points="306.685,109.443 316.235,103.63 314.159,108.82 317.066,113.595 "/>
  </g>
</svg>
