<?xml version="1.0" encoding="UTF-8" standalone="no"?>
<!DOCTYPE svg PUBLIC "-//W3C//DTD SVG 1.0//EN" "http://www.w3.org/TR/2001/PR-SVG-20010719/DTD/svg10.dtd">
<svg width="46cm" height="32cm" viewBox="1 -7 902 623" xmlns="http://www.w3.org/2000/svg" xmlns:xlink="http://www.w3.org/1999/xlink">
  <g>
    <rect style="fill: #d6c799" x="140" y="20" width="340" height="60"/>
    <rect style="fill: none; fill-opacity:0; stroke-width: 6; stroke: #000000" x="140" y="20" width="340" height="60"/>
  </g>
  <text font-size="27.0929" style="fill: #000000;text-anchor:middle;font-family:sans-serif;font-style:normal;font-weight:normal" x="310" y="59.375">
    <tspan x="310" y="59.375">SUB</tspan>
  </text>
  <g>
    <rect style="fill: #d6c799" x="140" y="120" width="340" height="60"/>
    <rect style="fill: none; fill-opacity:0; stroke-width: 6; stroke: #000000" x="140" y="120" width="340" height="60"/>
  </g>
  <text font-size="27.0929" style="fill: #000000;text-anchor:middle;font-family:sans-serif;font-style:normal;font-weight:normal" x="310" y="159.375">
    <tspan x="310" y="159.375">AND</tspan>
  </text>
  <g>
    <rect style="fill: #d6c799" x="140" y="220" width="340" height="60"/>
    <rect style="fill: none; fill-opacity:0; stroke-width: 6; stroke: #000000" x="140" y="220" width="340" height="60"/>
  </g>
  <text font-size="27.0929" style="fill: #000000;text-anchor:middle;font-family:sans-serif;font-style:normal;font-weight:normal" x="310" y="259.375">
    <tspan x="310" y="259.375">ADD</tspan>
  </text>
  <g>
    <rect style="fill: #d6c799" x="140" y="320" width="340" height="60"/>
    <rect style="fill: none; fill-opacity:0; stroke-width: 6; stroke: #000000" x="140" y="320" width="340" height="60"/>
  </g>
  <text font-size="27.0929" style="fill: #000000;text-anchor:middle;font-family:sans-serif;font-style:normal;font-weight:normal" x="310" y="359.375">
    <tspan x="310" y="359.375">OR</tspan>
  </text>
  <g>
    <rect style="fill: #d6c799" x="140" y="420" width="340" height="60"/>
    <rect style="fill: none; fill-opacity:0; stroke-width: 6; stroke: #000000" x="140" y="420" width="340" height="60"/>
  </g>
  <text font-size="27.0929" style="fill: #000000;text-anchor:middle;font-family:sans-serif;font-style:normal;font-weight:normal" x="310" y="459.375">
    <tspan x="310" y="459.375">XOR</tspan>
  </text>
  <text font-size="27.0929" style="fill: #000000;text-anchor:middle;font-family:sans-serif;font-style:normal;font-weight:normal" x="320" y="529.375">
    <tspan x="320" y="529.375">MOV (Passthrough)</tspan>
  </text>
  <g>
    <line style="fill: none; fill-opacity:0; stroke-width: 6; stroke: #000000" x1="60" y1="140" x2="125.792" y2="140"/>
    <polygon style="fill: #000000" points="133.292,140 123.292,145 125.792,140 123.292,135 "/>
    <polygon style="fill: none; fill-opacity:0; stroke-width: 6; stroke: #000000" points="133.292,140 123.292,145 125.792,140 123.292,135 "/>
  </g>
  <g>
    <line style="fill: none; fill-opacity:0; stroke-width: 6; stroke: #000000" x1="60" y1="240" x2="125.792" y2="240"/>
    <polygon style="fill: #000000" points="133.292,240 123.292,245 125.792,240 123.292,235 "/>
    <polygon style="fill: none; fill-opacity:0; stroke-width: 6; stroke: #000000" points="133.292,240 123.292,245 125.792,240 123.292,235 "/>
  </g>
  <g>
    <line style="fill: none; fill-opacity:0; stroke-width: 6; stroke: #000000" x1="60" y1="340" x2="125.792" y2="340"/>
    <polygon style="fill: #000000" points="133.292,340 123.292,345 125.792,340 123.292,335 "/>
    <polygon style="fill: none; fill-opacity:0; stroke-width: 6; stroke: #000000" points="133.292,340 123.292,345 125.792,340 123.292,335 "/>
  </g>
  <g>
    <line style="fill: none; fill-opacity:0; stroke-width: 6; stroke: #000000" x1="60" y1="440" x2="125.792" y2="440"/>
    <polygon style="fill: #000000" points="133.292,440 123.292,445 125.792,440 123.292,435 "/>
    <polygon style="fill: none; fill-opacity:0; stroke-width: 6; stroke: #000000" points="133.292,440 123.292,445 125.792,440 123.292,435 "/>
  </g>
  <g>
    <line style="fill: none; fill-opacity:0; stroke-width: 6; stroke: #000000" x1="60" y1="540" x2="565.792" y2="540"/>
    <polygon style="fill: #000000" points="573.292,540 563.292,545 565.792,540 563.292,535 "/>
    <polygon style="fill: none; fill-opacity:0; stroke-width: 6; stroke: #000000" points="573.292,540 563.292,545 565.792,540 563.292,535 "/>
  </g>
  <g>
    <line style="fill: none; fill-opacity:0; stroke-width: 6; stroke: #000000" x1="60" y1="40" x2="125.792" y2="40"/>
    <polygon style="fill: #000000" points="133.292,40 123.292,45 125.792,40 123.292,35 "/>
    <polygon style="fill: none; fill-opacity:0; stroke-width: 6; stroke: #000000" points="133.292,40 123.292,45 125.792,40 123.292,35 "/>
  </g>
  <g>
    <line style="fill: none; fill-opacity:0; stroke-width: 6; stroke: #000000" x1="480" y1="40" x2="565.792" y2="40"/>
    <polygon style="fill: #000000" points="573.292,40 563.292,45 565.792,40 563.292,35 "/>
    <polygon style="fill: none; fill-opacity:0; stroke-width: 6; stroke: #000000" points="573.292,40 563.292,45 565.792,40 563.292,35 "/>
  </g>
  <g>
    <line style="fill: none; fill-opacity:0; stroke-width: 6; stroke: #000000" x1="480" y1="140" x2="565.792" y2="140"/>
    <polygon style="fill: #000000" points="573.292,140 563.292,145 565.792,140 563.292,135 "/>
    <polygon style="fill: none; fill-opacity:0; stroke-width: 6; stroke: #000000" points="573.292,140 563.292,145 565.792,140 563.292,135 "/>
  </g>
  <g>
    <line style="fill: none; fill-opacity:0; stroke-width: 6; stroke: #000000" x1="480" y1="240" x2="565.792" y2="240"/>
    <polygon style="fill: #000000" points="573.292,240 563.292,245 565.792,240 563.292,235 "/>
    <polygon style="fill: none; fill-opacity:0; stroke-width: 6; stroke: #000000" points="573.292,240 563.292,245 565.792,240 563.292,235 "/>
  </g>
  <g>
    <line style="fill: none; fill-opacity:0; stroke-width: 6; stroke: #000000" x1="480" y1="340" x2="565.792" y2="340"/>
    <polygon style="fill: #000000" points="573.292,340 563.292,345 565.792,340 563.292,335 "/>
    <polygon style="fill: none; fill-opacity:0; stroke-width: 6; stroke: #000000" points="573.292,340 563.292,345 565.792,340 563.292,335 "/>
  </g>
  <g>
    <line style="fill: none; fill-opacity:0; stroke-width: 6; stroke: #000000" x1="480" y1="440" x2="565.792" y2="440"/>
    <polygon style="fill: #000000" points="573.292,440 563.292,445 565.792,440 563.292,435 "/>
    <polygon style="fill: none; fill-opacity:0; stroke-width: 6; stroke: #000000" points="573.292,440 563.292,445 565.792,440 563.292,435 "/>
  </g>
  <line style="fill: none; fill-opacity:0; stroke-width: 6; stroke: #000000" x1="60" y1="40" x2="60" y2="580"/>
  <g>
    <line style="fill: none; fill-opacity:0; stroke-width: 6; stroke: #000000" x1="20" y1="60" x2="125.792" y2="60"/>
    <polygon style="fill: #000000" points="133.292,60 123.292,65 125.792,60 123.292,55 "/>
    <polygon style="fill: none; fill-opacity:0; stroke-width: 6; stroke: #000000" points="133.292,60 123.292,65 125.792,60 123.292,55 "/>
  </g>
  <g>
    <line style="fill: none; fill-opacity:0; stroke-width: 6; stroke: #000000" x1="20" y1="160" x2="125.792" y2="160"/>
    <polygon style="fill: #000000" points="133.292,160 123.292,165 125.792,160 123.292,155 "/>
    <polygon style="fill: none; fill-opacity:0; stroke-width: 6; stroke: #000000" points="133.292,160 123.292,165 125.792,160 123.292,155 "/>
  </g>
  <g>
    <line style="fill: none; fill-opacity:0; stroke-width: 6; stroke: #000000" x1="20" y1="260" x2="125.792" y2="260"/>
    <polygon style="fill: #000000" points="133.292,260 123.292,265 125.792,260 123.292,255 "/>
    <polygon style="fill: none; fill-opacity:0; stroke-width: 6; stroke: #000000" points="133.292,260 123.292,265 125.792,260 123.292,255 "/>
  </g>
  <g>
    <line style="fill: none; fill-opacity:0; stroke-width: 6; stroke: #000000" x1="20" y1="360" x2="125.792" y2="360"/>
    <polygon style="fill: #000000" points="133.292,360 123.292,365 125.792,360 123.292,355 "/>
    <polygon style="fill: none; fill-opacity:0; stroke-width: 6; stroke: #000000" points="133.292,360 123.292,365 125.792,360 123.292,355 "/>
  </g>
  <g>
    <line style="fill: none; fill-opacity:0; stroke-width: 6; stroke: #000000" x1="20" y1="460" x2="125.792" y2="460"/>
    <polygon style="fill: #000000" points="133.292,460 123.292,465 125.792,460 123.292,455 "/>
    <polygon style="fill: none; fill-opacity:0; stroke-width: 6; stroke: #000000" points="133.292,460 123.292,465 125.792,460 123.292,455 "/>
  </g>
  <line style="fill: none; fill-opacity:0; stroke-width: 6; stroke: #000000" x1="20" y1="60" x2="20" y2="580"/>
  <text font-size="27.0929" style="fill: #000000;text-anchor:middle;font-family:sans-serif;font-style:normal;font-weight:normal" x="20" y="609.375">
    <tspan x="20" y="609.375">i_a</tspan>
  </text>
  <text font-size="27.0929" style="fill: #000000;text-anchor:middle;font-family:sans-serif;font-style:normal;font-weight:normal" x="80" y="609.375">
    <tspan x="80" y="609.375">i_b</tspan>
  </text>
  <text font-size="27.0929" style="fill: #000000;text-anchor:middle;font-family:sans-serif;font-style:normal;font-weight:normal" x="880" y="289.375">
    <tspan x="880" y="289.375">o_c</tspan>
  </text>
  <g>
    <line style="fill: none; fill-opacity:0; stroke-width: 6; stroke: #000000" x1="740" y1="280" x2="825.792" y2="280"/>
    <polygon style="fill: #000000" points="833.292,280 823.292,285 825.792,280 823.292,275 "/>
    <polygon style="fill: none; fill-opacity:0; stroke-width: 6; stroke: #000000" points="833.292,280 823.292,285 825.792,280 823.292,275 "/>
  </g>
  <g>
    <polygon style="fill: #d8e5e5" points="580,580 580,0 740,140 740,440 "/>
    <polygon style="fill: none; fill-opacity:0; stroke-width: 6; stroke: #000000" points="580,580 580,0 740,140 740,440 "/>
  </g>
  <text font-size="27.0929" style="fill: #000000;text-anchor:middle;font-family:sans-serif;font-style:normal;font-weight:normal" x="660" y="265.508">
    <tspan x="660" y="265.508">Result</tspan>
    <tspan x="660" y="299.375">Select</tspan>
    <tspan x="660" y="333.242">MUX</tspan>
  </text>
  <text font-size="27.0929" style="fill: #000000;text-anchor:middle;font-family:sans-serif;font-style:normal;font-weight:normal" x="680" y="609.375">
    <tspan x="680" y="609.375">i_op</tspan>
  </text>
  <g>
    <line style="fill: none; fill-opacity:0; stroke-width: 6; stroke: #000000" x1="680" y1="580" x2="680" y2="514.208"/>
    <polygon style="fill: #000000" points="680,506.708 685,516.708 680,514.208 675,516.708 "/>
    <polygon style="fill: none; fill-opacity:0; stroke-width: 6; stroke: #000000" points="680,506.708 685,516.708 680,514.208 675,516.708 "/>
  </g>
</svg>
