<?xml version="1.0" encoding="UTF-8" standalone="no"?>
<!DOCTYPE svg PUBLIC "-//W3C//DTD SVG 1.0//EN" "http://www.w3.org/TR/2001/PR-SVG-20010719/DTD/svg10.dtd">
<svg width="18cm" height="19cm" viewBox="-1 -2 342 363" xmlns="http://www.w3.org/2000/svg" xmlns:xlink="http://www.w3.org/1999/xlink">
  <g>
    <rect style="fill: #c0ffc0" x="20" y="0" width="300" height="360" rx="8" ry="8"/>
    <rect style="fill: none; fill-opacity:0; stroke-width: 2; stroke-linejoin: round; stroke: #000000" x="20" y="0" width="300" height="360" rx="8" ry="8"/>
  </g>
  <g>
    <rect style="fill: #ffff82" x="100" y="30" width="220" height="320" rx="8" ry="8"/>
    <rect style="fill: none; fill-opacity:0; stroke-width: 2; stroke-linejoin: round; stroke: #000000" x="100" y="30" width="220" height="320" rx="8" ry="8"/>
  </g>
  <g>
    <rect style="fill: #ffffff" x="80" y="160" width="40" height="160"/>
    <rect style="fill: none; fill-opacity:0; stroke-width: 2; stroke: #000000" x="80" y="160" width="40" height="160"/>
  </g>
  <g>
    <path style="fill: none; fill-opacity:0; stroke-width: 1.2; stroke-linecap: round; stroke: #000000" d="M 98.3131 181.427 L 90.3303,181.64 L 90.4653,183.031 C 90.4678,184.505 90.7429,185.531 91.332,186.176 C 91.7472,186.838 92.7333,187.234 94.2489,187.297 C 95.6399,187.163 96.5833,186.755 97.2282,186.166 C 97.9639,185.428 98.3844,184.334 98.448,182.818 L 98.3131,181.427"/>
    <path style="fill: none; fill-opacity:0; stroke-width: 1.2; stroke-linecap: round; stroke: #000000" d="M 99.7353 180.166 L 99.5743,182.849 C 99.6443,185.019 99.2576,186.461 98.3233,187.324 C 97.3475,188.12 95.9902,188.603 94.3838,188.688 C 92.6113,188.509 91.3021,188.04 90.4392,187.105 C 89.7256,186.262 89.3091,184.863 89.1729,182.735 L 89.3338,180.052 L 99.7353,180.166"/>
    <path style="fill: none; fill-opacity:0; stroke-width: 1.2; stroke-linecap: round; stroke: #000000" d="M 93.4883 197.551 L 93.0575,197.452 L 92.7825,191.722 C 91.8054,191.782 91.1268,192.023 90.5974,192.355 C 90.151,192.82 90.003,193.466 89.9381,194.245 C 90.0134,194.659 90.0886,195.072 90.3378,195.47 C 90.5376,196.082 90.6712,196.736 90.8049,197.39 L 89.6786,197.359 C 89.3464,196.829 89.1881,196.283 89.1128,195.869 C 89.0623,195.348 89.0532,194.892 88.9779,194.478 C 88.9261,193.22 89.2803,192.167 89.933,191.297 C 90.6688,190.558 91.6537,190.217 92.9123,190.165 C 94.3864,190.163 95.4387,190.517 96.094,191.12 C 96.7661,191.897 97.1735,192.841 97.2254,194.099 C 97.2435,195.01 96.9386,195.847 96.2028,196.586 C 95.5579,197.175 94.6807,197.541 93.4883,197.551 L 93.4883,197.551"/>
    <path style="fill: none; fill-opacity:0; stroke-width: 1.2; stroke-linecap: round; stroke: #000000" d="M 94.0489 196.093 C 94.4628,196.017 95.0091,195.859 95.5385,195.527 C 96.0679,195.195 96.2742,194.788 96.2652,194.333 C 96.2639,193.596 95.9979,193.025 95.5334,192.579 C 95.2012,192.049 94.6459,191.752 93.9088,191.753 L 94.0489,196.093"/>
    <path style="fill: none; fill-opacity:0; stroke-width: 1.2; stroke-linecap: round; stroke: #000000" d="M 92.8224 205.163 C 93.8163,205.277 94.6442,205.126 95.1736,204.794 C 95.8354,204.379 96.1988,203.782 96.2637,203.004 C 96.2624,202.266 95.9302,201.737 95.2671,201.415 C 94.7364,201.01 93.941,200.772 92.9471,200.657 C 92.1685,200.592 91.5561,200.792 91.0266,201.124 C 90.3649,201.54 90.0015,202.137 89.9366,202.915 C 89.9379,203.652 90.2701,204.182 90.9331,204.503 C 91.4638,204.908 92.0438,205.098 92.8224,205.163 L 92.8224,205.163"/>
    <path style="fill: none; fill-opacity:0; stroke-width: 1.2; stroke-linecap: round; stroke: #000000" d="M 95.8952 200.652 C 96.2352,200.9 96.5751,201.148 96.8242,201.545 C 97.0319,201.876 97.124,202.464 97.1252,203.201 C 97.0603,203.979 96.6723,204.684 95.9366,205.422 C 95.2917,206.011 94.2653,206.286 92.7912,206.289 C 91.5987,206.299 90.6541,205.97 90.0404,205.432 C 89.2527,204.912 88.8791,204.316 88.8778,203.579 C 88.9427,202.801 89.0244,202.196 89.2723,201.856 C 89.5448,201.409 89.9003,201.093 90.4298,200.761 L 89.3035,200.73 L 89.3346,199.604 L 100.001,199.552 L 99.9696,200.678 L 95.8952,200.652"/>
    <path style="fill: none; fill-opacity:0; stroke-width: 1.2; stroke-linecap: round; stroke: #000000" d="M 92.1073 208.286 L 96.8773,208.244 L 97.0122,209.635 L 92.2423,209.677 C 91.4637,209.612 90.9174,209.77 90.5865,209.978 C 90.0571,210.31 89.8093,210.65 89.8599,211.172 C 89.8611,211.909 90.1271,212.48 90.5916,212.926 C 91.1223,213.331 91.7024,213.52 92.4809,213.585 L 96.82,213.445 L 96.955,214.836 L 89.2369,214.883 L 89.102,213.492 L 90.2283,213.523 C 89.8468,213.209 89.5069,212.961 89.2993,212.63 C 89.0501,212.233 88.9749,211.819 88.8996,211.405 C 88.9723,210.345 89.3435,209.467 89.9222,208.919 C 90.4516,208.587 91.1303,208.346 92.1073,208.286 L 92.1073,208.286"/>
    <path style="fill: none; fill-opacity:0; stroke-width: 1.2; stroke-linecap: round; stroke: #000000" d="M 97.3132 211.291 L 97.3132,211.291"/>
    <path style="fill: none; fill-opacity:0; stroke-width: 1.2; stroke-linecap: round; stroke: #000000" d="M 93.1671 222.47 C 93.9041,222.469 94.5581,222.335 95.0875,222.003 C 95.7493,221.588 96.1127,220.991 96.1776,220.212 C 96.0608,219.732 95.7286,219.203 95.1811,218.624 C 94.6504,218.219 94.0288,217.963 93.2918,217.965 C 92.2317,217.892 91.3791,218.15 90.8419,218.764 C 90.3955,219.228 90.2307,219.701 90.2813,220.222 C 90.2826,220.959 90.4656,221.398 90.847,221.712 C 91.3777,222.117 92.1732,222.356 93.1671,222.47 L 93.1671,222.47"/>
    <path style="fill: none; fill-opacity:0; stroke-width: 1.2; stroke-linecap: round; stroke: #000000" d="M 89.9231 223.767 C 88.7306,223.778 87.786,223.448 87.1722,222.911 C 86.5832,222.266 86.2173,221.389 86.2069,220.196 C 86.2809,219.873 86.3795,219.442 86.5028,218.904 C 86.5768,218.581 86.6507,218.258 86.7001,218.042 L 87.8264,218.073 C 87.694,218.156 87.537,218.347 87.463,218.67 C 87.3397,219.209 87.2826,219.706 87.3332,220.227 C 87.3345,220.964 87.5174,221.403 87.8989,221.717 C 88.2311,222.246 88.8773,222.394 89.7882,222.376 L 90.4837,222.309 C 90.1022,221.995 89.7623,221.747 89.5547,221.416 C 89.3055,221.019 89.2303,220.605 89.155,220.191 C 89.2277,219.131 89.5989,218.253 90.1776,217.705 C 91.0379,217.165 92.0643,216.89 93.323,216.838 C 94.5154,216.828 95.4186,217.091 96.0738,217.695 C 96.8199,218.149 97.2105,218.918 97.1378,219.979 C 97.1469,220.434 97.0482,220.865 96.8419,221.271 C 96.5279,221.652 96.2138,222.034 95.6844,222.366 L 96.8107,222.397 L 96.9456,223.788 L 89.9231,223.767"/>
    <path style="fill: none; fill-opacity:0; stroke-width: 1.2; stroke-linecap: round; stroke: #000000" d="M 92.8436 236.507 C 93.8376,236.621 94.6655,236.471 95.1949,236.139 C 95.8567,235.723 96.22,235.127 96.2849,234.348 C 96.2836,233.611 95.9514,233.082 95.2884,232.76 C 94.7577,232.355 93.9623,232.116 92.9683,232.002 C 92.1898,231.937 91.5773,232.137 91.0479,232.469 C 90.3861,232.884 90.0228,233.481 89.9579,234.26 C 89.9591,234.997 90.2913,235.526 90.9544,235.848 C 91.4851,236.253 92.0651,236.442 92.8436,236.507 L 92.8436,236.507"/>
    <path style="fill: none; fill-opacity:0; stroke-width: 1.2; stroke-linecap: round; stroke: #000000" d="M 95.9164 231.997 C 96.2564,232.245 96.5964,232.492 96.8455,232.89 C 97.0531,233.22 97.1452,233.808 97.1465,234.545 C 97.0816,235.324 96.6936,236.028 95.9578,236.767 C 95.3129,237.356 94.2865,237.631 92.8125,237.633 C 91.62,237.644 90.6754,237.314 90.0616,236.777 C 89.274,236.257 88.9003,235.661 88.899,234.924 C 88.9639,234.145 89.0457,233.541 89.2935,233.201 C 89.566,232.753 89.9216,232.438 90.451,232.106 L 89.3247,232.074 L 89.3559,230.948 L 100.022,230.896 L 99.9909,232.023 L 95.9164,231.997"/>
    <path style="fill: none; fill-opacity:0; stroke-width: 1.2; stroke-linecap: round; stroke: #000000" d="M 92.1286 239.63 L 96.8985,239.589 L 97.0334,240.98 L 92.2635,241.021 C 91.485,240.956 90.9387,241.115 90.6078,241.322 C 90.0784,241.655 89.8305,241.994 89.8811,242.516 C 89.8824,243.253 90.1484,243.824 90.6129,244.27 C 91.1436,244.675 91.7236,244.865 92.5022,244.93 L 96.8413,244.79 L 96.9762,246.181 L 89.2582,246.227 L 89.1232,244.836 L 90.2495,244.867 C 89.8681,244.553 89.5281,244.305 89.3205,243.975 C 89.0714,243.578 88.9961,243.164 88.9209,242.75 C 88.9936,241.69 89.3647,240.811 89.9434,240.264 C 90.4729,239.931 91.1515,239.69 92.1286,239.63 L 92.1286,239.63"/>
    <path style="fill: none; fill-opacity:0; stroke-width: 1.2; stroke-linecap: round; stroke: #000000" d="M 97.3344 242.636 L 97.3344,242.636"/>
    <path style="fill: none; fill-opacity:0; stroke-width: 1.2; stroke-linecap: round; stroke: #000000" d="M 96.832 253.742 L 95.7057,253.711 C 95.7135,253.429 95.7874,253.106 95.9029,252.849 C 96.1092,252.443 96.2079,252.012 96.1988,251.557 C 96.1975,250.82 96.0639,250.166 95.7317,249.636 C 95.4826,249.239 95.2672,249.19 95.1348,249.273 C 94.6132,249.323 94.307,249.423 94.1746,249.506 C 94.0591,249.763 93.8943,250.236 93.614,250.965 L 93.5154,251.396 C 93.4012,252.39 93.1871,253.077 92.8562,253.285 C 92.4098,253.749 92.0127,253.999 91.5326,254.115 C 90.7541,254.05 90.1741,253.861 89.6434,253.456 C 89.1788,253.01 88.896,252.265 89.0102,251.271 C 88.9596,250.749 89.0167,250.252 89.14,249.714 C 89.0894,249.192 89.2127,248.654 89.5345,247.991 L 90.8269,248.287 C 90.5129,248.668 90.3065,249.074 90.1002,249.48 C 89.9769,250.019 89.9198,250.516 89.9704,251.037 C 90.0457,251.451 90.1209,251.865 90.37,252.262 C 90.5776,252.593 90.8346,252.709 90.9669,252.626 C 91.447,252.509 91.7948,252.475 91.9271,252.392 C 92.1257,252.268 92.332,251.861 92.6538,251.198 L 92.8511,250.337 C 92.8498,249.6 92.9316,248.995 93.2456,248.614 C 93.775,248.281 94.3875,248.082 95.166,248.146 C 95.5799,248.071 96.0276,248.344 96.3598,248.873 C 96.9073,249.452 97.2564,250.155 97.2577,250.892 C 97.2667,251.348 97.2096,251.845 97.1279,252.449 C 96.9384,253.029 96.8398,253.46 96.832,253.742 L 96.832,253.742"/>
    <path style="fill: none; fill-opacity:0; stroke-width: 1.2; stroke-linecap: round; stroke: #000000" d="M 96.7862 265.576 L 95.6599,265.545 C 95.6677,265.263 95.7417,264.94 95.8572,264.683 C 96.0635,264.277 96.1622,263.846 96.1531,263.391 C 96.1518,262.654 96.0182,262 95.686,261.47 C 95.4369,261.073 95.2215,261.024 95.0891,261.107 C 94.5675,261.157 94.2613,261.257 94.1289,261.34 C 94.0134,261.597 93.8486,262.07 93.5683,262.799 L 93.4697,263.23 C 93.3555,264.224 93.1413,264.911 92.8105,265.119 C 92.3641,265.583 91.967,265.832 91.4869,265.949 C 90.7083,265.884 90.1283,265.695 89.5976,265.29 C 89.1331,264.844 88.8502,264.099 88.9645,263.105 C 88.9139,262.583 88.971,262.086 89.0943,261.548 C 89.0437,261.026 89.167,260.488 89.4888,259.825 L 90.7812,260.12 C 90.4671,260.502 90.2608,260.908 90.0545,261.314 C 89.9312,261.853 89.8741,262.35 89.9247,262.871 C 89.9999,263.285 90.0752,263.699 90.3243,264.096 C 90.5319,264.427 90.7888,264.543 90.9212,264.46 C 91.4013,264.343 91.7491,264.309 91.8814,264.226 C 92.0799,264.102 92.2863,263.695 92.6081,263.032 L 92.8053,262.171 C 92.8041,261.434 92.8858,260.829 93.1999,260.448 C 93.7293,260.115 94.3417,259.916 95.1203,259.98 C 95.5342,259.905 95.9819,260.178 96.3141,260.707 C 96.8616,261.286 97.2106,261.989 97.2119,262.726 C 97.221,263.182 97.1639,263.679 97.0821,264.283 C 96.8927,264.863 96.794,265.294 96.7862,265.576 L 96.7862,265.576"/>
    <path style="fill: none; fill-opacity:0; stroke-width: 1.2; stroke-linecap: round; stroke: #000000" d="M 99.9705 268.005 L 99.9393,269.131 L 89.2731,269.183 L 89.3043,268.056 L 99.9705,268.005"/>
    <path style="fill: none; fill-opacity:0; stroke-width: 1.2; stroke-linecap: round; stroke: #000000" d="M 93.3085 275.32 C 93.1826,274.385 92.8751,273.748 92.4106,273.301 C 92.1615,272.904 91.863,272.723 91.6476,272.673 C 91.126,272.724 90.7536,272.865 90.4227,273.073 C 90.0918,273.281 89.9101,273.579 89.9607,274.101 C 89.962,274.838 90.2942,275.367 90.9572,275.689 C 91.571,276.226 92.234,276.548 93.0126,276.613 L 93.4434,276.711 L 93.3085,275.32"/>
    <path style="fill: none; fill-opacity:0; stroke-width: 1.2; stroke-linecap: round; stroke: #000000" d="M 93.6769 277.672 L 89.3378,277.812 L 89.369,276.685 L 90.4953,276.717 C 89.9152,276.527 89.5999,276.172 89.4001,275.559 C 89.151,275.162 89.0758,274.748 89.0005,274.334 C 88.9408,273.357 89.1796,272.562 89.7584,272.014 C 90.1632,271.483 90.7342,271.217 91.5127,271.282 C 92.3821,271.198 93.0698,271.412 93.402,271.942 C 93.8172,272.603 94.0507,273.564 94.1026,274.822 L 94.1389,276.644 L 94.5697,276.743 C 94.9836,276.667 95.3145,276.46 95.6285,276.078 C 96.0334,275.548 96.1982,275.075 96.1891,274.62 C 96.0723,274.14 96.0218,273.618 95.8881,272.964 C 95.7714,272.484 95.6961,272.07 95.4885,271.739 L 96.6148,271.77 C 96.7484,272.424 96.799,272.946 96.9158,273.426 C 97.1234,273.757 97.1571,274.105 97.1493,274.386 C 97.1597,275.579 96.7886,276.457 96.1268,276.872 C 95.6804,277.337 94.8694,277.661 93.6769,277.672 L 93.6769,277.672"/>
    <path style="fill: none; fill-opacity:0; stroke-width: 1.2; stroke-linecap: round; stroke: #000000" d="M 96.8105 279.579 L 96.9454,280.97 L 90.5561,283.134 L 96.9868,285.74 L 97.1218,287.131 L 89.1339,284.396 L 89.0976,282.574 L 96.8105,279.579"/>
    <path style="fill: none; fill-opacity:0; stroke-width: 1.2; stroke-linecap: round; stroke: #000000" d="M 93.4844 295.593 L 93.0536,295.494 L 92.7787,289.764 C 91.8016,289.824 91.1229,290.065 90.5935,290.397 C 90.1471,290.862 89.9992,291.508 89.9343,292.286 C 90.0095,292.7 90.0848,293.114 90.3339,293.511 C 90.5337,294.124 90.6674,294.778 90.801,295.432 L 89.6747,295.401 C 89.3425,294.871 89.1842,294.325 89.109,293.911 C 89.0584,293.389 89.0493,292.934 88.9741,292.52 C 88.9222,291.261 89.2765,290.209 89.9292,289.338 C 90.6649,288.6 91.6498,288.259 92.9085,288.207 C 94.3825,288.204 95.4349,288.558 96.0901,289.162 C 96.7623,289.939 97.1697,290.883 97.2215,292.141 C 97.2397,293.052 96.9347,293.889 96.199,294.627 C 95.5541,295.216 94.6769,295.582 93.4844,295.593 L 93.4844,295.593"/>
    <path style="fill: none; fill-opacity:0; stroke-width: 1.2; stroke-linecap: round; stroke: #000000" d="M 94.045 294.134 C 94.4589,294.059 95.0052,293.901 95.5346,293.568 C 96.0641,293.236 96.2704,292.83 96.2613,292.375 C 96.26,291.638 95.9941,291.067 95.5295,290.62 C 95.1974,290.091 94.642,289.794 93.905,289.795 L 94.045,294.134"/>
  </g>
  <g>
    <rect style="fill: #ffffff" x="300" y="140" width="40" height="180"/>
    <rect style="fill: none; fill-opacity:0; stroke-width: 2; stroke-linecap: round; stroke: #000000" x="300" y="140" width="40" height="180"/>
  </g>
  <g>
    <path style="fill: none; fill-opacity:0; stroke-width: 1.2; stroke-linecap: round; stroke: #000000" d="M 313.974 161.567 L 310.33,161.64 L 310.268,163.893 C 310.269,164.63 310.452,165.068 310.834,165.382 C 311.041,165.713 311.514,165.878 312.292,165.943 C 313.029,165.941 313.468,165.759 313.517,165.543 C 313.723,165.137 313.847,164.598 313.912,163.82 L 313.974,161.567"/>
    <path style="fill: none; fill-opacity:0; stroke-width: 1.2; stroke-linecap: round; stroke: #000000" d="M 318.313 161.427 L 315.1,161.598 L 315.137,163.42 C 315.072,164.199 315.188,164.679 315.438,165.076 C 315.902,165.522 316.308,165.729 316.631,165.803 C 317.244,165.603 317.641,165.354 317.955,164.972 C 318.161,164.566 318.284,164.028 318.349,163.249 L 318.313,161.427"/>
    <path style="fill: none; fill-opacity:0; stroke-width: 1.2; stroke-linecap: round; stroke: #000000" d="M 319.735 160.166 L 319.642,163.545 C 319.652,164.737 319.413,165.533 318.884,165.865 C 318.438,166.33 317.734,166.679 316.865,166.763 C 316.343,166.814 315.912,166.715 315.572,166.467 C 315.323,166.07 315.074,165.673 314.742,165.143 C 314.42,165.807 314.082,166.296 313.751,166.503 C 313.304,166.968 312.733,167.234 311.996,167.235 C 311.085,167.253 310.356,166.973 309.941,166.311 C 309.476,165.865 309.152,165.054 309.142,163.861 L 309.334,160.052 L 319.735,160.166"/>
    <path style="fill: none; fill-opacity:0; stroke-width: 1.2; stroke-linecap: round; stroke: #000000" d="M 312.108 169.471 L 316.878,169.429 L 317.013,170.82 L 312.243,170.862 C 311.464,170.797 310.918,170.955 310.587,171.163 C 310.141,171.627 309.976,172.1 310.026,172.621 C 310.028,173.358 310.211,173.797 310.592,174.111 C 311.123,174.516 311.703,174.705 312.481,174.77 L 316.821,174.63 L 316.955,176.021 L 309.237,176.068 L 309.102,174.677 L 310.229,174.708 C 309.847,174.394 309.507,174.146 309.3,173.815 C 309.051,173.418 308.975,173.004 308.9,172.59 C 308.84,171.613 309.079,170.818 309.658,170.27 C 310.32,169.855 311.131,169.531 312.108,169.471 L 312.108,169.471"/>
    <path style="fill: none; fill-opacity:0; stroke-width: 1.2; stroke-linecap: round; stroke: #000000" d="M 317.215 172.907 L 317.215,172.907"/>
    <path style="fill: none; fill-opacity:0; stroke-width: 1.2; stroke-linecap: round; stroke: #000000" d="M 316.547 183.748 L 315.42,183.717 C 315.627,183.311 315.767,182.946 315.882,182.689 C 316.088,182.283 316.187,181.853 316.178,181.397 C 316.177,180.66 316.085,180.072 315.877,179.741 C 315.628,179.344 315.329,179.163 315.114,179.113 C 314.592,179.164 314.22,179.305 313.889,179.513 C 313.774,179.77 313.758,180.333 313.759,181.07 L 313.661,181.501 C 313.463,182.362 313.166,182.918 312.835,183.125 C 312.389,183.59 311.992,183.839 311.512,183.956 C 310.733,183.891 310.153,183.701 309.623,183.297 C 309.158,182.85 308.875,182.105 308.989,181.111 C 308.939,180.59 308.996,180.093 309.119,179.554 C 309.069,179.033 309.192,178.494 309.514,177.831 L 310.806,178.127 C 310.492,178.509 310.327,178.981 310.246,179.586 C 310.122,180.124 310.065,180.621 310.116,181.143 C 309.992,181.681 310.092,181.987 310.349,182.103 C 310.557,182.434 310.814,182.549 310.946,182.466 C 311.551,182.548 311.857,182.448 311.906,182.233 C 312.105,182.108 312.311,181.702 312.633,181.039 L 312.83,180.177 C 312.829,179.44 312.911,178.836 313.225,178.454 C 313.556,178.246 314.102,178.088 314.881,178.153 C 315.294,178.078 315.85,178.375 316.505,178.978 C 317.053,179.557 317.402,180.26 317.403,180.997 C 317.214,181.577 317.049,182.05 316.842,182.456 C 316.851,182.911 316.753,183.342 316.547,183.748 L 316.547,183.748"/>
    <path style="fill: none; fill-opacity:0; stroke-width: 1.2; stroke-linecap: round; stroke: #000000" d="M 315.674 196.47 C 316.014,196.718 316.437,197.098 316.769,197.627 C 317.234,198.074 317.5,198.645 317.501,199.382 C 317.312,199.962 317.039,200.409 316.51,200.742 C 315.931,201.289 315.12,201.613 314.06,201.541 L 309.29,201.582 L 309.155,200.191 L 313.925,200.15 C 314.662,200.148 315.25,200.056 315.581,199.849 C 315.995,199.773 316.176,199.475 316.043,198.821 C 316.041,198.084 315.775,197.513 315.311,197.067 C 314.78,196.662 314.2,196.472 313.588,196.672 L 309.082,196.548 L 309.114,195.421 L 313.884,195.38 C 314.621,195.379 315.142,195.328 315.539,195.079 C 316.069,194.747 316.275,194.341 316.266,193.885 C 316.265,193.148 315.933,192.619 315.269,192.297 C 314.739,191.892 314.159,191.702 313.546,191.902 L 309.041,191.778 L 309.337,190.485 L 317.055,190.439 L 316.759,191.731 L 315.633,191.7 C 316.171,191.823 316.577,192.03 316.827,192.427 C 317.159,192.956 317.292,193.61 317.294,194.347 C 317.303,194.802 317.096,195.209 316.567,195.541 C 316.253,195.922 316.005,196.262 315.674,196.47 L 315.674,196.47"/>
    <path style="fill: none; fill-opacity:0; stroke-width: 1.2; stroke-linecap: round; stroke: #000000" d="M 313.284 207.654 C 313.158,206.718 312.85,206.081 312.386,205.635 C 312.137,205.238 311.838,205.056 311.623,205.007 C 311.101,205.057 310.729,205.199 310.398,205.406 C 310.15,205.746 310.052,206.177 310.102,206.699 C 310.103,207.436 310.369,208.007 310.834,208.453 C 311.365,208.858 311.945,209.047 312.723,209.112 L 313.154,209.211 L 313.284,207.654"/>
    <path style="fill: none; fill-opacity:0; stroke-width: 1.2; stroke-linecap: round; stroke: #000000" d="M 313.818 210.27 L 309.313,210.145 L 309.08,209.185 L 310.206,209.216 C 309.824,208.902 309.443,208.588 309.111,208.058 C 308.862,207.661 308.853,207.206 308.976,206.667 C 308.916,205.69 309.023,204.978 309.469,204.513 C 309.874,203.983 310.445,203.717 311.223,203.782 C 312.093,203.697 312.78,203.911 313.113,204.441 C 313.528,205.103 313.761,206.063 313.813,207.321 L 313.849,209.143 L 314.28,209.242 C 314.694,209.167 315.157,208.876 315.604,208.412 C 316.009,207.881 316.173,207.408 316.164,206.953 C 316.048,206.473 315.997,205.951 315.863,205.297 C 315.747,204.817 315.713,204.469 315.63,204.337 L 316.59,204.104 C 316.724,204.758 316.774,205.279 316.891,205.759 C 317.223,206.289 317.299,206.703 317.291,206.984 C 317.301,208.177 316.93,209.055 316.268,209.47 C 315.822,209.935 315.011,210.259 313.818,210.27 L 313.818,210.27"/>
    <path style="fill: none; fill-opacity:0; stroke-width: 1.2; stroke-linecap: round; stroke: #000000" d="M 316.531 217.975 L 315.405,217.944 C 315.611,217.537 315.752,217.173 315.867,216.916 C 316.073,216.51 316.172,216.079 316.163,215.624 C 316.162,214.886 316.069,214.299 315.862,213.968 C 315.613,213.571 315.314,213.389 315.099,213.34 C 314.577,213.39 314.205,213.532 313.874,213.739 C 313.759,213.996 313.743,214.559 313.744,215.296 L 313.646,215.727 C 313.448,216.589 313.151,217.144 312.82,217.352 C 312.374,217.816 311.977,218.065 311.497,218.182 C 310.718,218.117 310.138,217.928 309.607,217.523 C 309.143,217.077 308.86,216.332 308.974,215.338 C 308.924,214.816 308.981,214.319 309.104,213.781 C 309.053,213.259 309.177,212.721 309.499,212.058 L 310.791,212.353 C 310.477,212.735 310.312,213.207 310.23,213.812 C 310.107,214.35 310.05,214.847 310.101,215.369 C 309.977,215.908 310.077,216.214 310.334,216.329 C 310.542,216.66 310.799,216.776 310.931,216.693 C 311.536,216.774 311.842,216.674 311.891,216.459 C 312.09,216.334 312.296,215.928 312.618,215.265 L 312.815,214.404 C 312.814,213.667 312.896,213.062 313.21,212.681 C 313.541,212.473 314.087,212.315 314.865,212.38 C 315.279,212.304 315.835,212.601 316.49,213.205 C 317.038,213.784 317.387,214.487 317.388,215.224 C 317.198,215.804 317.034,216.276 316.827,216.682 C 316.836,217.138 316.738,217.569 316.531,217.975 L 316.531,217.975"/>
    <path style="fill: none; fill-opacity:0; stroke-width: 1.2; stroke-linecap: round; stroke: #000000" d="M 318.989 221.598 L 316.736,221.535 L 316.84,224.053 L 316.144,224.12 L 316.041,221.603 L 311.702,221.743 C 310.923,221.678 310.575,221.712 310.575,221.712 C 310.443,221.795 310.344,222.225 310.279,223.004 L 310.248,224.13 L 309.122,224.099 L 309.153,222.973 C 309.226,221.913 309.465,221.117 309.911,220.653 C 310.242,220.445 310.937,220.378 311.998,220.45 L 316.337,220.31 L 316.103,219.35 L 316.799,219.283 L 317.032,220.243 L 319.285,220.305 L 318.989,221.598"/>
    <path style="fill: none; fill-opacity:0; stroke-width: 1.2; stroke-linecap: round; stroke: #000000" d="M 313.244 232.58 L 312.813,232.482 L 312.803,226.585 C 311.826,226.645 311.189,226.953 310.784,227.483 C 310.338,227.948 310.19,228.594 310.125,229.373 C 310.2,229.786 310.275,230.2 310.524,230.597 C 310.6,231.011 310.692,231.599 310.825,232.253 L 309.699,232.222 C 309.367,231.693 309.209,231.146 309.133,230.732 C 309.083,230.211 309.074,229.755 308.999,229.341 C 308.947,228.083 309.301,227.03 309.954,226.16 C 310.491,225.546 311.41,225.246 312.668,225.194 C 314.142,225.192 315.236,225.612 316.016,226.414 C 316.887,227.067 317.36,227.969 317.412,229.227 C 317.298,230.221 316.819,231.075 315.959,231.615 C 315.314,232.204 314.437,232.57 313.244,232.58 L 313.244,232.58"/>
    <path style="fill: none; fill-opacity:0; stroke-width: 1.2; stroke-linecap: round; stroke: #000000" d="M 314.069 230.956 C 314.483,230.88 315.03,230.722 315.559,230.39 C 316.089,230.058 316.295,229.652 316.286,229.196 C 316.285,228.459 316.019,227.888 315.554,227.442 C 315.222,226.912 314.666,226.615 313.929,226.617 L 314.069,230.956"/>
    <path style="fill: none; fill-opacity:0; stroke-width: 1.2; stroke-linecap: round; stroke: #000000" d="M 315.822 238.894 C 315.83,238.613 315.921,238.464 315.921,238.464 C 316.053,238.381 316.169,238.124 316.284,237.867 C 316.283,237.13 315.951,236.6 315.288,236.278 C 314.559,235.998 313.871,235.784 313.134,235.785 L 309.059,235.759 L 309.355,234.467 L 317.073,234.42 L 316.777,235.713 L 315.651,235.682 C 316.19,235.805 316.596,236.011 316.845,236.408 C 317.177,236.938 317.311,237.592 317.312,238.329 C 317.395,238.461 317.387,238.743 317.379,239.024 L 315.822,238.894"/>
    <path style="fill: none; fill-opacity:0; stroke-width: 1.2; stroke-linecap: round; stroke: #000000" d="M 317.091 244.739 L 316.795,246.031 L 309.077,246.078 L 309.373,244.785 L 317.091,244.739"/>
    <path style="fill: none; fill-opacity:0; stroke-width: 1.2; stroke-linecap: round; stroke: #000000" d="M 320.039 244.734 L 319.743,246.026 L 318.186,245.896 L 318.482,244.604 L 320.039,244.734"/>
    <path style="fill: none; fill-opacity:0; stroke-width: 1.2; stroke-linecap: round; stroke: #000000" d="M 314.012 254.971 L 309.242,255.013 L 309.107,253.622 L 313.877,253.58 C 314.614,253.579 315.136,253.529 315.533,253.279 C 315.947,253.204 316.194,252.864 316.259,252.086 C 316.258,251.349 315.926,250.819 315.263,250.497 C 314.732,250.093 314.152,249.903 313.54,250.103 L 309.034,249.978 L 309.33,248.686 L 317.048,248.639 L 316.752,249.932 L 315.626,249.901 C 316.165,250.024 316.571,250.23 316.82,250.627 C 317.152,251.157 317.286,251.811 317.287,252.548 C 317.222,253.326 316.859,253.923 316.197,254.338 C 315.751,254.803 315.006,255.086 314.012,254.971 L 314.012,254.971"/>
    <path style="fill: none; fill-opacity:0; stroke-width: 1.2; stroke-linecap: round; stroke: #000000" d="M 318.996 258.946 L 316.743,258.884 L 316.847,261.401 L 316.151,261.469 L 316.048,258.951 L 311.708,259.091 C 310.93,259.026 310.582,259.06 310.582,259.06 C 310.45,259.143 310.351,259.574 310.286,260.352 L 310.255,261.479 L 309.129,261.448 L 309.16,260.321 C 309.233,259.261 309.471,258.466 309.918,258.001 C 310.249,257.794 310.944,257.726 312.004,257.799 L 316.343,257.659 L 316.11,256.699 L 316.805,256.631 L 317.039,257.591 L 319.292,257.654 L 318.996,258.946"/>
    <path style="fill: none; fill-opacity:0; stroke-width: 1.2; stroke-linecap: round; stroke: #000000" d="M 313.185 269.97 L 312.754,269.872 L 312.744,263.975 C 311.767,264.035 311.13,264.343 310.725,264.873 C 310.278,265.338 310.13,265.984 310.065,266.762 C 310.141,267.176 310.216,267.59 310.465,267.987 C 310.54,268.401 310.632,268.989 310.766,269.643 L 309.64,269.612 C 309.308,269.083 309.149,268.536 309.074,268.122 C 309.024,267.601 309.014,267.145 308.939,266.731 C 308.887,265.473 309.242,264.42 309.894,263.55 C 310.432,262.936 311.35,262.636 312.609,262.584 C 314.083,262.582 315.177,263.002 315.957,263.804 C 316.827,264.457 317.301,265.359 317.353,266.617 C 317.239,267.611 316.76,268.465 315.899,269.005 C 315.254,269.594 314.377,269.96 313.185,269.97 L 313.185,269.97"/>
    <path style="fill: none; fill-opacity:0; stroke-width: 1.2; stroke-linecap: round; stroke: #000000" d="M 314.01 268.346 C 314.424,268.27 314.97,268.112 315.5,267.78 C 316.029,267.448 316.236,267.042 316.226,266.586 C 316.225,265.849 315.959,265.278 315.495,264.832 C 315.162,264.302 314.607,264.005 313.87,264.007 L 314.01,268.346"/>
    <path style="fill: none; fill-opacity:0; stroke-width: 1.2; stroke-linecap: round; stroke: #000000" d="M 315.763 276.284 C 315.771,276.003 315.862,275.854 315.862,275.854 C 315.994,275.77 316.109,275.514 316.225,275.257 C 316.224,274.52 315.891,273.99 315.228,273.668 C 314.499,273.388 313.811,273.174 313.074,273.175 L 309,273.149 L 309.296,271.857 L 317.014,271.81 L 316.718,273.103 L 315.592,273.071 C 316.13,273.195 316.536,273.401 316.786,273.798 C 317.118,274.328 317.251,274.982 317.253,275.719 C 317.336,275.851 317.328,276.133 317.32,276.414 L 315.763,276.284"/>
    <path style="fill: none; fill-opacity:0; stroke-width: 1.2; stroke-linecap: round; stroke: #000000" d="M 319.805 281.403 L 318.845,281.637 L 318.876,280.511 C 318.759,280.031 318.684,279.617 318.476,279.286 C 318.352,279.087 318.028,279.013 317.615,279.088 L 316.919,279.156 L 316.955,280.978 L 316.26,281.045 L 316.224,279.223 L 309.201,279.202 L 309.066,277.811 L 316.089,277.832 L 316.384,276.54 L 317.08,276.473 L 316.784,277.765 L 317.215,277.864 C 318.084,277.779 318.689,277.861 318.938,278.258 C 319.403,278.704 319.71,279.342 319.836,280.277 L 319.805,281.403"/>
    <path style="fill: none; fill-opacity:0; stroke-width: 1.2; stroke-linecap: round; stroke: #000000" d="M 313.304 286.036 C 313.178,285.1 312.87,284.463 312.406,284.017 C 312.157,283.619 311.858,283.438 311.643,283.388 C 311.121,283.439 310.749,283.581 310.418,283.788 C 310.17,284.128 310.072,284.559 310.122,285.081 C 310.123,285.818 310.389,286.388 310.854,286.835 C 311.385,287.24 311.965,287.429 312.743,287.494 L 313.174,287.593 L 313.304,286.036"/>
    <path style="fill: none; fill-opacity:0; stroke-width: 1.2; stroke-linecap: round; stroke: #000000" d="M 313.838 288.652 L 309.333,288.527 L 309.1,287.567 L 310.226,287.598 C 309.844,287.284 309.463,286.97 309.131,286.44 C 308.882,286.043 308.873,285.588 308.996,285.049 C 308.936,284.072 309.043,283.36 309.489,282.895 C 309.894,282.365 310.465,282.099 311.243,282.164 C 312.113,282.079 312.8,282.293 313.133,282.823 C 313.548,283.485 313.781,284.445 313.833,285.703 L 313.869,287.525 L 314.3,287.624 C 314.714,287.549 315.177,287.258 315.624,286.793 C 316.029,286.263 316.193,285.79 316.184,285.335 C 316.068,284.855 316.017,284.333 315.883,283.679 C 315.767,283.199 315.733,282.851 315.65,282.719 L 316.61,282.486 C 316.744,283.139 316.794,283.661 316.911,284.141 C 317.243,284.671 317.319,285.085 317.311,285.366 C 317.321,286.559 316.95,287.437 316.288,287.852 C 315.842,288.317 315.031,288.641 313.838,288.652 L 313.838,288.652"/>
    <path style="fill: none; fill-opacity:0; stroke-width: 1.2; stroke-linecap: round; stroke: #000000" d="M 316.619 297.052 L 315.493,297.021 C 315.574,296.416 315.673,295.986 315.788,295.729 C 315.995,295.323 316.135,294.958 316.25,294.701 C 316.249,293.964 315.834,293.302 315.088,292.848 C 314.557,292.443 313.762,292.204 312.768,292.09 C 311.989,292.025 311.418,292.291 311.013,292.822 C 310.435,293.369 310.154,294.099 310.089,294.877 C 310.04,295.093 310.032,295.374 310.157,295.573 C 310.232,295.987 310.39,296.533 310.723,297.062 L 309.43,296.767 C 309.181,296.369 309.106,295.956 309.031,295.542 C 308.906,295.343 308.914,295.062 308.963,294.846 C 308.911,293.587 309.266,292.535 309.918,291.664 C 310.455,291.051 311.374,290.751 312.633,290.699 C 314.107,290.697 315.201,291.117 315.981,291.919 C 316.851,292.572 317.325,293.473 317.377,294.732 C 317.261,294.989 317.121,295.354 316.915,295.76 C 316.799,296.017 316.701,296.448 316.619,297.052 L 316.619,297.052"/>
    <path style="fill: none; fill-opacity:0; stroke-width: 1.2; stroke-linecap: round; stroke: #000000" d="M 313.189 305.845 L 312.758,305.746 L 312.748,299.85 C 311.771,299.909 311.134,300.217 310.729,300.748 C 310.283,301.212 310.135,301.858 310.07,302.637 C 310.145,303.051 310.22,303.465 310.469,303.862 C 310.545,304.276 310.637,304.864 310.77,305.517 L 309.644,305.486 C 309.312,304.957 309.154,304.411 309.078,303.997 C 309.028,303.475 309.019,303.02 308.943,302.606 C 308.892,301.347 309.246,300.295 309.899,299.424 C 310.436,298.81 311.354,298.511 312.613,298.459 C 314.087,298.456 315.181,298.877 315.961,299.678 C 316.832,300.331 317.305,301.233 317.357,302.492 C 317.243,303.486 316.764,304.339 315.904,304.879 C 315.259,305.468 314.382,305.834 313.189,305.845 L 313.189,305.845"/>
    <path style="fill: none; fill-opacity:0; stroke-width: 1.2; stroke-linecap: round; stroke: #000000" d="M 314.014 304.22 C 314.428,304.145 314.975,303.986 315.504,303.654 C 316.033,303.322 316.24,302.916 316.231,302.461 C 316.229,301.724 315.963,301.153 315.499,300.706 C 315.167,300.177 314.611,299.88 313.874,299.881 L 314.014,304.22"/>
  </g>
  <text font-size="27.0933" style="fill: #000000;text-anchor:middle;font-family:sans-serif;font-style:normal;font-weight:normal" x="210" y="199.375">
    <tspan x="210" y="199.375">ZipCPU</tspan>
  </text>
  <g>
    <rect style="fill: #ffffff" x="140" y="260" width="80" height="60"/>
    <rect style="fill: none; fill-opacity:0; stroke-width: 2; stroke-linecap: round; stroke: #000000" x="140" y="260" width="80" height="60"/>
  </g>
  <text font-size="12.8" style="fill: #000000;text-anchor:middle;font-family:sans-serif;font-style:normal;font-weight:normal" x="180" y="286.45">
    <tspan x="180" y="286.45">Register</tspan>
    <tspan x="180" y="302.45">File</tspan>
  </text>
  <text font-size="22.5778" style="fill: #000000;text-anchor:middle;font-family:sans-serif;font-style:normal;font-weight:normal" x="180" y="27.825">
    <tspan x="180" y="27.825">ZipBones</tspan>
  </text>
  <g>
    <rect style="fill: #ffffff" x="0" y="160" width="40" height="160"/>
    <rect style="fill: none; fill-opacity:0; stroke-width: 2; stroke-linecap: round; stroke: #000000" x="0" y="160" width="40" height="160"/>
  </g>
  <g>
    <path style="fill: none; fill-opacity:0; stroke-width: 1.2; stroke-linecap: round; stroke: #000000" d="M 18.3131 181.427 L 10.3303,181.64 L 10.4653,183.031 C 10.4678,184.505 10.7429,185.531 11.332,186.176 C 11.7472,186.838 12.7333,187.234 14.2489,187.297 C 15.6399,187.163 16.5833,186.755 17.2282,186.166 C 17.9639,185.428 18.3844,184.334 18.448,182.818 L 18.3131,181.427"/>
    <path style="fill: none; fill-opacity:0; stroke-width: 1.2; stroke-linecap: round; stroke: #000000" d="M 19.7353 180.166 L 19.5743,182.849 C 19.6443,185.019 19.2576,186.461 18.3233,187.324 C 17.3475,188.12 15.9902,188.603 14.3838,188.688 C 12.6113,188.509 11.3021,188.04 10.4392,187.105 C 9.72555,186.262 9.30907,184.863 9.17287,182.735 L 9.33384,180.052 L 19.7353,180.166"/>
    <path style="fill: none; fill-opacity:0; stroke-width: 1.2; stroke-linecap: round; stroke: #000000" d="M 13.4883 197.551 L 13.0575,197.452 L 12.7825,191.722 C 11.8054,191.782 11.1268,192.023 10.5974,192.355 C 10.151,192.82 10.003,193.466 9.93815,194.245 C 10.0134,194.659 10.0886,195.072 10.3378,195.47 C 10.5376,196.082 10.6712,196.736 10.8049,197.39 L 9.67855,197.359 C 9.34638,196.829 9.18809,196.283 9.11284,195.869 C 9.06225,195.348 9.05318,194.892 8.97793,194.478 C 8.92606,193.22 9.28033,192.167 9.93304,191.297 C 10.6688,190.558 11.6537,190.217 12.9123,190.165 C 14.3864,190.163 15.4387,190.517 16.094,191.12 C 16.7661,191.897 17.1735,192.841 17.2254,194.099 C 17.2435,195.01 16.9386,195.847 16.2028,196.586 C 15.5579,197.175 14.6807,197.541 13.4883,197.551 L 13.4883,197.551"/>
    <path style="fill: none; fill-opacity:0; stroke-width: 1.2; stroke-linecap: round; stroke: #000000" d="M 14.0489 196.093 C 14.4628,196.017 15.0091,195.859 15.5385,195.527 C 16.0679,195.195 16.2742,194.788 16.2652,194.333 C 16.2639,193.596 15.9979,193.025 15.5334,192.579 C 15.2012,192.049 14.6459,191.752 13.9088,191.753 L 14.0489,196.093"/>
    <path style="fill: none; fill-opacity:0; stroke-width: 1.2; stroke-linecap: round; stroke: #000000" d="M 12.8224 205.163 C 13.8163,205.277 14.6442,205.126 15.1736,204.794 C 15.8354,204.379 16.1988,203.782 16.2637,203.004 C 16.2624,202.266 15.9302,201.737 15.2671,201.415 C 14.7364,201.01 13.941,200.772 12.9471,200.657 C 12.1685,200.592 11.5561,200.792 11.0266,201.124 C 10.3649,201.54 10.0015,202.137 9.93663,202.915 C 9.9379,203.652 10.2701,204.182 10.9331,204.503 C 11.4638,204.908 12.0438,205.098 12.8224,205.163 L 12.8224,205.163"/>
    <path style="fill: none; fill-opacity:0; stroke-width: 1.2; stroke-linecap: round; stroke: #000000" d="M 15.8952 200.652 C 16.2352,200.9 16.5751,201.148 16.8242,201.545 C 17.0319,201.876 17.124,202.464 17.1252,203.201 C 17.0603,203.979 16.6723,204.684 15.9366,205.422 C 15.2917,206.011 14.2653,206.286 12.7912,206.289 C 11.5987,206.299 10.6541,205.97 10.0404,205.432 C 9.25275,204.912 8.87906,204.316 8.87778,203.579 C 8.94268,202.801 9.02444,202.196 9.27229,201.856 C 9.54479,201.409 9.90034,201.093 10.4298,200.761 L 9.30346,200.73 L 9.33463,199.604 L 20.0008,199.552 L 19.9696,200.678 L 15.8952,200.652"/>
    <path style="fill: none; fill-opacity:0; stroke-width: 1.2; stroke-linecap: round; stroke: #000000" d="M 12.1073 208.286 L 16.8773,208.244 L 17.0122,209.635 L 12.2423,209.677 C 11.4637,209.612 10.9174,209.77 10.5865,209.978 C 10.0571,210.31 9.80926,210.65 9.85985,211.172 C 9.86113,211.909 10.1271,212.48 10.5916,212.926 C 11.1223,213.331 11.7024,213.52 12.4809,213.585 L 16.82,213.445 L 16.955,214.836 L 9.23692,214.883 L 9.102,213.492 L 10.2283,213.523 C 9.84682,213.209 9.50686,212.961 9.29926,212.63 C 9.05013,212.233 8.97488,211.819 8.89963,211.405 C 8.97233,210.345 9.34346,209.467 9.9222,208.919 C 10.4516,208.587 11.1303,208.346 12.1073,208.286 L 12.1073,208.286"/>
    <path style="fill: none; fill-opacity:0; stroke-width: 1.2; stroke-linecap: round; stroke: #000000" d="M 17.3132 211.291 L 17.3132,211.291"/>
    <path style="fill: none; fill-opacity:0; stroke-width: 1.2; stroke-linecap: round; stroke: #000000" d="M 13.1671 222.47 C 13.9041,222.469 14.5581,222.335 15.0875,222.003 C 15.7493,221.588 16.1127,220.991 16.1776,220.212 C 16.0608,219.732 15.7286,219.203 15.1811,218.624 C 14.6504,218.219 14.0288,217.963 13.2918,217.965 C 12.2317,217.892 11.3791,218.15 10.8419,218.764 C 10.3955,219.228 10.2307,219.701 10.2813,220.222 C 10.2826,220.959 10.4656,221.398 10.847,221.712 C 11.3777,222.117 12.1732,222.356 13.1671,222.47 L 13.1671,222.47"/>
    <path style="fill: none; fill-opacity:0; stroke-width: 1.2; stroke-linecap: round; stroke: #000000" d="M 9.92311 223.767 C 8.73063,223.778 7.78599,223.448 7.17225,222.911 C 6.58316,222.266 6.21726,221.389 6.20691,220.196 C 6.28089,219.873 6.37951,219.442 6.5028,218.904 C 6.57677,218.581 6.65074,218.258 6.70005,218.042 L 7.82636,218.073 C 7.694,218.156 7.53699,218.347 7.46302,218.67 C 7.33973,219.209 7.28263,219.706 7.33322,220.227 C 7.3345,220.964 7.51744,221.403 7.89893,221.717 C 8.23109,222.246 8.87729,222.394 9.78819,222.376 L 10.4837,222.309 C 10.1022,221.995 9.76226,221.747 9.55465,221.416 C 9.30553,221.019 9.23028,220.605 9.15503,220.191 C 9.22772,219.131 9.59885,218.253 10.1776,217.705 C 11.0379,217.165 12.0643,216.89 13.323,216.838 C 14.5154,216.828 15.4186,217.091 16.0738,217.695 C 16.8199,218.149 17.2105,218.918 17.1378,219.979 C 17.1469,220.434 17.0482,220.865 16.8419,221.271 C 16.5279,221.652 16.2138,222.034 15.6844,222.366 L 16.8107,222.397 L 16.9456,223.788 L 9.92311,223.767"/>
    <path style="fill: none; fill-opacity:0; stroke-width: 1.2; stroke-linecap: round; stroke: #000000" d="M 12.8436 236.507 C 13.8376,236.621 14.6655,236.471 15.1949,236.139 C 15.8567,235.723 16.22,235.127 16.2849,234.348 C 16.2836,233.611 15.9514,233.082 15.2884,232.76 C 14.7577,232.355 13.9623,232.116 12.9683,232.002 C 12.1898,231.937 11.5773,232.137 11.0479,232.469 C 10.3861,232.884 10.0228,233.481 9.95787,234.26 C 9.95915,234.997 10.2913,235.526 10.9544,235.848 C 11.4851,236.253 12.0651,236.442 12.8436,236.507 L 12.8436,236.507"/>
    <path style="fill: none; fill-opacity:0; stroke-width: 1.2; stroke-linecap: round; stroke: #000000" d="M 15.9164 231.997 C 16.2564,232.245 16.5964,232.492 16.8455,232.89 C 17.0531,233.22 17.1452,233.808 17.1465,234.545 C 17.0816,235.324 16.6936,236.028 15.9578,236.767 C 15.3129,237.356 14.2865,237.631 12.8125,237.633 C 11.62,237.644 10.6754,237.314 10.0616,236.777 C 9.27399,236.257 8.9003,235.661 8.89902,234.924 C 8.96392,234.145 9.04568,233.541 9.29353,233.201 C 9.56604,232.753 9.92158,232.438 10.451,232.106 L 9.3247,232.074 L 9.35587,230.948 L 20.022,230.896 L 19.9909,232.023 L 15.9164,231.997"/>
    <path style="fill: none; fill-opacity:0; stroke-width: 1.2; stroke-linecap: round; stroke: #000000" d="M 12.1286 239.63 L 16.8985,239.589 L 17.0334,240.98 L 12.2635,241.021 C 11.485,240.956 10.9387,241.115 10.6078,241.322 C 10.0784,241.655 9.8305,241.994 9.8811,242.516 C 9.88237,243.253 10.1484,243.824 10.6129,244.27 C 11.1436,244.675 11.7236,244.865 12.5022,244.93 L 16.8413,244.79 L 16.9762,246.181 L 9.25816,246.227 L 9.12324,244.836 L 10.2495,244.867 C 9.86807,244.553 9.52811,244.305 9.3205,243.975 C 9.07137,243.578 8.99613,243.164 8.92088,242.75 C 8.99357,241.69 9.3647,240.811 9.94344,240.264 C 10.4729,239.931 11.1515,239.69 12.1286,239.63 L 12.1286,239.63"/>
    <path style="fill: none; fill-opacity:0; stroke-width: 1.2; stroke-linecap: round; stroke: #000000" d="M 17.3344 242.636 L 17.3344,242.636"/>
    <path style="fill: none; fill-opacity:0; stroke-width: 1.2; stroke-linecap: round; stroke: #000000" d="M 16.832 253.742 L 15.7057,253.711 C 15.7135,253.429 15.7874,253.106 15.9029,252.849 C 16.1092,252.443 16.2079,252.012 16.1988,251.557 C 16.1975,250.82 16.0639,250.166 15.7317,249.636 C 15.4826,249.239 15.2672,249.19 15.1348,249.273 C 14.6132,249.323 14.307,249.423 14.1746,249.506 C 14.0591,249.763 13.8943,250.236 13.614,250.965 L 13.5154,251.396 C 13.4012,252.39 13.1871,253.077 12.8562,253.285 C 12.4098,253.749 12.0127,253.999 11.5326,254.115 C 10.7541,254.05 10.1741,253.861 9.64335,253.456 C 9.17883,253.01 8.89597,252.265 9.01019,251.271 C 8.95959,250.749 9.0167,250.252 9.13999,249.714 C 9.08939,249.192 9.21268,248.654 9.5345,247.991 L 10.8269,248.287 C 10.5129,248.668 10.3065,249.074 10.1002,249.48 C 9.97692,250.019 9.91981,250.516 9.97041,251.037 C 10.0457,251.451 10.1209,251.865 10.37,252.262 C 10.5776,252.593 10.8346,252.709 10.9669,252.626 C 11.447,252.509 11.7948,252.475 11.9271,252.392 C 12.1257,252.268 12.332,251.861 12.6538,251.198 L 12.8511,250.337 C 12.8498,249.6 12.9316,248.995 13.2456,248.614 C 13.775,248.281 14.3875,248.082 15.166,248.146 C 15.5799,248.071 16.0276,248.344 16.3598,248.873 C 16.9073,249.452 17.2564,250.155 17.2577,250.892 C 17.2667,251.348 17.2096,251.845 17.1279,252.449 C 16.9384,253.029 16.8398,253.46 16.832,253.742 L 16.832,253.742"/>
    <path style="fill: none; fill-opacity:0; stroke-width: 1.2; stroke-linecap: round; stroke: #000000" d="M 16.7862 265.576 L 15.6599,265.545 C 15.6677,265.263 15.7417,264.94 15.8572,264.683 C 16.0635,264.277 16.1622,263.846 16.1531,263.391 C 16.1518,262.654 16.0182,262 15.686,261.47 C 15.4369,261.073 15.2215,261.024 15.0891,261.107 C 14.5675,261.157 14.2613,261.257 14.1289,261.34 C 14.0134,261.597 13.8486,262.07 13.5683,262.799 L 13.4697,263.23 C 13.3555,264.224 13.1413,264.911 12.8105,265.119 C 12.3641,265.583 11.967,265.832 11.4869,265.949 C 10.7083,265.884 10.1283,265.695 9.59763,265.29 C 9.1331,264.844 8.85025,264.099 8.96446,263.105 C 8.91387,262.583 8.97098,262.086 9.09426,261.548 C 9.04367,261.026 9.16695,260.488 9.48877,259.825 L 10.7812,260.12 C 10.4671,260.502 10.2608,260.908 10.0545,261.314 C 9.9312,261.853 9.87409,262.35 9.92468,262.871 C 9.99993,263.285 10.0752,263.699 10.3243,264.096 C 10.5319,264.427 10.7888,264.543 10.9212,264.46 C 11.4013,264.343 11.7491,264.309 11.8814,264.226 C 12.0799,264.102 12.2863,263.695 12.6081,263.032 L 12.8053,262.171 C 12.8041,261.434 12.8858,260.829 13.1999,260.448 C 13.7293,260.115 14.3417,259.916 15.1203,259.98 C 15.5342,259.905 15.9819,260.178 16.3141,260.707 C 16.8616,261.286 17.2106,261.989 17.2119,262.726 C 17.221,263.182 17.1639,263.679 17.0821,264.283 C 16.8927,264.863 16.794,265.294 16.7862,265.576 L 16.7862,265.576"/>
    <path style="fill: none; fill-opacity:0; stroke-width: 1.2; stroke-linecap: round; stroke: #000000" d="M 19.9705 268.005 L 19.9393,269.131 L 9.27313,269.183 L 9.3043,268.056 L 19.9705,268.005"/>
    <path style="fill: none; fill-opacity:0; stroke-width: 1.2; stroke-linecap: round; stroke: #000000" d="M 13.3085 275.32 C 13.1826,274.385 12.8751,273.748 12.4106,273.301 C 12.1615,272.904 11.863,272.723 11.6476,272.673 C 11.126,272.724 10.7536,272.865 10.4227,273.073 C 10.0918,273.281 9.91013,273.579 9.96072,274.101 C 9.962,274.838 10.2942,275.367 10.9572,275.689 C 11.571,276.226 12.234,276.548 13.0126,276.613 L 13.4434,276.711 L 13.3085,275.32"/>
    <path style="fill: none; fill-opacity:0; stroke-width: 1.2; stroke-linecap: round; stroke: #000000" d="M 13.6769 277.672 L 9.33778,277.812 L 9.36896,276.685 L 10.4953,276.717 C 9.91524,276.527 9.59994,276.172 9.40013,275.559 C 9.151,275.162 9.07575,274.748 9.0005,274.334 C 8.94084,273.357 9.17962,272.562 9.75835,272.014 C 10.1632,271.483 10.7342,271.217 11.5127,271.282 C 12.3821,271.198 13.0698,271.412 13.402,271.942 C 13.8172,272.603 14.0507,273.564 14.1026,274.822 L 14.1389,276.644 L 14.5697,276.743 C 14.9836,276.667 15.3145,276.46 15.6285,276.078 C 16.0334,275.548 16.1982,275.075 16.1891,274.62 C 16.0723,274.14 16.0218,273.618 15.8881,272.964 C 15.7714,272.484 15.6961,272.07 15.4885,271.739 L 16.6148,271.77 C 16.7484,272.424 16.799,272.946 16.9158,273.426 C 17.1234,273.757 17.1571,274.105 17.1493,274.386 C 17.1597,275.579 16.7886,276.457 16.1268,276.872 C 15.6804,277.337 14.8694,277.661 13.6769,277.672 L 13.6769,277.672"/>
    <path style="fill: none; fill-opacity:0; stroke-width: 1.2; stroke-linecap: round; stroke: #000000" d="M 16.8105 279.579 L 16.9454,280.97 L 10.5561,283.134 L 16.9868,285.74 L 17.1218,287.131 L 9.13389,284.396 L 9.09761,282.574 L 16.8105,279.579"/>
    <path style="fill: none; fill-opacity:0; stroke-width: 1.2; stroke-linecap: round; stroke: #000000" d="M 13.4844 295.593 L 13.0536,295.494 L 12.7787,289.764 C 11.8016,289.824 11.1229,290.065 10.5935,290.397 C 10.1471,290.862 9.9992,291.508 9.9343,292.286 C 10.0095,292.7 10.0848,293.114 10.3339,293.511 C 10.5337,294.124 10.6674,294.778 10.801,295.432 L 9.6747,295.401 C 9.34253,294.871 9.18424,294.325 9.10899,293.911 C 9.0584,293.389 9.04933,292.934 8.97408,292.52 C 8.92221,291.261 9.27647,290.209 9.92918,289.338 C 10.6649,288.6 11.6498,288.259 12.9085,288.207 C 14.3825,288.204 15.4349,288.558 16.0901,289.162 C 16.7623,289.939 17.1697,290.883 17.2215,292.141 C 17.2397,293.052 16.9347,293.889 16.199,294.627 C 15.5541,295.216 14.6769,295.582 13.4844,295.593 L 13.4844,295.593"/>
    <path style="fill: none; fill-opacity:0; stroke-width: 1.2; stroke-linecap: round; stroke: #000000" d="M 14.045 294.134 C 14.4589,294.059 15.0052,293.901 15.5346,293.568 C 16.0641,293.236 16.2704,292.83 16.2613,292.375 C 16.26,291.638 15.9941,291.067 15.5295,290.62 C 15.1974,290.091 14.642,289.794 13.905,289.795 L 14.045,294.134"/>
  </g>
  <g>
    <polygon style="fill: #ffffff" points="72,236 64,236 64,228 68,228 60,220 52,228 56,228 56,236 48,236 48,232 40,240 48,248 48,244 72,244 72,248 80,240 72,232 "/>
    <polygon style="fill: none; fill-opacity:0; stroke-width: 2; stroke: #000000" points="72,236 64,236 64,228 68,228 60,220 52,228 56,228 56,236 48,236 48,232 40,240 48,248 48,244 72,244 72,248 80,240 72,232 "/>
    <polygon style="fill: none; fill-opacity:0; stroke-width: 2; stroke: #000000" points="72,236 64,236 64,228 68,228 60,220 52,228 56,228 56,236 48,236 48,232 40,240 48,248 48,244 72,244 72,248 80,240 72,232 "/>
  </g>
  <line style="fill: none; fill-opacity:0; stroke-width: 2; stroke: #000000" x1="60" y1="220" x2="60" y2="140"/>
  <g>
    <rect style="fill: #1e90ff" x="40" y="40" width="40" height="100"/>
    <rect style="fill: none; fill-opacity:0; stroke-width: 2; stroke: #000000" x="40" y="40" width="40" height="100"/>
  </g>
  <g>
    <polyline style="fill: none; fill-opacity:0; stroke-width: 2; stroke: #000000" points="129.736,240 141,240 141,240 180,240 180,250.264 "/>
    <polygon style="fill: #000000" points="122.236,240 132.236,235 129.736,240 132.236,245 "/>
    <polygon style="fill: none; fill-opacity:0; stroke-width: 2; stroke: #000000" points="122.236,240 132.236,235 129.736,240 132.236,245 "/>
    <polygon style="fill: #000000" points="180,257.764 175,247.764 180,250.264 185,247.764 "/>
    <polygon style="fill: none; fill-opacity:0; stroke-width: 2; stroke: #000000" points="180,257.764 175,247.764 180,250.264 185,247.764 "/>
  </g>
  <g>
    <line style="fill: none; fill-opacity:0; stroke-width: 2; stroke: #000000" x1="80" y1="100" x2="120" y2="100"/>
    <text font-size="12.8" style="fill: #000000;text-anchor:start;font-family:sans-serif;font-style:normal;font-weight:normal" x="100" y="97">
      <tspan x="100" y="97">CLR Cache</tspan>
    </text>
    <g>
      <line style="fill: none; fill-opacity:0; stroke-width: 2; stroke: #000000" x1="80" y1="60" x2="120" y2="60"/>
      <text font-size="12.8" style="fill: #000000;text-anchor:start;font-family:sans-serif;font-style:normal;font-weight:normal" x="100" y="57">
        <tspan x="100" y="57">RESET</tspan>
      </text>
    </g>
    <g>
      <line style="fill: none; fill-opacity:0; stroke-width: 2; stroke: #000000" x1="80" y1="80" x2="120" y2="80"/>
      <text font-size="12.8" style="fill: #000000;text-anchor:start;font-family:sans-serif;font-style:normal;font-weight:normal" x="100" y="77">
        <tspan x="100" y="77">HALT</tspan>
      </text>
    </g>
    <g>
      <g>
        <line style="fill: none; fill-opacity:0; stroke-width: 2; stroke: #000000" x1="86.7361" y1="120" x2="120" y2="120"/>
        <polygon style="fill: #000000" points="82.2361,120 88.2361,117 86.7361,120 88.2361,123 "/>
        <polygon style="fill: none; fill-opacity:0; stroke-width: 2; stroke: #000000" points="82.2361,120 88.2361,117 86.7361,120 88.2361,123 "/>
      </g>
      <text font-size="12.8" style="fill: #000000;text-anchor:start;font-family:sans-serif;font-style:normal;font-weight:normal" x="100" y="117">
        <tspan x="100" y="117">H/W Break</tspan>
      </text>
    </g>
    <g>
      <line style="fill: none; fill-opacity:0; stroke-width: 2; stroke: #000000" x1="80" y1="100" x2="93.2639" y2="100"/>
      <polygon style="fill: #000000" points="97.7639,100 91.7639,103 93.2639,100 91.7639,97 "/>
      <polygon style="fill: none; fill-opacity:0; stroke-width: 2; stroke: #000000" points="97.7639,100 91.7639,103 93.2639,100 91.7639,97 "/>
    </g>
    <g>
      <line style="fill: none; fill-opacity:0; stroke-width: 2; stroke: #000000" x1="80" y1="80" x2="93.2639" y2="80"/>
      <polygon style="fill: #000000" points="97.7639,80 91.7639,83 93.2639,80 91.7639,77 "/>
      <polygon style="fill: none; fill-opacity:0; stroke-width: 2; stroke: #000000" points="97.7639,80 91.7639,83 93.2639,80 91.7639,77 "/>
    </g>
    <g>
      <line style="fill: none; fill-opacity:0; stroke-width: 2; stroke: #000000" x1="80" y1="60" x2="93.2639" y2="60"/>
      <polygon style="fill: #000000" points="97.7639,60 91.7639,63 93.2639,60 91.7639,57 "/>
      <polygon style="fill: none; fill-opacity:0; stroke-width: 2; stroke: #000000" points="97.7639,60 91.7639,63 93.2639,60 91.7639,57 "/>
    </g>
  </g>
</svg>
