<?xml version="1.0" encoding="UTF-8" standalone="no"?>
<!DOCTYPE svg PUBLIC "-//W3C//DTD SVG 1.0//EN" "http://www.w3.org/TR/2001/PR-SVG-20010719/DTD/svg10.dtd">
<svg width="18cm" height="18cm" viewBox="-1 -2 342 343" xmlns="http://www.w3.org/2000/svg" xmlns:xlink="http://www.w3.org/1999/xlink">
  <g>
    <rect style="fill: #c0ffc0" x="20" y="0" width="300" height="340" rx="8" ry="8"/>
    <rect style="fill: none; fill-opacity:0; stroke-width: 2; stroke-linejoin: round; stroke: #000000" x="20" y="0" width="300" height="340" rx="8" ry="8"/>
  </g>
  <g>
    <rect style="fill: #ffff82" x="100" y="40" width="220" height="280" rx="8" ry="8"/>
    <rect style="fill: none; fill-opacity:0; stroke-width: 2; stroke-linejoin: round; stroke: #000000" x="100" y="40" width="220" height="280" rx="8" ry="8"/>
  </g>
  <line style="fill: none; fill-opacity:0; stroke-width: 2; stroke-linejoin: round; stroke: #000000" x1="80" y1="80" x2="120" y2="80"/>
  <text font-size="12.7998" style="fill: #000000;text-anchor:start;font-family:sans-serif;font-style:normal;font-weight:normal" x="100" y="77">
    <tspan x="100" y="77">RESET</tspan>
  </text>
  <line style="fill: none; fill-opacity:0; stroke-width: 2; stroke-linejoin: round; stroke: #000000" x1="80" y1="100" x2="120" y2="100"/>
  <text font-size="12.7998" style="fill: #000000;text-anchor:start;font-family:sans-serif;font-style:normal;font-weight:normal" x="100" y="97">
    <tspan x="100" y="97">HALT</tspan>
  </text>
  <g>
    <rect style="fill: #ffffff" x="80" y="140" width="40" height="160"/>
    <rect style="fill: none; fill-opacity:0; stroke-width: 2; stroke: #000000" x="80" y="140" width="40" height="160"/>
  </g>
  <g>
    <path style="fill: #000000" d="M 98.3131 161.427 L 90.3303,161.64 L 90.4653,163.031 C 90.4678,164.505 90.7429,165.531 91.332,166.176 C 91.7472,166.838 92.7333,167.234 94.2489,167.297 C 95.6399,167.163 96.5833,166.755 97.2282,166.166 C 97.9639,165.428 98.3844,164.334 98.448,162.818 L 98.3131,161.427z"/>
    <path style="fill: #000000" d="M 99.7353 160.166 L 99.5743,162.849 C 99.6443,165.019 99.2576,166.461 98.3233,167.324 C 97.3475,168.12 95.9902,168.603 94.3838,168.688 C 92.6113,168.509 91.3021,168.04 90.4392,167.105 C 89.7256,166.262 89.3091,164.863 89.1729,162.735 L 89.3338,160.052 L 99.7353,160.166z"/>
    <path style="fill: #000000" d="M 93.4883 177.551 L 93.0575,177.452 L 92.7825,171.722 C 91.8054,171.782 91.1268,172.023 90.5974,172.355 C 90.151,172.82 90.003,173.466 89.9381,174.245 C 90.0134,174.659 90.0886,175.072 90.3378,175.47 C 90.5376,176.082 90.6712,176.736 90.8049,177.39 L 89.6786,177.359 C 89.3464,176.829 89.1881,176.283 89.1128,175.869 C 89.0623,175.348 89.0532,174.892 88.9779,174.478 C 88.9261,173.22 89.2803,172.167 89.933,171.297 C 90.6688,170.558 91.6537,170.217 92.9123,170.165 C 94.3864,170.163 95.4387,170.517 96.094,171.12 C 96.7661,171.897 97.1735,172.841 97.2254,174.099 C 97.2435,175.01 96.9386,175.847 96.2028,176.586 C 95.5579,177.175 94.6807,177.541 93.4883,177.551 L 93.4883,177.551z"/>
    <path style="fill: #ffffff" d="M 94.0489 176.093 C 94.4628,176.017 95.0091,175.859 95.5385,175.527 C 96.0679,175.195 96.2742,174.788 96.2652,174.333 C 96.2639,173.596 95.9979,173.025 95.5334,172.579 C 95.2012,172.049 94.6459,171.752 93.9088,171.753z"/>
    <path style="fill: #000000" d="M 92.8224 185.163 C 93.8163,185.277 94.6442,185.126 95.1736,184.794 C 95.8354,184.379 96.1988,183.782 96.2637,183.004 C 96.2624,182.266 95.9302,181.737 95.2671,181.415 C 94.7364,181.01 93.941,180.772 92.9471,180.657 C 92.1685,180.592 91.5561,180.792 91.0266,181.124 C 90.3649,181.54 90.0015,182.137 89.9366,182.915 C 89.9379,183.652 90.2701,184.182 90.9331,184.503 C 91.4638,184.908 92.0438,185.098 92.8224,185.163 L 92.8224,185.163z"/>
    <path style="fill: #000000" d="M 95.8952 180.652 C 96.2352,180.9 96.5751,181.148 96.8242,181.545 C 97.0319,181.876 97.124,182.464 97.1252,183.201 C 97.0603,183.979 96.6723,184.684 95.9366,185.422 C 95.2917,186.011 94.2653,186.286 92.7912,186.289 C 91.5987,186.299 90.6541,185.97 90.0404,185.432 C 89.2527,184.912 88.8791,184.316 88.8778,183.579 C 88.9427,182.801 89.0244,182.196 89.2723,181.856 C 89.5448,181.409 89.9003,181.093 90.4298,180.761 L 89.3035,180.73 L 89.3346,179.604 L 100.001,179.552 L 99.9696,180.678 L 95.8952,180.652z"/>
    <path style="fill: #000000" d="M 92.1073 188.286 L 96.8773,188.244 L 97.0122,189.635 L 92.2423,189.677 C 91.4637,189.612 90.9174,189.77 90.5865,189.978 C 90.0571,190.31 89.8093,190.65 89.8599,191.172 C 89.8611,191.909 90.1271,192.48 90.5916,192.926 C 91.1223,193.331 91.7024,193.52 92.4809,193.585 L 96.82,193.445 L 96.955,194.836 L 89.2369,194.883 L 89.102,193.492 L 90.2283,193.523 C 89.8468,193.209 89.5069,192.961 89.2993,192.63 C 89.0501,192.233 88.9749,191.819 88.8996,191.405 C 88.9723,190.345 89.3435,189.467 89.9222,188.919 C 90.4516,188.587 91.1303,188.346 92.1073,188.286 L 92.1073,188.286z"/>
    <path style="fill: #000000" d="M 97.3132 191.291 L 97.3132,191.291z"/>
    <path style="fill: #000000" d="M 93.1671 202.47 C 93.9041,202.469 94.5581,202.335 95.0875,202.003 C 95.7493,201.588 96.1127,200.991 96.1776,200.212 C 96.0608,199.732 95.7286,199.203 95.1811,198.624 C 94.6504,198.219 94.0288,197.963 93.2918,197.965 C 92.2317,197.892 91.3791,198.15 90.8419,198.764 C 90.3955,199.228 90.2307,199.701 90.2813,200.222 C 90.2826,200.959 90.4656,201.398 90.847,201.712 C 91.3777,202.117 92.1732,202.356 93.1671,202.47 L 93.1671,202.47z"/>
    <path style="fill: #000000" d="M 89.9231 203.767 C 88.7306,203.778 87.786,203.448 87.1722,202.911 C 86.5832,202.266 86.2173,201.389 86.2069,200.196 C 86.2809,199.873 86.3795,199.442 86.5028,198.904 C 86.5768,198.581 86.6507,198.258 86.7001,198.042 L 87.8264,198.073 C 87.694,198.156 87.537,198.347 87.463,198.67 C 87.3397,199.209 87.2826,199.706 87.3332,200.227 C 87.3345,200.964 87.5174,201.403 87.8989,201.717 C 88.2311,202.246 88.8773,202.394 89.7882,202.376 L 90.4837,202.309 C 90.1022,201.995 89.7623,201.747 89.5547,201.416 C 89.3055,201.019 89.2303,200.605 89.155,200.191 C 89.2277,199.131 89.5989,198.253 90.1776,197.705 C 91.0379,197.165 92.0643,196.89 93.323,196.838 C 94.5154,196.828 95.4186,197.091 96.0738,197.695 C 96.8199,198.149 97.2105,198.918 97.1378,199.979 C 97.1469,200.434 97.0482,200.865 96.8419,201.271 C 96.5279,201.652 96.2138,202.034 95.6844,202.366 L 96.8107,202.397 L 96.9456,203.788 L 89.9231,203.767z"/>
    <path style="fill: #000000" d="M 92.8436 216.507 C 93.8376,216.621 94.6655,216.471 95.1949,216.139 C 95.8567,215.723 96.22,215.127 96.2849,214.348 C 96.2836,213.611 95.9514,213.082 95.2884,212.76 C 94.7577,212.355 93.9623,212.116 92.9683,212.002 C 92.1898,211.937 91.5773,212.137 91.0479,212.469 C 90.3861,212.884 90.0228,213.481 89.9579,214.26 C 89.9591,214.997 90.2913,215.526 90.9544,215.848 C 91.4851,216.253 92.0651,216.442 92.8436,216.507 L 92.8436,216.507z"/>
    <path style="fill: #000000" d="M 95.9164 211.997 C 96.2564,212.245 96.5964,212.492 96.8455,212.89 C 97.0531,213.22 97.1452,213.808 97.1465,214.545 C 97.0816,215.324 96.6936,216.028 95.9578,216.767 C 95.3129,217.356 94.2865,217.631 92.8125,217.633 C 91.62,217.644 90.6754,217.314 90.0616,216.777 C 89.274,216.257 88.9003,215.661 88.899,214.924 C 88.9639,214.145 89.0457,213.541 89.2935,213.201 C 89.566,212.753 89.9216,212.438 90.451,212.106 L 89.3247,212.074 L 89.3559,210.948 L 100.022,210.896 L 99.9909,212.023 L 95.9164,211.997z"/>
    <path style="fill: #000000" d="M 92.1286 219.63 L 96.8985,219.589 L 97.0334,220.98 L 92.2635,221.021 C 91.485,220.956 90.9387,221.115 90.6078,221.322 C 90.0784,221.655 89.8305,221.994 89.8811,222.516 C 89.8824,223.253 90.1484,223.824 90.6129,224.27 C 91.1436,224.675 91.7236,224.865 92.5022,224.93 L 96.8413,224.79 L 96.9762,226.181 L 89.2582,226.227 L 89.1232,224.836 L 90.2495,224.867 C 89.8681,224.553 89.5281,224.305 89.3205,223.975 C 89.0714,223.578 88.9961,223.164 88.9209,222.75 C 88.9936,221.69 89.3647,220.811 89.9434,220.264 C 90.4729,219.931 91.1515,219.69 92.1286,219.63 L 92.1286,219.63z"/>
    <path style="fill: #000000" d="M 97.3344 222.636 L 97.3344,222.636z"/>
    <path style="fill: #000000" d="M 96.832 233.742 L 95.7057,233.711 C 95.7135,233.429 95.7874,233.106 95.9029,232.849 C 96.1092,232.443 96.2079,232.012 96.1988,231.557 C 96.1975,230.82 96.0639,230.166 95.7317,229.636 C 95.4826,229.239 95.2672,229.19 95.1348,229.273 C 94.6132,229.323 94.307,229.423 94.1746,229.506 C 94.0591,229.763 93.8943,230.236 93.614,230.965 L 93.5154,231.396 C 93.4012,232.39 93.1871,233.077 92.8562,233.285 C 92.4098,233.749 92.0127,233.999 91.5326,234.115 C 90.7541,234.05 90.1741,233.861 89.6434,233.456 C 89.1788,233.01 88.896,232.265 89.0102,231.271 C 88.9596,230.749 89.0167,230.252 89.14,229.714 C 89.0894,229.192 89.2127,228.654 89.5345,227.991 L 90.8269,228.287 C 90.5129,228.668 90.3065,229.074 90.1002,229.48 C 89.9769,230.019 89.9198,230.516 89.9704,231.037 C 90.0457,231.451 90.1209,231.865 90.37,232.262 C 90.5776,232.593 90.8346,232.709 90.9669,232.626 C 91.447,232.509 91.7948,232.475 91.9271,232.392 C 92.1257,232.268 92.332,231.861 92.6538,231.198 L 92.8511,230.337 C 92.8498,229.6 92.9316,228.995 93.2456,228.614 C 93.775,228.281 94.3875,228.082 95.166,228.146 C 95.5799,228.071 96.0276,228.344 96.3598,228.873 C 96.9073,229.452 97.2564,230.155 97.2577,230.892 C 97.2667,231.348 97.2096,231.845 97.1279,232.449 C 96.9384,233.029 96.8398,233.46 96.832,233.742 L 96.832,233.742z"/>
    <path style="fill: #000000" d="M 96.7862 245.576 L 95.6599,245.545 C 95.6677,245.263 95.7417,244.94 95.8572,244.683 C 96.0635,244.277 96.1622,243.846 96.1531,243.391 C 96.1518,242.654 96.0182,242 95.686,241.47 C 95.4369,241.073 95.2215,241.024 95.0891,241.107 C 94.5675,241.157 94.2613,241.257 94.1289,241.34 C 94.0134,241.597 93.8486,242.07 93.5683,242.799 L 93.4697,243.23 C 93.3555,244.224 93.1413,244.911 92.8105,245.119 C 92.3641,245.583 91.967,245.832 91.4869,245.949 C 90.7083,245.884 90.1283,245.695 89.5976,245.29 C 89.1331,244.844 88.8502,244.099 88.9645,243.105 C 88.9139,242.583 88.971,242.086 89.0943,241.548 C 89.0437,241.026 89.167,240.488 89.4888,239.825 L 90.7812,240.12 C 90.4671,240.502 90.2608,240.908 90.0545,241.314 C 89.9312,241.853 89.8741,242.35 89.9247,242.871 C 89.9999,243.285 90.0752,243.699 90.3243,244.096 C 90.5319,244.427 90.7888,244.543 90.9212,244.46 C 91.4013,244.343 91.7491,244.309 91.8814,244.226 C 92.0799,244.102 92.2863,243.695 92.6081,243.032 L 92.8053,242.171 C 92.8041,241.434 92.8858,240.829 93.1999,240.448 C 93.7293,240.115 94.3417,239.916 95.1203,239.98 C 95.5342,239.905 95.9819,240.178 96.3141,240.707 C 96.8616,241.286 97.2106,241.989 97.2119,242.726 C 97.221,243.182 97.1639,243.679 97.0821,244.283 C 96.8927,244.863 96.794,245.294 96.7862,245.576 L 96.7862,245.576z"/>
    <path style="fill: #000000" d="M 99.9705 248.005 L 99.9393,249.131 L 89.2731,249.183 L 89.3043,248.056 L 99.9705,248.005z"/>
    <path style="fill: #000000" d="M 93.3085 255.32 C 93.1826,254.385 92.8751,253.748 92.4106,253.301 C 92.1615,252.904 91.863,252.723 91.6476,252.673 C 91.126,252.724 90.7536,252.865 90.4227,253.073 C 90.0918,253.281 89.9101,253.579 89.9607,254.101 C 89.962,254.838 90.2942,255.367 90.9572,255.689 C 91.571,256.226 92.234,256.548 93.0126,256.613 L 93.4434,256.711 L 93.3085,255.32z"/>
    <path style="fill: #000000" d="M 93.6769 257.672 L 89.3378,257.812 L 89.369,256.685 L 90.4953,256.717 C 89.9152,256.527 89.5999,256.172 89.4001,255.559 C 89.151,255.162 89.0758,254.748 89.0005,254.334 C 88.9408,253.357 89.1796,252.562 89.7584,252.014 C 90.1632,251.483 90.7342,251.217 91.5127,251.282 C 92.3821,251.198 93.0698,251.412 93.402,251.942 C 93.8172,252.603 94.0507,253.564 94.1026,254.822 L 94.1389,256.644 L 94.5697,256.743 C 94.9836,256.667 95.3145,256.46 95.6285,256.078 C 96.0334,255.548 96.1982,255.075 96.1891,254.62 C 96.0723,254.14 96.0218,253.618 95.8881,252.964 C 95.7714,252.484 95.6961,252.07 95.4885,251.739 L 96.6148,251.77 C 96.7484,252.424 96.799,252.946 96.9158,253.426 C 97.1234,253.757 97.1571,254.105 97.1493,254.386 C 97.1597,255.579 96.7886,256.457 96.1268,256.872 C 95.6804,257.337 94.8694,257.661 93.6769,257.672 L 93.6769,257.672z"/>
    <path style="fill: #000000" d="M 96.8105 259.579 L 96.9454,260.97 L 90.5561,263.134 L 96.9868,265.74 L 97.1218,267.131 L 89.1339,264.396 L 89.0976,262.574 L 96.8105,259.579z"/>
    <path style="fill: #000000" d="M 93.4844 275.593 L 93.0536,275.494 L 92.7787,269.764 C 91.8016,269.824 91.1229,270.065 90.5935,270.397 C 90.1471,270.862 89.9992,271.508 89.9343,272.286 C 90.0095,272.7 90.0848,273.114 90.3339,273.511 C 90.5337,274.124 90.6674,274.778 90.801,275.432 L 89.6747,275.401 C 89.3425,274.871 89.1842,274.325 89.109,273.911 C 89.0584,273.389 89.0493,272.934 88.9741,272.52 C 88.9222,271.261 89.2765,270.209 89.9292,269.338 C 90.6649,268.6 91.6498,268.259 92.9085,268.207 C 94.3825,268.204 95.4349,268.558 96.0901,269.162 C 96.7623,269.939 97.1697,270.883 97.2215,272.141 C 97.2397,273.052 96.9347,273.889 96.199,274.627 C 95.5541,275.216 94.6769,275.582 93.4844,275.593 L 93.4844,275.593z"/>
    <path style="fill: #ffffff" d="M 94.045 274.134 C 94.4589,274.059 95.0052,273.901 95.5346,273.568 C 96.0641,273.236 96.2704,272.83 96.2613,272.375 C 96.26,271.638 95.9941,271.067 95.5295,270.62 C 95.1974,270.091 94.642,269.794 93.905,269.795z"/>
    <path style="fill: none; fill-opacity:0; stroke-width: 0.02; stroke-linecap: round; stroke: #000000" d="M 98.3131 161.427 L 90.3303,161.64 L 90.4653,163.031 C 90.4678,164.505 90.7429,165.531 91.332,166.176 C 91.7472,166.838 92.7333,167.234 94.2489,167.297 C 95.6399,167.163 96.5833,166.755 97.2282,166.166 C 97.9639,165.428 98.3844,164.334 98.448,162.818 L 98.3131,161.427"/>
    <path style="fill: none; fill-opacity:0; stroke-width: 0.02; stroke-linecap: round; stroke: #000000" d="M 99.7353 160.166 L 99.5743,162.849 C 99.6443,165.019 99.2576,166.461 98.3233,167.324 C 97.3475,168.12 95.9902,168.603 94.3838,168.688 C 92.6113,168.509 91.3021,168.04 90.4392,167.105 C 89.7256,166.262 89.3091,164.863 89.1729,162.735 L 89.3338,160.052 L 99.7353,160.166"/>
    <path style="fill: none; fill-opacity:0; stroke-width: 0.02; stroke-linecap: round; stroke: #000000" d="M 93.4883 177.551 L 93.0575,177.452 L 92.7825,171.722 C 91.8054,171.782 91.1268,172.023 90.5974,172.355 C 90.151,172.82 90.003,173.466 89.9381,174.245 C 90.0134,174.659 90.0886,175.072 90.3378,175.47 C 90.5376,176.082 90.6712,176.736 90.8049,177.39 L 89.6786,177.359 C 89.3464,176.829 89.1881,176.283 89.1128,175.869 C 89.0623,175.348 89.0532,174.892 88.9779,174.478 C 88.9261,173.22 89.2803,172.167 89.933,171.297 C 90.6688,170.558 91.6537,170.217 92.9123,170.165 C 94.3864,170.163 95.4387,170.517 96.094,171.12 C 96.7661,171.897 97.1735,172.841 97.2254,174.099 C 97.2435,175.01 96.9386,175.847 96.2028,176.586 C 95.5579,177.175 94.6807,177.541 93.4883,177.551 L 93.4883,177.551"/>
    <path style="fill: none; fill-opacity:0; stroke-width: 0.02; stroke-linecap: round; stroke: #000000" d="M 94.0489 176.093 C 94.4628,176.017 95.0091,175.859 95.5385,175.527 C 96.0679,175.195 96.2742,174.788 96.2652,174.333 C 96.2639,173.596 95.9979,173.025 95.5334,172.579 C 95.2012,172.049 94.6459,171.752 93.9088,171.753 L 94.0489,176.093"/>
    <path style="fill: none; fill-opacity:0; stroke-width: 0.02; stroke-linecap: round; stroke: #000000" d="M 92.8224 185.163 C 93.8163,185.277 94.6442,185.126 95.1736,184.794 C 95.8354,184.379 96.1988,183.782 96.2637,183.004 C 96.2624,182.266 95.9302,181.737 95.2671,181.415 C 94.7364,181.01 93.941,180.772 92.9471,180.657 C 92.1685,180.592 91.5561,180.792 91.0266,181.124 C 90.3649,181.54 90.0015,182.137 89.9366,182.915 C 89.9379,183.652 90.2701,184.182 90.9331,184.503 C 91.4638,184.908 92.0438,185.098 92.8224,185.163 L 92.8224,185.163"/>
    <path style="fill: none; fill-opacity:0; stroke-width: 0.02; stroke-linecap: round; stroke: #000000" d="M 95.8952 180.652 C 96.2352,180.9 96.5751,181.148 96.8242,181.545 C 97.0319,181.876 97.124,182.464 97.1252,183.201 C 97.0603,183.979 96.6723,184.684 95.9366,185.422 C 95.2917,186.011 94.2653,186.286 92.7912,186.289 C 91.5987,186.299 90.6541,185.97 90.0404,185.432 C 89.2527,184.912 88.8791,184.316 88.8778,183.579 C 88.9427,182.801 89.0244,182.196 89.2723,181.856 C 89.5448,181.409 89.9003,181.093 90.4298,180.761 L 89.3035,180.73 L 89.3346,179.604 L 100.001,179.552 L 99.9696,180.678 L 95.8952,180.652"/>
    <path style="fill: none; fill-opacity:0; stroke-width: 0.02; stroke-linecap: round; stroke: #000000" d="M 92.1073 188.286 L 96.8773,188.244 L 97.0122,189.635 L 92.2423,189.677 C 91.4637,189.612 90.9174,189.77 90.5865,189.978 C 90.0571,190.31 89.8093,190.65 89.8599,191.172 C 89.8611,191.909 90.1271,192.48 90.5916,192.926 C 91.1223,193.331 91.7024,193.52 92.4809,193.585 L 96.82,193.445 L 96.955,194.836 L 89.2369,194.883 L 89.102,193.492 L 90.2283,193.523 C 89.8468,193.209 89.5069,192.961 89.2993,192.63 C 89.0501,192.233 88.9749,191.819 88.8996,191.405 C 88.9723,190.345 89.3435,189.467 89.9222,188.919 C 90.4516,188.587 91.1303,188.346 92.1073,188.286 L 92.1073,188.286"/>
    <path style="fill: none; fill-opacity:0; stroke-width: 0.02; stroke-linecap: round; stroke: #000000" d="M 97.3132 191.291 L 97.3132,191.291"/>
    <path style="fill: none; fill-opacity:0; stroke-width: 0.02; stroke-linecap: round; stroke: #000000" d="M 93.1671 202.47 C 93.9041,202.469 94.5581,202.335 95.0875,202.003 C 95.7493,201.588 96.1127,200.991 96.1776,200.212 C 96.0608,199.732 95.7286,199.203 95.1811,198.624 C 94.6504,198.219 94.0288,197.963 93.2918,197.965 C 92.2317,197.892 91.3791,198.15 90.8419,198.764 C 90.3955,199.228 90.2307,199.701 90.2813,200.222 C 90.2826,200.959 90.4656,201.398 90.847,201.712 C 91.3777,202.117 92.1732,202.356 93.1671,202.47 L 93.1671,202.47"/>
    <path style="fill: none; fill-opacity:0; stroke-width: 0.02; stroke-linecap: round; stroke: #000000" d="M 89.9231 203.767 C 88.7306,203.778 87.786,203.448 87.1722,202.911 C 86.5832,202.266 86.2173,201.389 86.2069,200.196 C 86.2809,199.873 86.3795,199.442 86.5028,198.904 C 86.5768,198.581 86.6507,198.258 86.7001,198.042 L 87.8264,198.073 C 87.694,198.156 87.537,198.347 87.463,198.67 C 87.3397,199.209 87.2826,199.706 87.3332,200.227 C 87.3345,200.964 87.5174,201.403 87.8989,201.717 C 88.2311,202.246 88.8773,202.394 89.7882,202.376 L 90.4837,202.309 C 90.1022,201.995 89.7623,201.747 89.5547,201.416 C 89.3055,201.019 89.2303,200.605 89.155,200.191 C 89.2277,199.131 89.5989,198.253 90.1776,197.705 C 91.0379,197.165 92.0643,196.89 93.323,196.838 C 94.5154,196.828 95.4186,197.091 96.0738,197.695 C 96.8199,198.149 97.2105,198.918 97.1378,199.979 C 97.1469,200.434 97.0482,200.865 96.8419,201.271 C 96.5279,201.652 96.2138,202.034 95.6844,202.366 L 96.8107,202.397 L 96.9456,203.788 L 89.9231,203.767"/>
    <path style="fill: none; fill-opacity:0; stroke-width: 0.02; stroke-linecap: round; stroke: #000000" d="M 92.8436 216.507 C 93.8376,216.621 94.6655,216.471 95.1949,216.139 C 95.8567,215.723 96.22,215.127 96.2849,214.348 C 96.2836,213.611 95.9514,213.082 95.2884,212.76 C 94.7577,212.355 93.9623,212.116 92.9683,212.002 C 92.1898,211.937 91.5773,212.137 91.0479,212.469 C 90.3861,212.884 90.0228,213.481 89.9579,214.26 C 89.9591,214.997 90.2913,215.526 90.9544,215.848 C 91.4851,216.253 92.0651,216.442 92.8436,216.507 L 92.8436,216.507"/>
    <path style="fill: none; fill-opacity:0; stroke-width: 0.02; stroke-linecap: round; stroke: #000000" d="M 95.9164 211.997 C 96.2564,212.245 96.5964,212.492 96.8455,212.89 C 97.0531,213.22 97.1452,213.808 97.1465,214.545 C 97.0816,215.324 96.6936,216.028 95.9578,216.767 C 95.3129,217.356 94.2865,217.631 92.8125,217.633 C 91.62,217.644 90.6754,217.314 90.0616,216.777 C 89.274,216.257 88.9003,215.661 88.899,214.924 C 88.9639,214.145 89.0457,213.541 89.2935,213.201 C 89.566,212.753 89.9216,212.438 90.451,212.106 L 89.3247,212.074 L 89.3559,210.948 L 100.022,210.896 L 99.9909,212.023 L 95.9164,211.997"/>
    <path style="fill: none; fill-opacity:0; stroke-width: 0.02; stroke-linecap: round; stroke: #000000" d="M 92.1286 219.63 L 96.8985,219.589 L 97.0334,220.98 L 92.2635,221.021 C 91.485,220.956 90.9387,221.115 90.6078,221.322 C 90.0784,221.655 89.8305,221.994 89.8811,222.516 C 89.8824,223.253 90.1484,223.824 90.6129,224.27 C 91.1436,224.675 91.7236,224.865 92.5022,224.93 L 96.8413,224.79 L 96.9762,226.181 L 89.2582,226.227 L 89.1232,224.836 L 90.2495,224.867 C 89.8681,224.553 89.5281,224.305 89.3205,223.975 C 89.0714,223.578 88.9961,223.164 88.9209,222.75 C 88.9936,221.69 89.3647,220.811 89.9434,220.264 C 90.4729,219.931 91.1515,219.69 92.1286,219.63 L 92.1286,219.63"/>
    <path style="fill: none; fill-opacity:0; stroke-width: 0.02; stroke-linecap: round; stroke: #000000" d="M 97.3344 222.636 L 97.3344,222.636"/>
    <path style="fill: none; fill-opacity:0; stroke-width: 0.02; stroke-linecap: round; stroke: #000000" d="M 96.832 233.742 L 95.7057,233.711 C 95.7135,233.429 95.7874,233.106 95.9029,232.849 C 96.1092,232.443 96.2079,232.012 96.1988,231.557 C 96.1975,230.82 96.0639,230.166 95.7317,229.636 C 95.4826,229.239 95.2672,229.19 95.1348,229.273 C 94.6132,229.323 94.307,229.423 94.1746,229.506 C 94.0591,229.763 93.8943,230.236 93.614,230.965 L 93.5154,231.396 C 93.4012,232.39 93.1871,233.077 92.8562,233.285 C 92.4098,233.749 92.0127,233.999 91.5326,234.115 C 90.7541,234.05 90.1741,233.861 89.6434,233.456 C 89.1788,233.01 88.896,232.265 89.0102,231.271 C 88.9596,230.749 89.0167,230.252 89.14,229.714 C 89.0894,229.192 89.2127,228.654 89.5345,227.991 L 90.8269,228.287 C 90.5129,228.668 90.3065,229.074 90.1002,229.48 C 89.9769,230.019 89.9198,230.516 89.9704,231.037 C 90.0457,231.451 90.1209,231.865 90.37,232.262 C 90.5776,232.593 90.8346,232.709 90.9669,232.626 C 91.447,232.509 91.7948,232.475 91.9271,232.392 C 92.1257,232.268 92.332,231.861 92.6538,231.198 L 92.8511,230.337 C 92.8498,229.6 92.9316,228.995 93.2456,228.614 C 93.775,228.281 94.3875,228.082 95.166,228.146 C 95.5799,228.071 96.0276,228.344 96.3598,228.873 C 96.9073,229.452 97.2564,230.155 97.2577,230.892 C 97.2667,231.348 97.2096,231.845 97.1279,232.449 C 96.9384,233.029 96.8398,233.46 96.832,233.742 L 96.832,233.742"/>
    <path style="fill: none; fill-opacity:0; stroke-width: 0.02; stroke-linecap: round; stroke: #000000" d="M 96.7862 245.576 L 95.6599,245.545 C 95.6677,245.263 95.7417,244.94 95.8572,244.683 C 96.0635,244.277 96.1622,243.846 96.1531,243.391 C 96.1518,242.654 96.0182,242 95.686,241.47 C 95.4369,241.073 95.2215,241.024 95.0891,241.107 C 94.5675,241.157 94.2613,241.257 94.1289,241.34 C 94.0134,241.597 93.8486,242.07 93.5683,242.799 L 93.4697,243.23 C 93.3555,244.224 93.1413,244.911 92.8105,245.119 C 92.3641,245.583 91.967,245.832 91.4869,245.949 C 90.7083,245.884 90.1283,245.695 89.5976,245.29 C 89.1331,244.844 88.8502,244.099 88.9645,243.105 C 88.9139,242.583 88.971,242.086 89.0943,241.548 C 89.0437,241.026 89.167,240.488 89.4888,239.825 L 90.7812,240.12 C 90.4671,240.502 90.2608,240.908 90.0545,241.314 C 89.9312,241.853 89.8741,242.35 89.9247,242.871 C 89.9999,243.285 90.0752,243.699 90.3243,244.096 C 90.5319,244.427 90.7888,244.543 90.9212,244.46 C 91.4013,244.343 91.7491,244.309 91.8814,244.226 C 92.0799,244.102 92.2863,243.695 92.6081,243.032 L 92.8053,242.171 C 92.8041,241.434 92.8858,240.829 93.1999,240.448 C 93.7293,240.115 94.3417,239.916 95.1203,239.98 C 95.5342,239.905 95.9819,240.178 96.3141,240.707 C 96.8616,241.286 97.2106,241.989 97.2119,242.726 C 97.221,243.182 97.1639,243.679 97.0821,244.283 C 96.8927,244.863 96.794,245.294 96.7862,245.576 L 96.7862,245.576"/>
    <path style="fill: none; fill-opacity:0; stroke-width: 0.02; stroke-linecap: round; stroke: #000000" d="M 99.9705 248.005 L 99.9393,249.131 L 89.2731,249.183 L 89.3043,248.056 L 99.9705,248.005"/>
    <path style="fill: none; fill-opacity:0; stroke-width: 0.02; stroke-linecap: round; stroke: #000000" d="M 93.3085 255.32 C 93.1826,254.385 92.8751,253.748 92.4106,253.301 C 92.1615,252.904 91.863,252.723 91.6476,252.673 C 91.126,252.724 90.7536,252.865 90.4227,253.073 C 90.0918,253.281 89.9101,253.579 89.9607,254.101 C 89.962,254.838 90.2942,255.367 90.9572,255.689 C 91.571,256.226 92.234,256.548 93.0126,256.613 L 93.4434,256.711 L 93.3085,255.32"/>
    <path style="fill: none; fill-opacity:0; stroke-width: 0.02; stroke-linecap: round; stroke: #000000" d="M 93.6769 257.672 L 89.3378,257.812 L 89.369,256.685 L 90.4953,256.717 C 89.9152,256.527 89.5999,256.172 89.4001,255.559 C 89.151,255.162 89.0758,254.748 89.0005,254.334 C 88.9408,253.357 89.1796,252.562 89.7584,252.014 C 90.1632,251.483 90.7342,251.217 91.5127,251.282 C 92.3821,251.198 93.0698,251.412 93.402,251.942 C 93.8172,252.603 94.0507,253.564 94.1026,254.822 L 94.1389,256.644 L 94.5697,256.743 C 94.9836,256.667 95.3145,256.46 95.6285,256.078 C 96.0334,255.548 96.1982,255.075 96.1891,254.62 C 96.0723,254.14 96.0218,253.618 95.8881,252.964 C 95.7714,252.484 95.6961,252.07 95.4885,251.739 L 96.6148,251.77 C 96.7484,252.424 96.799,252.946 96.9158,253.426 C 97.1234,253.757 97.1571,254.105 97.1493,254.386 C 97.1597,255.579 96.7886,256.457 96.1268,256.872 C 95.6804,257.337 94.8694,257.661 93.6769,257.672 L 93.6769,257.672"/>
    <path style="fill: none; fill-opacity:0; stroke-width: 0.02; stroke-linecap: round; stroke: #000000" d="M 96.8105 259.579 L 96.9454,260.97 L 90.5561,263.134 L 96.9868,265.74 L 97.1218,267.131 L 89.1339,264.396 L 89.0976,262.574 L 96.8105,259.579"/>
    <path style="fill: none; fill-opacity:0; stroke-width: 0.02; stroke-linecap: round; stroke: #000000" d="M 93.4844 275.593 L 93.0536,275.494 L 92.7787,269.764 C 91.8016,269.824 91.1229,270.065 90.5935,270.397 C 90.1471,270.862 89.9992,271.508 89.9343,272.286 C 90.0095,272.7 90.0848,273.114 90.3339,273.511 C 90.5337,274.124 90.6674,274.778 90.801,275.432 L 89.6747,275.401 C 89.3425,274.871 89.1842,274.325 89.109,273.911 C 89.0584,273.389 89.0493,272.934 88.9741,272.52 C 88.9222,271.261 89.2765,270.209 89.9292,269.338 C 90.6649,268.6 91.6498,268.259 92.9085,268.207 C 94.3825,268.204 95.4349,268.558 96.0901,269.162 C 96.7623,269.939 97.1697,270.883 97.2215,272.141 C 97.2397,273.052 96.9347,273.889 96.199,274.627 C 95.5541,275.216 94.6769,275.582 93.4844,275.593 L 93.4844,275.593"/>
    <path style="fill: none; fill-opacity:0; stroke-width: 0.02; stroke-linecap: round; stroke: #000000" d="M 94.045 274.134 C 94.4589,274.059 95.0052,273.901 95.5346,273.568 C 96.0641,273.236 96.2704,272.83 96.2613,272.375 C 96.26,271.638 95.9941,271.067 95.5295,270.62 C 95.1974,270.091 94.642,269.794 93.905,269.795 L 94.045,274.134"/>
  </g>
  <g>
    <rect style="fill: #ffffff" x="300" y="120" width="40" height="180"/>
    <rect style="fill: none; fill-opacity:0; stroke-width: 2; stroke-linecap: round; stroke: #000000" x="300" y="120" width="40" height="180"/>
  </g>
  <g>
    <path style="fill: #000000" d="M 313.974 141.567 L 310.33,141.64 L 310.268,143.893 C 310.269,144.63 310.452,145.068 310.834,145.382 C 311.041,145.713 311.514,145.878 312.292,145.943 C 313.029,145.941 313.468,145.759 313.517,145.543 C 313.723,145.137 313.847,144.598 313.912,143.82 L 313.974,141.567z"/>
    <path style="fill: #000000" d="M 318.313 141.427 L 315.1,141.598 L 315.137,143.42 C 315.072,144.199 315.188,144.679 315.438,145.076 C 315.902,145.522 316.308,145.729 316.631,145.803 C 317.244,145.603 317.641,145.354 317.955,144.972 C 318.161,144.566 318.284,144.028 318.349,143.249 L 318.313,141.427z"/>
    <path style="fill: #000000" d="M 319.735 140.166 L 319.642,143.545 C 319.652,144.737 319.413,145.533 318.884,145.865 C 318.438,146.33 317.734,146.679 316.865,146.763 C 316.343,146.814 315.912,146.715 315.572,146.467 C 315.323,146.07 315.074,145.673 314.742,145.143 C 314.42,145.807 314.082,146.296 313.751,146.503 C 313.304,146.968 312.733,147.234 311.996,147.235 C 311.085,147.253 310.356,146.973 309.941,146.311 C 309.476,145.865 309.152,145.054 309.142,143.861 L 309.334,140.052 L 319.735,140.166z"/>
    <path style="fill: #000000" d="M 312.108 149.471 L 316.878,149.429 L 317.013,150.82 L 312.243,150.862 C 311.464,150.797 310.918,150.955 310.587,151.163 C 310.141,151.627 309.976,152.1 310.026,152.621 C 310.028,153.358 310.211,153.797 310.592,154.111 C 311.123,154.516 311.703,154.705 312.481,154.77 L 316.821,154.63 L 316.955,156.021 L 309.237,156.068 L 309.102,154.677 L 310.229,154.708 C 309.847,154.394 309.507,154.146 309.3,153.815 C 309.051,153.418 308.975,153.004 308.9,152.59 C 308.84,151.613 309.079,150.818 309.658,150.27 C 310.32,149.855 311.131,149.531 312.108,149.471 L 312.108,149.471z"/>
    <path style="fill: #000000" d="M 317.215 152.907 L 317.215,152.907z"/>
    <path style="fill: #000000" d="M 316.547 163.748 L 315.42,163.717 C 315.627,163.311 315.767,162.946 315.882,162.689 C 316.088,162.283 316.187,161.853 316.178,161.397 C 316.177,160.66 316.085,160.072 315.877,159.741 C 315.628,159.344 315.329,159.163 315.114,159.113 C 314.592,159.164 314.22,159.305 313.889,159.513 C 313.774,159.77 313.758,160.333 313.759,161.07 L 313.661,161.501 C 313.463,162.362 313.166,162.918 312.835,163.125 C 312.389,163.59 311.992,163.839 311.512,163.956 C 310.733,163.891 310.153,163.701 309.623,163.297 C 309.158,162.85 308.875,162.105 308.989,161.111 C 308.939,160.59 308.996,160.093 309.119,159.554 C 309.069,159.033 309.192,158.494 309.514,157.831 L 310.806,158.127 C 310.492,158.509 310.327,158.981 310.246,159.586 C 310.122,160.124 310.065,160.621 310.116,161.143 C 309.992,161.681 310.092,161.987 310.349,162.103 C 310.557,162.434 310.814,162.549 310.946,162.466 C 311.551,162.548 311.857,162.448 311.906,162.233 C 312.105,162.108 312.311,161.702 312.633,161.039 L 312.83,160.177 C 312.829,159.44 312.911,158.836 313.225,158.454 C 313.556,158.246 314.102,158.088 314.881,158.153 C 315.294,158.078 315.85,158.375 316.505,158.978 C 317.053,159.557 317.402,160.26 317.403,160.997 C 317.214,161.577 317.049,162.05 316.842,162.456 C 316.851,162.911 316.753,163.342 316.547,163.748 L 316.547,163.748z"/>
    <path style="fill: #000000" d="M 315.674 176.47 C 316.014,176.718 316.437,177.098 316.769,177.627 C 317.234,178.074 317.5,178.645 317.501,179.382 C 317.312,179.962 317.039,180.409 316.51,180.742 C 315.931,181.289 315.12,181.613 314.06,181.541 L 309.29,181.582 L 309.155,180.191 L 313.925,180.15 C 314.662,180.148 315.25,180.056 315.581,179.849 C 315.995,179.773 316.176,179.475 316.043,178.821 C 316.041,178.084 315.775,177.513 315.311,177.067 C 314.78,176.662 314.2,176.472 313.588,176.672 L 309.082,176.548 L 309.114,175.421 L 313.884,175.38 C 314.621,175.379 315.142,175.328 315.539,175.079 C 316.069,174.747 316.275,174.341 316.266,173.885 C 316.265,173.148 315.933,172.619 315.269,172.297 C 314.739,171.892 314.159,171.702 313.546,171.902 L 309.041,171.778 L 309.337,170.485 L 317.055,170.439 L 316.759,171.731 L 315.633,171.7 C 316.171,171.823 316.577,172.03 316.827,172.427 C 317.159,172.956 317.292,173.61 317.294,174.347 C 317.303,174.802 317.096,175.209 316.567,175.541 C 316.253,175.922 316.005,176.262 315.674,176.47 L 315.674,176.47z"/>
    <path style="fill: #000000" d="M 313.284 187.654 C 313.158,186.718 312.85,186.081 312.386,185.635 C 312.137,185.238 311.838,185.056 311.623,185.007 C 311.101,185.057 310.729,185.199 310.398,185.406 C 310.15,185.746 310.052,186.177 310.102,186.699 C 310.103,187.436 310.369,188.007 310.834,188.453 C 311.365,188.858 311.945,189.047 312.723,189.112 L 313.154,189.211 L 313.284,187.654z"/>
    <path style="fill: #000000" d="M 313.818 190.27 L 309.313,190.145 L 309.08,189.185 L 310.206,189.216 C 309.824,188.902 309.443,188.588 309.111,188.058 C 308.862,187.661 308.853,187.206 308.976,186.667 C 308.916,185.69 309.023,184.978 309.469,184.513 C 309.874,183.983 310.445,183.717 311.223,183.782 C 312.093,183.697 312.78,183.911 313.113,184.441 C 313.528,185.103 313.761,186.063 313.813,187.321 L 313.849,189.143 L 314.28,189.242 C 314.694,189.167 315.157,188.876 315.604,188.412 C 316.009,187.881 316.173,187.408 316.164,186.953 C 316.048,186.473 315.997,185.951 315.863,185.297 C 315.747,184.817 315.713,184.469 315.63,184.337 L 316.59,184.104 C 316.724,184.758 316.774,185.279 316.891,185.759 C 317.223,186.289 317.299,186.703 317.291,186.984 C 317.301,188.177 316.93,189.055 316.268,189.47 C 315.822,189.935 315.011,190.259 313.818,190.27 L 313.818,190.27z"/>
    <path style="fill: #000000" d="M 316.531 197.975 L 315.405,197.944 C 315.611,197.537 315.752,197.173 315.867,196.916 C 316.073,196.51 316.172,196.079 316.163,195.624 C 316.162,194.886 316.069,194.299 315.862,193.968 C 315.613,193.571 315.314,193.389 315.099,193.34 C 314.577,193.39 314.205,193.532 313.874,193.739 C 313.759,193.996 313.743,194.559 313.744,195.296 L 313.646,195.727 C 313.448,196.589 313.151,197.144 312.82,197.352 C 312.374,197.816 311.977,198.065 311.497,198.182 C 310.718,198.117 310.138,197.928 309.607,197.523 C 309.143,197.077 308.86,196.332 308.974,195.338 C 308.924,194.816 308.981,194.319 309.104,193.781 C 309.053,193.259 309.177,192.721 309.499,192.058 L 310.791,192.353 C 310.477,192.735 310.312,193.207 310.23,193.812 C 310.107,194.35 310.05,194.847 310.101,195.369 C 309.977,195.908 310.077,196.214 310.334,196.329 C 310.542,196.66 310.799,196.776 310.931,196.693 C 311.536,196.774 311.842,196.674 311.891,196.459 C 312.09,196.334 312.296,195.928 312.618,195.265 L 312.815,194.404 C 312.814,193.667 312.896,193.062 313.21,192.681 C 313.541,192.473 314.087,192.315 314.865,192.38 C 315.279,192.304 315.835,192.601 316.49,193.205 C 317.038,193.784 317.387,194.487 317.388,195.224 C 317.198,195.804 317.034,196.276 316.827,196.682 C 316.836,197.138 316.738,197.569 316.531,197.975 L 316.531,197.975z"/>
    <path style="fill: #000000" d="M 318.989 201.598 L 316.736,201.535 L 316.84,204.053 L 316.144,204.12 L 316.041,201.603 L 311.702,201.743 C 310.923,201.678 310.575,201.712 310.575,201.712 C 310.443,201.795 310.344,202.225 310.279,203.004 L 310.248,204.13 L 309.122,204.099 L 309.153,202.973 C 309.226,201.913 309.465,201.117 309.911,200.653 C 310.242,200.445 310.937,200.378 311.998,200.45 L 316.337,200.31 L 316.103,199.35 L 316.799,199.283 L 317.032,200.243 L 319.285,200.305 L 318.989,201.598z"/>
    <path style="fill: #000000" d="M 313.244 212.58 L 312.813,212.482 L 312.803,206.585 C 311.826,206.645 311.189,206.953 310.784,207.483 C 310.338,207.948 310.19,208.594 310.125,209.373 C 310.2,209.786 310.275,210.2 310.524,210.597 C 310.6,211.011 310.692,211.599 310.825,212.253 L 309.699,212.222 C 309.367,211.693 309.209,211.146 309.133,210.732 C 309.083,210.211 309.074,209.755 308.999,209.341 C 308.947,208.083 309.301,207.03 309.954,206.16 C 310.491,205.546 311.41,205.246 312.668,205.194 C 314.142,205.192 315.236,205.612 316.016,206.414 C 316.887,207.067 317.36,207.969 317.412,209.227 C 317.298,210.221 316.819,211.075 315.959,211.615 C 315.314,212.204 314.437,212.57 313.244,212.58 L 313.244,212.58z"/>
    <path style="fill: #ffffff" d="M 314.069 210.956 C 314.483,210.88 315.03,210.722 315.559,210.39 C 316.089,210.058 316.295,209.652 316.286,209.196 C 316.285,208.459 316.019,207.888 315.554,207.442 C 315.222,206.912 314.666,206.615 313.929,206.617z"/>
    <path style="fill: #000000" d="M 315.822 218.894 C 315.83,218.613 315.921,218.464 315.921,218.464 C 316.053,218.381 316.169,218.124 316.284,217.867 C 316.283,217.13 315.951,216.6 315.288,216.278 C 314.559,215.998 313.871,215.784 313.134,215.785 L 309.059,215.759 L 309.355,214.467 L 317.073,214.42 L 316.777,215.713 L 315.651,215.682 C 316.19,215.805 316.596,216.011 316.845,216.408 C 317.177,216.938 317.311,217.592 317.312,218.329 C 317.395,218.461 317.387,218.743 317.379,219.024 L 315.822,218.894z"/>
    <path style="fill: #000000" d="M 317.091 224.739 L 316.795,226.031 L 309.077,226.078 L 309.373,224.785 L 317.091,224.739z"/>
    <path style="fill: #000000" d="M 320.039 224.734 L 319.743,226.026 L 318.186,225.896 L 318.482,224.604 L 320.039,224.734z"/>
    <path style="fill: #000000" d="M 314.012 234.971 L 309.242,235.013 L 309.107,233.622 L 313.877,233.58 C 314.614,233.579 315.136,233.529 315.533,233.279 C 315.947,233.204 316.194,232.864 316.259,232.086 C 316.258,231.349 315.926,230.819 315.263,230.497 C 314.732,230.093 314.152,229.903 313.54,230.103 L 309.034,229.978 L 309.33,228.686 L 317.048,228.639 L 316.752,229.932 L 315.626,229.901 C 316.165,230.024 316.571,230.23 316.82,230.627 C 317.152,231.157 317.286,231.811 317.287,232.548 C 317.222,233.326 316.859,233.923 316.197,234.338 C 315.751,234.803 315.006,235.086 314.012,234.971 L 314.012,234.971z"/>
    <path style="fill: #000000" d="M 318.996 238.946 L 316.743,238.884 L 316.847,241.401 L 316.151,241.469 L 316.048,238.951 L 311.708,239.091 C 310.93,239.026 310.582,239.06 310.582,239.06 C 310.45,239.143 310.351,239.574 310.286,240.352 L 310.255,241.479 L 309.129,241.448 L 309.16,240.321 C 309.233,239.261 309.471,238.466 309.918,238.001 C 310.249,237.794 310.944,237.726 312.004,237.799 L 316.343,237.659 L 316.11,236.699 L 316.805,236.631 L 317.039,237.591 L 319.292,237.654 L 318.996,238.946z"/>
    <path style="fill: #000000" d="M 313.185 249.97 L 312.754,249.872 L 312.744,243.975 C 311.767,244.035 311.13,244.343 310.725,244.873 C 310.278,245.338 310.13,245.984 310.065,246.762 C 310.141,247.176 310.216,247.59 310.465,247.987 C 310.54,248.401 310.632,248.989 310.766,249.643 L 309.64,249.612 C 309.308,249.083 309.149,248.536 309.074,248.122 C 309.024,247.601 309.014,247.145 308.939,246.731 C 308.887,245.473 309.242,244.42 309.894,243.55 C 310.432,242.936 311.35,242.636 312.609,242.584 C 314.083,242.582 315.177,243.002 315.957,243.804 C 316.827,244.457 317.301,245.359 317.353,246.617 C 317.239,247.611 316.76,248.465 315.899,249.005 C 315.254,249.594 314.377,249.96 313.185,249.97 L 313.185,249.97z"/>
    <path style="fill: #ffffff" d="M 314.01 248.346 C 314.424,248.27 314.97,248.112 315.5,247.78 C 316.029,247.448 316.236,247.042 316.226,246.586 C 316.225,245.849 315.959,245.278 315.495,244.832 C 315.162,244.302 314.607,244.005 313.87,244.007z"/>
    <path style="fill: #000000" d="M 315.763 256.284 C 315.771,256.003 315.862,255.854 315.862,255.854 C 315.994,255.77 316.109,255.514 316.225,255.257 C 316.224,254.52 315.891,253.99 315.228,253.668 C 314.499,253.388 313.811,253.174 313.074,253.175 L 309,253.149 L 309.296,251.857 L 317.014,251.81 L 316.718,253.103 L 315.592,253.071 C 316.13,253.195 316.536,253.401 316.786,253.798 C 317.118,254.328 317.251,254.982 317.253,255.719 C 317.336,255.851 317.328,256.133 317.32,256.414 L 315.763,256.284z"/>
    <path style="fill: #000000" d="M 319.805 261.403 L 318.845,261.637 L 318.876,260.511 C 318.759,260.031 318.684,259.617 318.476,259.286 C 318.352,259.087 318.028,259.013 317.615,259.088 L 316.919,259.156 L 316.955,260.978 L 316.26,261.045 L 316.224,259.223 L 309.201,259.202 L 309.066,257.811 L 316.089,257.832 L 316.384,256.54 L 317.08,256.473 L 316.784,257.765 L 317.215,257.864 C 318.084,257.779 318.689,257.861 318.938,258.258 C 319.403,258.704 319.71,259.342 319.836,260.277 L 319.805,261.403z"/>
    <path style="fill: #000000" d="M 313.304 266.036 C 313.178,265.1 312.87,264.463 312.406,264.017 C 312.157,263.619 311.858,263.438 311.643,263.388 C 311.121,263.439 310.749,263.581 310.418,263.788 C 310.17,264.128 310.072,264.559 310.122,265.081 C 310.123,265.818 310.389,266.388 310.854,266.835 C 311.385,267.24 311.965,267.429 312.743,267.494 L 313.174,267.593 L 313.304,266.036z"/>
    <path style="fill: #000000" d="M 313.838 268.652 L 309.333,268.527 L 309.1,267.567 L 310.226,267.598 C 309.844,267.284 309.463,266.97 309.131,266.44 C 308.882,266.043 308.873,265.588 308.996,265.049 C 308.936,264.072 309.043,263.36 309.489,262.895 C 309.894,262.365 310.465,262.099 311.243,262.164 C 312.113,262.079 312.8,262.293 313.133,262.823 C 313.548,263.485 313.781,264.445 313.833,265.703 L 313.869,267.525 L 314.3,267.624 C 314.714,267.549 315.177,267.258 315.624,266.793 C 316.029,266.263 316.193,265.79 316.184,265.335 C 316.068,264.855 316.017,264.333 315.883,263.679 C 315.767,263.199 315.733,262.851 315.65,262.719 L 316.61,262.486 C 316.744,263.139 316.794,263.661 316.911,264.141 C 317.243,264.671 317.319,265.085 317.311,265.366 C 317.321,266.559 316.95,267.437 316.288,267.852 C 315.842,268.317 315.031,268.641 313.838,268.652 L 313.838,268.652z"/>
    <path style="fill: #000000" d="M 316.619 277.052 L 315.493,277.021 C 315.574,276.416 315.673,275.986 315.788,275.729 C 315.995,275.323 316.135,274.958 316.25,274.701 C 316.249,273.964 315.834,273.302 315.088,272.848 C 314.557,272.443 313.762,272.204 312.768,272.09 C 311.989,272.025 311.418,272.291 311.013,272.822 C 310.435,273.369 310.154,274.099 310.089,274.877 C 310.04,275.093 310.032,275.374 310.157,275.573 C 310.232,275.987 310.39,276.533 310.723,277.062 L 309.43,276.767 C 309.181,276.369 309.106,275.956 309.031,275.542 C 308.906,275.343 308.914,275.062 308.963,274.846 C 308.911,273.587 309.266,272.535 309.918,271.664 C 310.455,271.051 311.374,270.751 312.633,270.699 C 314.107,270.697 315.201,271.117 315.981,271.919 C 316.851,272.572 317.325,273.473 317.377,274.732 C 317.261,274.989 317.121,275.354 316.915,275.76 C 316.799,276.017 316.701,276.448 316.619,277.052 L 316.619,277.052z"/>
    <path style="fill: #000000" d="M 313.189 285.845 L 312.758,285.746 L 312.748,279.85 C 311.771,279.909 311.134,280.217 310.729,280.748 C 310.283,281.212 310.135,281.858 310.07,282.637 C 310.145,283.051 310.22,283.465 310.469,283.862 C 310.545,284.276 310.637,284.864 310.77,285.517 L 309.644,285.486 C 309.312,284.957 309.154,284.411 309.078,283.997 C 309.028,283.475 309.019,283.02 308.943,282.606 C 308.892,281.347 309.246,280.295 309.899,279.424 C 310.436,278.81 311.354,278.511 312.613,278.459 C 314.087,278.456 315.181,278.877 315.961,279.678 C 316.832,280.331 317.305,281.233 317.357,282.492 C 317.243,283.486 316.764,284.339 315.904,284.879 C 315.259,285.468 314.382,285.834 313.189,285.845 L 313.189,285.845z"/>
    <path style="fill: #ffffff" d="M 314.014 284.22 C 314.428,284.145 314.975,283.986 315.504,283.654 C 316.033,283.322 316.24,282.916 316.231,282.461 C 316.229,281.724 315.963,281.153 315.499,280.706 C 315.167,280.177 314.611,279.88 313.874,279.881z"/>
    <path style="fill: none; fill-opacity:0; stroke-width: 0.02; stroke-linecap: round; stroke: #000000" d="M 313.974 141.567 L 310.33,141.64 L 310.268,143.893 C 310.269,144.63 310.452,145.068 310.834,145.382 C 311.041,145.713 311.514,145.878 312.292,145.943 C 313.029,145.941 313.468,145.759 313.517,145.543 C 313.723,145.137 313.847,144.598 313.912,143.82 L 313.974,141.567"/>
    <path style="fill: none; fill-opacity:0; stroke-width: 0.02; stroke-linecap: round; stroke: #000000" d="M 318.313 141.427 L 315.1,141.598 L 315.137,143.42 C 315.072,144.199 315.188,144.679 315.438,145.076 C 315.902,145.522 316.308,145.729 316.631,145.803 C 317.244,145.603 317.641,145.354 317.955,144.972 C 318.161,144.566 318.284,144.028 318.349,143.249 L 318.313,141.427"/>
    <path style="fill: none; fill-opacity:0; stroke-width: 0.02; stroke-linecap: round; stroke: #000000" d="M 319.735 140.166 L 319.642,143.545 C 319.652,144.737 319.413,145.533 318.884,145.865 C 318.438,146.33 317.734,146.679 316.865,146.763 C 316.343,146.814 315.912,146.715 315.572,146.467 C 315.323,146.07 315.074,145.673 314.742,145.143 C 314.42,145.807 314.082,146.296 313.751,146.503 C 313.304,146.968 312.733,147.234 311.996,147.235 C 311.085,147.253 310.356,146.973 309.941,146.311 C 309.476,145.865 309.152,145.054 309.142,143.861 L 309.334,140.052 L 319.735,140.166"/>
    <path style="fill: none; fill-opacity:0; stroke-width: 0.02; stroke-linecap: round; stroke: #000000" d="M 312.108 149.471 L 316.878,149.429 L 317.013,150.82 L 312.243,150.862 C 311.464,150.797 310.918,150.955 310.587,151.163 C 310.141,151.627 309.976,152.1 310.026,152.621 C 310.028,153.358 310.211,153.797 310.592,154.111 C 311.123,154.516 311.703,154.705 312.481,154.77 L 316.821,154.63 L 316.955,156.021 L 309.237,156.068 L 309.102,154.677 L 310.229,154.708 C 309.847,154.394 309.507,154.146 309.3,153.815 C 309.051,153.418 308.975,153.004 308.9,152.59 C 308.84,151.613 309.079,150.818 309.658,150.27 C 310.32,149.855 311.131,149.531 312.108,149.471 L 312.108,149.471"/>
    <path style="fill: none; fill-opacity:0; stroke-width: 0.02; stroke-linecap: round; stroke: #000000" d="M 317.215 152.907 L 317.215,152.907"/>
    <path style="fill: none; fill-opacity:0; stroke-width: 0.02; stroke-linecap: round; stroke: #000000" d="M 316.547 163.748 L 315.42,163.717 C 315.627,163.311 315.767,162.946 315.882,162.689 C 316.088,162.283 316.187,161.853 316.178,161.397 C 316.177,160.66 316.085,160.072 315.877,159.741 C 315.628,159.344 315.329,159.163 315.114,159.113 C 314.592,159.164 314.22,159.305 313.889,159.513 C 313.774,159.77 313.758,160.333 313.759,161.07 L 313.661,161.501 C 313.463,162.362 313.166,162.918 312.835,163.125 C 312.389,163.59 311.992,163.839 311.512,163.956 C 310.733,163.891 310.153,163.701 309.623,163.297 C 309.158,162.85 308.875,162.105 308.989,161.111 C 308.939,160.59 308.996,160.093 309.119,159.554 C 309.069,159.033 309.192,158.494 309.514,157.831 L 310.806,158.127 C 310.492,158.509 310.327,158.981 310.246,159.586 C 310.122,160.124 310.065,160.621 310.116,161.143 C 309.992,161.681 310.092,161.987 310.349,162.103 C 310.557,162.434 310.814,162.549 310.946,162.466 C 311.551,162.548 311.857,162.448 311.906,162.233 C 312.105,162.108 312.311,161.702 312.633,161.039 L 312.83,160.177 C 312.829,159.44 312.911,158.836 313.225,158.454 C 313.556,158.246 314.102,158.088 314.881,158.153 C 315.294,158.078 315.85,158.375 316.505,158.978 C 317.053,159.557 317.402,160.26 317.403,160.997 C 317.214,161.577 317.049,162.05 316.842,162.456 C 316.851,162.911 316.753,163.342 316.547,163.748 L 316.547,163.748"/>
    <path style="fill: none; fill-opacity:0; stroke-width: 0.02; stroke-linecap: round; stroke: #000000" d="M 315.674 176.47 C 316.014,176.718 316.437,177.098 316.769,177.627 C 317.234,178.074 317.5,178.645 317.501,179.382 C 317.312,179.962 317.039,180.409 316.51,180.742 C 315.931,181.289 315.12,181.613 314.06,181.541 L 309.29,181.582 L 309.155,180.191 L 313.925,180.15 C 314.662,180.148 315.25,180.056 315.581,179.849 C 315.995,179.773 316.176,179.475 316.043,178.821 C 316.041,178.084 315.775,177.513 315.311,177.067 C 314.78,176.662 314.2,176.472 313.588,176.672 L 309.082,176.548 L 309.114,175.421 L 313.884,175.38 C 314.621,175.379 315.142,175.328 315.539,175.079 C 316.069,174.747 316.275,174.341 316.266,173.885 C 316.265,173.148 315.933,172.619 315.269,172.297 C 314.739,171.892 314.159,171.702 313.546,171.902 L 309.041,171.778 L 309.337,170.485 L 317.055,170.439 L 316.759,171.731 L 315.633,171.7 C 316.171,171.823 316.577,172.03 316.827,172.427 C 317.159,172.956 317.292,173.61 317.294,174.347 C 317.303,174.802 317.096,175.209 316.567,175.541 C 316.253,175.922 316.005,176.262 315.674,176.47 L 315.674,176.47"/>
    <path style="fill: none; fill-opacity:0; stroke-width: 0.02; stroke-linecap: round; stroke: #000000" d="M 313.284 187.654 C 313.158,186.718 312.85,186.081 312.386,185.635 C 312.137,185.238 311.838,185.056 311.623,185.007 C 311.101,185.057 310.729,185.199 310.398,185.406 C 310.15,185.746 310.052,186.177 310.102,186.699 C 310.103,187.436 310.369,188.007 310.834,188.453 C 311.365,188.858 311.945,189.047 312.723,189.112 L 313.154,189.211 L 313.284,187.654"/>
    <path style="fill: none; fill-opacity:0; stroke-width: 0.02; stroke-linecap: round; stroke: #000000" d="M 313.818 190.27 L 309.313,190.145 L 309.08,189.185 L 310.206,189.216 C 309.824,188.902 309.443,188.588 309.111,188.058 C 308.862,187.661 308.853,187.206 308.976,186.667 C 308.916,185.69 309.023,184.978 309.469,184.513 C 309.874,183.983 310.445,183.717 311.223,183.782 C 312.093,183.697 312.78,183.911 313.113,184.441 C 313.528,185.103 313.761,186.063 313.813,187.321 L 313.849,189.143 L 314.28,189.242 C 314.694,189.167 315.157,188.876 315.604,188.412 C 316.009,187.881 316.173,187.408 316.164,186.953 C 316.048,186.473 315.997,185.951 315.863,185.297 C 315.747,184.817 315.713,184.469 315.63,184.337 L 316.59,184.104 C 316.724,184.758 316.774,185.279 316.891,185.759 C 317.223,186.289 317.299,186.703 317.291,186.984 C 317.301,188.177 316.93,189.055 316.268,189.47 C 315.822,189.935 315.011,190.259 313.818,190.27 L 313.818,190.27"/>
    <path style="fill: none; fill-opacity:0; stroke-width: 0.02; stroke-linecap: round; stroke: #000000" d="M 316.531 197.975 L 315.405,197.944 C 315.611,197.537 315.752,197.173 315.867,196.916 C 316.073,196.51 316.172,196.079 316.163,195.624 C 316.162,194.886 316.069,194.299 315.862,193.968 C 315.613,193.571 315.314,193.389 315.099,193.34 C 314.577,193.39 314.205,193.532 313.874,193.739 C 313.759,193.996 313.743,194.559 313.744,195.296 L 313.646,195.727 C 313.448,196.589 313.151,197.144 312.82,197.352 C 312.374,197.816 311.977,198.065 311.497,198.182 C 310.718,198.117 310.138,197.928 309.607,197.523 C 309.143,197.077 308.86,196.332 308.974,195.338 C 308.924,194.816 308.981,194.319 309.104,193.781 C 309.053,193.259 309.177,192.721 309.499,192.058 L 310.791,192.353 C 310.477,192.735 310.312,193.207 310.23,193.812 C 310.107,194.35 310.05,194.847 310.101,195.369 C 309.977,195.908 310.077,196.214 310.334,196.329 C 310.542,196.66 310.799,196.776 310.931,196.693 C 311.536,196.774 311.842,196.674 311.891,196.459 C 312.09,196.334 312.296,195.928 312.618,195.265 L 312.815,194.404 C 312.814,193.667 312.896,193.062 313.21,192.681 C 313.541,192.473 314.087,192.315 314.865,192.38 C 315.279,192.304 315.835,192.601 316.49,193.205 C 317.038,193.784 317.387,194.487 317.388,195.224 C 317.198,195.804 317.034,196.276 316.827,196.682 C 316.836,197.138 316.738,197.569 316.531,197.975 L 316.531,197.975"/>
    <path style="fill: none; fill-opacity:0; stroke-width: 0.02; stroke-linecap: round; stroke: #000000" d="M 318.989 201.598 L 316.736,201.535 L 316.84,204.053 L 316.144,204.12 L 316.041,201.603 L 311.702,201.743 C 310.923,201.678 310.575,201.712 310.575,201.712 C 310.443,201.795 310.344,202.225 310.279,203.004 L 310.248,204.13 L 309.122,204.099 L 309.153,202.973 C 309.226,201.913 309.465,201.117 309.911,200.653 C 310.242,200.445 310.937,200.378 311.998,200.45 L 316.337,200.31 L 316.103,199.35 L 316.799,199.283 L 317.032,200.243 L 319.285,200.305 L 318.989,201.598"/>
    <path style="fill: none; fill-opacity:0; stroke-width: 0.02; stroke-linecap: round; stroke: #000000" d="M 313.244 212.58 L 312.813,212.482 L 312.803,206.585 C 311.826,206.645 311.189,206.953 310.784,207.483 C 310.338,207.948 310.19,208.594 310.125,209.373 C 310.2,209.786 310.275,210.2 310.524,210.597 C 310.6,211.011 310.692,211.599 310.825,212.253 L 309.699,212.222 C 309.367,211.693 309.209,211.146 309.133,210.732 C 309.083,210.211 309.074,209.755 308.999,209.341 C 308.947,208.083 309.301,207.03 309.954,206.16 C 310.491,205.546 311.41,205.246 312.668,205.194 C 314.142,205.192 315.236,205.612 316.016,206.414 C 316.887,207.067 317.36,207.969 317.412,209.227 C 317.298,210.221 316.819,211.075 315.959,211.615 C 315.314,212.204 314.437,212.57 313.244,212.58 L 313.244,212.58"/>
    <path style="fill: none; fill-opacity:0; stroke-width: 0.02; stroke-linecap: round; stroke: #000000" d="M 314.069 210.956 C 314.483,210.88 315.03,210.722 315.559,210.39 C 316.089,210.058 316.295,209.652 316.286,209.196 C 316.285,208.459 316.019,207.888 315.554,207.442 C 315.222,206.912 314.666,206.615 313.929,206.617 L 314.069,210.956"/>
    <path style="fill: none; fill-opacity:0; stroke-width: 0.02; stroke-linecap: round; stroke: #000000" d="M 315.822 218.894 C 315.83,218.613 315.921,218.464 315.921,218.464 C 316.053,218.381 316.169,218.124 316.284,217.867 C 316.283,217.13 315.951,216.6 315.288,216.278 C 314.559,215.998 313.871,215.784 313.134,215.785 L 309.059,215.759 L 309.355,214.467 L 317.073,214.42 L 316.777,215.713 L 315.651,215.682 C 316.19,215.805 316.596,216.011 316.845,216.408 C 317.177,216.938 317.311,217.592 317.312,218.329 C 317.395,218.461 317.387,218.743 317.379,219.024 L 315.822,218.894"/>
    <path style="fill: none; fill-opacity:0; stroke-width: 0.02; stroke-linecap: round; stroke: #000000" d="M 317.091 224.739 L 316.795,226.031 L 309.077,226.078 L 309.373,224.785 L 317.091,224.739"/>
    <path style="fill: none; fill-opacity:0; stroke-width: 0.02; stroke-linecap: round; stroke: #000000" d="M 320.039 224.734 L 319.743,226.026 L 318.186,225.896 L 318.482,224.604 L 320.039,224.734"/>
    <path style="fill: none; fill-opacity:0; stroke-width: 0.02; stroke-linecap: round; stroke: #000000" d="M 314.012 234.971 L 309.242,235.013 L 309.107,233.622 L 313.877,233.58 C 314.614,233.579 315.136,233.529 315.533,233.279 C 315.947,233.204 316.194,232.864 316.259,232.086 C 316.258,231.349 315.926,230.819 315.263,230.497 C 314.732,230.093 314.152,229.903 313.54,230.103 L 309.034,229.978 L 309.33,228.686 L 317.048,228.639 L 316.752,229.932 L 315.626,229.901 C 316.165,230.024 316.571,230.23 316.82,230.627 C 317.152,231.157 317.286,231.811 317.287,232.548 C 317.222,233.326 316.859,233.923 316.197,234.338 C 315.751,234.803 315.006,235.086 314.012,234.971 L 314.012,234.971"/>
    <path style="fill: none; fill-opacity:0; stroke-width: 0.02; stroke-linecap: round; stroke: #000000" d="M 318.996 238.946 L 316.743,238.884 L 316.847,241.401 L 316.151,241.469 L 316.048,238.951 L 311.708,239.091 C 310.93,239.026 310.582,239.06 310.582,239.06 C 310.45,239.143 310.351,239.574 310.286,240.352 L 310.255,241.479 L 309.129,241.448 L 309.16,240.321 C 309.233,239.261 309.471,238.466 309.918,238.001 C 310.249,237.794 310.944,237.726 312.004,237.799 L 316.343,237.659 L 316.11,236.699 L 316.805,236.631 L 317.039,237.591 L 319.292,237.654 L 318.996,238.946"/>
    <path style="fill: none; fill-opacity:0; stroke-width: 0.02; stroke-linecap: round; stroke: #000000" d="M 313.185 249.97 L 312.754,249.872 L 312.744,243.975 C 311.767,244.035 311.13,244.343 310.725,244.873 C 310.278,245.338 310.13,245.984 310.065,246.762 C 310.141,247.176 310.216,247.59 310.465,247.987 C 310.54,248.401 310.632,248.989 310.766,249.643 L 309.64,249.612 C 309.308,249.083 309.149,248.536 309.074,248.122 C 309.024,247.601 309.014,247.145 308.939,246.731 C 308.887,245.473 309.242,244.42 309.894,243.55 C 310.432,242.936 311.35,242.636 312.609,242.584 C 314.083,242.582 315.177,243.002 315.957,243.804 C 316.827,244.457 317.301,245.359 317.353,246.617 C 317.239,247.611 316.76,248.465 315.899,249.005 C 315.254,249.594 314.377,249.96 313.185,249.97 L 313.185,249.97"/>
    <path style="fill: none; fill-opacity:0; stroke-width: 0.02; stroke-linecap: round; stroke: #000000" d="M 314.01 248.346 C 314.424,248.27 314.97,248.112 315.5,247.78 C 316.029,247.448 316.236,247.042 316.226,246.586 C 316.225,245.849 315.959,245.278 315.495,244.832 C 315.162,244.302 314.607,244.005 313.87,244.007 L 314.01,248.346"/>
    <path style="fill: none; fill-opacity:0; stroke-width: 0.02; stroke-linecap: round; stroke: #000000" d="M 315.763 256.284 C 315.771,256.003 315.862,255.854 315.862,255.854 C 315.994,255.77 316.109,255.514 316.225,255.257 C 316.224,254.52 315.891,253.99 315.228,253.668 C 314.499,253.388 313.811,253.174 313.074,253.175 L 309,253.149 L 309.296,251.857 L 317.014,251.81 L 316.718,253.103 L 315.592,253.071 C 316.13,253.195 316.536,253.401 316.786,253.798 C 317.118,254.328 317.251,254.982 317.253,255.719 C 317.336,255.851 317.328,256.133 317.32,256.414 L 315.763,256.284"/>
    <path style="fill: none; fill-opacity:0; stroke-width: 0.02; stroke-linecap: round; stroke: #000000" d="M 319.805 261.403 L 318.845,261.637 L 318.876,260.511 C 318.759,260.031 318.684,259.617 318.476,259.286 C 318.352,259.087 318.028,259.013 317.615,259.088 L 316.919,259.156 L 316.955,260.978 L 316.26,261.045 L 316.224,259.223 L 309.201,259.202 L 309.066,257.811 L 316.089,257.832 L 316.384,256.54 L 317.08,256.473 L 316.784,257.765 L 317.215,257.864 C 318.084,257.779 318.689,257.861 318.938,258.258 C 319.403,258.704 319.71,259.342 319.836,260.277 L 319.805,261.403"/>
    <path style="fill: none; fill-opacity:0; stroke-width: 0.02; stroke-linecap: round; stroke: #000000" d="M 313.304 266.036 C 313.178,265.1 312.87,264.463 312.406,264.017 C 312.157,263.619 311.858,263.438 311.643,263.388 C 311.121,263.439 310.749,263.581 310.418,263.788 C 310.17,264.128 310.072,264.559 310.122,265.081 C 310.123,265.818 310.389,266.388 310.854,266.835 C 311.385,267.24 311.965,267.429 312.743,267.494 L 313.174,267.593 L 313.304,266.036"/>
    <path style="fill: none; fill-opacity:0; stroke-width: 0.02; stroke-linecap: round; stroke: #000000" d="M 313.838 268.652 L 309.333,268.527 L 309.1,267.567 L 310.226,267.598 C 309.844,267.284 309.463,266.97 309.131,266.44 C 308.882,266.043 308.873,265.588 308.996,265.049 C 308.936,264.072 309.043,263.36 309.489,262.895 C 309.894,262.365 310.465,262.099 311.243,262.164 C 312.113,262.079 312.8,262.293 313.133,262.823 C 313.548,263.485 313.781,264.445 313.833,265.703 L 313.869,267.525 L 314.3,267.624 C 314.714,267.549 315.177,267.258 315.624,266.793 C 316.029,266.263 316.193,265.79 316.184,265.335 C 316.068,264.855 316.017,264.333 315.883,263.679 C 315.767,263.199 315.733,262.851 315.65,262.719 L 316.61,262.486 C 316.744,263.139 316.794,263.661 316.911,264.141 C 317.243,264.671 317.319,265.085 317.311,265.366 C 317.321,266.559 316.95,267.437 316.288,267.852 C 315.842,268.317 315.031,268.641 313.838,268.652 L 313.838,268.652"/>
    <path style="fill: none; fill-opacity:0; stroke-width: 0.02; stroke-linecap: round; stroke: #000000" d="M 316.619 277.052 L 315.493,277.021 C 315.574,276.416 315.673,275.986 315.788,275.729 C 315.995,275.323 316.135,274.958 316.25,274.701 C 316.249,273.964 315.834,273.302 315.088,272.848 C 314.557,272.443 313.762,272.204 312.768,272.09 C 311.989,272.025 311.418,272.291 311.013,272.822 C 310.435,273.369 310.154,274.099 310.089,274.877 C 310.04,275.093 310.032,275.374 310.157,275.573 C 310.232,275.987 310.39,276.533 310.723,277.062 L 309.43,276.767 C 309.181,276.369 309.106,275.956 309.031,275.542 C 308.906,275.343 308.914,275.062 308.963,274.846 C 308.911,273.587 309.266,272.535 309.918,271.664 C 310.455,271.051 311.374,270.751 312.633,270.699 C 314.107,270.697 315.201,271.117 315.981,271.919 C 316.851,272.572 317.325,273.473 317.377,274.732 C 317.261,274.989 317.121,275.354 316.915,275.76 C 316.799,276.017 316.701,276.448 316.619,277.052 L 316.619,277.052"/>
    <path style="fill: none; fill-opacity:0; stroke-width: 0.02; stroke-linecap: round; stroke: #000000" d="M 313.189 285.845 L 312.758,285.746 L 312.748,279.85 C 311.771,279.909 311.134,280.217 310.729,280.748 C 310.283,281.212 310.135,281.858 310.07,282.637 C 310.145,283.051 310.22,283.465 310.469,283.862 C 310.545,284.276 310.637,284.864 310.77,285.517 L 309.644,285.486 C 309.312,284.957 309.154,284.411 309.078,283.997 C 309.028,283.475 309.019,283.02 308.943,282.606 C 308.892,281.347 309.246,280.295 309.899,279.424 C 310.436,278.81 311.354,278.511 312.613,278.459 C 314.087,278.456 315.181,278.877 315.961,279.678 C 316.832,280.331 317.305,281.233 317.357,282.492 C 317.243,283.486 316.764,284.339 315.904,284.879 C 315.259,285.468 314.382,285.834 313.189,285.845 L 313.189,285.845"/>
    <path style="fill: none; fill-opacity:0; stroke-width: 0.02; stroke-linecap: round; stroke: #000000" d="M 314.014 284.22 C 314.428,284.145 314.975,283.986 315.504,283.654 C 316.033,283.322 316.24,282.916 316.231,282.461 C 316.229,281.724 315.963,281.153 315.499,280.706 C 315.167,280.177 314.611,279.88 313.874,279.881 L 314.014,284.22"/>
  </g>
  <text font-size="27.0929" style="fill: #000000;text-anchor:middle;font-family:sans-serif;font-style:normal;font-weight:normal" x="210" y="189.375">
    <tspan x="210" y="189.375">ZipCPU</tspan>
  </text>
  <g>
    <rect style="fill: #ffffff" x="140" y="240" width="80" height="60"/>
    <rect style="fill: none; fill-opacity:0; stroke-width: 2; stroke-linecap: round; stroke: #000000" x="140" y="240" width="80" height="60"/>
  </g>
  <text font-size="12.7998" style="fill: #000000;text-anchor:middle;font-family:sans-serif;font-style:normal;font-weight:normal" x="180" y="266.45">
    <tspan x="180" y="266.45">Register</tspan>
    <tspan x="180" y="282.45">File</tspan>
  </text>
  <text font-size="18.0619" style="fill: #000000;text-anchor:middle;font-family:sans-serif;font-style:normal;font-weight:normal" x="200" y="26.25">
    <tspan x="200" y="26.25">ZipBones</tspan>
  </text>
  <g>
    <rect style="fill: #ffffff" x="0" y="140" width="40" height="160"/>
    <rect style="fill: none; fill-opacity:0; stroke-width: 2; stroke-linecap: round; stroke: #000000" x="0" y="140" width="40" height="160"/>
  </g>
  <g>
    <path style="fill: #000000" d="M 18.3131 161.427 L 10.3303,161.64 L 10.4653,163.031 C 10.4678,164.505 10.7429,165.531 11.332,166.176 C 11.7472,166.838 12.7333,167.234 14.2489,167.297 C 15.6399,167.163 16.5833,166.755 17.2282,166.166 C 17.9639,165.428 18.3844,164.334 18.448,162.818 L 18.3131,161.427z"/>
    <path style="fill: #000000" d="M 19.7353 160.166 L 19.5743,162.849 C 19.6443,165.019 19.2576,166.461 18.3233,167.324 C 17.3475,168.12 15.9902,168.603 14.3838,168.688 C 12.6113,168.509 11.3021,168.04 10.4392,167.105 C 9.72555,166.262 9.30907,164.863 9.17287,162.735 L 9.33384,160.052 L 19.7353,160.166z"/>
    <path style="fill: #000000" d="M 13.4883 177.551 L 13.0575,177.452 L 12.7825,171.722 C 11.8054,171.782 11.1268,172.023 10.5974,172.355 C 10.151,172.82 10.003,173.466 9.93815,174.245 C 10.0134,174.659 10.0886,175.072 10.3378,175.47 C 10.5376,176.082 10.6712,176.736 10.8049,177.39 L 9.67855,177.359 C 9.34638,176.829 9.18809,176.283 9.11284,175.869 C 9.06225,175.348 9.05318,174.892 8.97793,174.478 C 8.92606,173.22 9.28033,172.167 9.93304,171.297 C 10.6688,170.558 11.6537,170.217 12.9123,170.165 C 14.3864,170.163 15.4387,170.517 16.094,171.12 C 16.7661,171.897 17.1735,172.841 17.2254,174.099 C 17.2435,175.01 16.9386,175.847 16.2028,176.586 C 15.5579,177.175 14.6807,177.541 13.4883,177.551 L 13.4883,177.551z"/>
    <path style="fill: #ffffff" d="M 14.0489 176.093 C 14.4628,176.017 15.0091,175.859 15.5385,175.527 C 16.0679,175.195 16.2742,174.788 16.2652,174.333 C 16.2639,173.596 15.9979,173.025 15.5334,172.579 C 15.2012,172.049 14.6459,171.752 13.9088,171.753z"/>
    <path style="fill: #000000" d="M 12.8224 185.163 C 13.8163,185.277 14.6442,185.126 15.1736,184.794 C 15.8354,184.379 16.1988,183.782 16.2637,183.004 C 16.2624,182.266 15.9302,181.737 15.2671,181.415 C 14.7364,181.01 13.941,180.772 12.9471,180.657 C 12.1685,180.592 11.5561,180.792 11.0266,181.124 C 10.3649,181.54 10.0015,182.137 9.93663,182.915 C 9.9379,183.652 10.2701,184.182 10.9331,184.503 C 11.4638,184.908 12.0438,185.098 12.8224,185.163 L 12.8224,185.163z"/>
    <path style="fill: #000000" d="M 15.8952 180.652 C 16.2352,180.9 16.5751,181.148 16.8242,181.545 C 17.0319,181.876 17.124,182.464 17.1252,183.201 C 17.0603,183.979 16.6723,184.684 15.9366,185.422 C 15.2917,186.011 14.2653,186.286 12.7912,186.289 C 11.5987,186.299 10.6541,185.97 10.0404,185.432 C 9.25275,184.912 8.87906,184.316 8.87778,183.579 C 8.94268,182.801 9.02444,182.196 9.27229,181.856 C 9.54479,181.409 9.90034,181.093 10.4298,180.761 L 9.30346,180.73 L 9.33463,179.604 L 20.0008,179.552 L 19.9696,180.678 L 15.8952,180.652z"/>
    <path style="fill: #000000" d="M 12.1073 188.286 L 16.8773,188.244 L 17.0122,189.635 L 12.2423,189.677 C 11.4637,189.612 10.9174,189.77 10.5865,189.978 C 10.0571,190.31 9.80926,190.65 9.85985,191.172 C 9.86113,191.909 10.1271,192.48 10.5916,192.926 C 11.1223,193.331 11.7024,193.52 12.4809,193.585 L 16.82,193.445 L 16.955,194.836 L 9.23692,194.883 L 9.102,193.492 L 10.2283,193.523 C 9.84682,193.209 9.50686,192.961 9.29926,192.63 C 9.05013,192.233 8.97488,191.819 8.89963,191.405 C 8.97233,190.345 9.34346,189.467 9.9222,188.919 C 10.4516,188.587 11.1303,188.346 12.1073,188.286 L 12.1073,188.286z"/>
    <path style="fill: #000000" d="M 17.3132 191.291 L 17.3132,191.291z"/>
    <path style="fill: #000000" d="M 13.1671 202.47 C 13.9041,202.469 14.5581,202.335 15.0875,202.003 C 15.7493,201.588 16.1127,200.991 16.1776,200.212 C 16.0608,199.732 15.7286,199.203 15.1811,198.624 C 14.6504,198.219 14.0288,197.963 13.2918,197.965 C 12.2317,197.892 11.3791,198.15 10.8419,198.764 C 10.3955,199.228 10.2307,199.701 10.2813,200.222 C 10.2826,200.959 10.4656,201.398 10.847,201.712 C 11.3777,202.117 12.1732,202.356 13.1671,202.47 L 13.1671,202.47z"/>
    <path style="fill: #000000" d="M 9.92311 203.767 C 8.73063,203.778 7.78599,203.448 7.17225,202.911 C 6.58316,202.266 6.21726,201.389 6.20691,200.196 C 6.28089,199.873 6.37951,199.442 6.5028,198.904 C 6.57677,198.581 6.65074,198.258 6.70005,198.042 L 7.82636,198.073 C 7.694,198.156 7.53699,198.347 7.46302,198.67 C 7.33973,199.209 7.28263,199.706 7.33322,200.227 C 7.3345,200.964 7.51744,201.403 7.89893,201.717 C 8.23109,202.246 8.87729,202.394 9.78819,202.376 L 10.4837,202.309 C 10.1022,201.995 9.76226,201.747 9.55465,201.416 C 9.30553,201.019 9.23028,200.605 9.15503,200.191 C 9.22772,199.131 9.59885,198.253 10.1776,197.705 C 11.0379,197.165 12.0643,196.89 13.323,196.838 C 14.5154,196.828 15.4186,197.091 16.0738,197.695 C 16.8199,198.149 17.2105,198.918 17.1378,199.979 C 17.1469,200.434 17.0482,200.865 16.8419,201.271 C 16.5279,201.652 16.2138,202.034 15.6844,202.366 L 16.8107,202.397 L 16.9456,203.788 L 9.92311,203.767z"/>
    <path style="fill: #000000" d="M 12.8436 216.507 C 13.8376,216.621 14.6655,216.471 15.1949,216.139 C 15.8567,215.723 16.22,215.127 16.2849,214.348 C 16.2836,213.611 15.9514,213.082 15.2884,212.76 C 14.7577,212.355 13.9623,212.116 12.9683,212.002 C 12.1898,211.937 11.5773,212.137 11.0479,212.469 C 10.3861,212.884 10.0228,213.481 9.95787,214.26 C 9.95915,214.997 10.2913,215.526 10.9544,215.848 C 11.4851,216.253 12.0651,216.442 12.8436,216.507 L 12.8436,216.507z"/>
    <path style="fill: #000000" d="M 15.9164 211.997 C 16.2564,212.245 16.5964,212.492 16.8455,212.89 C 17.0531,213.22 17.1452,213.808 17.1465,214.545 C 17.0816,215.324 16.6936,216.028 15.9578,216.767 C 15.3129,217.356 14.2865,217.631 12.8125,217.633 C 11.62,217.644 10.6754,217.314 10.0616,216.777 C 9.27399,216.257 8.9003,215.661 8.89902,214.924 C 8.96392,214.145 9.04568,213.541 9.29353,213.201 C 9.56604,212.753 9.92158,212.438 10.451,212.106 L 9.3247,212.074 L 9.35587,210.948 L 20.022,210.896 L 19.9909,212.023 L 15.9164,211.997z"/>
    <path style="fill: #000000" d="M 12.1286 219.63 L 16.8985,219.589 L 17.0334,220.98 L 12.2635,221.021 C 11.485,220.956 10.9387,221.115 10.6078,221.322 C 10.0784,221.655 9.8305,221.994 9.8811,222.516 C 9.88237,223.253 10.1484,223.824 10.6129,224.27 C 11.1436,224.675 11.7236,224.865 12.5022,224.93 L 16.8413,224.79 L 16.9762,226.181 L 9.25816,226.227 L 9.12324,224.836 L 10.2495,224.867 C 9.86807,224.553 9.52811,224.305 9.3205,223.975 C 9.07137,223.578 8.99613,223.164 8.92088,222.75 C 8.99357,221.69 9.3647,220.811 9.94344,220.264 C 10.4729,219.931 11.1515,219.69 12.1286,219.63 L 12.1286,219.63z"/>
    <path style="fill: #000000" d="M 17.3344 222.636 L 17.3344,222.636z"/>
    <path style="fill: #000000" d="M 16.832 233.742 L 15.7057,233.711 C 15.7135,233.429 15.7874,233.106 15.9029,232.849 C 16.1092,232.443 16.2079,232.012 16.1988,231.557 C 16.1975,230.82 16.0639,230.166 15.7317,229.636 C 15.4826,229.239 15.2672,229.19 15.1348,229.273 C 14.6132,229.323 14.307,229.423 14.1746,229.506 C 14.0591,229.763 13.8943,230.236 13.614,230.965 L 13.5154,231.396 C 13.4012,232.39 13.1871,233.077 12.8562,233.285 C 12.4098,233.749 12.0127,233.999 11.5326,234.115 C 10.7541,234.05 10.1741,233.861 9.64335,233.456 C 9.17883,233.01 8.89597,232.265 9.01019,231.271 C 8.95959,230.749 9.0167,230.252 9.13999,229.714 C 9.08939,229.192 9.21268,228.654 9.5345,227.991 L 10.8269,228.287 C 10.5129,228.668 10.3065,229.074 10.1002,229.48 C 9.97692,230.019 9.91981,230.516 9.97041,231.037 C 10.0457,231.451 10.1209,231.865 10.37,232.262 C 10.5776,232.593 10.8346,232.709 10.9669,232.626 C 11.447,232.509 11.7948,232.475 11.9271,232.392 C 12.1257,232.268 12.332,231.861 12.6538,231.198 L 12.8511,230.337 C 12.8498,229.6 12.9316,228.995 13.2456,228.614 C 13.775,228.281 14.3875,228.082 15.166,228.146 C 15.5799,228.071 16.0276,228.344 16.3598,228.873 C 16.9073,229.452 17.2564,230.155 17.2577,230.892 C 17.2667,231.348 17.2096,231.845 17.1279,232.449 C 16.9384,233.029 16.8398,233.46 16.832,233.742 L 16.832,233.742z"/>
    <path style="fill: #000000" d="M 16.7862 245.576 L 15.6599,245.545 C 15.6677,245.263 15.7417,244.94 15.8572,244.683 C 16.0635,244.277 16.1622,243.846 16.1531,243.391 C 16.1518,242.654 16.0182,242 15.686,241.47 C 15.4369,241.073 15.2215,241.024 15.0891,241.107 C 14.5675,241.157 14.2613,241.257 14.1289,241.34 C 14.0134,241.597 13.8486,242.07 13.5683,242.799 L 13.4697,243.23 C 13.3555,244.224 13.1413,244.911 12.8105,245.119 C 12.3641,245.583 11.967,245.832 11.4869,245.949 C 10.7083,245.884 10.1283,245.695 9.59763,245.29 C 9.1331,244.844 8.85025,244.099 8.96446,243.105 C 8.91387,242.583 8.97098,242.086 9.09426,241.548 C 9.04367,241.026 9.16695,240.488 9.48877,239.825 L 10.7812,240.12 C 10.4671,240.502 10.2608,240.908 10.0545,241.314 C 9.9312,241.853 9.87409,242.35 9.92468,242.871 C 9.99993,243.285 10.0752,243.699 10.3243,244.096 C 10.5319,244.427 10.7888,244.543 10.9212,244.46 C 11.4013,244.343 11.7491,244.309 11.8814,244.226 C 12.0799,244.102 12.2863,243.695 12.6081,243.032 L 12.8053,242.171 C 12.8041,241.434 12.8858,240.829 13.1999,240.448 C 13.7293,240.115 14.3417,239.916 15.1203,239.98 C 15.5342,239.905 15.9819,240.178 16.3141,240.707 C 16.8616,241.286 17.2106,241.989 17.2119,242.726 C 17.221,243.182 17.1639,243.679 17.0821,244.283 C 16.8927,244.863 16.794,245.294 16.7862,245.576 L 16.7862,245.576z"/>
    <path style="fill: #000000" d="M 19.9705 248.005 L 19.9393,249.131 L 9.27313,249.183 L 9.3043,248.056 L 19.9705,248.005z"/>
    <path style="fill: #000000" d="M 13.3085 255.32 C 13.1826,254.385 12.8751,253.748 12.4106,253.301 C 12.1615,252.904 11.863,252.723 11.6476,252.673 C 11.126,252.724 10.7536,252.865 10.4227,253.073 C 10.0918,253.281 9.91013,253.579 9.96072,254.101 C 9.962,254.838 10.2942,255.367 10.9572,255.689 C 11.571,256.226 12.234,256.548 13.0126,256.613 L 13.4434,256.711 L 13.3085,255.32z"/>
    <path style="fill: #000000" d="M 13.6769 257.672 L 9.33778,257.812 L 9.36896,256.685 L 10.4953,256.717 C 9.91524,256.527 9.59994,256.172 9.40013,255.559 C 9.151,255.162 9.07575,254.748 9.0005,254.334 C 8.94084,253.357 9.17962,252.562 9.75835,252.014 C 10.1632,251.483 10.7342,251.217 11.5127,251.282 C 12.3821,251.198 13.0698,251.412 13.402,251.942 C 13.8172,252.603 14.0507,253.564 14.1026,254.822 L 14.1389,256.644 L 14.5697,256.743 C 14.9836,256.667 15.3145,256.46 15.6285,256.078 C 16.0334,255.548 16.1982,255.075 16.1891,254.62 C 16.0723,254.14 16.0218,253.618 15.8881,252.964 C 15.7714,252.484 15.6961,252.07 15.4885,251.739 L 16.6148,251.77 C 16.7484,252.424 16.799,252.946 16.9158,253.426 C 17.1234,253.757 17.1571,254.105 17.1493,254.386 C 17.1597,255.579 16.7886,256.457 16.1268,256.872 C 15.6804,257.337 14.8694,257.661 13.6769,257.672 L 13.6769,257.672z"/>
    <path style="fill: #000000" d="M 16.8105 259.579 L 16.9454,260.97 L 10.5561,263.134 L 16.9868,265.74 L 17.1218,267.131 L 9.13389,264.396 L 9.09761,262.574 L 16.8105,259.579z"/>
    <path style="fill: #000000" d="M 13.4844 275.593 L 13.0536,275.494 L 12.7787,269.764 C 11.8016,269.824 11.1229,270.065 10.5935,270.397 C 10.1471,270.862 9.9992,271.508 9.9343,272.286 C 10.0095,272.7 10.0848,273.114 10.3339,273.511 C 10.5337,274.124 10.6674,274.778 10.801,275.432 L 9.6747,275.401 C 9.34253,274.871 9.18424,274.325 9.10899,273.911 C 9.0584,273.389 9.04933,272.934 8.97408,272.52 C 8.92221,271.261 9.27647,270.209 9.92918,269.338 C 10.6649,268.6 11.6498,268.259 12.9085,268.207 C 14.3825,268.204 15.4349,268.558 16.0901,269.162 C 16.7623,269.939 17.1697,270.883 17.2215,272.141 C 17.2397,273.052 16.9347,273.889 16.199,274.627 C 15.5541,275.216 14.6769,275.582 13.4844,275.593 L 13.4844,275.593z"/>
    <path style="fill: #ffffff" d="M 14.045 274.134 C 14.4589,274.059 15.0052,273.901 15.5346,273.568 C 16.0641,273.236 16.2704,272.83 16.2613,272.375 C 16.26,271.638 15.9941,271.067 15.5295,270.62 C 15.1974,270.091 14.642,269.794 13.905,269.795z"/>
    <path style="fill: none; fill-opacity:0; stroke-width: 0.02; stroke-linecap: round; stroke: #000000" d="M 18.3131 161.427 L 10.3303,161.64 L 10.4653,163.031 C 10.4678,164.505 10.7429,165.531 11.332,166.176 C 11.7472,166.838 12.7333,167.234 14.2489,167.297 C 15.6399,167.163 16.5833,166.755 17.2282,166.166 C 17.9639,165.428 18.3844,164.334 18.448,162.818 L 18.3131,161.427"/>
    <path style="fill: none; fill-opacity:0; stroke-width: 0.02; stroke-linecap: round; stroke: #000000" d="M 19.7353 160.166 L 19.5743,162.849 C 19.6443,165.019 19.2576,166.461 18.3233,167.324 C 17.3475,168.12 15.9902,168.603 14.3838,168.688 C 12.6113,168.509 11.3021,168.04 10.4392,167.105 C 9.72555,166.262 9.30907,164.863 9.17287,162.735 L 9.33384,160.052 L 19.7353,160.166"/>
    <path style="fill: none; fill-opacity:0; stroke-width: 0.02; stroke-linecap: round; stroke: #000000" d="M 13.4883 177.551 L 13.0575,177.452 L 12.7825,171.722 C 11.8054,171.782 11.1268,172.023 10.5974,172.355 C 10.151,172.82 10.003,173.466 9.93815,174.245 C 10.0134,174.659 10.0886,175.072 10.3378,175.47 C 10.5376,176.082 10.6712,176.736 10.8049,177.39 L 9.67855,177.359 C 9.34638,176.829 9.18809,176.283 9.11284,175.869 C 9.06225,175.348 9.05318,174.892 8.97793,174.478 C 8.92606,173.22 9.28033,172.167 9.93304,171.297 C 10.6688,170.558 11.6537,170.217 12.9123,170.165 C 14.3864,170.163 15.4387,170.517 16.094,171.12 C 16.7661,171.897 17.1735,172.841 17.2254,174.099 C 17.2435,175.01 16.9386,175.847 16.2028,176.586 C 15.5579,177.175 14.6807,177.541 13.4883,177.551 L 13.4883,177.551"/>
    <path style="fill: none; fill-opacity:0; stroke-width: 0.02; stroke-linecap: round; stroke: #000000" d="M 14.0489 176.093 C 14.4628,176.017 15.0091,175.859 15.5385,175.527 C 16.0679,175.195 16.2742,174.788 16.2652,174.333 C 16.2639,173.596 15.9979,173.025 15.5334,172.579 C 15.2012,172.049 14.6459,171.752 13.9088,171.753 L 14.0489,176.093"/>
    <path style="fill: none; fill-opacity:0; stroke-width: 0.02; stroke-linecap: round; stroke: #000000" d="M 12.8224 185.163 C 13.8163,185.277 14.6442,185.126 15.1736,184.794 C 15.8354,184.379 16.1988,183.782 16.2637,183.004 C 16.2624,182.266 15.9302,181.737 15.2671,181.415 C 14.7364,181.01 13.941,180.772 12.9471,180.657 C 12.1685,180.592 11.5561,180.792 11.0266,181.124 C 10.3649,181.54 10.0015,182.137 9.93663,182.915 C 9.9379,183.652 10.2701,184.182 10.9331,184.503 C 11.4638,184.908 12.0438,185.098 12.8224,185.163 L 12.8224,185.163"/>
    <path style="fill: none; fill-opacity:0; stroke-width: 0.02; stroke-linecap: round; stroke: #000000" d="M 15.8952 180.652 C 16.2352,180.9 16.5751,181.148 16.8242,181.545 C 17.0319,181.876 17.124,182.464 17.1252,183.201 C 17.0603,183.979 16.6723,184.684 15.9366,185.422 C 15.2917,186.011 14.2653,186.286 12.7912,186.289 C 11.5987,186.299 10.6541,185.97 10.0404,185.432 C 9.25275,184.912 8.87906,184.316 8.87778,183.579 C 8.94268,182.801 9.02444,182.196 9.27229,181.856 C 9.54479,181.409 9.90034,181.093 10.4298,180.761 L 9.30346,180.73 L 9.33463,179.604 L 20.0008,179.552 L 19.9696,180.678 L 15.8952,180.652"/>
    <path style="fill: none; fill-opacity:0; stroke-width: 0.02; stroke-linecap: round; stroke: #000000" d="M 12.1073 188.286 L 16.8773,188.244 L 17.0122,189.635 L 12.2423,189.677 C 11.4637,189.612 10.9174,189.77 10.5865,189.978 C 10.0571,190.31 9.80926,190.65 9.85985,191.172 C 9.86113,191.909 10.1271,192.48 10.5916,192.926 C 11.1223,193.331 11.7024,193.52 12.4809,193.585 L 16.82,193.445 L 16.955,194.836 L 9.23692,194.883 L 9.102,193.492 L 10.2283,193.523 C 9.84682,193.209 9.50686,192.961 9.29926,192.63 C 9.05013,192.233 8.97488,191.819 8.89963,191.405 C 8.97233,190.345 9.34346,189.467 9.9222,188.919 C 10.4516,188.587 11.1303,188.346 12.1073,188.286 L 12.1073,188.286"/>
    <path style="fill: none; fill-opacity:0; stroke-width: 0.02; stroke-linecap: round; stroke: #000000" d="M 17.3132 191.291 L 17.3132,191.291"/>
    <path style="fill: none; fill-opacity:0; stroke-width: 0.02; stroke-linecap: round; stroke: #000000" d="M 13.1671 202.47 C 13.9041,202.469 14.5581,202.335 15.0875,202.003 C 15.7493,201.588 16.1127,200.991 16.1776,200.212 C 16.0608,199.732 15.7286,199.203 15.1811,198.624 C 14.6504,198.219 14.0288,197.963 13.2918,197.965 C 12.2317,197.892 11.3791,198.15 10.8419,198.764 C 10.3955,199.228 10.2307,199.701 10.2813,200.222 C 10.2826,200.959 10.4656,201.398 10.847,201.712 C 11.3777,202.117 12.1732,202.356 13.1671,202.47 L 13.1671,202.47"/>
    <path style="fill: none; fill-opacity:0; stroke-width: 0.02; stroke-linecap: round; stroke: #000000" d="M 9.92311 203.767 C 8.73063,203.778 7.78599,203.448 7.17225,202.911 C 6.58316,202.266 6.21726,201.389 6.20691,200.196 C 6.28089,199.873 6.37951,199.442 6.5028,198.904 C 6.57677,198.581 6.65074,198.258 6.70005,198.042 L 7.82636,198.073 C 7.694,198.156 7.53699,198.347 7.46302,198.67 C 7.33973,199.209 7.28263,199.706 7.33322,200.227 C 7.3345,200.964 7.51744,201.403 7.89893,201.717 C 8.23109,202.246 8.87729,202.394 9.78819,202.376 L 10.4837,202.309 C 10.1022,201.995 9.76226,201.747 9.55465,201.416 C 9.30553,201.019 9.23028,200.605 9.15503,200.191 C 9.22772,199.131 9.59885,198.253 10.1776,197.705 C 11.0379,197.165 12.0643,196.89 13.323,196.838 C 14.5154,196.828 15.4186,197.091 16.0738,197.695 C 16.8199,198.149 17.2105,198.918 17.1378,199.979 C 17.1469,200.434 17.0482,200.865 16.8419,201.271 C 16.5279,201.652 16.2138,202.034 15.6844,202.366 L 16.8107,202.397 L 16.9456,203.788 L 9.92311,203.767"/>
    <path style="fill: none; fill-opacity:0; stroke-width: 0.02; stroke-linecap: round; stroke: #000000" d="M 12.8436 216.507 C 13.8376,216.621 14.6655,216.471 15.1949,216.139 C 15.8567,215.723 16.22,215.127 16.2849,214.348 C 16.2836,213.611 15.9514,213.082 15.2884,212.76 C 14.7577,212.355 13.9623,212.116 12.9683,212.002 C 12.1898,211.937 11.5773,212.137 11.0479,212.469 C 10.3861,212.884 10.0228,213.481 9.95787,214.26 C 9.95915,214.997 10.2913,215.526 10.9544,215.848 C 11.4851,216.253 12.0651,216.442 12.8436,216.507 L 12.8436,216.507"/>
    <path style="fill: none; fill-opacity:0; stroke-width: 0.02; stroke-linecap: round; stroke: #000000" d="M 15.9164 211.997 C 16.2564,212.245 16.5964,212.492 16.8455,212.89 C 17.0531,213.22 17.1452,213.808 17.1465,214.545 C 17.0816,215.324 16.6936,216.028 15.9578,216.767 C 15.3129,217.356 14.2865,217.631 12.8125,217.633 C 11.62,217.644 10.6754,217.314 10.0616,216.777 C 9.27399,216.257 8.9003,215.661 8.89902,214.924 C 8.96392,214.145 9.04568,213.541 9.29353,213.201 C 9.56604,212.753 9.92158,212.438 10.451,212.106 L 9.3247,212.074 L 9.35587,210.948 L 20.022,210.896 L 19.9909,212.023 L 15.9164,211.997"/>
    <path style="fill: none; fill-opacity:0; stroke-width: 0.02; stroke-linecap: round; stroke: #000000" d="M 12.1286 219.63 L 16.8985,219.589 L 17.0334,220.98 L 12.2635,221.021 C 11.485,220.956 10.9387,221.115 10.6078,221.322 C 10.0784,221.655 9.8305,221.994 9.8811,222.516 C 9.88237,223.253 10.1484,223.824 10.6129,224.27 C 11.1436,224.675 11.7236,224.865 12.5022,224.93 L 16.8413,224.79 L 16.9762,226.181 L 9.25816,226.227 L 9.12324,224.836 L 10.2495,224.867 C 9.86807,224.553 9.52811,224.305 9.3205,223.975 C 9.07137,223.578 8.99613,223.164 8.92088,222.75 C 8.99357,221.69 9.3647,220.811 9.94344,220.264 C 10.4729,219.931 11.1515,219.69 12.1286,219.63 L 12.1286,219.63"/>
    <path style="fill: none; fill-opacity:0; stroke-width: 0.02; stroke-linecap: round; stroke: #000000" d="M 17.3344 222.636 L 17.3344,222.636"/>
    <path style="fill: none; fill-opacity:0; stroke-width: 0.02; stroke-linecap: round; stroke: #000000" d="M 16.832 233.742 L 15.7057,233.711 C 15.7135,233.429 15.7874,233.106 15.9029,232.849 C 16.1092,232.443 16.2079,232.012 16.1988,231.557 C 16.1975,230.82 16.0639,230.166 15.7317,229.636 C 15.4826,229.239 15.2672,229.19 15.1348,229.273 C 14.6132,229.323 14.307,229.423 14.1746,229.506 C 14.0591,229.763 13.8943,230.236 13.614,230.965 L 13.5154,231.396 C 13.4012,232.39 13.1871,233.077 12.8562,233.285 C 12.4098,233.749 12.0127,233.999 11.5326,234.115 C 10.7541,234.05 10.1741,233.861 9.64335,233.456 C 9.17883,233.01 8.89597,232.265 9.01019,231.271 C 8.95959,230.749 9.0167,230.252 9.13999,229.714 C 9.08939,229.192 9.21268,228.654 9.5345,227.991 L 10.8269,228.287 C 10.5129,228.668 10.3065,229.074 10.1002,229.48 C 9.97692,230.019 9.91981,230.516 9.97041,231.037 C 10.0457,231.451 10.1209,231.865 10.37,232.262 C 10.5776,232.593 10.8346,232.709 10.9669,232.626 C 11.447,232.509 11.7948,232.475 11.9271,232.392 C 12.1257,232.268 12.332,231.861 12.6538,231.198 L 12.8511,230.337 C 12.8498,229.6 12.9316,228.995 13.2456,228.614 C 13.775,228.281 14.3875,228.082 15.166,228.146 C 15.5799,228.071 16.0276,228.344 16.3598,228.873 C 16.9073,229.452 17.2564,230.155 17.2577,230.892 C 17.2667,231.348 17.2096,231.845 17.1279,232.449 C 16.9384,233.029 16.8398,233.46 16.832,233.742 L 16.832,233.742"/>
    <path style="fill: none; fill-opacity:0; stroke-width: 0.02; stroke-linecap: round; stroke: #000000" d="M 16.7862 245.576 L 15.6599,245.545 C 15.6677,245.263 15.7417,244.94 15.8572,244.683 C 16.0635,244.277 16.1622,243.846 16.1531,243.391 C 16.1518,242.654 16.0182,242 15.686,241.47 C 15.4369,241.073 15.2215,241.024 15.0891,241.107 C 14.5675,241.157 14.2613,241.257 14.1289,241.34 C 14.0134,241.597 13.8486,242.07 13.5683,242.799 L 13.4697,243.23 C 13.3555,244.224 13.1413,244.911 12.8105,245.119 C 12.3641,245.583 11.967,245.832 11.4869,245.949 C 10.7083,245.884 10.1283,245.695 9.59763,245.29 C 9.1331,244.844 8.85025,244.099 8.96446,243.105 C 8.91387,242.583 8.97098,242.086 9.09426,241.548 C 9.04367,241.026 9.16695,240.488 9.48877,239.825 L 10.7812,240.12 C 10.4671,240.502 10.2608,240.908 10.0545,241.314 C 9.9312,241.853 9.87409,242.35 9.92468,242.871 C 9.99993,243.285 10.0752,243.699 10.3243,244.096 C 10.5319,244.427 10.7888,244.543 10.9212,244.46 C 11.4013,244.343 11.7491,244.309 11.8814,244.226 C 12.0799,244.102 12.2863,243.695 12.6081,243.032 L 12.8053,242.171 C 12.8041,241.434 12.8858,240.829 13.1999,240.448 C 13.7293,240.115 14.3417,239.916 15.1203,239.98 C 15.5342,239.905 15.9819,240.178 16.3141,240.707 C 16.8616,241.286 17.2106,241.989 17.2119,242.726 C 17.221,243.182 17.1639,243.679 17.0821,244.283 C 16.8927,244.863 16.794,245.294 16.7862,245.576 L 16.7862,245.576"/>
    <path style="fill: none; fill-opacity:0; stroke-width: 0.02; stroke-linecap: round; stroke: #000000" d="M 19.9705 248.005 L 19.9393,249.131 L 9.27313,249.183 L 9.3043,248.056 L 19.9705,248.005"/>
    <path style="fill: none; fill-opacity:0; stroke-width: 0.02; stroke-linecap: round; stroke: #000000" d="M 13.3085 255.32 C 13.1826,254.385 12.8751,253.748 12.4106,253.301 C 12.1615,252.904 11.863,252.723 11.6476,252.673 C 11.126,252.724 10.7536,252.865 10.4227,253.073 C 10.0918,253.281 9.91013,253.579 9.96072,254.101 C 9.962,254.838 10.2942,255.367 10.9572,255.689 C 11.571,256.226 12.234,256.548 13.0126,256.613 L 13.4434,256.711 L 13.3085,255.32"/>
    <path style="fill: none; fill-opacity:0; stroke-width: 0.02; stroke-linecap: round; stroke: #000000" d="M 13.6769 257.672 L 9.33778,257.812 L 9.36896,256.685 L 10.4953,256.717 C 9.91524,256.527 9.59994,256.172 9.40013,255.559 C 9.151,255.162 9.07575,254.748 9.0005,254.334 C 8.94084,253.357 9.17962,252.562 9.75835,252.014 C 10.1632,251.483 10.7342,251.217 11.5127,251.282 C 12.3821,251.198 13.0698,251.412 13.402,251.942 C 13.8172,252.603 14.0507,253.564 14.1026,254.822 L 14.1389,256.644 L 14.5697,256.743 C 14.9836,256.667 15.3145,256.46 15.6285,256.078 C 16.0334,255.548 16.1982,255.075 16.1891,254.62 C 16.0723,254.14 16.0218,253.618 15.8881,252.964 C 15.7714,252.484 15.6961,252.07 15.4885,251.739 L 16.6148,251.77 C 16.7484,252.424 16.799,252.946 16.9158,253.426 C 17.1234,253.757 17.1571,254.105 17.1493,254.386 C 17.1597,255.579 16.7886,256.457 16.1268,256.872 C 15.6804,257.337 14.8694,257.661 13.6769,257.672 L 13.6769,257.672"/>
    <path style="fill: none; fill-opacity:0; stroke-width: 0.02; stroke-linecap: round; stroke: #000000" d="M 16.8105 259.579 L 16.9454,260.97 L 10.5561,263.134 L 16.9868,265.74 L 17.1218,267.131 L 9.13389,264.396 L 9.09761,262.574 L 16.8105,259.579"/>
    <path style="fill: none; fill-opacity:0; stroke-width: 0.02; stroke-linecap: round; stroke: #000000" d="M 13.4844 275.593 L 13.0536,275.494 L 12.7787,269.764 C 11.8016,269.824 11.1229,270.065 10.5935,270.397 C 10.1471,270.862 9.9992,271.508 9.9343,272.286 C 10.0095,272.7 10.0848,273.114 10.3339,273.511 C 10.5337,274.124 10.6674,274.778 10.801,275.432 L 9.6747,275.401 C 9.34253,274.871 9.18424,274.325 9.10899,273.911 C 9.0584,273.389 9.04933,272.934 8.97408,272.52 C 8.92221,271.261 9.27647,270.209 9.92918,269.338 C 10.6649,268.6 11.6498,268.259 12.9085,268.207 C 14.3825,268.204 15.4349,268.558 16.0901,269.162 C 16.7623,269.939 17.1697,270.883 17.2215,272.141 C 17.2397,273.052 16.9347,273.889 16.199,274.627 C 15.5541,275.216 14.6769,275.582 13.4844,275.593 L 13.4844,275.593"/>
    <path style="fill: none; fill-opacity:0; stroke-width: 0.02; stroke-linecap: round; stroke: #000000" d="M 14.045 274.134 C 14.4589,274.059 15.0052,273.901 15.5346,273.568 C 16.0641,273.236 16.2704,272.83 16.2613,272.375 C 16.26,271.638 15.9941,271.067 15.5295,270.62 C 15.1974,270.091 14.642,269.794 13.905,269.795 L 14.045,274.134"/>
  </g>
  <g>
    <polygon style="fill: #ffffff" points="72,216 64,216 64,208 68,208 60,200 52,208 56,208 56,216 48,216 48,212 40,220 48,228 48,224 72,224 72,228 80,220 72,212 "/>
    <polygon style="fill: none; fill-opacity:0; stroke-width: 2; stroke: #000000" points="72,216 64,216 64,208 68,208 60,200 52,208 56,208 56,216 48,216 48,212 40,220 48,228 48,224 72,224 72,228 80,220 72,212 "/>
    <polygon style="fill: none; fill-opacity:0; stroke-width: 2; stroke: #000000" points="72,216 64,216 64,208 68,208 60,200 52,208 56,208 56,216 48,216 48,212 40,220 48,228 48,224 72,224 72,228 80,220 72,212 "/>
  </g>
  <line style="fill: none; fill-opacity:0; stroke-width: 2; stroke: #000000" x1="60" y1="200" x2="60" y2="120"/>
  <g>
    <rect style="fill: #1e90ff" x="40" y="60" width="40" height="60"/>
    <rect style="fill: none; fill-opacity:0; stroke-width: 2; stroke: #000000" x="40" y="60" width="40" height="60"/>
  </g>
  <g>
    <polyline style="fill: none; fill-opacity:0; stroke-width: 2; stroke: #000000" points="129.736,220 141,220 141,220 180,220 180,230.264 "/>
    <polygon style="fill: #000000" points="122.236,220 132.236,215 129.736,220 132.236,225 "/>
    <polygon style="fill: none; fill-opacity:0; stroke-width: 2; stroke: #000000" points="122.236,220 132.236,215 129.736,220 132.236,225 "/>
    <polygon style="fill: #000000" points="180,237.764 175,227.764 180,230.264 185,227.764 "/>
    <polygon style="fill: none; fill-opacity:0; stroke-width: 2; stroke: #000000" points="180,237.764 175,227.764 180,230.264 185,227.764 "/>
  </g>
</svg>
