<?xml version="1.0" encoding="UTF-8" standalone="no"?>
<!DOCTYPE svg PUBLIC "-//W3C//DTD SVG 1.0//EN" "http://www.w3.org/TR/2001/PR-SVG-20010719/DTD/svg10.dtd">
<svg width="75cm" height="28cm" viewBox="17 -3 1487 545" xmlns="http://www.w3.org/2000/svg" xmlns:xlink="http://www.w3.org/1999/xlink">
  <g>
    <rect style="fill: #ffffff" x="360" y="80" width="200" height="40"/>
    <rect style="fill: none; fill-opacity:0; stroke-width: 4; stroke: #5bbfde" x="360" y="80" width="200" height="40"/>
  </g>
  <text font-size="18.0622" style="fill: #000000;text-anchor:middle;font-family:sans-serif;font-style:normal;font-weight:normal" x="460" y="106.25">
    <tspan x="460" y="106.25">UART-&gt;WB converter</tspan>
  </text>
  <g>
    <rect style="fill: #ffffff" x="260" y="320" width="120" height="40"/>
    <rect style="fill: none; fill-opacity:0; stroke-width: 4; stroke: #5bbfde" x="260" y="320" width="120" height="40"/>
  </g>
  <text font-size="18.0622" style="fill: #000000;text-anchor:middle;font-family:sans-serif;font-style:normal;font-weight:normal" x="320" y="346.25">
    <tspan x="320" y="346.25">Bus Arbiter</tspan>
  </text>
  <g>
    <rect style="fill: #ffffff" x="900" y="200" width="120" height="40"/>
    <rect style="fill: none; fill-opacity:0; stroke-width: 4; stroke: #5bbfde" x="900" y="200" width="120" height="40"/>
  </g>
  <text font-size="18.0622" style="fill: #000000;text-anchor:middle;font-family:sans-serif;font-style:normal;font-weight:normal" x="960" y="226.25">
    <tspan x="960" y="226.25">PS/2 Mouse</tspan>
  </text>
  <g>
    <rect style="fill: #ffffff" x="1040" y="200" width="120" height="40"/>
    <rect style="fill: none; fill-opacity:0; stroke-width: 4; stroke: #5bbfde" x="1040" y="200" width="120" height="40"/>
  </g>
  <text font-size="18.0622" style="fill: #000000;text-anchor:middle;font-family:sans-serif;font-style:normal;font-weight:normal" x="1100" y="226.25">
    <tspan x="1100" y="226.25">IO-Slave</tspan>
  </text>
  <g>
    <rect style="fill: #ffffff" x="540" y="200" width="120" height="40"/>
    <rect style="fill: none; fill-opacity:0; stroke-width: 4; stroke: #5bbfde" x="540" y="200" width="120" height="40"/>
  </g>
  <text font-size="18.0622" style="fill: #000000;text-anchor:middle;font-family:sans-serif;font-style:normal;font-weight:normal" x="600" y="226.25">
    <tspan x="600" y="226.25">Block RAM</tspan>
  </text>
  <g>
    <rect style="fill: #ffffff" x="360" y="200" width="160" height="40"/>
    <rect style="fill: none; fill-opacity:0; stroke-width: 4; stroke: #5bbfde" x="360" y="200" width="160" height="40"/>
  </g>
  <text font-size="18.0622" style="fill: #000000;text-anchor:middle;font-family:sans-serif;font-style:normal;font-weight:normal" x="440" y="226.25">
    <tspan x="440" y="226.25">VGA Controller</tspan>
  </text>
  <g>
    <rect style="fill: #ffffcf" x="1360" y="200" width="120" height="40"/>
    <rect style="fill: none; fill-opacity:0; stroke-width: 4; stroke: #5bbfde" x="1360" y="200" width="120" height="40"/>
  </g>
  <line style="fill: none; fill-opacity:0; stroke-width: 8; stroke: #5bbfde" x1="200" y1="160" x2="1500" y2="160"/>
  <line style="fill: none; fill-opacity:0; stroke-width: 2; stroke: #000000" x1="260" y1="160" x2="120" y2="440"/>
  <line style="fill: none; fill-opacity:0; stroke-width: 2; stroke: #000000" x1="340" y1="160" x2="280" y2="280"/>
  <line style="fill: none; fill-opacity:0; stroke-width: 2; stroke: #000000" x1="980" y1="160" x2="960" y2="200"/>
  <line style="fill: none; fill-opacity:0; stroke-width: 2; stroke: #000000" x1="620" y1="160" x2="600" y2="200"/>
  <line style="fill: none; fill-opacity:0; stroke-width: 2; stroke: #000000" x1="460" y1="160" x2="440" y2="200"/>
  <line style="fill: none; fill-opacity:0; stroke-width: 2; stroke: #000000" x1="1440" y1="160" x2="1420" y2="200"/>
  <line style="fill: none; fill-opacity:0; stroke-width: 2; stroke: #000000" x1="460" y1="120" x2="440" y2="160"/>
  <text font-size="18.0622" style="fill: #000000;text-anchor:middle;font-family:sans-serif;font-style:normal;font-weight:normal" x="1420" y="226.25">
    <tspan x="1420" y="226.25">Scope</tspan>
  </text>
  <g>
    <rect style="fill: #ffa4a4" x="20" y="440" width="380" height="80" rx="20" ry="20"/>
    <rect style="fill: none; fill-opacity:0; stroke-width: 4; stroke-linejoin: round; stroke: #5bbfde" x="20" y="440" width="380" height="80" rx="20" ry="20"/>
  </g>
  <g>
    <rect style="fill: #ffffff" x="40" y="460" width="160" height="40"/>
    <rect style="fill: none; fill-opacity:0; stroke-width: 4; stroke: #5bbfde" x="40" y="460" width="160" height="40"/>
  </g>
  <text font-size="18.0622" style="fill: #000000;text-anchor:middle;font-family:sans-serif;font-style:normal;font-weight:normal" x="120" y="486.25">
    <tspan x="120" y="486.25">Flash Control</tspan>
  </text>
  <g>
    <rect style="fill: #ffffff" x="220" y="460" width="160" height="40"/>
    <rect style="fill: none; fill-opacity:0; stroke-width: 4; stroke: #5bbfde" x="220" y="460" width="160" height="40"/>
  </g>
  <text font-size="18.0622" style="fill: #000000;text-anchor:middle;font-family:sans-serif;font-style:normal;font-weight:normal" x="300" y="486.25">
    <tspan x="300" y="486.25">Flash Data</tspan>
  </text>
  <line style="fill: none; fill-opacity:0; stroke-width: 2; stroke: #000000" x1="120" y1="440" x2="120" y2="460"/>
  <line style="fill: none; fill-opacity:0; stroke-width: 2; stroke: #000000" x1="300" y1="440" x2="300" y2="460"/>
  <line style="fill: none; fill-opacity:0; stroke-width: 2; stroke: #000000" x1="240" y1="400" x2="400" y2="400"/>
  <line style="fill: none; fill-opacity:0; stroke-width: 2; stroke: #000000" x1="300" y1="440" x2="320" y2="400"/>
  <line style="fill: none; fill-opacity:0; stroke-width: 2; stroke: #000000" x1="320" y1="360" x2="300" y2="400"/>
  <line style="fill: none; fill-opacity:0; stroke-width: 2; stroke: #000000" x1="240" y1="280" x2="420" y2="280"/>
  <line style="fill: none; fill-opacity:0; stroke-width: 2; stroke: #000000" x1="400" y1="240" x2="380" y2="280"/>
  <line style="fill: none; fill-opacity:0; stroke-width: 2; stroke: #000000" x1="340" y1="280" x2="320" y2="320"/>
  <g>
    <rect style="fill: #ffffff" x="720" y="200" width="120" height="40"/>
    <rect style="fill: none; fill-opacity:0; stroke-width: 4; stroke: #5bbfde" x="720" y="200" width="120" height="40"/>
  </g>
  <text font-size="18.0622" style="fill: #000000;text-anchor:middle;font-family:sans-serif;font-style:normal;font-weight:normal" x="780" y="226.25">
    <tspan x="780" y="226.25">RTC</tspan>
  </text>
  <line style="fill: none; fill-opacity:0; stroke-width: 2; stroke: #000000" x1="800" y1="160" x2="780" y2="200"/>
  <g>
    <rect style="fill: #ffffff" x="600" y="280" width="120" height="40"/>
    <rect style="fill: none; fill-opacity:0; stroke-width: 4; stroke: #5bbfde" x="600" y="280" width="120" height="40"/>
  </g>
  <text font-size="18.0622" style="fill: #000000;text-anchor:middle;font-family:sans-serif;font-style:normal;font-weight:normal" x="660" y="306.25">
    <tspan x="660" y="306.25">UART</tspan>
  </text>
  <line style="fill: none; fill-opacity:0; stroke-width: 2; stroke: #000000" x1="720" y1="160" x2="660" y2="280"/>
  <g>
    <rect style="fill: #ffffff" x="1240" y="280" width="120" height="40"/>
    <rect style="fill: none; fill-opacity:0; stroke-width: 4; stroke: #5bbfde" x="1240" y="280" width="120" height="40"/>
  </g>
  <text font-size="18.0622" style="fill: #000000;text-anchor:middle;font-family:sans-serif;font-style:normal;font-weight:normal" x="1300" y="306.25">
    <tspan x="1300" y="306.25">GPS Clock</tspan>
  </text>
  <g>
    <rect style="fill: #ffffff" x="1180" y="200" width="120" height="40"/>
    <rect style="fill: none; fill-opacity:0; stroke-width: 4; stroke: #5bbfde" x="1180" y="200" width="120" height="40"/>
  </g>
  <text font-size="18.0622" style="fill: #000000;text-anchor:middle;font-family:sans-serif;font-style:normal;font-weight:normal" x="1240" y="226.25">
    <tspan x="1240" y="226.25">GPS TB</tspan>
  </text>
  <line style="fill: none; fill-opacity:0; stroke-width: 2; stroke: #000000" x1="1260" y1="160" x2="1240" y2="200"/>
  <g>
    <rect style="fill: #ffffff" x="780" y="280" width="120" height="40"/>
    <rect style="fill: none; fill-opacity:0; stroke-width: 4; stroke: #5bbfde" x="780" y="280" width="120" height="40"/>
  </g>
  <text font-size="18.0622" style="fill: #000000;text-anchor:middle;font-family:sans-serif;font-style:normal;font-weight:normal" x="840" y="306.25">
    <tspan x="840" y="306.25">SSD</tspan>
  </text>
  <text font-size="36.1244" style="fill: #000000;text-anchor:middle;font-family:sans-serif;font-style:normal;font-weight:normal" x="160" y="52.5">
    <tspan x="160" y="52.5">Digilent Basys3</tspan>
  </text>
  <line style="fill: none; fill-opacity:0; stroke-width: 2; stroke: #000000" x1="1120" y1="160" x2="1100" y2="200"/>
  <line style="fill: none; fill-opacity:0; stroke-width: 2; stroke: #000000" x1="900" y1="160" x2="840" y2="280"/>
  <line style="fill: none; fill-opacity:0; stroke-width: 2; stroke: #000000" x1="1360" y1="160" x2="1300" y2="280"/>
  <g>
    <rect style="fill: #ffffff" x="720" y="420" width="120" height="40"/>
    <rect style="fill: none; fill-opacity:0; stroke-width: 4; stroke: #5bbfde" x="720" y="420" width="120" height="40"/>
  </g>
  <text font-size="18.0622" style="fill: #000000;text-anchor:middle;font-family:sans-serif;font-style:normal;font-weight:normal" x="780" y="446.25">
    <tspan x="780" y="446.25">Version</tspan>
  </text>
  <g>
    <rect style="fill: #ffffff" x="920" y="420" width="120" height="40"/>
    <rect style="fill: none; fill-opacity:0; stroke-width: 4; stroke: #5bbfde" x="920" y="420" width="120" height="40"/>
  </g>
  <text font-size="18.0622" style="fill: #000000;text-anchor:middle;font-family:sans-serif;font-style:normal;font-weight:normal" x="980" y="446.25">
    <tspan x="980" y="446.25">Counter(s)</tspan>
  </text>
  <g>
    <rect style="fill: #ffffff" x="800" y="500" width="120" height="40"/>
    <rect style="fill: none; fill-opacity:0; stroke-width: 4; stroke: #5bbfde" x="800" y="500" width="120" height="40"/>
  </g>
  <text font-size="18.0622" style="fill: #000000;text-anchor:middle;font-family:sans-serif;font-style:normal;font-weight:normal" x="860" y="526.25">
    <tspan x="860" y="526.25">UART Setup</tspan>
  </text>
  <line style="fill: none; fill-opacity:0; stroke-width: 2; stroke: #000000" x1="800" y1="380" x2="780" y2="420"/>
  <line style="fill: none; fill-opacity:0; stroke-width: 2; stroke: #000000" x1="1000" y1="380" x2="980" y2="420"/>
  <line style="fill: none; fill-opacity:0; stroke-width: 2; stroke: #000000" x1="920" y1="380" x2="860" y2="500"/>
  <g>
    <rect style="fill: #ffffff" x="1100" y="420" width="120" height="40"/>
    <rect style="fill: none; fill-opacity:0; stroke-width: 4; stroke: #5bbfde" x="1100" y="420" width="120" height="40"/>
  </g>
  <g>
    <rect style="fill: #ffffff" x="980" y="500" width="120" height="40"/>
    <rect style="fill: none; fill-opacity:0; stroke-width: 4; stroke: #5bbfde" x="980" y="500" width="120" height="40"/>
  </g>
  <line style="fill: none; fill-opacity:0; stroke-width: 2; stroke: #000000" x1="1180" y1="380" x2="1160" y2="420"/>
  <line style="fill: none; fill-opacity:0; stroke-width: 2; stroke: #000000" x1="1100" y1="380" x2="1040" y2="500"/>
  <g>
    <rect style="fill: #ffffff" x="1280" y="420" width="120" height="40"/>
    <rect style="fill: none; fill-opacity:0; stroke-width: 4; stroke: #5bbfde" x="1280" y="420" width="120" height="40"/>
  </g>
  <g>
    <rect style="fill: #ffffff" x="1160" y="500" width="120" height="40"/>
    <rect style="fill: none; fill-opacity:0; stroke-width: 4; stroke: #5bbfde" x="1160" y="500" width="120" height="40"/>
  </g>
  <line style="fill: none; fill-opacity:0; stroke-width: 2; stroke: #000000" x1="1360" y1="380" x2="1340" y2="420"/>
  <line style="fill: none; fill-opacity:0; stroke-width: 2; stroke: #000000" x1="1280" y1="380" x2="1220" y2="500"/>
  <text font-size="18.0622" style="fill: #000000;text-anchor:middle;font-family:sans-serif;font-style:normal;font-weight:normal" x="1040" y="526.25">
    <tspan x="1040" y="526.25">Interrupts</tspan>
  </text>
  <text font-size="18.0622" style="fill: #000000;text-anchor:middle;font-family:sans-serif;font-style:normal;font-weight:normal" x="1160" y="446.25">
    <tspan x="1160" y="446.25">Buttons</tspan>
  </text>
  <text font-size="18.0622" style="fill: #000000;text-anchor:middle;font-family:sans-serif;font-style:normal;font-weight:normal" x="1220" y="526.25">
    <tspan x="1220" y="526.25">Switches</tspan>
  </text>
  <text font-size="18.0622" style="fill: #000000;text-anchor:middle;font-family:sans-serif;font-style:normal;font-weight:normal" x="1340" y="446.25">
    <tspan x="1340" y="446.25">LEDs</tspan>
  </text>
  <line style="fill: none; fill-opacity:0; stroke-width: 4; stroke: #5bbfde" x1="760" y1="380" x2="1420" y2="380"/>
  <line style="fill: none; fill-opacity:0; stroke-width: 4; stroke: #5bbfde" x1="1100" y1="240" x2="1040" y2="380"/>
  <g>
    <line style="fill: none; fill-opacity:0; stroke-width: 2; stroke: #000000" x1="420" y1="0" x2="420" y2="70.2639"/>
    <polygon style="fill: #000000" points="420,77.7639 415,67.7639 420,70.2639 425,67.7639 "/>
    <polygon style="fill: none; fill-opacity:0; stroke-width: 2; stroke: #000000" points="420,77.7639 415,67.7639 420,70.2639 425,67.7639 "/>
  </g>
  <g>
    <line style="fill: none; fill-opacity:0; stroke-width: 2; stroke: #000000" x1="500" y1="80" x2="500" y2="9.73607"/>
    <polygon style="fill: #000000" points="500,2.23607 505,12.2361 500,9.73607 495,12.2361 "/>
    <polygon style="fill: none; fill-opacity:0; stroke-width: 2; stroke: #000000" points="500,2.23607 505,12.2361 500,9.73607 495,12.2361 "/>
  </g>
  <text font-size="18.0622" style="fill: #000000;text-anchor:middle;font-family:sans-serif;font-style:normal;font-weight:normal" x="540" y="66.25">
    <tspan x="540" y="66.25">UART</tspan>
  </text>
</svg>
