<?xml version="1.0" encoding="UTF-8" standalone="no"?>
<!DOCTYPE svg PUBLIC "-//W3C//DTD SVG 1.0//EN" "http://www.w3.org/TR/2001/PR-SVG-20010719/DTD/svg10.dtd">
<svg width="57cm" height="10cm" viewBox="-3 28 1124 194" xmlns="http://www.w3.org/2000/svg" xmlns:xlink="http://www.w3.org/1999/xlink">
  <g>
    <g>
      <rect style="fill: #ffffff" x="100" y="60" width="340" height="120"/>
      <rect style="fill: none; fill-opacity:0; stroke-width: 2; stroke: #000000" x="100" y="60" width="340" height="120"/>
    </g>
    <text font-size="27.0933" style="fill: #000000;text-anchor:start;font-family:monospace;font-style:normal;font-weight:normal" x="160" y="112.442">
      <tspan x="160" y="112.442">A = REGS[Ra]</tspan>
      <tspan x="160" y="146.308">B = REGS[Rb]+I</tspan>
    </text>
  </g>
  <text font-size="27.0929" style="fill: #000000;text-anchor:middle;font-family:sans-serif;font-style:normal;font-weight:normal" x="270" y="53.6">
    <tspan x="270" y="53.6">Read Operands</tspan>
  </text>
  <g>
    <rect style="fill: #ffffff" x="880" y="80" width="240" height="80"/>
    <rect style="fill: none; fill-opacity:0; stroke-width: 2; stroke: #000000" x="880" y="80" width="240" height="80"/>
  </g>
  <text font-size="27.0933" style="fill: #000000;text-anchor:middle;font-family:monospace;font-style:normal;font-weight:normal" x="1000" y="129.375">
    <tspan x="1000" y="129.375">REGS[Ra] = R</tspan>
  </text>
  <text font-size="27.0929" style="fill: #000000;text-anchor:middle;font-family:sans-serif;font-style:normal;font-weight:normal" x="1000" y="73.6">
    <tspan x="1000" y="73.6">Writeback</tspan>
  </text>
  <g>
    <g>
      <rect style="fill: #ffffff" x="540" y="80" width="240" height="80"/>
      <rect style="fill: none; fill-opacity:0; stroke-width: 2; stroke: #000000" x="540" y="80" width="240" height="80"/>
    </g>
    <text font-size="27.0933" style="fill: #000000;text-anchor:middle;font-family:monospace;font-style:normal;font-weight:normal" x="660" y="129.375">
      <tspan x="660" y="129.375">R = Op(A, B)</tspan>
    </text>
    <text font-size="27.0929" style="fill: #000000;text-anchor:middle;font-family:sans-serif;font-style:normal;font-weight:normal" x="660" y="73.6">
      <tspan x="660" y="73.6">ALU</tspan>
    </text>
  </g>
  <g>
    <line style="fill: none; fill-opacity:0; stroke-width: 4; stroke: #000000" x1="780" y1="120" x2="868.028" y2="120"/>
    <polygon style="fill: #000000" points="875.528,120 865.528,125 868.028,120 865.528,115 "/>
    <polygon style="fill: none; fill-opacity:0; stroke-width: 4; stroke: #000000" points="875.528,120 865.528,125 868.028,120 865.528,115 "/>
  </g>
  <g>
    <line style="fill: none; fill-opacity:0; stroke-width: 4; stroke: #000000" x1="440" y1="120" x2="528.028" y2="120"/>
    <polygon style="fill: #000000" points="535.528,120 525.528,125 528.028,120 525.528,115 "/>
    <polygon style="fill: none; fill-opacity:0; stroke-width: 4; stroke: #000000" points="535.528,120 525.528,125 528.028,120 525.528,115 "/>
  </g>
  <g>
    <line style="fill: none; fill-opacity:0; stroke-width: 4; stroke: #000000" x1="0" y1="100" x2="88.0279" y2="100"/>
    <polygon style="fill: #000000" points="95.5279,100 85.5279,105 88.0279,100 85.5279,95 "/>
    <polygon style="fill: none; fill-opacity:0; stroke-width: 4; stroke: #000000" points="95.5279,100 85.5279,105 88.0279,100 85.5279,95 "/>
  </g>
  <g>
    <line style="fill: none; fill-opacity:0; stroke-width: 4; stroke: #000000" x1="0" y1="140" x2="88.0279" y2="140"/>
    <polygon style="fill: #000000" points="95.5279,140 85.5279,145 88.0279,140 85.5279,135 "/>
    <polygon style="fill: none; fill-opacity:0; stroke-width: 4; stroke: #000000" points="95.5279,140 85.5279,145 88.0279,140 85.5279,135 "/>
  </g>
  <g>
    <polyline style="fill: none; fill-opacity:0; stroke-width: 4; stroke: #000000" points="830,120 820,120 820,220 490,220 490,131.972 "/>
    <polygon style="fill: #000000" points="490,124.472 495,134.472 490,131.972 485,134.472 "/>
    <polygon style="fill: none; fill-opacity:0; stroke-width: 4; stroke: #000000" points="490,124.472 495,134.472 490,131.972 485,134.472 "/>
  </g>
  <g>
    <polyline style="fill: none; fill-opacity:0; stroke-width: 4; stroke-dasharray: 12.8; stroke: #000000" points="500,220 500,220 50,220 50,151.972 "/>
    <polygon style="fill: #000000" points="50,144.472 55,154.472 50,151.972 45,154.472 "/>
    <polygon style="fill: none; fill-opacity:0; stroke-width: 4; stroke: #000000" points="50,144.472 55,154.472 50,151.972 45,154.472 "/>
  </g>
  <text font-size="27.0933" style="fill: #000000;text-anchor:middle;font-family:monospace;font-style:normal;font-weight:normal" x="830" y="112.022">
    <tspan x="830" y="112.022">If(C)</tspan>
  </text>
</svg>
