<?xml version="1.0" encoding="UTF-8" standalone="no"?>
<!DOCTYPE svg PUBLIC "-//W3C//DTD SVG 1.0//EN" "http://www.w3.org/TR/2001/PR-SVG-20010719/DTD/svg10.dtd">
<svg width="51cm" height="32cm" viewBox="18 18 1003 623" xmlns="http://www.w3.org/2000/svg" xmlns:xlink="http://www.w3.org/1999/xlink">
  <g>
    <rect style="fill: #ffffff" x="300" y="320" width="480" height="80"/>
    <rect style="fill: none; fill-opacity:0; stroke-width: 2; stroke: #000000" x="300" y="320" width="480" height="80"/>
  </g>
  <g>
    <rect style="fill: #c0ffc0" x="20" y="480" width="280" height="80"/>
    <rect style="fill: none; fill-opacity:0; stroke-width: 2; stroke: #000000" x="20" y="480" width="280" height="80"/>
  </g>
  <g>
    <rect style="fill: #c0ffc0" x="20" y="320" width="280" height="80"/>
    <rect style="fill: none; fill-opacity:0; stroke-width: 2; stroke: #000000" x="20" y="320" width="280" height="80"/>
  </g>
  <g>
    <rect style="fill: #d6c799" x="300" y="20" width="240" height="80"/>
    <rect style="fill: none; fill-opacity:0; stroke-width: 2; stroke: #000000" x="300" y="20" width="240" height="80"/>
  </g>
  <g>
    <rect style="fill: #d6c799" x="540" y="20" width="240" height="80"/>
    <rect style="fill: none; fill-opacity:0; stroke-width: 2; stroke: #000000" x="540" y="20" width="240" height="80"/>
  </g>
  <g>
    <rect style="fill: #d6c799" x="780" y="20" width="240" height="80"/>
    <rect style="fill: none; fill-opacity:0; stroke-width: 2; stroke: #000000" x="780" y="20" width="240" height="80"/>
  </g>
  <g>
    <rect style="fill: #c0ffc0" x="20" y="400" width="280" height="80"/>
    <rect style="fill: none; fill-opacity:0; stroke-width: 2; stroke: #000000" x="20" y="400" width="280" height="80"/>
  </g>
  <text font-size="27.0933" style="fill: #000000;text-anchor:middle;font-family:sans-serif;font-style:normal;font-weight:normal" x="160" y="369.375">
    <tspan x="160" y="369.375">Stop on Breakpoint</tspan>
  </text>
  <text font-size="27.0933" style="fill: #000000;text-anchor:middle;font-family:sans-serif;font-style:normal;font-weight:normal" x="160" y="432.442">
    <tspan x="160" y="432.442">Examine CPU State</tspan>
    <tspan x="160" y="466.308">(Registers)</tspan>
  </text>
  <g>
    <rect style="fill: #c0ffc0" x="20" y="160" width="280" height="80"/>
    <rect style="fill: none; fill-opacity:0; stroke-width: 2; stroke: #000000" x="20" y="160" width="280" height="80"/>
  </g>
  <g>
    <rect style="fill: #c0ffc0" x="20" y="240" width="280" height="80"/>
    <rect style="fill: none; fill-opacity:0; stroke-width: 2; stroke: #000000" x="20" y="240" width="280" height="80"/>
  </g>
  <text font-size="27.0933" style="fill: #000000;text-anchor:middle;font-family:sans-serif;font-style:normal;font-weight:normal" x="160" y="289.375">
    <tspan x="160" y="289.375">Step</tspan>
  </text>
  <text font-size="27.0933" style="fill: #000000;text-anchor:middle;font-family:sans-serif;font-style:normal;font-weight:normal" x="160" y="209.375">
    <tspan x="160" y="209.375">Reset the CPU</tspan>
  </text>
  <text font-size="27.0933" style="fill: #000000;text-anchor:middle;font-family:sans-serif;font-style:normal;font-weight:normal" x="160" y="529.375">
    <tspan x="160" y="529.375">Continue</tspan>
  </text>
  <text font-size="27.0933" style="fill: #000000;text-anchor:middle;font-family:sans-serif;font-style:normal;font-weight:normal" x="420" y="69.375">
    <tspan x="420" y="69.375">Simulation</tspan>
  </text>
  <text font-size="27.0933" style="fill: #000000;text-anchor:middle;font-family:sans-serif;font-style:normal;font-weight:normal" x="660" y="52.4417">
    <tspan x="660" y="52.4417">External</tspan>
    <tspan x="660" y="86.3083">Debugger</tspan>
  </text>
  <text font-size="27.0933" style="fill: #000000;text-anchor:middle;font-family:sans-serif;font-style:normal;font-weight:normal" x="900" y="52.4417">
    <tspan x="900" y="52.4417">Internal Software</tspan>
    <tspan x="900" y="86.3083">Debugger</tspan>
  </text>
  <g>
    <rect style="fill: #d8e5e5" x="300" y="100" width="240" height="60"/>
    <rect style="fill: none; fill-opacity:0; stroke-width: 2; stroke: #000000" x="300" y="100" width="240" height="60"/>
  </g>
  <text font-size="18.0622" style="fill: #000000;text-anchor:middle;font-family:sans-serif;font-style:normal;font-weight:normal" x="420" y="136.25">
    <tspan x="420" y="136.25">(zippy_tb w/in Verilator)</tspan>
  </text>
  <g>
    <rect style="fill: #d8e5e5" x="540" y="100" width="240" height="60"/>
    <rect style="fill: none; fill-opacity:0; stroke-width: 2; stroke: #000000" x="540" y="100" width="240" height="60"/>
  </g>
  <g>
    <rect style="fill: #d8e5e5" x="780" y="100" width="240" height="60"/>
    <rect style="fill: none; fill-opacity:0; stroke-width: 2; stroke: #000000" x="780" y="100" width="240" height="60"/>
  </g>
  <text font-size="18.0622" style="fill: #000000;text-anchor:middle;font-family:sans-serif;font-style:normal;font-weight:normal" x="660" y="136.25">
    <tspan x="660" y="136.25">(zipdbg, eventually gdb)</tspan>
  </text>
  <text font-size="18.0622" style="fill: #000000;text-anchor:middle;font-family:sans-serif;font-style:normal;font-weight:normal" x="900" y="136.25">
    <tspan x="900" y="136.25">(gdb--not yet supported)</tspan>
  </text>
  <g>
    <rect style="fill: #ffffff" x="300" y="160" width="240" height="80"/>
    <rect style="fill: none; fill-opacity:0; stroke-width: 2; stroke: #000000" x="300" y="160" width="240" height="80"/>
  </g>
  <g>
    <rect style="fill: #ffffff" x="300" y="240" width="240" height="80"/>
    <rect style="fill: none; fill-opacity:0; stroke-width: 2; stroke: #000000" x="300" y="240" width="240" height="80"/>
  </g>
  <g>
    <rect style="fill: #ffffff" x="300" y="400" width="240" height="80"/>
    <rect style="fill: none; fill-opacity:0; stroke-width: 2; stroke: #000000" x="300" y="400" width="240" height="80"/>
  </g>
  <g>
    <rect style="fill: #ffffff" x="300" y="480" width="240" height="80"/>
    <rect style="fill: none; fill-opacity:0; stroke-width: 2; stroke: #000000" x="300" y="480" width="240" height="80"/>
  </g>
  <g>
    <rect style="fill: #ffffff" x="540" y="160" width="240" height="80"/>
    <rect style="fill: none; fill-opacity:0; stroke-width: 2; stroke: #000000" x="540" y="160" width="240" height="80"/>
  </g>
  <g>
    <rect style="fill: #ffffff" x="540" y="240" width="240" height="80"/>
    <rect style="fill: none; fill-opacity:0; stroke-width: 2; stroke: #000000" x="540" y="240" width="240" height="80"/>
  </g>
  <g>
    <rect style="fill: #ffffff" x="540" y="400" width="240" height="80"/>
    <rect style="fill: none; fill-opacity:0; stroke-width: 2; stroke: #000000" x="540" y="400" width="240" height="80"/>
  </g>
  <g>
    <rect style="fill: #ffffff" x="540" y="480" width="240" height="80"/>
    <rect style="fill: none; fill-opacity:0; stroke-width: 2; stroke: #000000" x="540" y="480" width="240" height="80"/>
  </g>
  <text font-size="18.0622" style="fill: #000000;text-anchor:middle;font-family:sans-serif;font-style:normal;font-weight:normal" x="420" y="285.988">
    <tspan x="420" y="285.988">Step by one clock tick</tspan>
  </text>
  <text font-size="18.0622" style="fill: #000000;text-anchor:middle;font-family:sans-serif;font-style:normal;font-weight:normal" x="660" y="274.961">
    <tspan x="660" y="274.961">Steps by</tspan>
    <tspan x="660" y="297.539">one clock tick</tspan>
  </text>
  <text font-size="18.0622" style="fill: #000000;text-anchor:middle;font-family:sans-serif;font-style:normal;font-weight:normal" x="540" y="366.25">
    <tspan x="540" y="366.25">Break (or illegal) Instruction</tspan>
  </text>
  <g>
    <rect style="fill: #ffffff" x="780" y="160" width="240" height="480"/>
    <rect style="fill: none; fill-opacity:0; stroke-width: 2; stroke: #000000" x="780" y="160" width="240" height="480"/>
  </g>
  <text font-size="18.0622" style="fill: #000000;text-anchor:middle;font-family:sans-serif;font-style:normal;font-weight:normal" x="900" y="372.383">
    <tspan x="900" y="372.383">Requires both</tspan>
    <tspan x="900" y="394.961">hardware and</tspan>
    <tspan x="900" y="417.539">O/S support</tspan>
    <tspan x="900" y="440.117">to work.</tspan>
  </text>
  <g>
    <rect style="fill: #c0ffc0" x="20" y="560" width="280" height="80"/>
    <rect style="fill: none; fill-opacity:0; stroke-width: 2; stroke: #000000" x="20" y="560" width="280" height="80"/>
  </g>
  <text font-size="27.0933" style="fill: #000000;text-anchor:middle;font-family:sans-serif;font-style:normal;font-weight:normal" x="160" y="609.375">
    <tspan x="160" y="609.375">Post bug trace</tspan>
  </text>
  <g>
    <rect style="fill: #ffffff" x="300" y="560" width="240" height="80"/>
    <rect style="fill: none; fill-opacity:0; stroke-width: 2; stroke: #000000" x="300" y="560" width="240" height="80"/>
  </g>
  <g>
    <rect style="fill: #ffffff" x="540" y="560" width="240" height="80"/>
    <rect style="fill: none; fill-opacity:0; stroke-width: 2; stroke: #000000" x="540" y="560" width="240" height="80"/>
  </g>
  <text font-size="18.0622" style="fill: #000000;text-anchor:middle;font-family:sans-serif;font-style:normal;font-weight:normal" x="660" y="594.699">
    <tspan x="660" y="594.699">wbscope and</tspan>
    <tspan x="660" y="617.276">gtkwave</tspan>
  </text>
  <text font-size="18.0622" style="fill: #000000;text-anchor:middle;font-family:sans-serif;font-style:normal;font-weight:normal" x="900" y="606.25">
    <tspan x="900" y="606.25">strace</tspan>
  </text>
  <text font-size="18.0622" style="fill: #000000;text-anchor:middle;font-family:sans-serif;font-style:normal;font-weight:normal" x="420" y="583.41">
    <tspan x="420" y="583.41">fprintf() or</tspan>
    <tspan x="420" y="605.987">Verilator -trace,</tspan>
    <tspan x="420" y="628.565">and gtkwave</tspan>
  </text>
</svg>
