<?xml version="1.0" encoding="UTF-8" standalone="no"?>
<!DOCTYPE svg PUBLIC "-//W3C//DTD SVG 1.0//EN" "http://www.w3.org/TR/2001/PR-SVG-20010719/DTD/svg10.dtd">
<svg width="15cm" height="24cm" viewBox="18 18 283 463" xmlns="http://www.w3.org/2000/svg" xmlns:xlink="http://www.w3.org/1999/xlink">
  <g>
    <rect style="fill: #90ee90" x="20" y="20" width="280" height="460" rx="12" ry="12"/>
    <rect style="fill: none; fill-opacity:0; stroke-width: 2; stroke-linejoin: round; stroke: #000000" x="20" y="20" width="280" height="460" rx="12" ry="12"/>
  </g>
  <g>
    <rect style="fill: #e6e6fa" x="40" y="180" width="240" height="180" rx="12" ry="12"/>
    <rect style="fill: none; fill-opacity:0; stroke-width: 2; stroke-linejoin: round; stroke: #000000" x="40" y="180" width="240" height="180" rx="12" ry="12"/>
  </g>
  <text font-size="18.0619" style="fill: #000000;text-anchor:middle;font-family:sans-serif;font-style:normal;font-weight:normal" x="160" y="54.9611">
    <tspan x="160" y="54.9611">Hardware in the Loop </tspan>
    <tspan x="160" y="77.5389">(HITL) Debugging</tspan>
  </text>
  <g>
    <rect style="fill: #ffffff" x="40" y="100" width="240" height="60" rx="8" ry="8"/>
    <rect style="fill: none; fill-opacity:0; stroke-width: 2; stroke-linejoin: round; stroke: #000000" x="40" y="100" width="240" height="60" rx="8" ry="8"/>
  </g>
  <text font-size="18.0619" style="fill: #000000;text-anchor:middle;font-family:sans-serif;font-style:normal;font-weight:normal" x="160" y="136.25">
    <tspan x="160" y="136.25">Debug by LED</tspan>
  </text>
  <g>
    <rect style="fill: #ffffff" x="80" y="260" width="180" height="80" rx="8" ry="8"/>
    <rect style="fill: none; fill-opacity:0; stroke-width: 2; stroke-linejoin: round; stroke: #000000" x="80" y="260" width="180" height="80" rx="8" ry="8"/>
  </g>
  <text font-size="18.0619" style="fill: #000000;text-anchor:middle;font-family:sans-serif;font-style:normal;font-weight:normal" x="170" y="294.961">
    <tspan x="170" y="294.961">Debug by</tspan>
    <tspan x="170" y="317.539">Internal SCOPE</tspan>
  </text>
  <g>
    <rect style="fill: #ffffff" x="40" y="380" width="240" height="80" rx="8" ry="8"/>
    <rect style="fill: none; fill-opacity:0; stroke-width: 2; stroke-linejoin: round; stroke: #000000" x="40" y="380" width="240" height="80" rx="8" ry="8"/>
  </g>
  <text font-size="18.0619" style="fill: #000000;text-anchor:middle;font-family:sans-serif;font-style:normal;font-weight:normal" x="160" y="414.961">
    <tspan x="160" y="414.961">Debug by</tspan>
    <tspan x="160" y="437.539">External SCOPE</tspan>
  </text>
  <text font-size="18.0619" style="fill: #000000;text-anchor:start;font-family:sans-serif;font-style:normal;font-weight:normal" x="60" y="214.961">
    <tspan x="60" y="214.961">External to internal </tspan>
    <tspan x="60" y="237.539">wishbone interface</tspan>
  </text>
</svg>
