<?xml version="1.0" encoding="UTF-8" standalone="no"?>
<!DOCTYPE svg PUBLIC "-//W3C//DTD SVG 1.0//EN" "http://www.w3.org/TR/2001/PR-SVG-20010719/DTD/svg10.dtd">
<svg width="18cm" height="18cm" viewBox="18 18 343 343" xmlns="http://www.w3.org/2000/svg" xmlns:xlink="http://www.w3.org/1999/xlink">
  <g>
    <rect style="fill: #5bbfde" x="20" y="20" width="340" height="340" rx="12" ry="12"/>
    <rect style="fill: none; fill-opacity:0; stroke-width: 2; stroke-linejoin: round; stroke: #000000" x="20" y="20" width="340" height="340" rx="12" ry="12"/>
  </g>
  <g>
    <rect style="fill: #e6e6fa" x="40" y="80" width="300" height="240" rx="8" ry="8"/>
    <rect style="fill: none; fill-opacity:0; stroke-width: 2; stroke-linejoin: round; stroke: #000000" x="40" y="80" width="300" height="240" rx="8" ry="8"/>
  </g>
  <text font-size="18.0619" style="fill: #000000;text-anchor:start;font-family:sans-serif;font-style:normal;font-weight:normal" x="60" y="114.699">
    <tspan x="60" y="114.699">Component Simulator</tspan>
    <tspan x="60" y="137.276">  and Interface Validator</tspan>
  </text>
  <g>
    <g>
      <rect style="fill: #ffffff" x="80" y="160" width="240" height="60" rx="8" ry="8"/>
      <rect style="fill: none; fill-opacity:0; stroke-width: 2; stroke-linejoin: round; stroke: #000000" x="80" y="160" width="240" height="60" rx="8" ry="8"/>
    </g>
    <text font-size="18.0619" style="fill: #000000;text-anchor:middle;font-family:sans-serif;font-style:normal;font-weight:normal" x="200" y="196.25">
      <tspan x="200" y="196.25">Debug by Printf()</tspan>
    </text>
  </g>
  <g>
    <g>
      <rect style="fill: #ffffff" x="80" y="240" width="240" height="60" rx="8" ry="8"/>
      <rect style="fill: none; fill-opacity:0; stroke-width: 2; stroke-linejoin: round; stroke: #000000" x="80" y="240" width="240" height="60" rx="8" ry="8"/>
    </g>
    <text font-size="18.0619" style="fill: #000000;text-anchor:middle;font-family:sans-serif;font-style:normal;font-weight:normal" x="200" y="276.25">
      <tspan x="200" y="276.25">Debug by Trace</tspan>
    </text>
  </g>
  <g>
    <text font-size="18.0619" style="fill: #000000;text-anchor:middle;font-family:sans-serif;font-style:normal;font-weight:normal" x="190" y="46.25">
      <tspan x="190" y="46.25">Debug by Simulation</tspan>
    </text>
    <text font-size="18.0619" style="fill: #000000;text-anchor:middle;font-family:sans-serif;font-style:normal;font-weight:normal" x="190" y="66.25">
      <tspan x="190" y="66.25">(Verilator)</tspan>
    </text>
  </g>
</svg>
