<?xml version="1.0" encoding="UTF-8" standalone="no"?>
<!DOCTYPE svg PUBLIC "-//W3C//DTD SVG 1.0//EN" "http://www.w3.org/TR/2001/PR-SVG-20010719/DTD/svg10.dtd">
<svg width="20cm" height="19cm" viewBox="58 38 383 363" xmlns="http://www.w3.org/2000/svg" xmlns:xlink="http://www.w3.org/1999/xlink">
  <g>
    <rect style="fill: #ccc4b0" x="60" y="40" width="380" height="360" rx="12" ry="12"/>
    <rect style="fill: none; fill-opacity:0; stroke-width: 2; stroke-linejoin: round; stroke: #000000" x="60" y="40" width="380" height="360" rx="12" ry="12"/>
  </g>
  <g>
    <rect style="fill: #e6e6fa" x="120" y="140" width="300" height="240" rx="8" ry="8"/>
    <rect style="fill: none; fill-opacity:0; stroke-width: 2; stroke-linejoin: round; stroke: #000000" x="120" y="140" width="300" height="240" rx="8" ry="8"/>
  </g>
  <g>
    <rect style="fill: #e6e6fa" x="100" y="120" width="300" height="240" rx="8" ry="8"/>
    <rect style="fill: none; fill-opacity:0; stroke-width: 2; stroke-linejoin: round; stroke: #000000" x="100" y="120" width="300" height="240" rx="8" ry="8"/>
  </g>
  <text font-size="18.0619" style="fill: #000000;text-anchor:middle;font-family:sans-serif;font-style:normal;font-weight:normal" x="250" y="65.9875">
    <tspan x="250" y="65.9875">Debug by Integrated Simulation</tspan>
  </text>
  <text font-size="18.0619" style="fill: #000000;text-anchor:middle;font-family:sans-serif;font-style:normal;font-weight:normal" x="250" y="86.25">
    <tspan x="250" y="86.25">(Verilator)</tspan>
  </text>
  <g>
    <rect style="fill: #e6e6fa" x="80" y="100" width="300" height="240" rx="8" ry="8"/>
    <rect style="fill: none; fill-opacity:0; stroke-width: 2; stroke-linejoin: round; stroke: #000000" x="80" y="100" width="300" height="240" rx="8" ry="8"/>
  </g>
  <text font-size="18.0619" style="fill: #000000;text-anchor:start;font-family:sans-serif;font-style:normal;font-weight:normal" x="100" y="134.961">
    <tspan x="100" y="134.961">Component Simulator</tspan>
    <tspan x="100" y="157.539">  and Interface Validator</tspan>
  </text>
  <g>
    <g>
      <rect style="fill: #ffffff" x="120" y="180" width="240" height="60" rx="8" ry="8"/>
      <rect style="fill: none; fill-opacity:0; stroke-width: 2; stroke-linejoin: round; stroke: #000000" x="120" y="180" width="240" height="60" rx="8" ry="8"/>
    </g>
    <text font-size="18.0619" style="fill: #000000;text-anchor:middle;font-family:sans-serif;font-style:normal;font-weight:normal" x="240" y="216.25">
      <tspan x="240" y="216.25">Debug by Printf()</tspan>
    </text>
  </g>
  <g>
    <g>
      <rect style="fill: #ffffff" x="120" y="260" width="240" height="60" rx="8" ry="8"/>
      <rect style="fill: none; fill-opacity:0; stroke-width: 2; stroke-linejoin: round; stroke: #000000" x="120" y="260" width="240" height="60" rx="8" ry="8"/>
    </g>
    <text font-size="18.0619" style="fill: #000000;text-anchor:middle;font-family:sans-serif;font-style:normal;font-weight:normal" x="240" y="296.25">
      <tspan x="240" y="296.25">Debug by Trace</tspan>
    </text>
  </g>
</svg>
