<?xml version="1.0" encoding="UTF-8" standalone="no"?>
<!DOCTYPE svg PUBLIC "-//W3C//DTD SVG 1.0//EN" "http://www.w3.org/TR/2001/PR-SVG-20010719/DTD/svg10.dtd">
<svg width="66cm" height="13cm" viewBox="-1 18 1302 243" xmlns="http://www.w3.org/2000/svg" xmlns:xlink="http://www.w3.org/1999/xlink">
  <g>
    <rect style="fill: #bfbfbf" x="140" y="180" width="740" height="40"/>
    <rect style="fill: none; fill-opacity:0; stroke-width: 2; stroke: #bfbfbf" x="140" y="180" width="740" height="40"/>
  </g>
  <line style="fill: none; fill-opacity:0; stroke-width: 2; stroke: #000000" x1="0" y1="220" x2="140" y2="220"/>
  <line style="fill: none; fill-opacity:0; stroke-width: 2; stroke: #000000" x1="140" y1="180" x2="140" y2="220"/>
  <line style="fill: none; fill-opacity:0; stroke-width: 2; stroke: #000000" x1="880" y1="220" x2="1300" y2="220"/>
  <text font-size="18.0622" style="fill: #000000;text-anchor:middle;font-family:sans-serif;font-style:normal;font-weight:normal" x="510" y="206.25">
    <tspan x="510" y="206.25">Debounced signal</tspan>
  </text>
  <line style="fill: none; fill-opacity:0; stroke-width: 2; stroke: #000000" x1="0" y1="140" x2="140" y2="140"/>
  <line style="fill: none; fill-opacity:0; stroke-width: 2; stroke: #000000" x1="140" y1="100" x2="320" y2="100"/>
  <line style="fill: none; fill-opacity:0; stroke-width: 2; stroke: #000000" x1="140" y1="100" x2="140" y2="140"/>
  <line style="fill: none; fill-opacity:0; stroke-width: 2; stroke: #000000" x1="320" y1="100" x2="320" y2="140"/>
  <line style="fill: none; fill-opacity:0; stroke-width: 2; stroke: #000000" x1="320" y1="140" x2="880" y2="140"/>
  <line style="fill: none; fill-opacity:0; stroke-width: 2; stroke: #000000" x1="880" y1="100" x2="1060" y2="100"/>
  <line style="fill: none; fill-opacity:0; stroke-width: 2; stroke: #000000" x1="880" y1="100" x2="880" y2="140"/>
  <line style="fill: none; fill-opacity:0; stroke-width: 2; stroke: #000000" x1="1060" y1="100" x2="1060" y2="140"/>
  <line style="fill: none; fill-opacity:0; stroke-width: 2; stroke: #000000" x1="1060" y1="140" x2="1300" y2="140"/>
  <text font-size="18.0622" style="fill: #000000;text-anchor:middle;font-family:sans-serif;font-style:normal;font-weight:normal" x="60" y="126.25">
    <tspan x="60" y="126.25">Slow Timer</tspan>
  </text>
  <line style="fill: none; fill-opacity:0; stroke-width: 2; stroke-dasharray: 4; stroke: #000000" x1="140" y1="80" x2="140" y2="260"/>
  <line style="fill: none; fill-opacity:0; stroke-width: 2; stroke-dasharray: 4; stroke: #000000" x1="880" y1="80" x2="880" y2="260"/>
  <g>
    <rect style="fill: #bfbfbf" x="120" y="20" width="740" height="40"/>
    <rect style="fill: none; fill-opacity:0; stroke-width: 2; stroke: #bfbfbf" x="120" y="20" width="740" height="40"/>
  </g>
  <line style="fill: none; fill-opacity:0; stroke-width: 2; stroke: #000000" x1="0" y1="60" x2="120" y2="60"/>
  <line style="fill: none; fill-opacity:0; stroke-width: 2; stroke: #000000" x1="120" y1="20" x2="120" y2="60"/>
  <line style="fill: none; fill-opacity:0; stroke-width: 2; stroke: #000000" x1="160" y1="20" x2="860" y2="20"/>
  <line style="fill: none; fill-opacity:0; stroke-width: 2; stroke: #000000" x1="860" y1="20" x2="860" y2="60"/>
  <line style="fill: none; fill-opacity:0; stroke-width: 2; stroke: #000000" x1="940" y1="60" x2="1300" y2="60"/>
  <text font-size="18.0622" style="fill: #000000;text-anchor:middle;font-family:sans-serif;font-style:normal;font-weight:normal" x="490" y="46.25">
    <tspan x="490" y="46.25">Button press signal</tspan>
  </text>
  <line style="fill: none; fill-opacity:0; stroke-width: 2; stroke: #000000" x1="920" y1="20" x2="940" y2="20"/>
  <line style="fill: none; fill-opacity:0; stroke-width: 2; stroke: #000000" x1="940" y1="20" x2="940" y2="60"/>
  <line style="fill: none; fill-opacity:0; stroke-width: 2; stroke: #000000" x1="120" y1="20" x2="140" y2="20"/>
  <line style="fill: none; fill-opacity:0; stroke-width: 2; stroke: #000000" x1="140" y1="20" x2="140" y2="60"/>
  <line style="fill: none; fill-opacity:0; stroke-width: 2; stroke: #000000" x1="140" y1="60" x2="160" y2="60"/>
  <line style="fill: none; fill-opacity:0; stroke-width: 2; stroke: #000000" x1="160" y1="60" x2="160" y2="20"/>
  <line style="fill: none; fill-opacity:0; stroke-width: 2; stroke: #000000" x1="880" y1="20" x2="900" y2="20"/>
  <line style="fill: none; fill-opacity:0; stroke-width: 2; stroke: #000000" x1="900" y1="20" x2="900" y2="60"/>
  <line style="fill: none; fill-opacity:0; stroke-width: 2; stroke: #000000" x1="900" y1="60" x2="920" y2="60"/>
  <line style="fill: none; fill-opacity:0; stroke-width: 2; stroke: #000000" x1="920" y1="60" x2="920" y2="20"/>
  <line style="fill: none; fill-opacity:0; stroke-width: 2; stroke: #000000" x1="860" y1="60" x2="880" y2="60"/>
  <line style="fill: none; fill-opacity:0; stroke-width: 2; stroke: #000000" x1="880" y1="60" x2="880" y2="20"/>
  <text font-size="18.0622" style="fill: #000000;text-anchor:middle;font-family:sans-serif;font-style:normal;font-weight:normal" x="500" y="125.988">
    <tspan x="500" y="125.988">Timer stops when nothing is changing</tspan>
  </text>
</svg>
