<?xml version="1.0" encoding="UTF-8" standalone="no"?>
<!DOCTYPE svg PUBLIC "-//W3C//DTD SVG 1.0//EN" "http://www.w3.org/TR/2001/PR-SVG-20010719/DTD/svg10.dtd">
<svg width="66cm" height="16cm" viewBox="-2 39 1302 302" xmlns="http://www.w3.org/2000/svg" xmlns:xlink="http://www.w3.org/1999/xlink">
  <g>
    <rect style="fill: #bfbfbf" x="240" y="260" width="720" height="40"/>
    <rect style="fill: none; fill-opacity:0; stroke-width: 2; stroke: #bfbfbf" x="240" y="260" width="720" height="40"/>
  </g>
  <line style="fill: none; fill-opacity:0; stroke-width: 2; stroke: #000000" x1="0" y1="100" x2="60" y2="100"/>
  <line style="fill: none; fill-opacity:0; stroke-width: 2; stroke: #000000" x1="60" y1="60" x2="240" y2="60"/>
  <line style="fill: none; fill-opacity:0; stroke-width: 2; stroke: #000000" x1="60" y1="60" x2="60" y2="100"/>
  <line style="fill: none; fill-opacity:0; stroke-width: 2; stroke: #000000" x1="240" y1="60" x2="240" y2="100"/>
  <line style="fill: none; fill-opacity:0; stroke-width: 2; stroke: #000000" x1="240" y1="100" x2="420" y2="100"/>
  <line style="fill: none; fill-opacity:0; stroke-width: 2; stroke: #000000" x1="420" y1="60" x2="600" y2="60"/>
  <line style="fill: none; fill-opacity:0; stroke-width: 2; stroke: #000000" x1="420" y1="60" x2="420" y2="100"/>
  <line style="fill: none; fill-opacity:0; stroke-width: 2; stroke: #000000" x1="600" y1="60" x2="600" y2="100"/>
  <line style="fill: none; fill-opacity:0; stroke-width: 2; stroke: #000000" x1="600" y1="100" x2="780" y2="100"/>
  <line style="fill: none; fill-opacity:0; stroke-width: 2; stroke: #000000" x1="780" y1="60" x2="960" y2="60"/>
  <line style="fill: none; fill-opacity:0; stroke-width: 2; stroke: #000000" x1="780" y1="60" x2="780" y2="100"/>
  <line style="fill: none; fill-opacity:0; stroke-width: 2; stroke: #000000" x1="960" y1="60" x2="960" y2="100"/>
  <line style="fill: none; fill-opacity:0; stroke-width: 2; stroke: #000000" x1="960" y1="100" x2="1140" y2="100"/>
  <line style="fill: none; fill-opacity:0; stroke-width: 2; stroke: #000000" x1="1140" y1="60" x2="1300" y2="60"/>
  <line style="fill: none; fill-opacity:0; stroke-width: 2; stroke: #000000" x1="1140" y1="60" x2="1140" y2="100"/>
  <text font-size="18.0622" style="fill: #000000;text-anchor:middle;font-family:sans-serif;font-style:normal;font-weight:normal" x="160" y="86.25">
    <tspan x="160" y="86.25">Slow Timer</tspan>
  </text>
  <line style="fill: none; fill-opacity:0; stroke-width: 2; stroke: #000000" x1="-1.77636e-14" y1="300" x2="240" y2="300"/>
  <line style="fill: none; fill-opacity:0; stroke-width: 2; stroke: #000000" x1="240" y1="260" x2="240" y2="300"/>
  <line style="fill: none; fill-opacity:0; stroke-width: 2; stroke: #000000" x1="960" y1="300" x2="1300" y2="300"/>
  <text font-size="18.0622" style="fill: #000000;text-anchor:middle;font-family:sans-serif;font-style:normal;font-weight:normal" x="600" y="286.25">
    <tspan x="600" y="286.25">Debounced signal</tspan>
  </text>
  <g>
    <rect style="fill: #bfbfbf" x="80" y="160" width="740" height="40"/>
    <rect style="fill: none; fill-opacity:0; stroke-width: 2; stroke: #bfbfbf" x="80" y="160" width="740" height="40"/>
  </g>
  <line style="fill: none; fill-opacity:0; stroke-width: 2; stroke: #000000" x1="0" y1="200" x2="80" y2="200"/>
  <line style="fill: none; fill-opacity:0; stroke-width: 2; stroke: #000000" x1="80" y1="160" x2="80" y2="200"/>
  <line style="fill: none; fill-opacity:0; stroke-width: 2; stroke: #000000" x1="120" y1="160" x2="820" y2="160"/>
  <line style="fill: none; fill-opacity:0; stroke-width: 2; stroke: #000000" x1="820" y1="160" x2="820" y2="200"/>
  <line style="fill: none; fill-opacity:0; stroke-width: 2; stroke: #000000" x1="900" y1="200" x2="1300" y2="200"/>
  <text font-size="18.0622" style="fill: #000000;text-anchor:middle;font-family:sans-serif;font-style:normal;font-weight:normal" x="450" y="186.25">
    <tspan x="450" y="186.25">Button press signal</tspan>
  </text>
  <line style="fill: none; fill-opacity:0; stroke-width: 2; stroke: #000000" x1="880" y1="160" x2="900" y2="160"/>
  <line style="fill: none; fill-opacity:0; stroke-width: 2; stroke: #000000" x1="900" y1="160" x2="900" y2="200"/>
  <line style="fill: none; fill-opacity:0; stroke-width: 2; stroke: #000000" x1="80" y1="160" x2="100" y2="160"/>
  <line style="fill: none; fill-opacity:0; stroke-width: 2; stroke: #000000" x1="100" y1="160" x2="100" y2="200"/>
  <line style="fill: none; fill-opacity:0; stroke-width: 2; stroke: #000000" x1="100" y1="200" x2="120" y2="200"/>
  <line style="fill: none; fill-opacity:0; stroke-width: 2; stroke: #000000" x1="120" y1="200" x2="120" y2="160"/>
  <line style="fill: none; fill-opacity:0; stroke-width: 2; stroke: #000000" x1="840" y1="160" x2="860" y2="160"/>
  <line style="fill: none; fill-opacity:0; stroke-width: 2; stroke: #000000" x1="860" y1="160" x2="860" y2="200"/>
  <line style="fill: none; fill-opacity:0; stroke-width: 2; stroke: #000000" x1="860" y1="200" x2="880" y2="200"/>
  <line style="fill: none; fill-opacity:0; stroke-width: 2; stroke: #000000" x1="880" y1="200" x2="880" y2="160"/>
  <line style="fill: none; fill-opacity:0; stroke-width: 2; stroke: #000000" x1="820" y1="200" x2="840" y2="200"/>
  <line style="fill: none; fill-opacity:0; stroke-width: 2; stroke: #000000" x1="840" y1="200" x2="840" y2="160"/>
  <line style="fill: none; fill-opacity:0; stroke-width: 2; stroke-dasharray: 4; stroke: #000000" x1="240" y1="40" x2="240" y2="340"/>
  <line style="fill: none; fill-opacity:0; stroke-width: 2; stroke-dasharray: 4; stroke: #000000" x1="960" y1="40" x2="960" y2="340"/>
  <line style="fill: none; fill-opacity:0; stroke-width: 2; stroke: #000000" x1="240" y1="260" x2="960" y2="260"/>
</svg>
