<?xml version="1.0" encoding="UTF-8" standalone="no"?>
<!DOCTYPE svg PUBLIC "-//W3C//DTD SVG 1.0//EN" "http://www.w3.org/TR/2001/PR-SVG-20010719/DTD/svg10.dtd">
<svg width="22cm" height="57cm" viewBox="-2 -2 423 1123" xmlns="http://www.w3.org/2000/svg" xmlns:xlink="http://www.w3.org/1999/xlink">
  <g>
    <rect style="fill: #ffff00" x="0" y="0" width="420" height="1120" rx="40" ry="40"/>
    <rect style="fill: none; fill-opacity:0; stroke-width: 2; stroke-linejoin: round; stroke: #000000" x="0" y="0" width="420" height="1120" rx="40" ry="40"/>
  </g>
  <g>
    <rect style="fill: #ffffff" x="60" y="160" width="200" height="60"/>
    <rect style="fill: none; fill-opacity:0; stroke-width: 2; stroke: #000000" x="60" y="160" width="200" height="60"/>
  </g>
  <text font-size="27.0933" style="fill: #000000;text-anchor:middle;font-family:sans-serif;font-style:normal;font-weight:normal" x="160" y="199.375">
    <tspan x="160" y="199.375">Design</tspan>
  </text>
  <g>
    <rect style="fill: #ffffff" x="40" y="380" width="240" height="120"/>
    <rect style="fill: none; fill-opacity:0; stroke-width: 2; stroke: #000000" x="40" y="380" width="240" height="120"/>
  </g>
  <text font-size="27.0933" style="fill: #000000;text-anchor:middle;font-family:sans-serif;font-style:normal;font-weight:normal" x="160" y="415.508">
    <tspan x="160" y="415.508">Build a </tspan>
    <tspan x="160" y="449.375">self-contained</tspan>
    <tspan x="160" y="483.242">Testbench</tspan>
  </text>
  <g>
    <line style="fill: none; fill-opacity:0; stroke-width: 4; stroke: #000000" x1="160" y1="220" x2="160" y2="248.028"/>
    <polygon style="fill: #000000" points="160,255.528 155,245.528 160,248.028 165,245.528 "/>
    <polygon style="fill: none; fill-opacity:0; stroke-width: 4; stroke: #000000" points="160,255.528 155,245.528 160,248.028 165,245.528 "/>
  </g>
  <g>
    <rect style="fill: #ffffff" x="40" y="40" width="240" height="80"/>
    <rect style="fill: none; fill-opacity:0; stroke-width: 2; stroke: #000000" x="40" y="40" width="240" height="80"/>
  </g>
  <text font-size="27.0933" style="fill: #000000;text-anchor:middle;font-family:sans-serif;font-style:normal;font-weight:normal" x="160" y="72.4417">
    <tspan x="160" y="72.4417">Research </tspan>
    <tspan x="160" y="106.308">Interface Specs</tspan>
  </text>
  <g>
    <rect style="fill: #ffffff" x="60" y="260" width="200" height="80"/>
    <rect style="fill: none; fill-opacity:0; stroke-width: 2; stroke: #000000" x="60" y="260" width="200" height="80"/>
  </g>
  <text font-size="27.0933" style="fill: #000000;text-anchor:middle;font-family:sans-serif;font-style:normal;font-weight:normal" x="160" y="292.442">
    <tspan x="160" y="292.442">Build</tspan>
    <tspan x="160" y="326.308">Simulator</tspan>
  </text>
  <g>
    <line style="fill: none; fill-opacity:0; stroke-width: 4; stroke: #000000" x1="160" y1="340" x2="160" y2="368.028"/>
    <polygon style="fill: #000000" points="160,375.528 155,365.528 160,368.028 165,365.528 "/>
    <polygon style="fill: none; fill-opacity:0; stroke-width: 4; stroke: #000000" points="160,375.528 155,365.528 160,368.028 165,365.528 "/>
  </g>
  <g>
    <rect style="fill: #ffffff" x="60" y="540" width="200" height="80"/>
    <rect style="fill: none; fill-opacity:0; stroke-width: 2; stroke: #000000" x="60" y="540" width="200" height="80"/>
  </g>
  <text font-size="27.0933" style="fill: #000000;text-anchor:middle;font-family:sans-serif;font-style:normal;font-weight:normal" x="160" y="572.442">
    <tspan x="160" y="572.442">Bench/Sim </tspan>
    <tspan x="160" y="606.308">Test</tspan>
  </text>
  <g>
    <line style="fill: none; fill-opacity:0; stroke-width: 4; stroke: #000000" x1="160" y1="620" x2="160" y2="648.028"/>
    <polygon style="fill: #000000" points="160,655.528 155,645.528 160,648.028 165,645.528 "/>
    <polygon style="fill: none; fill-opacity:0; stroke-width: 4; stroke: #000000" points="160,655.528 155,645.528 160,648.028 165,645.528 "/>
  </g>
  <g>
    <rect style="fill: #ffffff" x="60" y="780" width="200" height="80"/>
    <rect style="fill: none; fill-opacity:0; stroke-width: 2; stroke: #000000" x="60" y="780" width="200" height="80"/>
  </g>
  <text font-size="27.0933" style="fill: #000000;text-anchor:middle;font-family:sans-serif;font-style:normal;font-weight:normal" x="160" y="829.375">
    <tspan x="160" y="829.375">HITL Test</tspan>
  </text>
  <g>
    <rect style="fill: #ffffff" x="60" y="900" width="200" height="60"/>
    <rect style="fill: none; fill-opacity:0; stroke-width: 2; stroke: #000000" x="60" y="900" width="200" height="60"/>
  </g>
  <text font-size="27.0933" style="fill: #000000;text-anchor:middle;font-family:sans-serif;font-style:normal;font-weight:normal" x="160" y="939.375">
    <tspan x="160" y="939.375">Integrate</tspan>
  </text>
  <g>
    <line style="fill: none; fill-opacity:0; stroke-width: 4; stroke: #000000" x1="160" y1="740" x2="160" y2="768.028"/>
    <polygon style="fill: #000000" points="160,775.528 155,765.528 160,768.028 165,765.528 "/>
    <polygon style="fill: none; fill-opacity:0; stroke-width: 4; stroke: #000000" points="160,775.528 155,765.528 160,768.028 165,765.528 "/>
  </g>
  <g>
    <line style="fill: none; fill-opacity:0; stroke-width: 4; stroke: #000000" x1="160" y1="860" x2="160" y2="888.028"/>
    <polygon style="fill: #000000" points="160,895.528 155,885.528 160,888.028 165,885.528 "/>
    <polygon style="fill: none; fill-opacity:0; stroke-width: 4; stroke: #000000" points="160,895.528 155,885.528 160,888.028 165,885.528 "/>
  </g>
  <g>
    <rect style="fill: #ffffff" x="60" y="660" width="200" height="80"/>
    <rect style="fill: none; fill-opacity:0; stroke-width: 2; stroke: #000000" x="60" y="660" width="200" height="80"/>
  </g>
  <text font-size="27.0933" style="fill: #000000;text-anchor:middle;font-family:sans-serif;font-style:normal;font-weight:normal" x="160" y="692.442">
    <tspan x="160" y="692.442">Implement</tspan>
    <tspan x="160" y="726.308">on FPGA</tspan>
  </text>
  <g>
    <line style="fill: none; fill-opacity:0; stroke-width: 4; stroke: #000000" x1="160" y1="960" x2="160" y2="988.028"/>
    <polygon style="fill: #000000" points="160,995.528 155,985.528 160,988.028 165,985.528 "/>
    <polygon style="fill: none; fill-opacity:0; stroke-width: 4; stroke: #000000" points="160,995.528 155,985.528 160,988.028 165,985.528 "/>
  </g>
  <g>
    <rect style="fill: #ffffff" x="60" y="1000" width="200" height="80"/>
    <rect style="fill: none; fill-opacity:0; stroke-width: 2; stroke: #000000" x="60" y="1000" width="200" height="80"/>
  </g>
  <text font-size="27.0933" style="fill: #000000;text-anchor:middle;font-family:sans-serif;font-style:normal;font-weight:normal" x="160" y="1049.38">
    <tspan x="160" y="1049.38">Test</tspan>
  </text>
  <g>
    <line style="fill: none; fill-opacity:0; stroke-width: 4; stroke: #000000" x1="160" y1="120" x2="160" y2="148.028"/>
    <polygon style="fill: #000000" points="160,155.528 155,145.528 160,148.028 165,145.528 "/>
    <polygon style="fill: none; fill-opacity:0; stroke-width: 4; stroke: #000000" points="160,155.528 155,145.528 160,148.028 165,145.528 "/>
  </g>
  <g>
    <line style="fill: none; fill-opacity:0; stroke-width: 4; stroke: #000000" x1="160" y1="500" x2="160" y2="528.028"/>
    <polygon style="fill: #000000" points="160,535.528 155,525.528 160,528.028 165,525.528 "/>
    <polygon style="fill: none; fill-opacity:0; stroke-width: 4; stroke: #000000" points="160,535.528 155,525.528 160,528.028 165,525.528 "/>
  </g>
  <g>
    <path style="fill: none; fill-opacity:0; stroke-width: 2; stroke: #000000" d="M 260,580 A 218.438,218.438 0 0 0 268.585,194.577"/>
    <polygon style="fill: #000000" points="261.996,191.008 273.176,191.051 268.691,194.387 268.67,199.978 "/>
    <polygon style="fill: none; fill-opacity:0; stroke-width: 2; stroke: #000000" points="261.996,191.008 273.176,191.051 268.691,194.387 268.67,199.978 "/>
  </g>
  <g>
    <path style="fill: none; fill-opacity:0; stroke-width: 2; stroke: #000000" d="M 260,820 A 424.375,424.375 0 0 0 267.15,196.605"/>
    <polygon style="fill: #000000" points="261.66,191.498 272.433,194.488 267.227,196.524 265.732,201.911 "/>
    <polygon style="fill: none; fill-opacity:0; stroke-width: 2; stroke: #000000" points="261.66,191.498 272.433,194.488 267.227,196.524 265.732,201.911 "/>
  </g>
  <g>
    <path style="fill: none; fill-opacity:0; stroke-width: 2; stroke: #000000" d="M 260,580 A 162.5,162.5 0 0 0 268.225,305.185"/>
    <polygon style="fill: #000000" points="261.926,301.135 273.08,301.904 268.388,304.943 268.003,310.52 "/>
    <polygon style="fill: none; fill-opacity:0; stroke-width: 2; stroke: #000000" points="261.926,301.135 273.08,301.904 268.388,304.943 268.003,310.52 "/>
  </g>
  <g>
    <path style="fill: none; fill-opacity:0; stroke-width: 2; stroke: #000000" d="M 260,820 A 341.667,341.667 0 0 0 267.316,306.42"/>
    <polygon style="fill: #000000" points="261.702,301.451 272.555,304.134 267.409,306.317 266.067,311.743 "/>
    <polygon style="fill: none; fill-opacity:0; stroke-width: 2; stroke: #000000" points="261.702,301.451 272.555,304.134 267.409,306.317 266.067,311.743 "/>
  </g>
  <text font-size="18.0622" style="fill: #000000;text-anchor:middle;font-family:sans-serif;font-style:normal;font-weight:normal" x="300" y="726.25">
    <tspan x="300" y="726.25">Fix</tspan>
  </text>
  <text font-size="18.0622" style="fill: #000000;text-anchor:middle;font-family:sans-serif;font-style:normal;font-weight:normal" x="300" y="586.25">
    <tspan x="300" y="586.25">Fix</tspan>
  </text>
</svg>
