<?xml version="1.0" encoding="UTF-8" standalone="no"?>
<!DOCTYPE svg PUBLIC "-//W3C//DTD SVG 1.0//EN" "http://www.w3.org/TR/2001/PR-SVG-20010719/DTD/svg10.dtd">
<svg width="41cm" height="8cm" viewBox="40 39 808 149" xmlns="http://www.w3.org/2000/svg" xmlns:xlink="http://www.w3.org/1999/xlink">
  <g>
    <rect style="fill: #ffffff" x="200" y="80" width="160" height="40"/>
    <rect style="fill: none; fill-opacity:0; stroke-width: 2; stroke: #000000" x="200" y="80" width="160" height="40"/>
  </g>
  <g>
    <line style="fill: none; fill-opacity:0; stroke-width: 2; stroke: #7f7f7f" x1="360" y1="40" x2="360" y2="70.2639"/>
    <polygon style="fill: #7f7f7f" points="360,77.7639 355,67.7639 360,70.2639 365,67.7639 "/>
    <polygon style="fill: none; fill-opacity:0; stroke-width: 2; stroke: #7f7f7f" points="360,77.7639 355,67.7639 360,70.2639 365,67.7639 "/>
  </g>
  <text font-size="18.0619" style="fill: #000000;text-anchor:start;font-family:sans-serif;font-style:normal;font-weight:normal" x="40" y="60">
    <tspan x="40" y="60">Input sample clock</tspan>
  </text>
  <text font-size="18.0619" style="fill: #000000;text-anchor:start;font-family:sans-serif;font-style:normal;font-weight:normal" x="40" y="100">
    <tspan x="40" y="100">Input samples</tspan>
  </text>
  <g>
    <line style="fill: none; fill-opacity:0; stroke-width: 2; stroke: #000000" x1="260" y1="120" x2="260" y2="150.264"/>
    <polygon style="fill: #000000" points="260,157.764 255,147.764 260,150.264 265,147.764 "/>
    <polygon style="fill: none; fill-opacity:0; stroke-width: 2; stroke: #000000" points="260,157.764 255,147.764 260,150.264 265,147.764 "/>
  </g>
  <g>
    <line style="fill: none; fill-opacity:0; stroke-width: 2; stroke: #000000" x1="320" y1="120" x2="320" y2="150.264"/>
    <polygon style="fill: #000000" points="320,157.764 315,147.764 320,150.264 325,147.764 "/>
    <polygon style="fill: none; fill-opacity:0; stroke-width: 2; stroke: #000000" points="320,157.764 315,147.764 320,150.264 325,147.764 "/>
  </g>
  <g>
    <line style="fill: none; fill-opacity:0; stroke-width: 2; stroke: #000000" x1="380" y1="120" x2="380" y2="150.264"/>
    <polygon style="fill: #000000" points="380,157.764 375,147.764 380,150.264 385,147.764 "/>
    <polygon style="fill: none; fill-opacity:0; stroke-width: 2; stroke: #000000" points="380,157.764 375,147.764 380,150.264 385,147.764 "/>
  </g>
  <g>
    <line style="fill: none; fill-opacity:0; stroke-width: 2; stroke: #000000" x1="440" y1="120" x2="440" y2="150.264"/>
    <polygon style="fill: #000000" points="440,157.764 435,147.764 440,150.264 445,147.764 "/>
    <polygon style="fill: none; fill-opacity:0; stroke-width: 2; stroke: #000000" points="440,157.764 435,147.764 440,150.264 445,147.764 "/>
  </g>
  <g>
    <line style="fill: none; fill-opacity:0; stroke-width: 2; stroke: #000000" x1="500" y1="120" x2="500" y2="150.264"/>
    <polygon style="fill: #000000" points="500,157.764 495,147.764 500,150.264 505,147.764 "/>
    <polygon style="fill: none; fill-opacity:0; stroke-width: 2; stroke: #000000" points="500,157.764 495,147.764 500,150.264 505,147.764 "/>
  </g>
  <g>
    <line style="fill: none; fill-opacity:0; stroke-width: 2; stroke: #000000" x1="560" y1="120" x2="560" y2="150.264"/>
    <polygon style="fill: #000000" points="560,157.764 555,147.764 560,150.264 565,147.764 "/>
    <polygon style="fill: none; fill-opacity:0; stroke-width: 2; stroke: #000000" points="560,157.764 555,147.764 560,150.264 565,147.764 "/>
  </g>
  <g>
    <line style="fill: none; fill-opacity:0; stroke-width: 2; stroke: #000000" x1="620" y1="120" x2="620" y2="150.264"/>
    <polygon style="fill: #000000" points="620,157.764 615,147.764 620,150.264 625,147.764 "/>
    <polygon style="fill: none; fill-opacity:0; stroke-width: 2; stroke: #000000" points="620,157.764 615,147.764 620,150.264 625,147.764 "/>
  </g>
  <g>
    <line style="fill: none; fill-opacity:0; stroke-width: 2; stroke: #000000" x1="680" y1="120" x2="680" y2="150.264"/>
    <polygon style="fill: #000000" points="680,157.764 675,147.764 680,150.264 685,147.764 "/>
    <polygon style="fill: none; fill-opacity:0; stroke-width: 2; stroke: #000000" points="680,157.764 675,147.764 680,150.264 685,147.764 "/>
  </g>
  <g>
    <line style="fill: none; fill-opacity:0; stroke-width: 2; stroke: #000000" x1="740" y1="120" x2="740" y2="150.264"/>
    <polygon style="fill: #000000" points="740,157.764 735,147.764 740,150.264 745,147.764 "/>
    <polygon style="fill: none; fill-opacity:0; stroke-width: 2; stroke: #000000" points="740,157.764 735,147.764 740,150.264 745,147.764 "/>
  </g>
  <g>
    <line style="fill: none; fill-opacity:0; stroke-width: 2; stroke: #000000" x1="800" y1="120" x2="800" y2="150.264"/>
    <polygon style="fill: #000000" points="800,157.764 795,147.764 800,150.264 805,147.764 "/>
    <polygon style="fill: none; fill-opacity:0; stroke-width: 2; stroke: #000000" points="800,157.764 795,147.764 800,150.264 805,147.764 "/>
  </g>
  <text font-size="18.0619" style="fill: #000000;text-anchor:start;font-family:sans-serif;font-style:normal;font-weight:normal" x="40" y="160">
    <tspan x="40" y="160">Output sample clock</tspan>
    <tspan x="40" y="182.578">  V/Ts = 3/8</tspan>
  </text>
  <g>
    <rect style="fill: #ffffff" x="360" y="80" width="160" height="40"/>
    <rect style="fill: none; fill-opacity:0; stroke-width: 2; stroke: #000000" x="360" y="80" width="160" height="40"/>
  </g>
  <g>
    <line style="fill: none; fill-opacity:0; stroke-width: 2; stroke: #7f7f7f" x1="520" y1="40" x2="520" y2="70.2639"/>
    <polygon style="fill: #7f7f7f" points="520,77.7639 515,67.7639 520,70.2639 525,67.7639 "/>
    <polygon style="fill: none; fill-opacity:0; stroke-width: 2; stroke: #7f7f7f" points="520,77.7639 515,67.7639 520,70.2639 525,67.7639 "/>
  </g>
  <g>
    <rect style="fill: #ffffff" x="520" y="80" width="160" height="40"/>
    <rect style="fill: none; fill-opacity:0; stroke-width: 2; stroke: #000000" x="520" y="80" width="160" height="40"/>
  </g>
  <g>
    <line style="fill: none; fill-opacity:0; stroke-width: 2; stroke: #7f7f7f" x1="680" y1="40" x2="680" y2="70.2639"/>
    <polygon style="fill: #7f7f7f" points="680,77.7639 675,67.7639 680,70.2639 685,67.7639 "/>
    <polygon style="fill: none; fill-opacity:0; stroke-width: 2; stroke: #7f7f7f" points="680,77.7639 675,67.7639 680,70.2639 685,67.7639 "/>
  </g>
  <g>
    <rect style="fill: #ffffff" x="680" y="80" width="160" height="40"/>
    <rect style="fill: none; fill-opacity:0; stroke-width: 2; stroke: #000000" x="680" y="80" width="160" height="40"/>
  </g>
  <g>
    <line style="fill: none; fill-opacity:0; stroke-width: 2; stroke: #7f7f7f" x1="840" y1="40" x2="840" y2="70.2639"/>
    <polygon style="fill: #7f7f7f" points="840,77.7639 835,67.7639 840,70.2639 845,67.7639 "/>
    <polygon style="fill: none; fill-opacity:0; stroke-width: 2; stroke: #7f7f7f" points="840,77.7639 835,67.7639 840,70.2639 845,67.7639 "/>
  </g>
</svg>
