<?xml version="1.0" encoding="UTF-8" standalone="no"?>
<!DOCTYPE svg PUBLIC "-//W3C//DTD SVG 1.0//EN" "http://www.w3.org/TR/2001/PR-SVG-20010719/DTD/svg10.dtd">
<svg width="33cm" height="10cm" viewBox="78 24 643 193" xmlns="http://www.w3.org/2000/svg" xmlns:xlink="http://www.w3.org/1999/xlink">
  <g>
    <rect style="fill: #ffc0cb" x="80" y="100" width="40" height="40"/>
    <rect style="fill: none; fill-opacity:0; stroke-width: 2; stroke: #000000" x="80" y="100" width="40" height="40"/>
  </g>
  <g>
    <rect style="fill: #ffc0cb" x="120" y="100" width="40" height="40"/>
    <rect style="fill: none; fill-opacity:0; stroke-width: 2; stroke: #000000" x="120" y="100" width="40" height="40"/>
  </g>
  <g>
    <rect style="fill: #ffc0cb" x="160" y="100" width="40" height="40"/>
    <rect style="fill: none; fill-opacity:0; stroke-width: 2; stroke: #000000" x="160" y="100" width="40" height="40"/>
  </g>
  <g>
    <rect style="fill: #000099" x="200" y="100" width="40" height="40"/>
    <rect style="fill: none; fill-opacity:0; stroke-width: 2; stroke: #000000" x="200" y="100" width="40" height="40"/>
  </g>
  <g>
    <rect style="fill: #000099" x="240" y="100" width="40" height="40"/>
    <rect style="fill: none; fill-opacity:0; stroke-width: 2; stroke: #000000" x="240" y="100" width="40" height="40"/>
  </g>
  <g>
    <rect style="fill: #000099" x="280" y="100" width="40" height="40"/>
    <rect style="fill: none; fill-opacity:0; stroke-width: 2; stroke: #000000" x="280" y="100" width="40" height="40"/>
  </g>
  <g>
    <rect style="fill: #000099" x="320" y="100" width="40" height="40"/>
    <rect style="fill: none; fill-opacity:0; stroke-width: 2; stroke: #000000" x="320" y="100" width="40" height="40"/>
  </g>
  <g>
    <rect style="fill: #000099" x="360" y="100" width="40" height="40"/>
    <rect style="fill: none; fill-opacity:0; stroke-width: 2; stroke: #000000" x="360" y="100" width="40" height="40"/>
  </g>
  <g>
    <rect style="fill: #000099" x="400" y="100" width="40" height="40"/>
    <rect style="fill: none; fill-opacity:0; stroke-width: 2; stroke: #000000" x="400" y="100" width="40" height="40"/>
  </g>
  <g>
    <rect style="fill: #000099" x="440" y="100" width="40" height="40"/>
    <rect style="fill: none; fill-opacity:0; stroke-width: 2; stroke: #000000" x="440" y="100" width="40" height="40"/>
  </g>
  <g>
    <rect style="fill: #ffc0cb" x="480" y="100" width="40" height="40"/>
    <rect style="fill: none; fill-opacity:0; stroke-width: 2; stroke: #000000" x="480" y="100" width="40" height="40"/>
  </g>
  <g>
    <rect style="fill: #ffc0cb" x="520" y="100" width="40" height="40"/>
    <rect style="fill: none; fill-opacity:0; stroke-width: 2; stroke: #000000" x="520" y="100" width="40" height="40"/>
  </g>
  <g>
    <rect style="fill: #ffc0cb" x="560" y="100" width="40" height="40"/>
    <rect style="fill: none; fill-opacity:0; stroke-width: 2; stroke: #000000" x="560" y="100" width="40" height="40"/>
  </g>
  <g>
    <rect style="fill: #ffc0cb" x="600" y="100" width="40" height="40"/>
    <rect style="fill: none; fill-opacity:0; stroke-width: 2; stroke: #000000" x="600" y="100" width="40" height="40"/>
  </g>
  <g>
    <rect style="fill: #ffc0cb" x="640" y="100" width="40" height="40"/>
    <rect style="fill: none; fill-opacity:0; stroke-width: 2; stroke: #000000" x="640" y="100" width="40" height="40"/>
  </g>
  <g>
    <rect style="fill: #ffc0cb" x="680" y="100" width="40" height="40"/>
    <rect style="fill: none; fill-opacity:0; stroke-width: 2; stroke: #000000" x="680" y="100" width="40" height="40"/>
  </g>
  <g>
    <line style="fill: none; fill-opacity:0; stroke-width: 2; stroke: #000000" x1="500" y1="90.2639" x2="500" y2="60"/>
    <polygon style="fill: #000000" points="500,97.7639 495,87.7639 500,90.2639 505,87.7639 "/>
    <polygon style="fill: none; fill-opacity:0; stroke-width: 2; stroke: #000000" points="500,97.7639 495,87.7639 500,90.2639 505,87.7639 "/>
  </g>
  <g>
    <line style="fill: none; fill-opacity:0; stroke-width: 2; stroke: #000000" x1="220" y1="149.736" x2="220" y2="180"/>
    <polygon style="fill: #000000" points="220,142.236 225,152.236 220,149.736 215,152.236 "/>
    <polygon style="fill: none; fill-opacity:0; stroke-width: 2; stroke: #000000" points="220,142.236 225,152.236 220,149.736 215,152.236 "/>
  </g>
  <text font-size="27.0929" style="fill: #000000;text-anchor:middle;font-family:sans-serif;font-style:normal;font-weight:normal" x="500" y="49.375">
    <tspan x="500" y="49.375">Write pointer</tspan>
  </text>
  <text font-size="27.0929" style="fill: #000000;text-anchor:middle;font-family:sans-serif;font-style:normal;font-weight:normal" x="220" y="208.981">
    <tspan x="220" y="208.981">Read pointer</tspan>
  </text>
  <text font-size="18.0619" style="fill: #ffffff;text-anchor:middle;font-family:sans-serif;font-style:normal;font-weight:normal" x="340" y="126.25">
    <tspan x="340" y="126.25">Items in the FIFO</tspan>
  </text>
  <text font-size="18.0619" style="fill: #ffffff;text-anchor:middle;font-family:sans-serif;font-style:normal;font-weight:normal" x="620" y="125.988">
    <tspan x="620" y="125.988">Unused FIFO memory</tspan>
  </text>
</svg>
