<?xml version="1.0" encoding="UTF-8" standalone="no"?>
<!DOCTYPE svg PUBLIC "-//W3C//DTD SVG 1.0//EN" "http://www.w3.org/TR/2001/PR-SVG-20010719/DTD/svg10.dtd">
<svg width="33cm" height="10cm" viewBox="58 24 643 192" xmlns="http://www.w3.org/2000/svg" xmlns:xlink="http://www.w3.org/1999/xlink">
  <g>
    <rect style="fill: #ffc0cb" x="60" y="100" width="40" height="40"/>
    <rect style="fill: none; fill-opacity:0; stroke-width: 2; stroke: #000000" x="60" y="100" width="40" height="40"/>
  </g>
  <g>
    <rect style="fill: #ffc0cb" x="100" y="100" width="40" height="40"/>
    <rect style="fill: none; fill-opacity:0; stroke-width: 2; stroke: #000000" x="100" y="100" width="40" height="40"/>
  </g>
  <g>
    <rect style="fill: #ffc0cb" x="140" y="100" width="40" height="40"/>
    <rect style="fill: none; fill-opacity:0; stroke-width: 2; stroke: #000000" x="140" y="100" width="40" height="40"/>
  </g>
  <g>
    <rect style="fill: #ffc0cb" x="180" y="100" width="40" height="40"/>
    <rect style="fill: none; fill-opacity:0; stroke-width: 2; stroke: #000000" x="180" y="100" width="40" height="40"/>
  </g>
  <g>
    <rect style="fill: #ffc0cb" x="220" y="100" width="40" height="40"/>
    <rect style="fill: none; fill-opacity:0; stroke-width: 2; stroke: #000000" x="220" y="100" width="40" height="40"/>
  </g>
  <g>
    <rect style="fill: #ffc0cb" x="260" y="100" width="40" height="40"/>
    <rect style="fill: none; fill-opacity:0; stroke-width: 2; stroke: #000000" x="260" y="100" width="40" height="40"/>
  </g>
  <g>
    <rect style="fill: #ffc0cb" x="300" y="100" width="40" height="40"/>
    <rect style="fill: none; fill-opacity:0; stroke-width: 2; stroke: #000000" x="300" y="100" width="40" height="40"/>
  </g>
  <g>
    <rect style="fill: #ffc0cb" x="340" y="100" width="40" height="40"/>
    <rect style="fill: none; fill-opacity:0; stroke-width: 2; stroke: #000000" x="340" y="100" width="40" height="40"/>
  </g>
  <g>
    <rect style="fill: #ffc0cb" x="380" y="100" width="40" height="40"/>
    <rect style="fill: none; fill-opacity:0; stroke-width: 2; stroke: #000000" x="380" y="100" width="40" height="40"/>
  </g>
  <g>
    <rect style="fill: #ffc0cb" x="420" y="100" width="40" height="40"/>
    <rect style="fill: none; fill-opacity:0; stroke-width: 2; stroke: #000000" x="420" y="100" width="40" height="40"/>
  </g>
  <g>
    <rect style="fill: #ffc0cb" x="460" y="100" width="40" height="40"/>
    <rect style="fill: none; fill-opacity:0; stroke-width: 2; stroke: #000000" x="460" y="100" width="40" height="40"/>
  </g>
  <g>
    <rect style="fill: #ffc0cb" x="500" y="100" width="40" height="40"/>
    <rect style="fill: none; fill-opacity:0; stroke-width: 2; stroke: #000000" x="500" y="100" width="40" height="40"/>
  </g>
  <g>
    <rect style="fill: #ffc0cb" x="540" y="100" width="40" height="40"/>
    <rect style="fill: none; fill-opacity:0; stroke-width: 2; stroke: #000000" x="540" y="100" width="40" height="40"/>
  </g>
  <g>
    <rect style="fill: #ffc0cb" x="580" y="100" width="40" height="40"/>
    <rect style="fill: none; fill-opacity:0; stroke-width: 2; stroke: #000000" x="580" y="100" width="40" height="40"/>
  </g>
  <g>
    <rect style="fill: #ffc0cb" x="620" y="100" width="40" height="40"/>
    <rect style="fill: none; fill-opacity:0; stroke-width: 2; stroke: #000000" x="620" y="100" width="40" height="40"/>
  </g>
  <g>
    <rect style="fill: #ffc0cb" x="660" y="100" width="40" height="40"/>
    <rect style="fill: none; fill-opacity:0; stroke-width: 2; stroke: #000000" x="660" y="100" width="40" height="40"/>
  </g>
  <g>
    <line style="fill: none; fill-opacity:0; stroke-width: 2; stroke: #000000" x1="480" y1="90.2639" x2="480" y2="60"/>
    <polygon style="fill: #000000" points="480,97.7639 475,87.7639 480,90.2639 485,87.7639 "/>
    <polygon style="fill: none; fill-opacity:0; stroke-width: 2; stroke: #000000" points="480,97.7639 475,87.7639 480,90.2639 485,87.7639 "/>
  </g>
  <g>
    <line style="fill: none; fill-opacity:0; stroke-width: 2; stroke: #000000" x1="480" y1="149.736" x2="480" y2="180"/>
    <polygon style="fill: #000000" points="480,142.236 485,152.236 480,149.736 475,152.236 "/>
    <polygon style="fill: none; fill-opacity:0; stroke-width: 2; stroke: #000000" points="480,142.236 485,152.236 480,149.736 475,152.236 "/>
  </g>
  <text font-size="27.0929" style="fill: #000000;text-anchor:middle;font-family:sans-serif;font-style:normal;font-weight:normal" x="480" y="49.375">
    <tspan x="480" y="49.375">Write pointer</tspan>
  </text>
  <text font-size="27.0929" style="fill: #000000;text-anchor:middle;font-family:sans-serif;font-style:normal;font-weight:normal" x="480" y="209.375">
    <tspan x="480" y="209.375">Read pointer</tspan>
  </text>
  <text font-size="18.0619" style="fill: #ffffff;text-anchor:middle;font-family:sans-serif;font-style:normal;font-weight:normal" x="360" y="126.25">
    <tspan x="360" y="126.25">Unused FIFO memory</tspan>
  </text>
</svg>
