<?xml version="1.0" encoding="UTF-8" standalone="no"?>
<!DOCTYPE svg PUBLIC "-//W3C//DTD SVG 1.0//EN" "http://www.w3.org/TR/2001/PR-SVG-20010719/DTD/svg10.dtd">
<svg width="24cm" height="27cm" viewBox="-2 24 463 537" xmlns="http://www.w3.org/2000/svg" xmlns:xlink="http://www.w3.org/1999/xlink">
  <g>
    <rect style="fill: #ffff00" x="0" y="140" width="460" height="420" rx="12" ry="12"/>
    <rect style="fill: none; fill-opacity:0; stroke-width: 2; stroke-linejoin: round; stroke: #000000" x="0" y="140" width="460" height="420" rx="12" ry="12"/>
  </g>
  <g>
    <rect style="fill: #ffa4a4" x="20" y="280" width="240" height="80" rx="6" ry="6"/>
    <rect style="fill: none; fill-opacity:0; stroke-width: 2; stroke-linejoin: round; stroke-dasharray: 8; stroke: #000000" x="20" y="280" width="240" height="80" rx="6" ry="6"/>
  </g>
  <text font-size="27.0929" style="fill: #000000;text-anchor:middle;font-family:sans-serif;font-style:normal;font-weight:normal" x="140" y="312.442">
    <tspan x="140" y="312.442">Soft-Core</tspan>
    <tspan x="140" y="346.308">CPU under test</tspan>
  </text>
  <g>
    <rect style="fill: #ffffff" x="120" y="120" width="240" height="80"/>
    <rect style="fill: none; fill-opacity:0; stroke-width: 2; stroke: #000000" x="120" y="120" width="240" height="80"/>
  </g>
  <text font-size="27.0929" style="fill: #000000;text-anchor:middle;font-family:sans-serif;font-style:normal;font-weight:normal" x="240" y="152.442">
    <tspan x="240" y="152.442">Debugging Bus</tspan>
    <tspan x="240" y="186.308">Interface</tspan>
  </text>
  <line style="fill: none; fill-opacity:0; stroke-width: 2; stroke: #000000" x1="240" y1="60" x2="240" y2="120"/>
  <text font-size="27.0929" style="fill: #000000;text-anchor:middle;font-family:sans-serif;font-style:normal;font-weight:normal" x="240" y="49.375">
    <tspan x="240" y="49.375">Host PC</tspan>
  </text>
  <line style="fill: none; fill-opacity:0; stroke-width: 2; stroke: #000000" x1="20" y1="240" x2="420" y2="240"/>
  <line style="fill: none; fill-opacity:0; stroke-width: 2; stroke: #000000" x1="160" y1="240" x2="140" y2="280"/>
  <line style="fill: none; fill-opacity:0; stroke-width: 2; stroke: #000000" x1="380" y1="240" x2="300" y2="400"/>
  <g>
    <rect style="fill: #ffffff" x="20" y="400" width="400" height="40"/>
    <rect style="fill: none; fill-opacity:0; stroke-width: 2; stroke: #000000" x="20" y="400" width="400" height="40"/>
  </g>
  <text font-size="27.0929" style="fill: #000000;text-anchor:middle;font-family:sans-serif;font-style:normal;font-weight:normal" x="220" y="429.375">
    <tspan x="220" y="429.375">Bus Arbiter</tspan>
  </text>
  <line style="fill: none; fill-opacity:0; stroke-width: 2; stroke: #000000" x1="120" y1="360" x2="100" y2="400"/>
  <line style="fill: none; fill-opacity:0; stroke-width: 2; stroke: #000000" x1="240" y1="200" x2="220" y2="240"/>
  <g>
    <rect style="fill: #ffffff" x="300" y="480" width="120" height="40"/>
    <rect style="fill: none; fill-opacity:0; stroke-width: 2; stroke: #000000" x="300" y="480" width="120" height="40"/>
  </g>
  <line style="fill: none; fill-opacity:0; stroke-width: 2; stroke: #000000" x1="380" y1="440" x2="360" y2="480"/>
  <g>
    <rect style="fill: #ffffff" x="160" y="480" width="120" height="40"/>
    <rect style="fill: none; fill-opacity:0; stroke-width: 2; stroke: #000000" x="160" y="480" width="120" height="40"/>
  </g>
  <line style="fill: none; fill-opacity:0; stroke-width: 2; stroke: #000000" x1="240" y1="440" x2="220" y2="480"/>
  <g>
    <rect style="fill: #ffffff" x="20" y="480" width="120" height="40"/>
    <rect style="fill: none; fill-opacity:0; stroke-width: 2; stroke: #000000" x="20" y="480" width="120" height="40"/>
  </g>
  <line style="fill: none; fill-opacity:0; stroke-width: 2; stroke: #000000" x1="100" y1="440" x2="80" y2="480"/>
  <text font-size="27.0929" style="fill: #000000;text-anchor:middle;font-family:sans-serif;font-style:normal;font-weight:normal" x="300" y="549.375">
    <tspan x="300" y="549.375">Design Components</tspan>
  </text>
  <text font-size="27.0929" style="fill: #000000;text-anchor:middle;font-family:sans-serif;font-style:normal;font-weight:normal" x="40" y="189.375">
    <tspan x="40" y="189.375">FPGA</tspan>
  </text>
</svg>
