<?xml version="1.0" encoding="UTF-8"?>
<svg xmlns="http://www.w3.org/2000/svg" xmlns:xlink="http://www.w3.org/1999/xlink" width="464pt" height="57pt" viewBox="0 0 464 57" version="1.1">
<g id="surface170158">
<rect x="0" y="0" width="464" height="57" style="fill:rgb(100%,100%,100%);fill-opacity:1;stroke:none;"/>
<path style="fill-rule:evenodd;fill:rgb(100%,100%,100%);fill-opacity:1;stroke-width:0.125;stroke-linecap:butt;stroke-linejoin:miter;stroke:rgb(0%,0%,0%);stroke-opacity:1;stroke-miterlimit:10;" d="M 0.999805 2.999805 L 10.999805 2.999805 L 10.999805 5.999805 L 0.999805 5.999805 Z M 0.999805 2.999805 " transform="matrix(8,0,0,8,-7.6,-7.6)"/>
<path style="fill:none;stroke-width:0.125;stroke-linecap:butt;stroke-linejoin:miter;stroke:rgb(0%,0%,0%);stroke-opacity:1;stroke-miterlimit:10;" d="M 17.999804 0.999805 L 17.999804 2.512988 " transform="matrix(8,0,0,8,-7.6,-7.6)"/>
<path style="fill-rule:evenodd;fill:rgb(0%,0%,0%);fill-opacity:1;stroke-width:0.125;stroke-linecap:butt;stroke-linejoin:miter;stroke:rgb(0%,0%,0%);stroke-opacity:1;stroke-miterlimit:10;" d="M 17.999804 2.887988 L 17.749804 2.387988 L 17.999804 2.512988 L 18.249804 2.387988 Z M 17.999804 2.887988 " transform="matrix(8,0,0,8,-7.6,-7.6)"/>
<path style="fill-rule:evenodd;fill:rgb(100%,100%,100%);fill-opacity:1;stroke-width:0.125;stroke-linecap:butt;stroke-linejoin:miter;stroke:rgb(0%,0%,0%);stroke-opacity:1;stroke-miterlimit:10;" d="M 12.999805 2.999805 L 22.999804 2.999805 L 22.999804 5.999805 L 12.999805 5.999805 Z M 12.999805 2.999805 " transform="matrix(8,0,0,8,-7.6,-7.6)"/>
<path style="fill:none;stroke-width:0.125;stroke-linecap:butt;stroke-linejoin:miter;stroke:rgb(0%,0%,0%);stroke-opacity:1;stroke-miterlimit:10;" d="M 29.999804 0.999805 L 29.999804 2.512988 " transform="matrix(8,0,0,8,-7.6,-7.6)"/>
<path style="fill-rule:evenodd;fill:rgb(0%,0%,0%);fill-opacity:1;stroke-width:0.125;stroke-linecap:butt;stroke-linejoin:miter;stroke:rgb(0%,0%,0%);stroke-opacity:1;stroke-miterlimit:10;" d="M 29.999804 2.887988 L 29.749804 2.387988 L 29.999804 2.512988 L 30.249804 2.387988 Z M 29.999804 2.887988 " transform="matrix(8,0,0,8,-7.6,-7.6)"/>
<path style="fill-rule:evenodd;fill:rgb(100%,100%,100%);fill-opacity:1;stroke-width:0.125;stroke-linecap:butt;stroke-linejoin:miter;stroke:rgb(0%,0%,0%);stroke-opacity:1;stroke-miterlimit:10;" d="M 24.999804 2.999805 L 34.999804 2.999805 L 34.999804 5.999805 L 24.999804 5.999805 Z M 24.999804 2.999805 " transform="matrix(8,0,0,8,-7.6,-7.6)"/>
<path style="fill:none;stroke-width:0.125;stroke-linecap:butt;stroke-linejoin:miter;stroke:rgb(0%,0%,0%);stroke-opacity:1;stroke-miterlimit:10;" d="M 41.999804 0.999805 L 41.999804 2.512988 " transform="matrix(8,0,0,8,-7.6,-7.6)"/>
<path style="fill-rule:evenodd;fill:rgb(0%,0%,0%);fill-opacity:1;stroke-width:0.125;stroke-linecap:butt;stroke-linejoin:miter;stroke:rgb(0%,0%,0%);stroke-opacity:1;stroke-miterlimit:10;" d="M 41.999804 2.887988 L 41.749804 2.387988 L 41.999804 2.512988 L 42.249804 2.387988 Z M 41.999804 2.887988 " transform="matrix(8,0,0,8,-7.6,-7.6)"/>
<path style="fill-rule:evenodd;fill:rgb(100%,100%,100%);fill-opacity:1;stroke-width:0.125;stroke-linecap:butt;stroke-linejoin:miter;stroke:rgb(0%,0%,0%);stroke-opacity:1;stroke-miterlimit:10;" d="M 36.999804 2.999805 L 46.999804 2.999805 L 46.999804 5.999805 L 36.999804 5.999805 Z M 36.999804 2.999805 " transform="matrix(8,0,0,8,-7.6,-7.6)"/>
<path style="fill:none;stroke-width:0.125;stroke-linecap:butt;stroke-linejoin:miter;stroke:rgb(0%,0%,0%);stroke-opacity:1;stroke-miterlimit:10;" d="M 41.999804 5.999805 L 41.999804 7.512988 " transform="matrix(8,0,0,8,-7.6,-7.6)"/>
<path style="fill-rule:evenodd;fill:rgb(0%,0%,0%);fill-opacity:1;stroke-width:0.125;stroke-linecap:butt;stroke-linejoin:miter;stroke:rgb(0%,0%,0%);stroke-opacity:1;stroke-miterlimit:10;" d="M 41.999804 7.887988 L 41.749804 7.387988 L 41.999804 7.512988 L 42.249804 7.387988 Z M 41.999804 7.887988 " transform="matrix(8,0,0,8,-7.6,-7.6)"/>
<path style="fill:none;stroke-width:0.125;stroke-linecap:butt;stroke-linejoin:miter;stroke:rgb(0%,0%,0%);stroke-opacity:1;stroke-miterlimit:10;" d="M 5.999805 0.999805 L 5.999805 2.512988 " transform="matrix(8,0,0,8,-7.6,-7.6)"/>
<path style="fill-rule:evenodd;fill:rgb(0%,0%,0%);fill-opacity:1;stroke-width:0.125;stroke-linecap:butt;stroke-linejoin:miter;stroke:rgb(0%,0%,0%);stroke-opacity:1;stroke-miterlimit:10;" d="M 5.999805 2.887988 L 5.749805 2.387988 L 5.999805 2.512988 L 6.249805 2.387988 Z M 5.999805 2.887988 " transform="matrix(8,0,0,8,-7.6,-7.6)"/>
<path style="fill:none;stroke-width:0.125;stroke-linecap:butt;stroke-linejoin:miter;stroke:rgb(0%,0%,0%);stroke-opacity:1;stroke-miterlimit:10;" d="M 29.999804 5.999805 L 29.999804 7.512988 " transform="matrix(8,0,0,8,-7.6,-7.6)"/>
<path style="fill-rule:evenodd;fill:rgb(0%,0%,0%);fill-opacity:1;stroke-width:0.125;stroke-linecap:butt;stroke-linejoin:miter;stroke:rgb(0%,0%,0%);stroke-opacity:1;stroke-miterlimit:10;" d="M 29.999804 7.887988 L 29.749804 7.387988 L 29.999804 7.512988 L 30.249804 7.387988 Z M 29.999804 7.887988 " transform="matrix(8,0,0,8,-7.6,-7.6)"/>
<path style="fill:none;stroke-width:0.125;stroke-linecap:butt;stroke-linejoin:miter;stroke:rgb(0%,0%,0%);stroke-opacity:1;stroke-miterlimit:10;" d="M 17.999804 5.999805 L 17.999804 7.512988 " transform="matrix(8,0,0,8,-7.6,-7.6)"/>
<path style="fill-rule:evenodd;fill:rgb(0%,0%,0%);fill-opacity:1;stroke-width:0.125;stroke-linecap:butt;stroke-linejoin:miter;stroke:rgb(0%,0%,0%);stroke-opacity:1;stroke-miterlimit:10;" d="M 17.999804 7.887988 L 17.749804 7.387988 L 17.999804 7.512988 L 18.249804 7.387988 Z M 17.999804 7.887988 " transform="matrix(8,0,0,8,-7.6,-7.6)"/>
<path style="fill:none;stroke-width:0.125;stroke-linecap:butt;stroke-linejoin:miter;stroke:rgb(0%,0%,0%);stroke-opacity:1;stroke-miterlimit:10;" d="M 5.999805 5.999805 L 5.999805 7.512988 " transform="matrix(8,0,0,8,-7.6,-7.6)"/>
<path style="fill-rule:evenodd;fill:rgb(0%,0%,0%);fill-opacity:1;stroke-width:0.125;stroke-linecap:butt;stroke-linejoin:miter;stroke:rgb(0%,0%,0%);stroke-opacity:1;stroke-miterlimit:10;" d="M 5.999805 7.887988 L 5.749805 7.387988 L 5.999805 7.512988 L 6.249805 7.387988 Z M 5.999805 7.887988 " transform="matrix(8,0,0,8,-7.6,-7.6)"/>
<path style="fill:none;stroke-width:0.125;stroke-linecap:butt;stroke-linejoin:miter;stroke:rgb(0%,0%,0%);stroke-opacity:1;stroke-miterlimit:10;" d="M 53.999804 0.999805 L 53.999804 2.512988 " transform="matrix(8,0,0,8,-7.6,-7.6)"/>
<path style="fill-rule:evenodd;fill:rgb(0%,0%,0%);fill-opacity:1;stroke-width:0.125;stroke-linecap:butt;stroke-linejoin:miter;stroke:rgb(0%,0%,0%);stroke-opacity:1;stroke-miterlimit:10;" d="M 53.999804 2.887988 L 53.749804 2.387988 L 53.999804 2.512988 L 54.249804 2.387988 Z M 53.999804 2.887988 " transform="matrix(8,0,0,8,-7.6,-7.6)"/>
<path style="fill-rule:evenodd;fill:rgb(100%,100%,100%);fill-opacity:1;stroke-width:0.125;stroke-linecap:butt;stroke-linejoin:miter;stroke:rgb(0%,0%,0%);stroke-opacity:1;stroke-miterlimit:10;" d="M 48.999804 2.999805 L 58.999804 2.999805 L 58.999804 5.999805 L 48.999804 5.999805 Z M 48.999804 2.999805 " transform="matrix(8,0,0,8,-7.6,-7.6)"/>
<path style="fill:none;stroke-width:0.125;stroke-linecap:butt;stroke-linejoin:miter;stroke:rgb(0%,0%,0%);stroke-opacity:1;stroke-miterlimit:10;" d="M 53.999804 5.999805 L 53.999804 7.512988 " transform="matrix(8,0,0,8,-7.6,-7.6)"/>
<path style="fill-rule:evenodd;fill:rgb(0%,0%,0%);fill-opacity:1;stroke-width:0.125;stroke-linecap:butt;stroke-linejoin:miter;stroke:rgb(0%,0%,0%);stroke-opacity:1;stroke-miterlimit:10;" d="M 53.999804 7.887988 L 53.749804 7.387988 L 53.999804 7.512988 L 54.249804 7.387988 Z M 53.999804 7.887988 " transform="matrix(8,0,0,8,-7.6,-7.6)"/>
</g>
</svg>
