<?xml version="1.0" encoding="UTF-8" standalone="no"?>
<!DOCTYPE svg PUBLIC "-//W3C//DTD SVG 1.0//EN" "http://www.w3.org/TR/2001/PR-SVG-20010719/DTD/svg10.dtd">
<svg width="80cm" height="13cm" viewBox="19 58 1584 243" xmlns="http://www.w3.org/2000/svg" xmlns:xlink="http://www.w3.org/1999/xlink">
  <g>
    <rect style="fill: #add8e6" x="60" y="60" width="1500" height="240"/>
    <rect style="fill: none; fill-opacity:0; stroke-width: 2; stroke: #000000" x="60" y="60" width="1500" height="240"/>
  </g>
  <g>
    <rect style="fill: #ffffff" x="100" y="100" width="240" height="80"/>
    <rect style="fill: none; fill-opacity:0; stroke-width: 2; stroke: #000000" x="100" y="100" width="240" height="80"/>
  </g>
  <text font-size="27.0929" style="fill: #000000;text-anchor:middle;font-family:sans-serif;font-style:normal;font-weight:normal" x="220" y="149.375">
    <tspan x="220" y="149.375">Sampler (A/D)</tspan>
  </text>
  <g>
    <rect style="fill: #ffffff" x="400" y="100" width="240" height="80"/>
    <rect style="fill: none; fill-opacity:0; stroke-width: 2; stroke: #000000" x="400" y="100" width="240" height="80"/>
  </g>
  <text font-size="27.0929" style="fill: #000000;text-anchor:middle;font-family:sans-serif;font-style:normal;font-weight:normal" x="520" y="148.981">
    <tspan x="520" y="148.981">Pre-DSP</tspan>
  </text>
  <g>
    <rect style="fill: #ffffff" x="700" y="100" width="240" height="80"/>
    <rect style="fill: none; fill-opacity:0; stroke-width: 4; stroke: #ff0000" x="700" y="100" width="240" height="80"/>
  </g>
  <text font-size="27.0929" style="fill: #000000;text-anchor:middle;font-family:sans-serif;font-style:normal;font-weight:normal" x="820" y="149.375">
    <tspan x="820" y="149.375">FFT</tspan>
  </text>
  <g>
    <rect style="fill: #ffffff" x="1000" y="100" width="240" height="80"/>
    <rect style="fill: none; fill-opacity:0; stroke-width: 2; stroke: #000000" x="1000" y="100" width="240" height="80"/>
  </g>
  <text font-size="27.0929" style="fill: #000000;text-anchor:middle;font-family:sans-serif;font-style:normal;font-weight:normal" x="1120" y="148.981">
    <tspan x="1120" y="148.981">FFT Framer</tspan>
  </text>
  <g>
    <rect style="fill: #ffffff" x="1240" y="200" width="240" height="80"/>
    <rect style="fill: none; fill-opacity:0; stroke-width: 2; stroke: #000000" x="1240" y="200" width="240" height="80"/>
  </g>
  <text font-size="27.0929" style="fill: #000000;text-anchor:middle;font-family:sans-serif;font-style:normal;font-weight:normal" x="1360" y="249.375">
    <tspan x="1360" y="249.375">Block RAM</tspan>
  </text>
  <g>
    <line style="fill: none; fill-opacity:0; stroke-width: 2; stroke: #000000" x1="20" y1="140" x2="90.2639" y2="140"/>
    <polygon style="fill: #000000" points="97.7639,140 87.7639,145 90.2639,140 87.7639,135 "/>
    <polygon style="fill: none; fill-opacity:0; stroke-width: 2; stroke: #000000" points="97.7639,140 87.7639,145 90.2639,140 87.7639,135 "/>
  </g>
  <g>
    <line style="fill: none; fill-opacity:0; stroke-width: 2; stroke: #000000" x1="340" y1="140" x2="390.264" y2="140"/>
    <polygon style="fill: #000000" points="397.764,140 387.764,145 390.264,140 387.764,135 "/>
    <polygon style="fill: none; fill-opacity:0; stroke-width: 2; stroke: #000000" points="397.764,140 387.764,145 390.264,140 387.764,135 "/>
  </g>
  <g>
    <line style="fill: none; fill-opacity:0; stroke-width: 2; stroke: #000000" x1="640" y1="140" x2="690.264" y2="140"/>
    <polygon style="fill: #000000" points="697.764,140 687.764,145 690.264,140 687.764,135 "/>
    <polygon style="fill: none; fill-opacity:0; stroke-width: 2; stroke: #000000" points="697.764,140 687.764,145 690.264,140 687.764,135 "/>
  </g>
  <g>
    <line style="fill: none; fill-opacity:0; stroke-width: 2; stroke: #000000" x1="940" y1="140" x2="990.264" y2="140"/>
    <polygon style="fill: #000000" points="997.764,140 987.764,145 990.264,140 987.764,135 "/>
    <polygon style="fill: none; fill-opacity:0; stroke-width: 2; stroke: #000000" points="997.764,140 987.764,145 990.264,140 987.764,135 "/>
  </g>
  <g>
    <polyline style="fill: none; fill-opacity:0; stroke-width: 2; stroke: #000000" points="1240,140 1300,140 1300,190.264 "/>
    <polygon style="fill: #000000" points="1300,197.764 1295,187.764 1300,190.264 1305,187.764 "/>
    <polygon style="fill: none; fill-opacity:0; stroke-width: 2; stroke: #000000" points="1300,197.764 1295,187.764 1300,190.264 1305,187.764 "/>
  </g>
  <g>
    <polyline style="fill: none; fill-opacity:0; stroke-width: 2; stroke: #000000" points="1420,200 1420,140 1590.26,140 "/>
    <polygon style="fill: #000000" points="1597.76,140 1587.76,145 1590.26,140 1587.76,135 "/>
    <polygon style="fill: none; fill-opacity:0; stroke-width: 2; stroke: #000000" points="1597.76,140 1587.76,145 1590.26,140 1587.76,135 "/>
  </g>
  <text font-size="27.0929" style="fill: #000000;text-anchor:middle;font-family:sans-serif;font-style:normal;font-weight:normal" x="1480" y="129.375">
    <tspan x="1480" y="129.375">Results</tspan>
  </text>
  <text font-size="27.0929" style="fill: #000000;text-anchor:middle;font-family:sans-serif;font-style:normal;font-weight:normal" x="180" y="269.375">
    <tspan x="180" y="269.375">FPGA Design</tspan>
  </text>
</svg>
