<?xml version="1.0" encoding="UTF-8" standalone="no"?>
<!DOCTYPE svg PUBLIC "-//W3C//DTD SVG 1.0//EN" "http://www.w3.org/TR/2001/PR-SVG-20010719/DTD/svg10.dtd">
<svg width="74cm" height="48cm" viewBox="34 -3 1480 945" xmlns="http://www.w3.org/2000/svg" xmlns:xlink="http://www.w3.org/1999/xlink">
  <g>
    <rect style="fill: #ffffff" x="1060" y="680" width="120" height="40"/>
    <rect style="fill: none; fill-opacity:0; stroke-width: 2; stroke: #000000" x="1060" y="680" width="120" height="40"/>
  </g>
  <g>
    <rect style="fill: #ffffff" x="820" y="600" width="120" height="40"/>
    <rect style="fill: none; fill-opacity:0; stroke-width: 4; stroke: #5bbfde" x="820" y="600" width="120" height="40"/>
  </g>
  <text font-size="18.0622" style="fill: #000000;text-anchor:middle;font-family:sans-serif;font-style:normal;font-weight:normal" x="880" y="626.25">
    <tspan x="880" y="626.25">IO-Slave</tspan>
  </text>
  <g>
    <rect style="fill: #ffffff" x="460" y="600" width="120" height="40"/>
    <rect style="fill: none; fill-opacity:0; stroke-width: 2; stroke: #000000" x="460" y="600" width="120" height="40"/>
  </g>
  <line style="fill: none; fill-opacity:0; stroke-width: 8; stroke: #5bbfde" x1="140" y1="560" x2="1510" y2="560"/>
  <line style="fill: none; fill-opacity:0; stroke-width: 2; stroke: #000000" x1="180" y1="560" x2="160" y2="600"/>
  <line style="fill: none; fill-opacity:0; stroke-width: 2; stroke: #000000" x1="540" y1="560" x2="520" y2="600"/>
  <line style="fill: none; fill-opacity:0; stroke-width: 2; stroke: #000000" x1="580" y1="120" x2="560" y2="160"/>
  <g>
    <rect style="fill: #ffa4a4" x="60" y="600" width="380" height="80" rx="20" ry="20"/>
    <rect style="fill: none; fill-opacity:0; stroke-width: 2; stroke-linejoin: round; stroke: #000000" x="60" y="600" width="380" height="80" rx="20" ry="20"/>
  </g>
  <g>
    <rect style="fill: #ffffff" x="80" y="620" width="160" height="40"/>
    <rect style="fill: none; fill-opacity:0; stroke-width: 2; stroke: #000000" x="80" y="620" width="160" height="40"/>
  </g>
  <text font-size="18.0622" style="fill: #000000;text-anchor:middle;font-family:sans-serif;font-style:normal;font-weight:normal" x="160" y="646.25">
    <tspan x="160" y="646.25">Flash Control</tspan>
  </text>
  <g>
    <rect style="fill: #ffffff" x="260" y="620" width="160" height="40"/>
    <rect style="fill: none; fill-opacity:0; stroke-width: 2; stroke: #000000" x="260" y="620" width="160" height="40"/>
  </g>
  <text font-size="18.0622" style="fill: #000000;text-anchor:middle;font-family:sans-serif;font-style:normal;font-weight:normal" x="340" y="646.25">
    <tspan x="340" y="646.25">Flash Data</tspan>
  </text>
  <line style="fill: none; fill-opacity:0; stroke-width: 2; stroke: #000000" x1="160" y1="600" x2="160" y2="620"/>
  <line style="fill: none; fill-opacity:0; stroke-width: 2; stroke: #000000" x1="340" y1="600" x2="340" y2="620"/>
  <g>
    <rect style="fill: #ffffff" x="640" y="600" width="120" height="40"/>
    <rect style="fill: none; fill-opacity:0; stroke-width: 2; stroke: #000000" x="640" y="600" width="120" height="40"/>
  </g>
  <line style="fill: none; fill-opacity:0; stroke-width: 2; stroke: #000000" x1="720" y1="560" x2="700" y2="600"/>
  <g>
    <rect style="fill: #90ee90" x="500" y="680" width="160" height="40"/>
    <rect style="fill: none; fill-opacity:0; stroke-width: 4; stroke: #5bbfde" x="500" y="680" width="160" height="40"/>
  </g>
  <line style="fill: none; fill-opacity:0; stroke-width: 2; stroke: #000000" x1="640" y1="560" x2="580" y2="680"/>
  <text font-size="18.0622" style="fill: #000000;text-anchor:middle;font-family:sans-serif;font-style:normal;font-weight:normal" x="1120" y="706.25">
    <tspan x="1120" y="706.25">GPS PPS</tspan>
  </text>
  <g>
    <rect style="fill: #ffffff" x="700" y="680" width="120" height="40"/>
    <rect style="fill: none; fill-opacity:0; stroke-width: 2; stroke: #000000" x="700" y="680" width="120" height="40"/>
  </g>
  <text font-size="36.1244" style="fill: #000000;text-anchor:middle;font-family:sans-serif;font-style:normal;font-weight:normal" x="120" y="52.5">
    <tspan x="120" y="52.5">OpenArty</tspan>
  </text>
  <line style="fill: none; fill-opacity:0; stroke-width: 2; stroke: #000000" x1="900" y1="560" x2="880" y2="600"/>
  <line style="fill: none; fill-opacity:0; stroke-width: 2; stroke: #000000" x1="825" y1="560" x2="760" y2="680"/>
  <g>
    <rect style="fill: #ffffff" x="580" y="820" width="120" height="40"/>
    <rect style="fill: none; fill-opacity:0; stroke-width: 2; stroke: #000000" x="580" y="820" width="120" height="40"/>
  </g>
  <text font-size="18.0622" style="fill: #000000;text-anchor:middle;font-family:sans-serif;font-style:normal;font-weight:normal" x="640" y="846.25">
    <tspan x="640" y="846.25">Version</tspan>
  </text>
  <g>
    <rect style="fill: #ffffff" x="780" y="820" width="120" height="40"/>
    <rect style="fill: none; fill-opacity:0; stroke-width: 4; stroke: #5bbfde" x="780" y="820" width="120" height="40"/>
  </g>
  <text font-size="18.0622" style="fill: #000000;text-anchor:middle;font-family:sans-serif;font-style:normal;font-weight:normal" x="840" y="846.25">
    <tspan x="840" y="846.25">ClrLED's</tspan>
  </text>
  <g>
    <rect style="fill: #ffffff" x="660" y="900" width="120" height="40"/>
    <rect style="fill: none; fill-opacity:0; stroke-width: 4; stroke: #5bbfde" x="660" y="900" width="120" height="40"/>
  </g>
  <line style="fill: none; fill-opacity:0; stroke-width: 2; stroke: #000000" x1="660" y1="780" x2="640" y2="820"/>
  <line style="fill: none; fill-opacity:0; stroke-width: 2; stroke: #000000" x1="860" y1="780" x2="840" y2="820"/>
  <line style="fill: none; fill-opacity:0; stroke-width: 2; stroke: #000000" x1="780" y1="780" x2="720" y2="900"/>
  <g>
    <rect style="fill: #ffffff" x="840" y="900" width="120" height="40"/>
    <rect style="fill: none; fill-opacity:0; stroke-width: 2; stroke: #000000" x="840" y="900" width="120" height="40"/>
  </g>
  <line style="fill: none; fill-opacity:0; stroke-width: 2; stroke: #000000" x1="960" y1="780" x2="900" y2="900"/>
  <text font-size="18.0622" style="fill: #000000;text-anchor:middle;font-family:sans-serif;font-style:normal;font-weight:normal" x="900" y="926.25">
    <tspan x="900" y="926.25">Interrupts</tspan>
  </text>
  <line style="fill: none; fill-opacity:0; stroke-width: 4; stroke: #5bbfde" x1="620" y1="780" x2="1080" y2="780"/>
  <line style="fill: none; fill-opacity:0; stroke-width: 4; stroke: #5bbfde" x1="880" y1="640" x2="820" y2="780"/>
  <line style="fill: none; fill-opacity:0; stroke-width: 2; stroke: #000000" x1="360" y1="560" x2="340" y2="600"/>
  <text font-size="18.0622" style="fill: #000000;text-anchor:middle;font-family:sans-serif;font-style:normal;font-weight:normal" x="520" y="626.25">
    <tspan x="520" y="626.25">Block RAM</tspan>
  </text>
  <text font-size="18.0622" style="fill: #000000;text-anchor:middle;font-family:sans-serif;font-style:normal;font-weight:normal" x="760" y="706.25">
    <tspan x="760" y="706.25">UART</tspan>
  </text>
  <text font-size="18.0622" style="fill: #000000;text-anchor:middle;font-family:sans-serif;font-style:normal;font-weight:normal" x="580" y="706.25">
    <tspan x="580" y="706.25">DDR3 SDRAM</tspan>
  </text>
  <text font-size="18.0622" style="fill: #000000;text-anchor:middle;font-family:sans-serif;font-style:normal;font-weight:normal" x="720" y="926.25">
    <tspan x="720" y="926.25">Btns/Sw/LEDs</tspan>
  </text>
  <g>
    <rect style="fill: #ffffff" x="1000" y="600" width="120" height="40"/>
    <rect style="fill: none; fill-opacity:0; stroke-width: 4; stroke: #5bbfde" x="1000" y="600" width="120" height="40"/>
  </g>
  <line style="fill: none; fill-opacity:0; stroke-width: 2; stroke: #000000" x1="1080" y1="560" x2="1060" y2="600"/>
  <text font-size="18.0622" style="fill: #000000;text-anchor:middle;font-family:sans-serif;font-style:normal;font-weight:normal" x="1060" y="626.25">
    <tspan x="1060" y="626.25">Net RMII</tspan>
  </text>
  <line style="fill: none; fill-opacity:0; stroke-width: 2; stroke: #000000" x1="1180" y1="560" x2="1120" y2="680"/>
  <g>
    <rect style="fill: #ffffff" x="880" y="680" width="120" height="40"/>
    <rect style="fill: none; fill-opacity:0; stroke-width: 4; stroke: #5bbfde" x="880" y="680" width="120" height="40"/>
  </g>
  <line style="fill: none; fill-opacity:0; stroke-width: 2; stroke: #000000" x1="1000" y1="560" x2="940" y2="680"/>
  <g>
    <rect style="fill: #ffffff" x="960" y="820" width="120" height="40"/>
    <rect style="fill: none; fill-opacity:0; stroke-width: 2; stroke: #000000" x="960" y="820" width="120" height="40"/>
  </g>
  <line style="fill: none; fill-opacity:0; stroke-width: 2; stroke: #000000" x1="1040" y1="780" x2="1020" y2="820"/>
  <text font-size="18.0622" style="fill: #000000;text-anchor:middle;font-family:sans-serif;font-style:normal;font-weight:normal" x="1020" y="846.25">
    <tspan x="1020" y="846.25">GPIO</tspan>
  </text>
  <line style="fill: none; fill-opacity:0; stroke-width: 2; stroke: #000000" x1="1450" y1="560" x2="1430" y2="600"/>
  <g>
    <g>
      <rect style="fill: #ffffcf" x="1380" y="610" width="120" height="40"/>
      <rect style="fill: none; fill-opacity:0; stroke-width: 2; stroke: #000000" x="1380" y="610" width="120" height="40"/>
    </g>
    <g>
      <rect style="fill: #ffffcf" x="1370" y="600" width="120" height="40"/>
      <rect style="fill: none; fill-opacity:0; stroke-width: 2; stroke: #000000" x="1370" y="600" width="120" height="40"/>
    </g>
    <text font-size="18.0622" style="fill: #000000;text-anchor:middle;font-family:sans-serif;font-style:normal;font-weight:normal" x="1430" y="626.25">
      <tspan x="1430" y="626.25">Scope</tspan>
    </text>
  </g>
  <g>
    <rect style="fill: #ffffff" x="1180" y="600" width="120" height="40"/>
    <rect style="fill: none; fill-opacity:0; stroke-width: 4; stroke: #5bbfde" x="1180" y="600" width="120" height="40"/>
  </g>
  <line style="fill: none; fill-opacity:0; stroke-width: 2; stroke: #000000" x1="1260" y1="560" x2="1240" y2="600"/>
  <g>
    <rect style="fill: #ffffff" x="1240" y="680" width="120" height="40"/>
    <rect style="fill: none; fill-opacity:0; stroke-width: 2; stroke: #000000" x="1240" y="680" width="120" height="40"/>
  </g>
  <line style="fill: none; fill-opacity:0; stroke-width: 2; stroke: #000000" x1="1360" y1="560" x2="1300" y2="680"/>
  <text font-size="18.0622" style="fill: #000000;text-anchor:middle;font-family:sans-serif;font-style:normal;font-weight:normal" x="700" y="626.25">
    <tspan x="700" y="626.25">SD-Card</tspan>
  </text>
  <text font-size="18.0622" style="fill: #000000;text-anchor:middle;font-family:sans-serif;font-style:normal;font-weight:normal" x="1300" y="706.25">
    <tspan x="1300" y="706.25">GPS NMEA</tspan>
  </text>
  <text font-size="18.0622" style="fill: #000000;text-anchor:middle;font-family:sans-serif;font-style:normal;font-weight:normal" x="1240" y="626.25">
    <tspan x="1240" y="626.25">Net MDIO</tspan>
  </text>
  <text font-size="18.0622" style="fill: #000000;text-anchor:middle;font-family:sans-serif;font-style:normal;font-weight:normal" x="940" y="706.25">
    <tspan x="940" y="706.25">OLEDrgb</tspan>
  </text>
  <line style="fill: none; fill-opacity:0; stroke-width: 2; stroke: #000000" x1="340" y1="360" x2="640" y2="360"/>
  <line style="fill: none; fill-opacity:0; stroke-width: 2; stroke: #000000" x1="520" y1="360" x2="500" y2="400"/>
  <line style="fill: none; fill-opacity:0; stroke-width: 2; stroke: #000000" x1="360" y1="320" x2="340" y2="360"/>
  <line style="fill: none; fill-opacity:0; stroke-width: 2; stroke: #000000" x1="740" y1="160" x2="640" y2="360"/>
  <line style="fill: none; fill-opacity:0; stroke-width: 2; stroke: #000000" x1="380" y1="160" x2="740" y2="160"/>
  <line style="fill: none; fill-opacity:0; stroke-width: 2; stroke: #000000" x1="380" y1="160" x2="360" y2="200"/>
  <g>
    <g>
      <rect style="fill: #ffffff" x="200" y="200" width="320" height="120" rx="40" ry="40"/>
      <rect style="fill: none; fill-opacity:0; stroke-width: 2; stroke-linejoin: round; stroke: #000000" x="200" y="200" width="320" height="120" rx="40" ry="40"/>
    </g>
    <g>
      <g>
        <rect style="fill: #ffffff" x="300" y="210" width="200" height="40" rx="40" ry="40"/>
        <rect style="fill: none; fill-opacity:0; stroke-width: 2; stroke-linejoin: round; stroke: #000000" x="300" y="210" width="200" height="40" rx="40" ry="40"/>
      </g>
      <text font-size="18.0622" style="fill: #000000;text-anchor:middle;font-family:sans-serif;font-style:normal;font-weight:normal" x="400" y="236.25">
        <tspan x="400" y="236.25">ZipCPU</tspan>
      </text>
    </g>
    <g>
      <line style="fill: none; fill-opacity:0; stroke-width: 2; stroke-linejoin: round; stroke: #000000" x1="400" y1="250" x2="390" y2="270"/>
      <line style="fill: none; fill-opacity:0; stroke-width: 2; stroke-linejoin: round; stroke: #000000" x1="330" y1="270" x2="440" y2="270"/>
      <line style="fill: none; fill-opacity:0; stroke-width: 2; stroke-linejoin: round; stroke: #000000" x1="440" y1="270" x2="400" y2="320"/>
      <g>
        <line style="fill: none; fill-opacity:0; stroke-width: 2; stroke-linejoin: round; stroke: #000000" x1="260" y1="280" x2="380" y2="280"/>
        <g>
          <rect style="fill: #ffffff" x="240" y="290" width="20" height="20"/>
          <rect style="fill: none; fill-opacity:0; stroke-width: 2; stroke: #000000" x="240" y="290" width="20" height="20"/>
        </g>
        <g>
          <rect style="fill: #ffffff" x="270" y="290" width="20" height="20"/>
          <rect style="fill: none; fill-opacity:0; stroke-width: 2; stroke: #000000" x="270" y="290" width="20" height="20"/>
        </g>
        <g>
          <rect style="fill: #ffffff" x="300" y="290" width="20" height="20"/>
          <rect style="fill: none; fill-opacity:0; stroke-width: 2; stroke: #000000" x="300" y="290" width="20" height="20"/>
        </g>
        <g>
          <rect style="fill: #ffffff" x="330" y="290" width="20" height="20"/>
          <rect style="fill: none; fill-opacity:0; stroke-width: 2; stroke: #000000" x="330" y="290" width="20" height="20"/>
        </g>
        <g>
          <rect style="fill: #ffffff" x="360" y="290" width="20" height="20"/>
          <rect style="fill: none; fill-opacity:0; stroke-width: 2; stroke: #000000" x="360" y="290" width="20" height="20"/>
        </g>
        <line style="fill: none; fill-opacity:0; stroke-width: 2; stroke: #000000" x1="330" y1="270" x2="320" y2="280"/>
        <line style="fill: none; fill-opacity:0; stroke-width: 2; stroke: #000000" x1="260" y1="280" x2="250" y2="290"/>
        <line style="fill: none; fill-opacity:0; stroke-width: 2; stroke: #000000" x1="290" y1="280" x2="280" y2="290"/>
        <line style="fill: none; fill-opacity:0; stroke-width: 2; stroke: #000000" x1="320" y1="280" x2="310" y2="290"/>
        <line style="fill: none; fill-opacity:0; stroke-width: 2; stroke: #000000" x1="350" y1="280" x2="340" y2="290"/>
        <line style="fill: none; fill-opacity:0; stroke-width: 2; stroke: #000000" x1="380" y1="280" x2="370" y2="290"/>
      </g>
    </g>
  </g>
  <line style="fill: none; fill-opacity:0; stroke-width: 2; stroke: #000000" x1="500" y1="520" x2="480" y2="560"/>
  <g>
    <rect style="fill: #ffffff" x="400" y="400" width="200" height="40"/>
    <rect style="fill: none; fill-opacity:0; stroke-width: 2; stroke: #000000" x="400" y="400" width="200" height="40"/>
  </g>
  <text font-size="18.0622" style="fill: #000000;text-anchor:middle;font-family:sans-serif;font-style:normal;font-weight:normal" x="500" y="426.25">
    <tspan x="500" y="426.25">Arbiter</tspan>
  </text>
  <line style="fill: none; fill-opacity:0; stroke-width: 2; stroke: #000000" x1="500" y1="440" x2="500" y2="480"/>
  <g>
    <rect style="fill: #ffffff" x="400" y="480" width="200" height="40"/>
    <rect style="fill: none; fill-opacity:0; stroke-width: 2; stroke: #000000" x="400" y="480" width="200" height="40"/>
  </g>
  <text font-size="18.0622" style="fill: #000000;text-anchor:middle;font-family:sans-serif;font-style:normal;font-weight:normal" x="500" y="506.25">
    <tspan x="500" y="506.25">Bus Delay</tspan>
  </text>
  <g>
    <g>
      <rect style="fill: #ffffff" x="480" y="80" width="200" height="40"/>
      <rect style="fill: none; fill-opacity:0; stroke-width: 2; stroke: #000000" x="480" y="80" width="200" height="40"/>
    </g>
    <text font-size="18.0622" style="fill: #000000;text-anchor:middle;font-family:sans-serif;font-style:normal;font-weight:normal" x="580" y="106.25">
      <tspan x="580" y="106.25">UART-&gt;WB converter</tspan>
    </text>
    <g>
      <line style="fill: none; fill-opacity:0; stroke-width: 2; stroke: #000000" x1="540" y1="0" x2="540" y2="70.2639"/>
      <polygon style="fill: #000000" points="540,77.7639 535,67.7639 540,70.2639 545,67.7639 "/>
      <polygon style="fill: none; fill-opacity:0; stroke-width: 2; stroke: #000000" points="540,77.7639 535,67.7639 540,70.2639 545,67.7639 "/>
    </g>
    <g>
      <line style="fill: none; fill-opacity:0; stroke-width: 2; stroke: #000000" x1="620" y1="80" x2="620" y2="9.73607"/>
      <polygon style="fill: #000000" points="620,2.23607 625,12.2361 620,9.73607 615,12.2361 "/>
      <polygon style="fill: none; fill-opacity:0; stroke-width: 2; stroke: #000000" points="620,2.23607 625,12.2361 620,9.73607 615,12.2361 "/>
    </g>
  </g>
</svg>
