<?xml version="1.0" encoding="UTF-8" standalone="no"?>
<!DOCTYPE svg PUBLIC "-//W3C//DTD SVG 1.0//EN" "http://www.w3.org/TR/2001/PR-SVG-20010719/DTD/svg10.dtd">
<svg width="33cm" height="33cm" viewBox="32 38 645 643" xmlns="http://www.w3.org/2000/svg" xmlns:xlink="http://www.w3.org/1999/xlink">
  <g>
    <rect style="fill: #ccc4b0" x="280" y="180" width="320" height="80" rx="8" ry="8"/>
    <rect style="fill: none; fill-opacity:0; stroke-width: 2; stroke-linejoin: round; stroke: #000000" x="280" y="180" width="320" height="80" rx="8" ry="8"/>
  </g>
  <g>
    <rect style="fill: #ccc4b0" x="280" y="40" width="320" height="80" rx="8" ry="8"/>
    <rect style="fill: none; fill-opacity:0; stroke-width: 2; stroke-linejoin: round; stroke: #000000" x="280" y="40" width="320" height="80" rx="8" ry="8"/>
  </g>
  <text font-size="27.0929" style="fill: #000000;text-anchor:middle;font-family:sans-serif;font-style:normal;font-weight:normal" x="440" y="89.375">
    <tspan x="440" y="89.375">Prefetch</tspan>
  </text>
  <text font-size="27.0929" style="fill: #000000;text-anchor:middle;font-family:sans-serif;font-style:normal;font-weight:normal" x="440" y="229.375">
    <tspan x="440" y="229.375">Instruction Decode</tspan>
  </text>
  <g>
    <rect style="fill: #ccc4b0" x="280" y="320" width="320" height="80" rx="8" ry="8"/>
    <rect style="fill: none; fill-opacity:0; stroke-width: 2; stroke-linejoin: round; stroke: #000000" x="280" y="320" width="320" height="80" rx="8" ry="8"/>
  </g>
  <text font-size="27.0929" style="fill: #000000;text-anchor:middle;font-family:sans-serif;font-style:normal;font-weight:normal" x="440" y="369.375">
    <tspan x="440" y="369.375">Read Operations</tspan>
  </text>
  <g>
    <rect style="fill: #ccc4b0" x="280" y="460" width="320" height="80" rx="8" ry="8"/>
    <rect style="fill: none; fill-opacity:0; stroke-width: 2; stroke-linejoin: round; stroke: #000000" x="280" y="460" width="320" height="80" rx="8" ry="8"/>
  </g>
  <text font-size="27.0929" style="fill: #000000;text-anchor:middle;font-family:sans-serif;font-style:normal;font-weight:normal" x="440" y="509.375">
    <tspan x="440" y="509.375">ALU</tspan>
  </text>
  <g>
    <rect style="fill: #ccc4b0" x="280" y="600" width="320" height="80" rx="8" ry="8"/>
    <rect style="fill: none; fill-opacity:0; stroke-width: 2; stroke-linejoin: round; stroke: #000000" x="280" y="600" width="320" height="80" rx="8" ry="8"/>
  </g>
  <text font-size="27.0929" style="fill: #000000;text-anchor:middle;font-family:sans-serif;font-style:normal;font-weight:normal" x="440" y="649.375">
    <tspan x="440" y="649.375">Writeback</tspan>
  </text>
  <g>
    <line style="fill: none; fill-opacity:0; stroke-width: 2; stroke-linejoin: round; stroke: #000000" x1="460" y1="120" x2="460" y2="170.264"/>
    <polygon style="fill: #000000" points="460,177.764 455,167.764 460,170.264 465,167.764 "/>
    <polygon style="fill: none; fill-opacity:0; stroke-width: 2; stroke: #000000" points="460,177.764 455,167.764 460,170.264 465,167.764 "/>
  </g>
  <text font-size="12.7998" style="fill: #000000;text-anchor:start;font-family:sans-serif;font-style:normal;font-weight:normal" x="460" y="154.45">
    <tspan x="460" y="154.45"> Valid</tspan>
  </text>
  <g>
    <line style="fill: none; fill-opacity:0; stroke-width: 2; stroke: #000000" x1="380" y1="170.264" x2="380" y2="120"/>
    <polygon style="fill: #000000" points="380,177.764 375,167.764 380,170.264 385,167.764 "/>
    <polygon style="fill: none; fill-opacity:0; stroke-width: 2; stroke: #000000" points="380,177.764 375,167.764 380,170.264 385,167.764 "/>
  </g>
  <text font-size="12.7998" style="fill: #000000;text-anchor:start;font-family:sans-serif;font-style:normal;font-weight:normal" x="380" y="154.45">
    <tspan x="380" y="154.45"> Data</tspan>
  </text>
  <g>
    <line style="fill: none; fill-opacity:0; stroke-width: 2; stroke: #000000" x1="520" y1="180" x2="520" y2="129.736"/>
    <polygon style="fill: #000000" points="520,122.236 525,132.236 520,129.736 515,132.236 "/>
    <polygon style="fill: none; fill-opacity:0; stroke-width: 2; stroke: #000000" points="520,122.236 525,132.236 520,129.736 515,132.236 "/>
  </g>
  <text font-size="12.7998" style="fill: #000000;text-anchor:start;font-family:sans-serif;font-style:normal;font-weight:normal" x="520" y="154.45">
    <tspan x="520" y="154.45"> Stalled</tspan>
  </text>
  <g>
    <line style="fill: none; fill-opacity:0; stroke-width: 2; stroke: #000000" x1="460" y1="260" x2="460" y2="310.264"/>
    <polygon style="fill: #000000" points="460,317.764 455,307.764 460,310.264 465,307.764 "/>
    <polygon style="fill: none; fill-opacity:0; stroke-width: 2; stroke: #000000" points="460,317.764 455,307.764 460,310.264 465,307.764 "/>
  </g>
  <text font-size="12.7998" style="fill: #000000;text-anchor:start;font-family:sans-serif;font-style:normal;font-weight:normal" x="460" y="294.45">
    <tspan x="460" y="294.45"> Valid</tspan>
  </text>
  <g>
    <line style="fill: none; fill-opacity:0; stroke-width: 2; stroke: #000000" x1="380" y1="310.264" x2="380" y2="260"/>
    <polygon style="fill: #000000" points="380,317.764 375,307.764 380,310.264 385,307.764 "/>
    <polygon style="fill: none; fill-opacity:0; stroke-width: 2; stroke: #000000" points="380,317.764 375,307.764 380,310.264 385,307.764 "/>
  </g>
  <text font-size="12.7998" style="fill: #000000;text-anchor:start;font-family:sans-serif;font-style:normal;font-weight:normal" x="380" y="294.45">
    <tspan x="380" y="294.45"> Data</tspan>
  </text>
  <g>
    <line style="fill: none; fill-opacity:0; stroke-width: 2; stroke: #000000" x1="520" y1="320" x2="520" y2="269.736"/>
    <polygon style="fill: #000000" points="520,262.236 525,272.236 520,269.736 515,272.236 "/>
    <polygon style="fill: none; fill-opacity:0; stroke-width: 2; stroke: #000000" points="520,262.236 525,272.236 520,269.736 515,272.236 "/>
  </g>
  <text font-size="12.7998" style="fill: #000000;text-anchor:start;font-family:sans-serif;font-style:normal;font-weight:normal" x="520" y="294.45">
    <tspan x="520" y="294.45"> Stalled</tspan>
  </text>
  <g>
    <line style="fill: none; fill-opacity:0; stroke-width: 2; stroke: #000000" x1="460" y1="400" x2="460" y2="450.264"/>
    <polygon style="fill: #000000" points="460,457.764 455,447.764 460,450.264 465,447.764 "/>
    <polygon style="fill: none; fill-opacity:0; stroke-width: 2; stroke: #000000" points="460,457.764 455,447.764 460,450.264 465,447.764 "/>
  </g>
  <text font-size="12.7998" style="fill: #000000;text-anchor:start;font-family:sans-serif;font-style:normal;font-weight:normal" x="460" y="434.45">
    <tspan x="460" y="434.45"> Valid</tspan>
  </text>
  <g>
    <line style="fill: none; fill-opacity:0; stroke-width: 2; stroke: #000000" x1="380" y1="450.264" x2="380" y2="400"/>
    <polygon style="fill: #000000" points="380,457.764 375,447.764 380,450.264 385,447.764 "/>
    <polygon style="fill: none; fill-opacity:0; stroke-width: 2; stroke: #000000" points="380,457.764 375,447.764 380,450.264 385,447.764 "/>
  </g>
  <text font-size="12.7998" style="fill: #000000;text-anchor:start;font-family:sans-serif;font-style:normal;font-weight:normal" x="380" y="434.45">
    <tspan x="380" y="434.45"> Data</tspan>
  </text>
  <g>
    <line style="fill: none; fill-opacity:0; stroke-width: 2; stroke: #000000" x1="520" y1="460" x2="520" y2="409.736"/>
    <polygon style="fill: #000000" points="520,402.236 525,412.236 520,409.736 515,412.236 "/>
    <polygon style="fill: none; fill-opacity:0; stroke-width: 2; stroke: #000000" points="520,402.236 525,412.236 520,409.736 515,412.236 "/>
  </g>
  <text font-size="12.7998" style="fill: #000000;text-anchor:start;font-family:sans-serif;font-style:normal;font-weight:normal" x="520" y="434.45">
    <tspan x="520" y="434.45"> Stalled</tspan>
  </text>
  <g>
    <line style="fill: none; fill-opacity:0; stroke-width: 2; stroke: #000000" x1="460" y1="540" x2="460" y2="590.264"/>
    <polygon style="fill: #000000" points="460,597.764 455,587.764 460,590.264 465,587.764 "/>
    <polygon style="fill: none; fill-opacity:0; stroke-width: 2; stroke: #000000" points="460,597.764 455,587.764 460,590.264 465,587.764 "/>
  </g>
  <text font-size="12.7998" style="fill: #000000;text-anchor:start;font-family:sans-serif;font-style:normal;font-weight:normal" x="460" y="574.45">
    <tspan x="460" y="574.45"> Valid</tspan>
  </text>
  <g>
    <line style="fill: none; fill-opacity:0; stroke-width: 2; stroke: #000000" x1="380" y1="590.264" x2="380" y2="540"/>
    <polygon style="fill: #000000" points="380,597.764 375,587.764 380,590.264 385,587.764 "/>
    <polygon style="fill: none; fill-opacity:0; stroke-width: 2; stroke: #000000" points="380,597.764 375,587.764 380,590.264 385,587.764 "/>
  </g>
  <text font-size="12.7998" style="fill: #000000;text-anchor:start;font-family:sans-serif;font-style:normal;font-weight:normal" x="380" y="574.45">
    <tspan x="380" y="574.45"> Data</tspan>
  </text>
  <g>
    <polyline style="fill: none; fill-opacity:0; stroke-width: 2; stroke: #000000" points="600,240 640,240 640,200 609.736,200 "/>
    <polygon style="fill: #000000" points="602.236,200 612.236,195 609.736,200 612.236,205 "/>
    <polygon style="fill: none; fill-opacity:0; stroke-width: 2; stroke: #000000" points="602.236,200 612.236,195 609.736,200 612.236,205 "/>
  </g>
  <text font-size="12.7998" style="fill: #000000;text-anchor:start;font-family:sans-serif;font-style:normal;font-weight:normal" x="660" y="224.45">
    <tspan x="660" y="224.45">CE</tspan>
  </text>
  <g>
    <polyline style="fill: none; fill-opacity:0; stroke-width: 2; stroke: #000000" points="600,100 640,100 640,60 609.736,60 "/>
    <polygon style="fill: #000000" points="602.236,60 612.236,55 609.736,60 612.236,65 "/>
    <polygon style="fill: none; fill-opacity:0; stroke-width: 2; stroke: #000000" points="602.236,60 612.236,55 609.736,60 612.236,65 "/>
  </g>
  <text font-size="12.7998" style="fill: #000000;text-anchor:start;font-family:sans-serif;font-style:normal;font-weight:normal" x="660" y="84.45">
    <tspan x="660" y="84.45">CE</tspan>
  </text>
  <g>
    <polyline style="fill: none; fill-opacity:0; stroke-width: 2; stroke: #000000" points="600,380 640,380 640,340 609.736,340 "/>
    <polygon style="fill: #000000" points="602.236,340 612.236,335 609.736,340 612.236,345 "/>
    <polygon style="fill: none; fill-opacity:0; stroke-width: 2; stroke: #000000" points="602.236,340 612.236,335 609.736,340 612.236,345 "/>
  </g>
  <text font-size="12.7998" style="fill: #000000;text-anchor:start;font-family:sans-serif;font-style:normal;font-weight:normal" x="640" y="364.45">
    <tspan x="640" y="364.45">CE</tspan>
  </text>
  <g>
    <polyline style="fill: none; fill-opacity:0; stroke-width: 2; stroke: #000000" points="600,520 640,520 640,480 609.736,480 "/>
    <polygon style="fill: #000000" points="602.236,480 612.236,475 609.736,480 612.236,485 "/>
    <polygon style="fill: none; fill-opacity:0; stroke-width: 2; stroke: #000000" points="602.236,480 612.236,475 609.736,480 612.236,485 "/>
  </g>
  <text font-size="12.7998" style="fill: #000000;text-anchor:start;font-family:sans-serif;font-style:normal;font-weight:normal" x="640" y="504.45">
    <tspan x="640" y="504.45">CE</tspan>
  </text>
  <line style="fill: none; fill-opacity:0; stroke-width: 2; stroke: #000000" x1="200" y1="80" x2="200" y2="640"/>
  <line style="fill: none; fill-opacity:0; stroke-width: 2; stroke: #000000" x1="200" y1="640" x2="280" y2="640"/>
  <g>
    <line style="fill: none; fill-opacity:0; stroke-width: 2; stroke: #000000" x1="200" y1="80" x2="270.264" y2="80"/>
    <polygon style="fill: #000000" points="277.764,80 267.764,85 270.264,80 267.764,75 "/>
    <polygon style="fill: none; fill-opacity:0; stroke-width: 2; stroke: #000000" points="277.764,80 267.764,85 270.264,80 267.764,75 "/>
  </g>
  <g>
    <line style="fill: none; fill-opacity:0; stroke-width: 2; stroke: #000000" x1="200" y1="220" x2="270.264" y2="220"/>
    <polygon style="fill: #000000" points="277.764,220 267.764,225 270.264,220 267.764,215 "/>
    <polygon style="fill: none; fill-opacity:0; stroke-width: 2; stroke: #000000" points="277.764,220 267.764,225 270.264,220 267.764,215 "/>
  </g>
  <g>
    <line style="fill: none; fill-opacity:0; stroke-width: 2; stroke: #000000" x1="200" y1="360" x2="270.264" y2="360"/>
    <polygon style="fill: #000000" points="277.764,360 267.764,365 270.264,360 267.764,355 "/>
    <polygon style="fill: none; fill-opacity:0; stroke-width: 2; stroke: #000000" points="277.764,360 267.764,365 270.264,360 267.764,355 "/>
  </g>
  <g>
    <line style="fill: none; fill-opacity:0; stroke-width: 2; stroke: #000000" x1="200" y1="500" x2="270.264" y2="500"/>
    <polygon style="fill: #000000" points="277.764,500 267.764,505 270.264,500 267.764,495 "/>
    <polygon style="fill: none; fill-opacity:0; stroke-width: 2; stroke: #000000" points="277.764,500 267.764,505 270.264,500 267.764,495 "/>
  </g>
  <text font-size="12.7998" style="fill: #000000;text-anchor:end;font-family:sans-serif;font-style:normal;font-weight:normal" x="200" y="556.45">
    <tspan x="200" y="556.45">Clear</tspan>
    <tspan x="200" y="572.45">Pipeline</tspan>
  </text>
  <polyline style="fill: none; fill-opacity:0; stroke-width: 2; stroke: #000000" points="40,300 320,300 320,320 "/>
  <text font-size="12.7998" style="fill: #000000;text-anchor:middle;font-family:sans-serif;font-style:normal;font-weight:normal" x="100" y="297">
    <tspan x="100" y="297">External halt request</tspan>
  </text>
</svg>
