<?xml version="1.0" encoding="UTF-8" standalone="no"?>
<!DOCTYPE svg PUBLIC "-//W3C//DTD SVG 1.0//EN" "http://www.w3.org/TR/2001/PR-SVG-20010719/DTD/svg10.dtd">
<svg width="99cm" height="11cm" viewBox="18 38 1963 203" xmlns="http://www.w3.org/2000/svg" xmlns:xlink="http://www.w3.org/1999/xlink">
  <g>
    <rect style="fill: #ffffcf" x="20" y="40" width="400" height="140" rx="16" ry="16"/>
    <rect style="fill: none; fill-opacity:0; stroke-width: 2; stroke-linejoin: round; stroke: #000000" x="20" y="40" width="400" height="140" rx="16" ry="16"/>
  </g>
  <text font-size="27.0933" style="fill: #000000;text-anchor:middle;font-family:sans-serif;font-style:normal;font-weight:normal" x="220" y="89.375">
    <tspan x="220" y="89.375">Data Source</tspan>
  </text>
  <g>
    <rect style="fill: #ffa4a4" x="540" y="40" width="400" height="140" rx="16" ry="16"/>
    <rect style="fill: none; fill-opacity:0; stroke-width: 2; stroke-linejoin: round; stroke: #000000" x="540" y="40" width="400" height="140" rx="16" ry="16"/>
  </g>
  <text font-size="27.0933" style="fill: #000000;text-anchor:middle;font-family:sans-serif;font-style:normal;font-weight:normal" x="740" y="89.375">
    <tspan x="740" y="89.375">Stage[1]</tspan>
  </text>
  <text font-size="18.0622" style="fill: #000000;text-anchor:middle;font-family:sans-serif;font-style:normal;font-weight:normal" x="480" y="155.75">
    <tspan x="480" y="155.75">Data</tspan>
  </text>
  <g>
    <line style="fill: none; fill-opacity:0; stroke-width: 6; stroke-linejoin: round; stroke: #000000" x1="420" y1="160" x2="525.792" y2="160"/>
    <polygon style="fill: #000000" points="533.292,160 523.292,165 525.792,160 523.292,155 "/>
    <polygon style="fill: none; fill-opacity:0; stroke-width: 6; stroke: #000000" points="533.292,160 523.292,165 525.792,160 523.292,155 "/>
  </g>
  <text font-size="18.0622" style="fill: #000000;text-anchor:middle;font-family:sans-serif;font-style:normal;font-weight:normal" x="480" y="115.75">
    <tspan x="480" y="115.75">STB (Valid)</tspan>
  </text>
  <g>
    <line style="fill: none; fill-opacity:0; stroke-width: 6; stroke: #00ab00" x1="420" y1="120" x2="525.792" y2="120"/>
    <polygon style="fill: #00ab00" points="533.292,120 523.292,125 525.792,120 523.292,115 "/>
    <polygon style="fill: none; fill-opacity:0; stroke-width: 6; stroke: #00ab00" points="533.292,120 523.292,125 525.792,120 523.292,115 "/>
  </g>
  <text font-size="18.0622" style="fill: #000000;text-anchor:middle;font-family:sans-serif;font-style:normal;font-weight:normal" x="480" y="75.75">
    <tspan x="480" y="75.75">Busy</tspan>
  </text>
  <g>
    <line style="fill: none; fill-opacity:0; stroke-width: 8; stroke: #be0000" x1="436.444" y1="80" x2="540" y2="80"/>
    <polygon style="fill: #be0000" points="428.944,80 438.944,75 436.444,80 438.944,85 "/>
    <polygon style="fill: none; fill-opacity:0; stroke-width: 8; stroke: #be0000" points="428.944,80 438.944,75 436.444,80 438.944,85 "/>
  </g>
  <g>
    <rect style="fill: #ffa4a4" x="1060" y="40" width="400" height="140" rx="16" ry="16"/>
    <rect style="fill: none; fill-opacity:0; stroke-width: 2; stroke-linejoin: round; stroke: #000000" x="1060" y="40" width="400" height="140" rx="16" ry="16"/>
  </g>
  <text font-size="27.0933" style="fill: #000000;text-anchor:middle;font-family:sans-serif;font-style:normal;font-weight:normal" x="1260" y="89.375">
    <tspan x="1260" y="89.375">Stage[2]</tspan>
  </text>
  <text font-size="18.0622" style="fill: #000000;text-anchor:middle;font-family:sans-serif;font-style:normal;font-weight:normal" x="1000" y="155.75">
    <tspan x="1000" y="155.75">Data</tspan>
  </text>
  <g>
    <line style="fill: none; fill-opacity:0; stroke-width: 6; stroke-linejoin: round; stroke: #000000" x1="940" y1="160" x2="1045.79" y2="160"/>
    <polygon style="fill: #000000" points="1053.29,160 1043.29,165 1045.79,160 1043.29,155 "/>
    <polygon style="fill: none; fill-opacity:0; stroke-width: 6; stroke: #000000" points="1053.29,160 1043.29,165 1045.79,160 1043.29,155 "/>
  </g>
  <text font-size="18.0622" style="fill: #000000;text-anchor:middle;font-family:sans-serif;font-style:normal;font-weight:normal" x="1000" y="115.75">
    <tspan x="1000" y="115.75">STB (Valid)</tspan>
  </text>
  <g>
    <line style="fill: none; fill-opacity:0; stroke-width: 6; stroke: #00ab00" x1="940" y1="120" x2="1045.79" y2="120"/>
    <polygon style="fill: #00ab00" points="1053.29,120 1043.29,125 1045.79,120 1043.29,115 "/>
    <polygon style="fill: none; fill-opacity:0; stroke-width: 6; stroke: #00ab00" points="1053.29,120 1043.29,125 1045.79,120 1043.29,115 "/>
  </g>
  <text font-size="18.0622" style="fill: #000000;text-anchor:middle;font-family:sans-serif;font-style:normal;font-weight:normal" x="1000" y="75.75">
    <tspan x="1000" y="75.75">Busy</tspan>
  </text>
  <g>
    <line style="fill: none; fill-opacity:0; stroke-width: 8; stroke: #be0000" x1="956.444" y1="80" x2="1060" y2="80"/>
    <polygon style="fill: #be0000" points="948.944,80 958.944,75 956.444,80 958.944,85 "/>
    <polygon style="fill: none; fill-opacity:0; stroke-width: 8; stroke: #be0000" points="948.944,80 958.944,75 956.444,80 958.944,85 "/>
  </g>
  <g>
    <rect style="fill: #ffffcf" x="1580" y="40" width="400" height="140" rx="16" ry="16"/>
    <rect style="fill: none; fill-opacity:0; stroke-width: 2; stroke-linejoin: round; stroke: #000000" x="1580" y="40" width="400" height="140" rx="16" ry="16"/>
  </g>
  <text font-size="27.0933" style="fill: #000000;text-anchor:middle;font-family:sans-serif;font-style:normal;font-weight:normal" x="1780" y="89.375">
    <tspan x="1780" y="89.375">Data sink</tspan>
  </text>
  <text font-size="18.0622" style="fill: #000000;text-anchor:middle;font-family:sans-serif;font-style:normal;font-weight:normal" x="1520" y="155.75">
    <tspan x="1520" y="155.75">Data</tspan>
  </text>
  <g>
    <line style="fill: none; fill-opacity:0; stroke-width: 6; stroke-linejoin: round; stroke: #000000" x1="1460" y1="160" x2="1565.79" y2="160"/>
    <polygon style="fill: #000000" points="1573.29,160 1563.29,165 1565.79,160 1563.29,155 "/>
    <polygon style="fill: none; fill-opacity:0; stroke-width: 6; stroke: #000000" points="1573.29,160 1563.29,165 1565.79,160 1563.29,155 "/>
  </g>
  <text font-size="18.0622" style="fill: #000000;text-anchor:middle;font-family:sans-serif;font-style:normal;font-weight:normal" x="1520" y="115.75">
    <tspan x="1520" y="115.75">STB (Valid)</tspan>
  </text>
  <g>
    <line style="fill: none; fill-opacity:0; stroke-width: 6; stroke: #00ab00" x1="1460" y1="120" x2="1565.79" y2="120"/>
    <polygon style="fill: #00ab00" points="1573.29,120 1563.29,125 1565.79,120 1563.29,115 "/>
    <polygon style="fill: none; fill-opacity:0; stroke-width: 6; stroke: #00ab00" points="1573.29,120 1563.29,125 1565.79,120 1563.29,115 "/>
  </g>
  <text font-size="18.0622" style="fill: #000000;text-anchor:middle;font-family:sans-serif;font-style:normal;font-weight:normal" x="1520" y="75.75">
    <tspan x="1520" y="75.75">Busy</tspan>
  </text>
  <g>
    <line style="fill: none; fill-opacity:0; stroke-width: 2; stroke: #000000" x1="1469.74" y1="80" x2="1580" y2="80"/>
    <polygon style="fill: #000000" points="1462.24,80 1472.24,75 1469.74,80 1472.24,85 "/>
    <polygon style="fill: none; fill-opacity:0; stroke-width: 2; stroke: #000000" points="1462.24,80 1472.24,75 1469.74,80 1472.24,85 "/>
  </g>
  <g>
    <rect style="fill: #5bbfde" x="1140" y="120" width="240" height="40" rx="10" ry="10"/>
    <rect style="fill: none; fill-opacity:0; stroke-width: 2; stroke-linejoin: round; stroke: #000000" x="1140" y="120" width="240" height="40" rx="10" ry="10"/>
  </g>
  <text font-size="27.0933" style="fill: #000000;text-anchor:middle;font-family:sans-serif;font-style:normal;font-weight:normal" x="1260" y="149.375">
    <tspan x="1260" y="149.375">Payload #3</tspan>
  </text>
  <g>
    <rect style="fill: #5bbfde" x="100" y="120" width="240" height="40" rx="10" ry="10"/>
    <rect style="fill: none; fill-opacity:0; stroke-width: 2; stroke-linejoin: round; stroke: #000000" x="100" y="120" width="240" height="40" rx="10" ry="10"/>
  </g>
  <text font-size="27.0933" style="fill: #000000;text-anchor:middle;font-family:sans-serif;font-style:normal;font-weight:normal" x="220" y="149.375">
    <tspan x="220" y="149.375">Payload #7</tspan>
  </text>
  <g>
    <rect style="fill: #5bbfde" x="620" y="120" width="240" height="40" rx="10" ry="10"/>
    <rect style="fill: none; fill-opacity:0; stroke-width: 2; stroke-linejoin: round; stroke: #000000" x="620" y="120" width="240" height="40" rx="10" ry="10"/>
  </g>
  <text font-size="27.0933" style="fill: #000000;text-anchor:middle;font-family:sans-serif;font-style:normal;font-weight:normal" x="740" y="149.375">
    <tspan x="740" y="149.375">Payload #5</tspan>
  </text>
  <g>
    <rect style="fill: #5bbfde" x="1660" y="120" width="240" height="40" rx="10" ry="10"/>
    <rect style="fill: none; fill-opacity:0; stroke-width: 2; stroke-linejoin: round; stroke: #000000" x="1660" y="120" width="240" height="40" rx="10" ry="10"/>
  </g>
  <text font-size="27.0933" style="fill: #000000;text-anchor:middle;font-family:sans-serif;font-style:normal;font-weight:normal" x="1780" y="149.375">
    <tspan x="1780" y="149.375">Payload #2</tspan>
  </text>
  <g>
    <rect style="fill: #5bbfde" x="1140" y="200" width="240" height="40" rx="10" ry="10"/>
    <rect style="fill: none; fill-opacity:0; stroke-width: 2; stroke-linejoin: round; stroke: #000000" x="1140" y="200" width="240" height="40" rx="10" ry="10"/>
  </g>
  <text font-size="27.0933" style="fill: #000000;text-anchor:middle;font-family:sans-serif;font-style:normal;font-weight:normal" x="1260" y="229.375">
    <tspan x="1260" y="229.375">Payload #4</tspan>
  </text>
  <g>
    <rect style="fill: #5bbfde" x="620" y="200" width="240" height="40" rx="10" ry="10"/>
    <rect style="fill: none; fill-opacity:0; stroke-width: 2; stroke-linejoin: round; stroke: #000000" x="620" y="200" width="240" height="40" rx="10" ry="10"/>
  </g>
  <text font-size="27.0933" style="fill: #000000;text-anchor:middle;font-family:sans-serif;font-style:normal;font-weight:normal" x="740" y="229.375">
    <tspan x="740" y="229.375">Payload #6</tspan>
  </text>
</svg>
