<?xml version="1.0" encoding="UTF-8" standalone="no"?>
<!DOCTYPE svg PUBLIC "-//W3C//DTD SVG 1.0//EN" "http://www.w3.org/TR/2001/PR-SVG-20010719/DTD/svg10.dtd">
<svg width="99cm" height="8cm" viewBox="18 18 1963 143" xmlns="http://www.w3.org/2000/svg" xmlns:xlink="http://www.w3.org/1999/xlink">
  <g>
    <rect style="fill: #ffffcf" x="20" y="20" width="400" height="140" rx="16" ry="16"/>
    <rect style="fill: none; fill-opacity:0; stroke-width: 2; stroke-linejoin: round; stroke: #000000" x="20" y="20" width="400" height="140" rx="16" ry="16"/>
  </g>
  <text font-size="27.0933" style="fill: #000000;text-anchor:middle;font-family:sans-serif;font-style:normal;font-weight:normal" x="220" y="69.375">
    <tspan x="220" y="69.375">Data Source</tspan>
  </text>
  <g>
    <rect style="fill: #ffffcf" x="540" y="20" width="400" height="140" rx="16" ry="16"/>
    <rect style="fill: none; fill-opacity:0; stroke-width: 2; stroke-linejoin: round; stroke: #000000" x="540" y="20" width="400" height="140" rx="16" ry="16"/>
  </g>
  <text font-size="27.0933" style="fill: #000000;text-anchor:middle;font-family:sans-serif;font-style:normal;font-weight:normal" x="740" y="69.375">
    <tspan x="740" y="69.375">Stage[1]</tspan>
  </text>
  <text font-size="18.0622" style="fill: #000000;text-anchor:middle;font-family:sans-serif;font-style:normal;font-weight:normal" x="480" y="135.75">
    <tspan x="480" y="135.75">Data</tspan>
  </text>
  <g>
    <line style="fill: none; fill-opacity:0; stroke-width: 6; stroke-linejoin: round; stroke: #000000" x1="420" y1="140" x2="525.792" y2="140"/>
    <polygon style="fill: #000000" points="533.292,140 523.292,145 525.792,140 523.292,135 "/>
    <polygon style="fill: none; fill-opacity:0; stroke-width: 6; stroke: #000000" points="533.292,140 523.292,145 525.792,140 523.292,135 "/>
  </g>
  <text font-size="18.0622" style="fill: #000000;text-anchor:middle;font-family:sans-serif;font-style:normal;font-weight:normal" x="480" y="95.75">
    <tspan x="480" y="95.75">STB (Valid)</tspan>
  </text>
  <g>
    <line style="fill: none; fill-opacity:0; stroke-width: 6; stroke: #00ab00" x1="420" y1="100" x2="525.792" y2="100"/>
    <polygon style="fill: #00ab00" points="533.292,100 523.292,105 525.792,100 523.292,95 "/>
    <polygon style="fill: none; fill-opacity:0; stroke-width: 6; stroke: #00ab00" points="533.292,100 523.292,105 525.792,100 523.292,95 "/>
  </g>
  <text font-size="18.0622" style="fill: #000000;text-anchor:middle;font-family:sans-serif;font-style:normal;font-weight:normal" x="480" y="55.75">
    <tspan x="480" y="55.75">Busy</tspan>
  </text>
  <g>
    <line style="fill: none; fill-opacity:0; stroke-width: 2; stroke: #000000" x1="429.736" y1="60" x2="540" y2="60"/>
    <polygon style="fill: #000000" points="422.236,60 432.236,55 429.736,60 432.236,65 "/>
    <polygon style="fill: none; fill-opacity:0; stroke-width: 2; stroke: #000000" points="422.236,60 432.236,55 429.736,60 432.236,65 "/>
  </g>
  <g>
    <rect style="fill: #ffffcf" x="1060" y="20" width="400" height="140" rx="16" ry="16"/>
    <rect style="fill: none; fill-opacity:0; stroke-width: 2; stroke-linejoin: round; stroke: #000000" x="1060" y="20" width="400" height="140" rx="16" ry="16"/>
  </g>
  <text font-size="27.0933" style="fill: #000000;text-anchor:middle;font-family:sans-serif;font-style:normal;font-weight:normal" x="1260" y="69.375">
    <tspan x="1260" y="69.375">Stage[2]</tspan>
  </text>
  <text font-size="18.0622" style="fill: #000000;text-anchor:middle;font-family:sans-serif;font-style:normal;font-weight:normal" x="1000" y="135.75">
    <tspan x="1000" y="135.75">Data</tspan>
  </text>
  <g>
    <line style="fill: none; fill-opacity:0; stroke-width: 6; stroke-linejoin: round; stroke: #000000" x1="940" y1="140" x2="1045.79" y2="140"/>
    <polygon style="fill: #000000" points="1053.29,140 1043.29,145 1045.79,140 1043.29,135 "/>
    <polygon style="fill: none; fill-opacity:0; stroke-width: 6; stroke: #000000" points="1053.29,140 1043.29,145 1045.79,140 1043.29,135 "/>
  </g>
  <text font-size="18.0622" style="fill: #000000;text-anchor:middle;font-family:sans-serif;font-style:normal;font-weight:normal" x="1000" y="95.75">
    <tspan x="1000" y="95.75">STB (Valid)</tspan>
  </text>
  <g>
    <line style="fill: none; fill-opacity:0; stroke-width: 6; stroke: #00ab00" x1="940" y1="100" x2="1045.79" y2="100"/>
    <polygon style="fill: #00ab00" points="1053.29,100 1043.29,105 1045.79,100 1043.29,95 "/>
    <polygon style="fill: none; fill-opacity:0; stroke-width: 6; stroke: #00ab00" points="1053.29,100 1043.29,105 1045.79,100 1043.29,95 "/>
  </g>
  <text font-size="18.0622" style="fill: #000000;text-anchor:middle;font-family:sans-serif;font-style:normal;font-weight:normal" x="1000" y="55.75">
    <tspan x="1000" y="55.75">Busy</tspan>
  </text>
  <g>
    <line style="fill: none; fill-opacity:0; stroke-width: 2; stroke: #000000" x1="949.736" y1="60" x2="1060" y2="60"/>
    <polygon style="fill: #000000" points="942.236,60 952.236,55 949.736,60 952.236,65 "/>
    <polygon style="fill: none; fill-opacity:0; stroke-width: 2; stroke: #000000" points="942.236,60 952.236,55 949.736,60 952.236,65 "/>
  </g>
  <g>
    <rect style="fill: #ffffcf" x="1580" y="20" width="400" height="140" rx="16" ry="16"/>
    <rect style="fill: none; fill-opacity:0; stroke-width: 2; stroke-linejoin: round; stroke: #000000" x="1580" y="20" width="400" height="140" rx="16" ry="16"/>
  </g>
  <text font-size="27.0933" style="fill: #000000;text-anchor:middle;font-family:sans-serif;font-style:normal;font-weight:normal" x="1780" y="69.375">
    <tspan x="1780" y="69.375">Data sink</tspan>
  </text>
  <text font-size="18.0622" style="fill: #000000;text-anchor:middle;font-family:sans-serif;font-style:normal;font-weight:normal" x="1520" y="135.75">
    <tspan x="1520" y="135.75">Data</tspan>
  </text>
  <g>
    <line style="fill: none; fill-opacity:0; stroke-width: 6; stroke-linejoin: round; stroke: #000000" x1="1460" y1="140" x2="1565.79" y2="140"/>
    <polygon style="fill: #000000" points="1573.29,140 1563.29,145 1565.79,140 1563.29,135 "/>
    <polygon style="fill: none; fill-opacity:0; stroke-width: 6; stroke: #000000" points="1573.29,140 1563.29,145 1565.79,140 1563.29,135 "/>
  </g>
  <text font-size="18.0622" style="fill: #000000;text-anchor:middle;font-family:sans-serif;font-style:normal;font-weight:normal" x="1520" y="95.75">
    <tspan x="1520" y="95.75">STB (Valid)</tspan>
  </text>
  <g>
    <line style="fill: none; fill-opacity:0; stroke-width: 6; stroke: #00ab00" x1="1460" y1="100" x2="1565.79" y2="100"/>
    <polygon style="fill: #00ab00" points="1573.29,100 1563.29,105 1565.79,100 1563.29,95 "/>
    <polygon style="fill: none; fill-opacity:0; stroke-width: 6; stroke: #00ab00" points="1573.29,100 1563.29,105 1565.79,100 1563.29,95 "/>
  </g>
  <text font-size="18.0622" style="fill: #000000;text-anchor:middle;font-family:sans-serif;font-style:normal;font-weight:normal" x="1520" y="55.75">
    <tspan x="1520" y="55.75">Busy</tspan>
  </text>
  <g>
    <line style="fill: none; fill-opacity:0; stroke-width: 2; stroke: #000000" x1="1469.74" y1="60" x2="1580" y2="60"/>
    <polygon style="fill: #000000" points="1462.24,60 1472.24,55 1469.74,60 1472.24,65 "/>
    <polygon style="fill: none; fill-opacity:0; stroke-width: 2; stroke: #000000" points="1462.24,60 1472.24,55 1469.74,60 1472.24,65 "/>
  </g>
  <g>
    <rect style="fill: #5bbfde" x="1140" y="100" width="240" height="40" rx="10" ry="10"/>
    <rect style="fill: none; fill-opacity:0; stroke-width: 2; stroke-linejoin: round; stroke: #000000" x="1140" y="100" width="240" height="40" rx="10" ry="10"/>
  </g>
  <text font-size="27.0933" style="fill: #000000;text-anchor:middle;font-family:sans-serif;font-style:normal;font-weight:normal" x="1260" y="129.375">
    <tspan x="1260" y="129.375">Payload #5</tspan>
  </text>
  <g>
    <rect style="fill: #5bbfde" x="100" y="100" width="240" height="40" rx="10" ry="10"/>
    <rect style="fill: none; fill-opacity:0; stroke-width: 2; stroke-linejoin: round; stroke: #000000" x="100" y="100" width="240" height="40" rx="10" ry="10"/>
  </g>
  <text font-size="27.0933" style="fill: #000000;text-anchor:middle;font-family:sans-serif;font-style:normal;font-weight:normal" x="220" y="129.375">
    <tspan x="220" y="129.375">Payload #7</tspan>
  </text>
  <g>
    <rect style="fill: #5bbfde" x="620" y="100" width="240" height="40" rx="10" ry="10"/>
    <rect style="fill: none; fill-opacity:0; stroke-width: 2; stroke-linejoin: round; stroke: #000000" x="620" y="100" width="240" height="40" rx="10" ry="10"/>
  </g>
  <text font-size="27.0933" style="fill: #000000;text-anchor:middle;font-family:sans-serif;font-style:normal;font-weight:normal" x="740" y="129.375">
    <tspan x="740" y="129.375">Payload #6</tspan>
  </text>
  <g>
    <rect style="fill: #5bbfde" x="1660" y="100" width="240" height="40" rx="10" ry="10"/>
    <rect style="fill: none; fill-opacity:0; stroke-width: 2; stroke-linejoin: round; stroke: #000000" x="1660" y="100" width="240" height="40" rx="10" ry="10"/>
  </g>
  <text font-size="27.0933" style="fill: #000000;text-anchor:middle;font-family:sans-serif;font-style:normal;font-weight:normal" x="1780" y="129.375">
    <tspan x="1780" y="129.375">Payload #4</tspan>
  </text>
</svg>
