<?xml version="1.0" encoding="UTF-8" standalone="no"?>
<!DOCTYPE svg PUBLIC "-//W3C//DTD SVG 1.0//EN" "http://www.w3.org/TR/2001/PR-SVG-20010719/DTD/svg10.dtd">
<svg width="65cm" height="5cm" viewBox="18 18 1284 83" xmlns="http://www.w3.org/2000/svg" xmlns:xlink="http://www.w3.org/1999/xlink">
  <g>
    <rect style="fill: #ffffff" x="500" y="20" width="320" height="80"/>
    <rect style="fill: none; fill-opacity:0; stroke-width: 2; stroke: #000000" x="500" y="20" width="320" height="80"/>
  </g>
  <text font-size="27.0929" style="fill: #000000;text-anchor:middle;font-family:sans-serif;font-style:normal;font-weight:normal" x="660" y="69.375">
    <tspan x="660" y="69.375">Stage N</tspan>
  </text>
  <g>
    <rect style="fill: #ffffff" x="900" y="20" width="320" height="80"/>
    <rect style="fill: none; fill-opacity:0; stroke-width: 2; stroke: #000000" x="900" y="20" width="320" height="80"/>
  </g>
  <text font-size="27.0929" style="fill: #000000;text-anchor:middle;font-family:sans-serif;font-style:normal;font-weight:normal" x="1060" y="69.375">
    <tspan x="1060" y="69.375">Stage N+1</tspan>
  </text>
  <g>
    <rect style="fill: #ffffff" x="100" y="20" width="320" height="80"/>
    <rect style="fill: none; fill-opacity:0; stroke-width: 2; stroke: #000000" x="100" y="20" width="320" height="80"/>
  </g>
  <text font-size="27.0929" style="fill: #000000;text-anchor:middle;font-family:sans-serif;font-style:normal;font-weight:normal" x="260" y="69.375">
    <tspan x="260" y="69.375">Stage N-1</tspan>
  </text>
  <g>
    <line style="fill: none; fill-opacity:0; stroke-width: 2; stroke: #000000" x1="420" y1="80" x2="490.264" y2="80"/>
    <polygon style="fill: #000000" points="497.764,80 487.764,85 490.264,80 487.764,75 "/>
    <polygon style="fill: none; fill-opacity:0; stroke-width: 2; stroke: #000000" points="497.764,80 487.764,85 490.264,80 487.764,75 "/>
  </g>
  <g>
    <line style="fill: none; fill-opacity:0; stroke-width: 2; stroke: #000000" x1="820" y1="80" x2="890.264" y2="80"/>
    <polygon style="fill: #000000" points="897.764,80 887.764,85 890.264,80 887.764,75 "/>
    <polygon style="fill: none; fill-opacity:0; stroke-width: 2; stroke: #000000" points="897.764,80 887.764,85 890.264,80 887.764,75 "/>
  </g>
  <g>
    <line style="fill: none; fill-opacity:0; stroke-width: 2; stroke: #000000" x1="20" y1="80" x2="90.2639" y2="80"/>
    <polygon style="fill: #000000" points="97.7639,80 87.7639,85 90.2639,80 87.7639,75 "/>
    <polygon style="fill: none; fill-opacity:0; stroke-width: 2; stroke: #000000" points="97.7639,80 87.7639,85 90.2639,80 87.7639,75 "/>
  </g>
  <g>
    <line style="fill: none; fill-opacity:0; stroke-width: 2; stroke: #000000" x1="1220" y1="80" x2="1290.26" y2="80"/>
    <polygon style="fill: #000000" points="1297.76,80 1287.76,85 1290.26,80 1287.76,75 "/>
    <polygon style="fill: none; fill-opacity:0; stroke-width: 2; stroke: #000000" points="1297.76,80 1287.76,85 1290.26,80 1287.76,75 "/>
  </g>
  <text font-size="18.0619" style="fill: #000000;text-anchor:middle;font-family:sans-serif;font-style:normal;font-weight:normal" x="460" y="75.75">
    <tspan x="460" y="75.75">Data</tspan>
  </text>
  <text font-size="18.0619" style="fill: #000000;text-anchor:middle;font-family:sans-serif;font-style:normal;font-weight:normal" x="860" y="75.75">
    <tspan x="860" y="75.75">Data</tspan>
  </text>
  <text font-size="18.0619" style="fill: #000000;text-anchor:middle;font-family:sans-serif;font-style:normal;font-weight:normal" x="1260" y="75.75">
    <tspan x="1260" y="75.75">Data</tspan>
  </text>
  <text font-size="18.0619" style="fill: #000000;text-anchor:middle;font-family:sans-serif;font-style:normal;font-weight:normal" x="60" y="75.75">
    <tspan x="60" y="75.75">Data</tspan>
  </text>
  <g>
    <line style="fill: none; fill-opacity:0; stroke-width: 2; stroke: #000000" x1="1220" y1="40" x2="1290.26" y2="40"/>
    <polygon style="fill: #000000" points="1297.76,40 1287.76,45 1290.26,40 1287.76,35 "/>
    <polygon style="fill: none; fill-opacity:0; stroke-width: 2; stroke: #000000" points="1297.76,40 1287.76,45 1290.26,40 1287.76,35 "/>
  </g>
  <g>
    <polyline style="fill: none; fill-opacity:0; stroke-width: 2; stroke: #000000" points="20,40 60,40 60,40 90.2639,40 "/>
    <polygon style="fill: #000000" points="97.7639,40 87.7639,45 90.2639,40 87.7639,35 "/>
    <polygon style="fill: none; fill-opacity:0; stroke-width: 2; stroke: #000000" points="97.7639,40 87.7639,45 90.2639,40 87.7639,35 "/>
  </g>
  <g>
    <polyline style="fill: none; fill-opacity:0; stroke-width: 2; stroke: #000000" points="420,40 460,40 460,40 490.264,40 "/>
    <polygon style="fill: #000000" points="497.764,40 487.764,45 490.264,40 487.764,35 "/>
    <polygon style="fill: none; fill-opacity:0; stroke-width: 2; stroke: #000000" points="497.764,40 487.764,45 490.264,40 487.764,35 "/>
  </g>
  <g>
    <polyline style="fill: none; fill-opacity:0; stroke-width: 2; stroke: #000000" points="820,40 860,40 860,40 890.264,40 "/>
    <polygon style="fill: #000000" points="897.764,40 887.764,45 890.264,40 887.764,35 "/>
    <polygon style="fill: none; fill-opacity:0; stroke-width: 2; stroke: #000000" points="897.764,40 887.764,45 890.264,40 887.764,35 "/>
  </g>
  <text font-size="18.0619" style="fill: #000000;text-anchor:middle;font-family:sans-serif;font-style:normal;font-weight:normal" x="60" y="35.75">
    <tspan x="60" y="35.75">CE</tspan>
  </text>
  <text font-size="18.0619" style="fill: #000000;text-anchor:middle;font-family:sans-serif;font-style:normal;font-weight:normal" x="460" y="35.75">
    <tspan x="460" y="35.75">CE</tspan>
  </text>
  <text font-size="18.0619" style="fill: #000000;text-anchor:middle;font-family:sans-serif;font-style:normal;font-weight:normal" x="860" y="35.75">
    <tspan x="860" y="35.75">CE</tspan>
  </text>
  <text font-size="18.0619" style="fill: #000000;text-anchor:middle;font-family:sans-serif;font-style:normal;font-weight:normal" x="1260" y="35.75">
    <tspan x="1260" y="35.75">CE</tspan>
  </text>
</svg>
