<?xml version="1.0" encoding="UTF-8" standalone="no"?>
<!DOCTYPE svg PUBLIC "-//W3C//DTD SVG 1.0//EN" "http://www.w3.org/TR/2001/PR-SVG-20010719/DTD/svg10.dtd">
<svg width="60cm" height="19cm" viewBox="-17 19 1198 368" xmlns="http://www.w3.org/2000/svg" xmlns:xlink="http://www.w3.org/1999/xlink">
  <line style="fill: none; fill-opacity:0; stroke-width: 2; stroke: #000000" x1="200.342" y1="140" x2="380" y2="140"/>
  <line style="fill: none; fill-opacity:0; stroke-width: 2; stroke: #000000" x1="380.342" y1="100" x2="380.342" y2="140"/>
  <line style="fill: none; fill-opacity:0; stroke-width: 2; stroke: #000000" x1="860" y1="100" x2="1100" y2="100"/>
  <line style="fill: none; fill-opacity:0; stroke-width: 2; stroke: #000000" x1="200" y1="300" x2="500" y2="300"/>
  <line style="fill: none; fill-opacity:0; stroke-width: 2; stroke: #000000" x1="500" y1="260" x2="500" y2="300"/>
  <line style="fill: none; fill-opacity:0; stroke-width: 2; stroke: #000000" x1="500" y1="260" x2="620" y2="260"/>
  <line style="fill: none; fill-opacity:0; stroke-width: 2; stroke: #000000" x1="740" y1="260" x2="980" y2="260"/>
  <line style="fill: none; fill-opacity:0; stroke-width: 2; stroke: #000000" x1="620" y1="260" x2="620" y2="300"/>
  <line style="fill: none; fill-opacity:0; stroke-width: 2; stroke: #000000" x1="620" y1="300" x2="740" y2="300"/>
  <line style="fill: none; fill-opacity:0; stroke-width: 2; stroke: #000000" x1="740" y1="260" x2="740" y2="300"/>
  <g>
    <line style="fill: none; fill-opacity:0; stroke-width: 2; stroke: #000000" x1="200" y1="60" x2="260" y2="60"/>
    <line style="fill: none; fill-opacity:0; stroke-width: 2; stroke: #000000" x1="260" y1="20" x2="260" y2="60"/>
    <line style="fill: none; fill-opacity:0; stroke-width: 2; stroke: #000000" x1="260" y1="20" x2="320" y2="20"/>
    <line style="fill: none; fill-opacity:0; stroke-width: 2; stroke: #000000" x1="320" y1="20" x2="320" y2="60"/>
  </g>
  <g>
    <line style="fill: none; fill-opacity:0; stroke-width: 2; stroke: #000000" x1="320" y1="60" x2="380" y2="60"/>
    <line style="fill: none; fill-opacity:0; stroke-width: 2; stroke: #000000" x1="380" y1="20" x2="380" y2="60"/>
    <line style="fill: none; fill-opacity:0; stroke-width: 2; stroke: #000000" x1="380" y1="20" x2="440" y2="20"/>
    <line style="fill: none; fill-opacity:0; stroke-width: 2; stroke: #000000" x1="440" y1="20" x2="440" y2="60"/>
  </g>
  <g>
    <polygon style="fill: #bfbfbf" points="200,180 380,180 390,200 380,220 200,220 "/>
    <polygon style="fill: none; fill-opacity:0; stroke-width: 2; stroke: #000000" points="200,180 380,180 390,200 380,220 200,220 "/>
  </g>
  <g>
    <polygon style="fill: #ffffff" points="400,180 500,180 510,200 500,220 400,220 390,200 "/>
    <polygon style="fill: none; fill-opacity:0; stroke-width: 2; stroke: #000000" points="400,180 500,180 510,200 500,220 400,220 390,200 "/>
  </g>
  <g>
    <line style="fill: none; fill-opacity:0; stroke-width: 2; stroke: #000000" x1="440" y1="60" x2="500" y2="60"/>
    <line style="fill: none; fill-opacity:0; stroke-width: 2; stroke: #000000" x1="500" y1="20" x2="500" y2="60"/>
    <line style="fill: none; fill-opacity:0; stroke-width: 2; stroke: #000000" x1="500" y1="20" x2="560" y2="20"/>
    <line style="fill: none; fill-opacity:0; stroke-width: 2; stroke: #000000" x1="560" y1="20" x2="560" y2="60"/>
  </g>
  <g>
    <line style="fill: none; fill-opacity:0; stroke-width: 2; stroke: #000000" x1="560" y1="60" x2="620" y2="60"/>
    <line style="fill: none; fill-opacity:0; stroke-width: 2; stroke: #000000" x1="620" y1="20" x2="620" y2="60"/>
    <line style="fill: none; fill-opacity:0; stroke-width: 2; stroke: #000000" x1="620" y1="20" x2="680" y2="20"/>
    <line style="fill: none; fill-opacity:0; stroke-width: 2; stroke: #000000" x1="680" y1="20" x2="680" y2="60"/>
  </g>
  <g>
    <line style="fill: none; fill-opacity:0; stroke-width: 2; stroke: #000000" x1="680" y1="60" x2="740" y2="60"/>
    <line style="fill: none; fill-opacity:0; stroke-width: 2; stroke: #000000" x1="740" y1="20" x2="740" y2="60"/>
    <line style="fill: none; fill-opacity:0; stroke-width: 2; stroke: #000000" x1="740" y1="20" x2="800" y2="20"/>
    <line style="fill: none; fill-opacity:0; stroke-width: 2; stroke: #000000" x1="800" y1="20" x2="800" y2="60"/>
  </g>
  <g>
    <line style="fill: none; fill-opacity:0; stroke-width: 2; stroke: #000000" x1="800" y1="60" x2="860" y2="60"/>
    <line style="fill: none; fill-opacity:0; stroke-width: 2; stroke: #000000" x1="860" y1="20" x2="860" y2="60"/>
    <line style="fill: none; fill-opacity:0; stroke-width: 2; stroke: #000000" x1="860" y1="20" x2="920" y2="20"/>
    <line style="fill: none; fill-opacity:0; stroke-width: 2; stroke: #000000" x1="920" y1="20" x2="920" y2="60"/>
  </g>
  <g>
    <line style="fill: none; fill-opacity:0; stroke-width: 2; stroke: #000000" x1="920" y1="60" x2="980" y2="60"/>
    <line style="fill: none; fill-opacity:0; stroke-width: 2; stroke: #000000" x1="980" y1="20" x2="980" y2="60"/>
    <line style="fill: none; fill-opacity:0; stroke-width: 2; stroke: #000000" x1="980" y1="20" x2="1040" y2="20"/>
    <line style="fill: none; fill-opacity:0; stroke-width: 2; stroke: #000000" x1="1040" y1="20" x2="1040" y2="60"/>
  </g>
  <g>
    <line style="fill: none; fill-opacity:0; stroke-width: 2; stroke: #000000" x1="1040" y1="60" x2="1100" y2="60"/>
    <line style="fill: none; fill-opacity:0; stroke-width: 2; stroke: #000000" x1="1100" y1="20" x2="1100" y2="60"/>
    <line style="fill: none; fill-opacity:0; stroke-width: 2; stroke: #000000" x1="1100" y1="20" x2="1160" y2="20"/>
    <line style="fill: none; fill-opacity:0; stroke-width: 2; stroke: #000000" x1="1160" y1="20" x2="1160" y2="60"/>
  </g>
  <g>
    <polygon style="fill: #ffffff" points="520,180 740,180 750,200 740,220 520,220 510,200 "/>
    <polygon style="fill: none; fill-opacity:0; stroke-width: 2; stroke: #000000" points="520,180 740,180 750,200 740,220 520,220 510,200 "/>
  </g>
  <line style="fill: none; fill-opacity:0; stroke-width: 2; stroke: #000000" x1="740" y1="140" x2="860" y2="140"/>
  <line style="fill: none; fill-opacity:0; stroke-width: 2; stroke: #000000" x1="740" y1="100" x2="740" y2="140"/>
  <line style="fill: none; fill-opacity:0; stroke-width: 2; stroke: #000000" x1="860" y1="100" x2="860" y2="140"/>
  <line style="fill: none; fill-opacity:0; stroke-width: 2; stroke: #000000" x1="380" y1="100" x2="740" y2="100"/>
  <g>
    <polygon style="fill: #bfbfbf" points="760,180 860,180 870,200 860,220 760,220 748,200 "/>
    <polygon style="fill: none; fill-opacity:0; stroke-width: 2; stroke: #000000" points="760,180 860,180 870,200 860,220 760,220 748,200 "/>
  </g>
  <line style="fill: none; fill-opacity:0; stroke-width: 2; stroke-dasharray: 8; stroke: #000000" x1="200" y1="380" x2="380" y2="380"/>
  <line style="fill: none; fill-opacity:0; stroke-width: 2; stroke-dasharray: 8; stroke: #000000" x1="380" y1="340" x2="380" y2="380"/>
  <line style="fill: none; fill-opacity:0; stroke-width: 2; stroke-dasharray: 8; stroke: #000000" x1="380" y1="340" x2="500" y2="340"/>
  <line style="fill: none; fill-opacity:0; stroke-width: 2; stroke-dasharray: 8; stroke: #000000" x1="620" y1="340" x2="740" y2="340"/>
  <line style="fill: none; fill-opacity:0; stroke-width: 2; stroke-dasharray: 8; stroke: #000000" x1="500" y1="340" x2="500" y2="380"/>
  <line style="fill: none; fill-opacity:0; stroke-width: 2; stroke-dasharray: 8; stroke: #000000" x1="500" y1="380" x2="620" y2="380"/>
  <line style="fill: none; fill-opacity:0; stroke-width: 2; stroke-dasharray: 8; stroke: #000000" x1="620" y1="340" x2="620" y2="380"/>
  <line style="fill: none; fill-opacity:0; stroke-width: 2; stroke-dasharray: 8; stroke: #000000" x1="740" y1="340" x2="740" y2="380"/>
  <line style="fill: none; fill-opacity:0; stroke-width: 2; stroke-dasharray: 8; stroke: #000000" x1="740" y1="380" x2="980" y2="380"/>
  <line style="fill: none; fill-opacity:0; stroke-width: 2; stroke-dasharray: 8; stroke: #000000" x1="1100" y1="340" x2="1100" y2="380"/>
  <line style="fill: none; fill-opacity:0; stroke-width: 2; stroke-dasharray: 8; stroke: #000000" x1="1100" y1="380" x2="1180" y2="380"/>
  <g>
    <polygon style="fill: #ffffff" points="880,180 1100,180 1110,200 1100,220 880,220 870,200 "/>
    <polygon style="fill: none; fill-opacity:0; stroke-width: 2; stroke: #000000" points="880,180 1100,180 1110,200 1100,220 880,220 870,200 "/>
  </g>
  <line style="fill: none; fill-opacity:0; stroke-width: 2; stroke: #000000" x1="1100" y1="100" x2="1100" y2="140"/>
  <line style="fill: none; fill-opacity:0; stroke-width: 2; stroke: #000000" x1="1100" y1="140" x2="1160" y2="140"/>
  <g>
    <polygon style="fill: #bfbfbf" points="1120,180 1160,180 1160,220 1120,220 1108,200 "/>
    <polygon style="fill: none; fill-opacity:0; stroke-width: 2; stroke: #000000" points="1120,180 1160,180 1160,220 1120,220 1108,200 "/>
  </g>
  <line style="fill: none; fill-opacity:0; stroke-width: 2; stroke: #000000" x1="1100" y1="260" x2="1180" y2="260"/>
  <line style="fill: none; fill-opacity:0; stroke-width: 2; stroke: #000000" x1="980" y1="260" x2="980" y2="300"/>
  <line style="fill: none; fill-opacity:0; stroke-width: 2; stroke: #000000" x1="980" y1="300" x2="1100" y2="300"/>
  <line style="fill: none; fill-opacity:0; stroke-width: 2; stroke: #000000" x1="1100" y1="260" x2="1100" y2="300"/>
  <line style="fill: none; fill-opacity:0; stroke-width: 2; stroke-dasharray: 8; stroke: #000000" x1="980" y1="340" x2="1100" y2="340"/>
  <line style="fill: none; fill-opacity:0; stroke-width: 2; stroke-dasharray: 8; stroke: #000000" x1="980" y1="340" x2="980" y2="380"/>
  <text font-size="27.0933" style="fill: #000000;text-anchor:end;font-family:sans-serif;font-style:normal;font-weight:normal" x="160" y="60">
    <tspan x="160" y="60">Clock</tspan>
  </text>
  <text font-size="27.0933" style="fill: #000000;text-anchor:end;font-family:sans-serif;font-style:normal;font-weight:normal" x="160" y="140">
    <tspan x="160" y="140">STB</tspan>
  </text>
  <text font-size="27.0933" style="fill: #000000;text-anchor:end;font-family:sans-serif;font-style:normal;font-weight:normal" x="160" y="300">
    <tspan x="160" y="300">Busy</tspan>
  </text>
  <text font-size="27.0933" style="fill: #000000;text-anchor:end;font-family:sans-serif;font-style:normal;font-weight:normal" x="160" y="380">
    <tspan x="160" y="380">(Transaction)</tspan>
  </text>
  <text font-size="27.0933" style="fill: #000000;text-anchor:end;font-family:sans-serif;font-style:normal;font-weight:normal" x="160" y="220">
    <tspan x="160" y="220">Data</tspan>
  </text>
  <text font-size="27.0933" style="fill: #000000;text-anchor:middle;font-family:sans-serif;font-style:normal;font-weight:normal" x="295" y="209.375">
    <tspan x="295" y="209.375">(Don't care)</tspan>
  </text>
  <text font-size="27.0933" style="fill: #000000;text-anchor:middle;font-family:sans-serif;font-style:normal;font-weight:normal" x="450" y="209.375">
    <tspan x="450" y="209.375">x[n]</tspan>
  </text>
  <text font-size="27.0933" style="fill: #000000;text-anchor:middle;font-family:sans-serif;font-style:normal;font-weight:normal" x="630" y="209.375">
    <tspan x="630" y="209.375">x[n+1]</tspan>
  </text>
  <text font-size="27.0933" style="fill: #000000;text-anchor:middle;font-family:sans-serif;font-style:normal;font-weight:normal" x="990" y="209.375">
    <tspan x="990" y="209.375">x[n+2]</tspan>
  </text>
</svg>
