<?xml version="1.0" encoding="UTF-8" standalone="no"?>
<!DOCTYPE svg PUBLIC "-//W3C//DTD SVG 1.0//EN" "http://www.w3.org/TR/2001/PR-SVG-20010719/DTD/svg10.dtd">
<svg width="64cm" height="26cm" viewBox="-33 19 1274 502" xmlns="http://www.w3.org/2000/svg" xmlns:xlink="http://www.w3.org/1999/xlink">
  <line style="fill: none; fill-opacity:0; stroke-width: 2; stroke: #000000" x1="280" y1="140" x2="460" y2="140"/>
  <line style="fill: none; fill-opacity:0; stroke-width: 2; stroke: #000000" x1="460" y1="100" x2="460" y2="140"/>
  <line style="fill: none; fill-opacity:0; stroke-width: 2; stroke: #000000" x1="460" y1="100" x2="580" y2="100"/>
  <line style="fill: none; fill-opacity:0; stroke-width: 2; stroke: #000000" x1="580" y1="100" x2="580" y2="140"/>
  <line style="fill: none; fill-opacity:0; stroke-width: 2; stroke: #000000" x1="580" y1="140" x2="700" y2="140"/>
  <line style="fill: none; fill-opacity:0; stroke-width: 2; stroke: #000000" x1="700" y1="100" x2="700" y2="140"/>
  <line style="fill: none; fill-opacity:0; stroke-width: 2; stroke: #000000" x1="700" y1="100" x2="820" y2="100"/>
  <line style="fill: none; fill-opacity:0; stroke-width: 2; stroke: #000000" x1="820" y1="100" x2="820" y2="140"/>
  <line style="fill: none; fill-opacity:0; stroke-width: 2; stroke: #000000" x1="820" y1="140" x2="1240" y2="140"/>
  <g>
    <line style="fill: none; fill-opacity:0; stroke-width: 2; stroke: #000000" x1="280" y1="60" x2="340" y2="60"/>
    <line style="fill: none; fill-opacity:0; stroke-width: 2; stroke: #000000" x1="340" y1="20" x2="340" y2="60"/>
    <line style="fill: none; fill-opacity:0; stroke-width: 2; stroke: #000000" x1="340" y1="20" x2="400" y2="20"/>
    <line style="fill: none; fill-opacity:0; stroke-width: 2; stroke: #000000" x1="400" y1="20" x2="400" y2="60"/>
  </g>
  <g>
    <line style="fill: none; fill-opacity:0; stroke-width: 2; stroke: #000000" x1="400" y1="60" x2="460" y2="60"/>
    <line style="fill: none; fill-opacity:0; stroke-width: 2; stroke: #000000" x1="460" y1="20" x2="460" y2="60"/>
    <line style="fill: none; fill-opacity:0; stroke-width: 2; stroke: #000000" x1="460" y1="20" x2="520" y2="20"/>
    <line style="fill: none; fill-opacity:0; stroke-width: 2; stroke: #000000" x1="520" y1="20" x2="520" y2="60"/>
  </g>
  <g>
    <line style="fill: none; fill-opacity:0; stroke-width: 2; stroke: #000000" x1="520" y1="60" x2="580" y2="60"/>
    <line style="fill: none; fill-opacity:0; stroke-width: 2; stroke: #000000" x1="580" y1="20" x2="580" y2="60"/>
    <line style="fill: none; fill-opacity:0; stroke-width: 2; stroke: #000000" x1="580" y1="20" x2="640" y2="20"/>
    <line style="fill: none; fill-opacity:0; stroke-width: 2; stroke: #000000" x1="640" y1="20" x2="640" y2="60"/>
  </g>
  <g>
    <line style="fill: none; fill-opacity:0; stroke-width: 2; stroke: #000000" x1="640" y1="60" x2="700" y2="60"/>
    <line style="fill: none; fill-opacity:0; stroke-width: 2; stroke: #000000" x1="700" y1="20" x2="700" y2="60"/>
    <line style="fill: none; fill-opacity:0; stroke-width: 2; stroke: #000000" x1="700" y1="20" x2="760" y2="20"/>
    <line style="fill: none; fill-opacity:0; stroke-width: 2; stroke: #000000" x1="760" y1="20" x2="760" y2="60"/>
  </g>
  <g>
    <line style="fill: none; fill-opacity:0; stroke-width: 2; stroke: #000000" x1="760" y1="60" x2="820" y2="60"/>
    <line style="fill: none; fill-opacity:0; stroke-width: 2; stroke: #000000" x1="820" y1="20" x2="820" y2="60"/>
    <line style="fill: none; fill-opacity:0; stroke-width: 2; stroke: #000000" x1="820" y1="20" x2="880" y2="20"/>
    <line style="fill: none; fill-opacity:0; stroke-width: 2; stroke: #000000" x1="880" y1="20" x2="880" y2="60"/>
  </g>
  <g>
    <line style="fill: none; fill-opacity:0; stroke-width: 2; stroke: #000000" x1="880" y1="60" x2="940" y2="60"/>
    <line style="fill: none; fill-opacity:0; stroke-width: 2; stroke: #000000" x1="940" y1="20" x2="940" y2="60"/>
    <line style="fill: none; fill-opacity:0; stroke-width: 2; stroke: #000000" x1="940" y1="20" x2="1000" y2="20"/>
    <line style="fill: none; fill-opacity:0; stroke-width: 2; stroke: #000000" x1="1000" y1="20" x2="1000" y2="60"/>
  </g>
  <g>
    <line style="fill: none; fill-opacity:0; stroke-width: 2; stroke: #000000" x1="1000" y1="60" x2="1060" y2="60"/>
    <line style="fill: none; fill-opacity:0; stroke-width: 2; stroke: #000000" x1="1060" y1="20" x2="1060" y2="60"/>
    <line style="fill: none; fill-opacity:0; stroke-width: 2; stroke: #000000" x1="1060" y1="20" x2="1120" y2="20"/>
    <line style="fill: none; fill-opacity:0; stroke-width: 2; stroke: #000000" x1="1120" y1="20" x2="1120" y2="60"/>
  </g>
  <g>
    <line style="fill: none; fill-opacity:0; stroke-width: 2; stroke: #000000" x1="1120" y1="60" x2="1180" y2="60"/>
    <line style="fill: none; fill-opacity:0; stroke-width: 2; stroke: #000000" x1="1180" y1="20" x2="1180" y2="60"/>
    <line style="fill: none; fill-opacity:0; stroke-width: 2; stroke: #000000" x1="1180" y1="20" x2="1240" y2="20"/>
    <line style="fill: none; fill-opacity:0; stroke-width: 2; stroke: #000000" x1="1240" y1="20" x2="1240" y2="60"/>
  </g>
  <text font-size="27.0929" style="fill: #000000;text-anchor:end;font-family:sans-serif;font-style:normal;font-weight:normal" x="240" y="60">
    <tspan x="240" y="60">Clock</tspan>
  </text>
  <g>
    <polygon style="fill: #bfbfbf" points="280,180 460,180 470,200 460,220 280,220 "/>
    <polygon style="fill: none; fill-opacity:0; stroke-width: 2; stroke: #000000" points="280,180 460,180 470,200 460,220 280,220 "/>
  </g>
  <text font-size="27.0929" style="fill: #000000;text-anchor:middle;font-family:sans-serif;font-style:normal;font-weight:normal" x="375" y="209.375">
    <tspan x="375" y="209.375">(Don't care)</tspan>
  </text>
  <g>
    <polygon style="fill: #ffffff" points="480,180 580,180 590,200 580,220 480,220 470,200 "/>
    <polygon style="fill: none; fill-opacity:0; stroke-width: 2; stroke: #000000" points="480,180 580,180 590,200 580,220 480,220 470,200 "/>
  </g>
  <g>
    <polygon style="fill: #bfbfbf" points="600,180 700,180 710,200 700,220 600,220 590,200 "/>
    <polygon style="fill: none; fill-opacity:0; stroke-width: 2; stroke: #000000" points="600,180 700,180 710,200 700,220 600,220 590,200 "/>
  </g>
  <g>
    <polygon style="fill: #ffffff" points="720,180 820,180 830,200 820,220 720,220 710,200 "/>
    <polygon style="fill: none; fill-opacity:0; stroke-width: 2; stroke: #000000" points="720,180 820,180 830,200 820,220 720,220 710,200 "/>
  </g>
  <g>
    <polygon style="fill: #bfbfbf" points="840,180 1240,180 1240,220 840,220 830,200 "/>
    <polygon style="fill: none; fill-opacity:0; stroke-width: 2; stroke: #000000" points="840,180 1240,180 1240,220 840,220 830,200 "/>
  </g>
  <line style="fill: none; fill-opacity:0; stroke-width: 2; stroke: #000000" x1="640" y1="300" x2="820" y2="300"/>
  <line style="fill: none; fill-opacity:0; stroke-width: 2; stroke: #000000" x1="820" y1="260" x2="820" y2="300"/>
  <line style="fill: none; fill-opacity:0; stroke-width: 2; stroke: #000000" x1="820" y1="260" x2="940" y2="260"/>
  <line style="fill: none; fill-opacity:0; stroke-width: 2; stroke: #000000" x1="940" y1="260" x2="940" y2="300"/>
  <line style="fill: none; fill-opacity:0; stroke-width: 2; stroke: #000000" x1="940" y1="300" x2="1060" y2="300"/>
  <line style="fill: none; fill-opacity:0; stroke-width: 2; stroke: #000000" x1="1060" y1="260" x2="1060" y2="300"/>
  <line style="fill: none; fill-opacity:0; stroke-width: 2; stroke: #000000" x1="1060" y1="260" x2="1180" y2="260"/>
  <line style="fill: none; fill-opacity:0; stroke-width: 2; stroke: #000000" x1="1180" y1="260" x2="1180" y2="300"/>
  <line style="fill: none; fill-opacity:0; stroke-width: 2; stroke: #000000" x1="1180" y1="300" x2="1240" y2="300"/>
  <g>
    <polygon style="fill: #bfbfbf" points="280,340 820,340 830,360 820,380 280,380 "/>
    <polygon style="fill: none; fill-opacity:0; stroke-width: 2; stroke: #000000" points="280,340 820,340 830,360 820,380 280,380 "/>
  </g>
  <g>
    <polygon style="fill: #ffffff" points="840,340 940,340 950,360 940,380 840,380 830,360 "/>
    <polygon style="fill: none; fill-opacity:0; stroke-width: 2; stroke: #000000" points="840,340 940,340 950,360 940,380 840,380 830,360 "/>
  </g>
  <g>
    <polygon style="fill: #bfbfbf" points="960,340 1060,340 1070,360 1060,380 960,380 950,360 "/>
    <polygon style="fill: none; fill-opacity:0; stroke-width: 2; stroke: #000000" points="960,340 1060,340 1070,360 1060,380 960,380 950,360 "/>
  </g>
  <g>
    <polygon style="fill: #ffffff" points="1080,340 1180,340 1190,360 1180,380 1080,380 1070,360 "/>
    <polygon style="fill: none; fill-opacity:0; stroke-width: 2; stroke: #000000" points="1080,340 1180,340 1190,360 1180,380 1080,380 1070,360 "/>
  </g>
  <g>
    <polygon style="fill: #bfbfbf" points="1200,340 1240,340 1240,380 1200,380 1190,360 "/>
    <polygon style="fill: none; fill-opacity:0; stroke-width: 2; stroke: #000000" points="1200,340 1240,340 1240,380 1200,380 1190,360 "/>
  </g>
  <line style="fill: none; fill-opacity:0; stroke-width: 2; stroke: #000000" x1="460" y1="440" x2="460" y2="520"/>
  <line style="fill: none; fill-opacity:0; stroke-width: 2; stroke: #000000" x1="820" y1="440" x2="820" y2="520"/>
  <g>
    <line style="fill: none; fill-opacity:0; stroke-width: 2; stroke: #000000" x1="469.736" y1="480" x2="810.264" y2="480"/>
    <polygon style="fill: #000000" points="462.236,480 472.236,475 469.736,480 472.236,485 "/>
    <polygon style="fill: none; fill-opacity:0; stroke-width: 2; stroke: #000000" points="462.236,480 472.236,475 469.736,480 472.236,485 "/>
    <polygon style="fill: #000000" points="817.764,480 807.764,485 810.264,480 807.764,475 "/>
    <polygon style="fill: none; fill-opacity:0; stroke-width: 2; stroke: #000000" points="817.764,480 807.764,485 810.264,480 807.764,475 "/>
  </g>
  <text font-size="27.0929" style="fill: #000000;text-anchor:middle;font-family:sans-serif;font-style:normal;font-weight:normal" x="640" y="473.6">
    <tspan x="640" y="473.6">Latency</tspan>
  </text>
  <line style="fill: none; fill-opacity:0; stroke-width: 2; stroke-dasharray: 8; stroke: #000000" x1="280" y1="300" x2="640" y2="300"/>
  <text font-size="27.0929" style="fill: #000000;text-anchor:end;font-family:sans-serif;font-style:normal;font-weight:normal" x="240" y="140">
    <tspan x="240" y="140">Incoming Data Valid</tspan>
  </text>
  <text font-size="27.0929" style="fill: #000000;text-anchor:end;font-family:sans-serif;font-style:normal;font-weight:normal" x="240" y="220">
    <tspan x="240" y="220">Incoming Data</tspan>
  </text>
  <text font-size="27.0929" style="fill: #000000;text-anchor:end;font-family:sans-serif;font-style:normal;font-weight:normal" x="240" y="300">
    <tspan x="240" y="300">Outgoing Data Valid</tspan>
  </text>
  <text font-size="27.0929" style="fill: #000000;text-anchor:end;font-family:sans-serif;font-style:normal;font-weight:normal" x="240" y="380">
    <tspan x="240" y="380">Outgoing Data</tspan>
  </text>
  <text font-size="27.0929" style="fill: #000000;text-anchor:middle;font-family:sans-serif;font-style:normal;font-weight:normal" x="530" y="208.981">
    <tspan x="530" y="208.981">x[n]</tspan>
  </text>
  <text font-size="27.0929" style="fill: #000000;text-anchor:middle;font-family:sans-serif;font-style:normal;font-weight:normal" x="890" y="368.981">
    <tspan x="890" y="368.981">y[n]</tspan>
  </text>
  <text font-size="27.0929" style="fill: #000000;text-anchor:middle;font-family:sans-serif;font-style:normal;font-weight:normal" x="770" y="208.981">
    <tspan x="770" y="208.981">x[n+1]</tspan>
  </text>
  <text font-size="27.0929" style="fill: #000000;text-anchor:middle;font-family:sans-serif;font-style:normal;font-weight:normal" x="1130" y="368.981">
    <tspan x="1130" y="368.981">y[n+1]</tspan>
  </text>
</svg>
