<?xml version="1.0" encoding="UTF-8" standalone="no"?>
<!DOCTYPE svg PUBLIC "-//W3C//DTD SVG 1.0//EN" "http://www.w3.org/TR/2001/PR-SVG-20010719/DTD/svg10.dtd">
<svg width="65cm" height="8cm" viewBox="19 99 1284 143" xmlns="http://www.w3.org/2000/svg" xmlns:xlink="http://www.w3.org/1999/xlink">
  <g>
    <rect style="fill: #ffffcf" x="500" y="160" width="320" height="80" rx="16" ry="16"/>
    <rect style="fill: none; fill-opacity:0; stroke-width: 2; stroke-linejoin: round; stroke: #000000" x="500" y="160" width="320" height="80" rx="16" ry="16"/>
  </g>
  <text font-size="27.0933" style="fill: #000000;text-anchor:middle;font-family:sans-serif;font-style:normal;font-weight:normal" x="660" y="209.375">
    <tspan x="660" y="209.375">Stage N</tspan>
  </text>
  <g>
    <rect style="fill: #ffffcf" x="900" y="160" width="320" height="80" rx="16" ry="16"/>
    <rect style="fill: none; fill-opacity:0; stroke-width: 2; stroke-linejoin: round; stroke: #000000" x="900" y="160" width="320" height="80" rx="16" ry="16"/>
  </g>
  <text font-size="27.0933" style="fill: #000000;text-anchor:middle;font-family:sans-serif;font-style:normal;font-weight:normal" x="1060" y="209.375">
    <tspan x="1060" y="209.375">Stage N+1</tspan>
  </text>
  <g>
    <rect style="fill: #ffffcf" x="100" y="160" width="320" height="80" rx="16" ry="16"/>
    <rect style="fill: none; fill-opacity:0; stroke-width: 2; stroke-linejoin: round; stroke: #000000" x="100" y="160" width="320" height="80" rx="16" ry="16"/>
  </g>
  <text font-size="27.0933" style="fill: #000000;text-anchor:middle;font-family:sans-serif;font-style:normal;font-weight:normal" x="260" y="209.375">
    <tspan x="260" y="209.375">Stage N-1</tspan>
  </text>
  <g>
    <line style="fill: none; fill-opacity:0; stroke-width: 2; stroke-linejoin: round; stroke: #000000" x1="420" y1="220" x2="490.264" y2="220"/>
    <polygon style="fill: #000000" points="497.764,220 487.764,225 490.264,220 487.764,215 "/>
    <polygon style="fill: none; fill-opacity:0; stroke-width: 2; stroke: #000000" points="497.764,220 487.764,225 490.264,220 487.764,215 "/>
  </g>
  <g>
    <line style="fill: none; fill-opacity:0; stroke-width: 2; stroke: #000000" x1="820" y1="220" x2="890.264" y2="220"/>
    <polygon style="fill: #000000" points="897.764,220 887.764,225 890.264,220 887.764,215 "/>
    <polygon style="fill: none; fill-opacity:0; stroke-width: 2; stroke: #000000" points="897.764,220 887.764,225 890.264,220 887.764,215 "/>
  </g>
  <g>
    <line style="fill: none; fill-opacity:0; stroke-width: 2; stroke: #000000" x1="20" y1="220" x2="90.2639" y2="220"/>
    <polygon style="fill: #000000" points="97.7639,220 87.7639,225 90.2639,220 87.7639,215 "/>
    <polygon style="fill: none; fill-opacity:0; stroke-width: 2; stroke: #000000" points="97.7639,220 87.7639,225 90.2639,220 87.7639,215 "/>
  </g>
  <g>
    <line style="fill: none; fill-opacity:0; stroke-width: 2; stroke: #000000" x1="1220" y1="220" x2="1290.26" y2="220"/>
    <polygon style="fill: #000000" points="1297.76,220 1287.76,225 1290.26,220 1287.76,215 "/>
    <polygon style="fill: none; fill-opacity:0; stroke-width: 2; stroke: #000000" points="1297.76,220 1287.76,225 1290.26,220 1287.76,215 "/>
  </g>
  <text font-size="18.0622" style="fill: #000000;text-anchor:middle;font-family:sans-serif;font-style:normal;font-weight:normal" x="460" y="215.75">
    <tspan x="460" y="215.75">Data</tspan>
  </text>
  <text font-size="18.0622" style="fill: #000000;text-anchor:middle;font-family:sans-serif;font-style:normal;font-weight:normal" x="860" y="215.75">
    <tspan x="860" y="215.75">Data</tspan>
  </text>
  <text font-size="18.0622" style="fill: #000000;text-anchor:middle;font-family:sans-serif;font-style:normal;font-weight:normal" x="1260" y="215.75">
    <tspan x="1260" y="215.75">Data</tspan>
  </text>
  <text font-size="18.0622" style="fill: #000000;text-anchor:middle;font-family:sans-serif;font-style:normal;font-weight:normal" x="60" y="215.75">
    <tspan x="60" y="215.75">Data</tspan>
  </text>
  <g>
    <line style="fill: none; fill-opacity:0; stroke-width: 2; stroke: #000000" x1="20" y1="120" x2="1290.26" y2="120"/>
    <polygon style="fill: #000000" points="1297.76,120 1287.76,125 1290.26,120 1287.76,115 "/>
    <polygon style="fill: none; fill-opacity:0; stroke-width: 2; stroke: #000000" points="1297.76,120 1287.76,125 1290.26,120 1287.76,115 "/>
  </g>
  <g>
    <polyline style="fill: none; fill-opacity:0; stroke-width: 2; stroke: #000000" points="60,120 60,120 60,180 90.2639,180 "/>
    <polygon style="fill: #000000" points="97.7639,180 87.7639,185 90.2639,180 87.7639,175 "/>
    <polygon style="fill: none; fill-opacity:0; stroke-width: 2; stroke: #000000" points="97.7639,180 87.7639,185 90.2639,180 87.7639,175 "/>
  </g>
  <g>
    <polyline style="fill: none; fill-opacity:0; stroke-width: 2; stroke: #000000" points="460,120 460,120 460,180 490.264,180 "/>
    <polygon style="fill: #000000" points="497.764,180 487.764,185 490.264,180 487.764,175 "/>
    <polygon style="fill: none; fill-opacity:0; stroke-width: 2; stroke: #000000" points="497.764,180 487.764,185 490.264,180 487.764,175 "/>
  </g>
  <g>
    <polyline style="fill: none; fill-opacity:0; stroke-width: 2; stroke: #000000" points="860,120 860,120 860,180 890.264,180 "/>
    <polygon style="fill: #000000" points="897.764,180 887.764,185 890.264,180 887.764,175 "/>
    <polygon style="fill: none; fill-opacity:0; stroke-width: 2; stroke: #000000" points="897.764,180 887.764,185 890.264,180 887.764,175 "/>
  </g>
  <text font-size="18.0622" style="fill: #000000;text-anchor:middle;font-family:sans-serif;font-style:normal;font-weight:normal" x="80" y="175.75">
    <tspan x="80" y="175.75">CE</tspan>
  </text>
  <text font-size="18.0622" style="fill: #000000;text-anchor:middle;font-family:sans-serif;font-style:normal;font-weight:normal" x="480" y="175.75">
    <tspan x="480" y="175.75">CE</tspan>
  </text>
  <text font-size="18.0622" style="fill: #000000;text-anchor:middle;font-family:sans-serif;font-style:normal;font-weight:normal" x="880" y="175.75">
    <tspan x="880" y="175.75">CE</tspan>
  </text>
  <text font-size="18.0622" style="fill: #000000;text-anchor:middle;font-family:sans-serif;font-style:normal;font-weight:normal" x="1260" y="115.75">
    <tspan x="1260" y="115.75">CE</tspan>
  </text>
</svg>
