<?xml version="1.0" encoding="UTF-8" standalone="no"?>
<!DOCTYPE svg PUBLIC "-//W3C//DTD SVG 1.0//EN" "http://www.w3.org/TR/2001/PR-SVG-20010719/DTD/svg10.dtd">
<svg width="67cm" height="6cm" viewBox="-2 14 1323 107" xmlns="http://www.w3.org/2000/svg" xmlns:xlink="http://www.w3.org/1999/xlink">
  <g>
    <rect style="fill: #ffffff" x="0" y="80" width="40" height="40"/>
    <rect style="fill: none; fill-opacity:0; stroke-width: 2; stroke: #000000" x="0" y="80" width="40" height="40"/>
  </g>
  <g>
    <rect style="fill: #ffffff" x="40" y="80" width="40" height="40"/>
    <rect style="fill: none; fill-opacity:0; stroke-width: 2; stroke: #000000" x="40" y="80" width="40" height="40"/>
  </g>
  <g>
    <rect style="fill: #ffffff" x="80" y="80" width="40" height="40"/>
    <rect style="fill: none; fill-opacity:0; stroke-width: 2; stroke: #000000" x="80" y="80" width="40" height="40"/>
  </g>
  <g>
    <rect style="fill: #ffffff" x="120" y="80" width="40" height="40"/>
    <rect style="fill: none; fill-opacity:0; stroke-width: 2; stroke: #000000" x="120" y="80" width="40" height="40"/>
  </g>
  <g>
    <rect style="fill: #ffffff" x="160" y="80" width="40" height="40"/>
    <rect style="fill: none; fill-opacity:0; stroke-width: 2; stroke: #000000" x="160" y="80" width="40" height="40"/>
  </g>
  <g>
    <rect style="fill: #ffffff" x="200" y="80" width="40" height="40"/>
    <rect style="fill: none; fill-opacity:0; stroke-width: 2; stroke: #000000" x="200" y="80" width="40" height="40"/>
  </g>
  <g>
    <rect style="fill: #ffffff" x="240" y="80" width="40" height="40"/>
    <rect style="fill: none; fill-opacity:0; stroke-width: 2; stroke: #000000" x="240" y="80" width="40" height="40"/>
  </g>
  <g>
    <rect style="fill: #ffffff" x="280" y="80" width="40" height="40"/>
    <rect style="fill: none; fill-opacity:0; stroke-width: 2; stroke: #000000" x="280" y="80" width="40" height="40"/>
  </g>
  <g>
    <line style="fill: none; fill-opacity:0; stroke-width: 2; stroke: #000000" x1="20" y1="40" x2="20" y2="70.2639"/>
    <polygon style="fill: #000000" points="20,77.7639 15,67.7639 20,70.2639 25,67.7639 "/>
    <polygon style="fill: none; fill-opacity:0; stroke-width: 2; stroke: #000000" points="20,77.7639 15,67.7639 20,70.2639 25,67.7639 "/>
  </g>
  <g>
    <rect style="fill: #ffffff" x="320" y="80" width="40" height="40"/>
    <rect style="fill: none; fill-opacity:0; stroke-width: 2; stroke: #000000" x="320" y="80" width="40" height="40"/>
  </g>
  <g>
    <rect style="fill: #ffffff" x="360" y="80" width="40" height="40"/>
    <rect style="fill: none; fill-opacity:0; stroke-width: 2; stroke: #000000" x="360" y="80" width="40" height="40"/>
  </g>
  <g>
    <rect style="fill: #ffffff" x="400" y="80" width="40" height="40"/>
    <rect style="fill: none; fill-opacity:0; stroke-width: 2; stroke: #000000" x="400" y="80" width="40" height="40"/>
  </g>
  <g>
    <rect style="fill: #ffffff" x="440" y="80" width="40" height="40"/>
    <rect style="fill: none; fill-opacity:0; stroke-width: 2; stroke: #000000" x="440" y="80" width="40" height="40"/>
  </g>
  <g>
    <rect style="fill: #ffffff" x="480" y="80" width="40" height="40"/>
    <rect style="fill: none; fill-opacity:0; stroke-width: 2; stroke: #000000" x="480" y="80" width="40" height="40"/>
  </g>
  <g>
    <rect style="fill: #ffffff" x="520" y="80" width="40" height="40"/>
    <rect style="fill: none; fill-opacity:0; stroke-width: 2; stroke: #000000" x="520" y="80" width="40" height="40"/>
  </g>
  <g>
    <rect style="fill: #ffffff" x="560" y="80" width="40" height="40"/>
    <rect style="fill: none; fill-opacity:0; stroke-width: 2; stroke: #000000" x="560" y="80" width="40" height="40"/>
  </g>
  <g>
    <rect style="fill: #ffffff" x="600" y="80" width="40" height="40"/>
    <rect style="fill: none; fill-opacity:0; stroke-width: 2; stroke: #000000" x="600" y="80" width="40" height="40"/>
  </g>
  <g>
    <rect style="fill: #ffffff" x="640" y="80" width="40" height="40"/>
    <rect style="fill: none; fill-opacity:0; stroke-width: 2; stroke: #000000" x="640" y="80" width="40" height="40"/>
  </g>
  <g>
    <line style="fill: none; fill-opacity:0; stroke-width: 2; stroke: #000000" x1="340" y1="40" x2="340" y2="70.2639"/>
    <polygon style="fill: #000000" points="340,77.7639 335,67.7639 340,70.2639 345,67.7639 "/>
    <polygon style="fill: none; fill-opacity:0; stroke-width: 2; stroke: #000000" points="340,77.7639 335,67.7639 340,70.2639 345,67.7639 "/>
  </g>
  <g>
    <rect style="fill: #ffffff" x="680" y="80" width="40" height="40"/>
    <rect style="fill: none; fill-opacity:0; stroke-width: 2; stroke: #000000" x="680" y="80" width="40" height="40"/>
  </g>
  <g>
    <rect style="fill: #ffffff" x="720" y="80" width="40" height="40"/>
    <rect style="fill: none; fill-opacity:0; stroke-width: 2; stroke: #000000" x="720" y="80" width="40" height="40"/>
  </g>
  <g>
    <rect style="fill: #ffffff" x="760" y="80" width="40" height="40"/>
    <rect style="fill: none; fill-opacity:0; stroke-width: 2; stroke: #000000" x="760" y="80" width="40" height="40"/>
  </g>
  <g>
    <rect style="fill: #ffffff" x="800" y="80" width="40" height="40"/>
    <rect style="fill: none; fill-opacity:0; stroke-width: 2; stroke: #000000" x="800" y="80" width="40" height="40"/>
  </g>
  <g>
    <rect style="fill: #ffffff" x="840" y="80" width="40" height="40"/>
    <rect style="fill: none; fill-opacity:0; stroke-width: 2; stroke: #000000" x="840" y="80" width="40" height="40"/>
  </g>
  <g>
    <rect style="fill: #ffffff" x="880" y="80" width="40" height="40"/>
    <rect style="fill: none; fill-opacity:0; stroke-width: 2; stroke: #000000" x="880" y="80" width="40" height="40"/>
  </g>
  <g>
    <rect style="fill: #ffffff" x="920" y="80" width="40" height="40"/>
    <rect style="fill: none; fill-opacity:0; stroke-width: 2; stroke: #000000" x="920" y="80" width="40" height="40"/>
  </g>
  <g>
    <rect style="fill: #ffffff" x="960" y="80" width="40" height="40"/>
    <rect style="fill: none; fill-opacity:0; stroke-width: 2; stroke: #000000" x="960" y="80" width="40" height="40"/>
  </g>
  <g>
    <rect style="fill: #ffffff" x="1000" y="80" width="40" height="40"/>
    <rect style="fill: none; fill-opacity:0; stroke-width: 2; stroke: #000000" x="1000" y="80" width="40" height="40"/>
  </g>
  <g>
    <line style="fill: none; fill-opacity:0; stroke-width: 2; stroke: #000000" x1="660" y1="40" x2="660" y2="70.2639"/>
    <polygon style="fill: #000000" points="660,77.7639 655,67.7639 660,70.2639 665,67.7639 "/>
    <polygon style="fill: none; fill-opacity:0; stroke-width: 2; stroke: #000000" points="660,77.7639 655,67.7639 660,70.2639 665,67.7639 "/>
  </g>
  <g>
    <rect style="fill: #ffffff" x="1040" y="80" width="40" height="40"/>
    <rect style="fill: none; fill-opacity:0; stroke-width: 2; stroke: #000000" x="1040" y="80" width="40" height="40"/>
  </g>
  <g>
    <rect style="fill: #ffffff" x="1080" y="80" width="40" height="40"/>
    <rect style="fill: none; fill-opacity:0; stroke-width: 2; stroke: #000000" x="1080" y="80" width="40" height="40"/>
  </g>
  <g>
    <rect style="fill: #ffffff" x="1160" y="80" width="40" height="40"/>
    <rect style="fill: none; fill-opacity:0; stroke-width: 2; stroke: #000000" x="1160" y="80" width="40" height="40"/>
  </g>
  <g>
    <rect style="fill: #ffffff" x="1200" y="80" width="40" height="40"/>
    <rect style="fill: none; fill-opacity:0; stroke-width: 2; stroke: #000000" x="1200" y="80" width="40" height="40"/>
  </g>
  <g>
    <rect style="fill: #ffffff" x="1240" y="80" width="40" height="40"/>
    <rect style="fill: none; fill-opacity:0; stroke-width: 2; stroke: #000000" x="1240" y="80" width="40" height="40"/>
  </g>
  <g>
    <rect style="fill: #ffffff" x="1280" y="80" width="40" height="40"/>
    <rect style="fill: none; fill-opacity:0; stroke-width: 2; stroke: #000000" x="1280" y="80" width="40" height="40"/>
  </g>
  <g>
    <line style="fill: none; fill-opacity:0; stroke-width: 2; stroke: #000000" x1="980" y1="40" x2="980" y2="70.2639"/>
    <polygon style="fill: #000000" points="980,77.7639 975,67.7639 980,70.2639 985,67.7639 "/>
    <polygon style="fill: none; fill-opacity:0; stroke-width: 2; stroke: #000000" points="980,77.7639 975,67.7639 980,70.2639 985,67.7639 "/>
  </g>
  <g>
    <line style="fill: none; fill-opacity:0; stroke-width: 2; stroke: #000000" x1="1300" y1="40" x2="1300" y2="70.2639"/>
    <polygon style="fill: #000000" points="1300,77.7639 1295,67.7639 1300,70.2639 1305,67.7639 "/>
    <polygon style="fill: none; fill-opacity:0; stroke-width: 2; stroke: #000000" points="1300,77.7639 1295,67.7639 1300,70.2639 1305,67.7639 "/>
  </g>
  <g>
    <rect style="fill: #ffffff" x="1120" y="80" width="40" height="40"/>
    <rect style="fill: none; fill-opacity:0; stroke-width: 2; stroke: #000000" x="1120" y="80" width="40" height="40"/>
  </g>
  <text font-size="27.0933" style="fill: #000000;text-anchor:end;font-family:sans-serif;font-style:normal;font-weight:normal" x="680" y="40">
    <tspan x="680" y="40">0</tspan>
  </text>
  <text font-size="27.0933" style="fill: #000000;text-anchor:end;font-family:sans-serif;font-style:normal;font-weight:normal" x="1000" y="40">
    <tspan x="1000" y="40">1</tspan>
  </text>
  <text font-size="27.0933" style="fill: #000000;text-anchor:end;font-family:sans-serif;font-style:normal;font-weight:normal" x="1320" y="40">
    <tspan x="1320" y="40">2</tspan>
  </text>
  <text font-size="27.0933" style="fill: #000000;text-anchor:end;font-family:sans-serif;font-style:normal;font-weight:normal" x="360" y="40">
    <tspan x="360" y="40">-1</tspan>
  </text>
  <text font-size="27.0933" style="fill: #000000;text-anchor:end;font-family:sans-serif;font-style:normal;font-weight:normal" x="40" y="40">
    <tspan x="40" y="40">-2</tspan>
  </text>
</svg>
