<?xml version="1.0" encoding="UTF-8" standalone="no"?>
<!DOCTYPE svg PUBLIC "-//W3C//DTD SVG 1.0//EN" "http://www.w3.org/TR/2001/PR-SVG-20010719/DTD/svg10.dtd">
<svg width="42cm" height="28cm" viewBox="-2 -3 826 544" xmlns="http://www.w3.org/2000/svg" xmlns:xlink="http://www.w3.org/1999/xlink">
  <g>
    <rect style="fill: #ffffff" x="80" y="80" width="200" height="40"/>
    <rect style="fill: none; fill-opacity:0; stroke-width: 2; stroke: #000000" x="80" y="80" width="200" height="40"/>
  </g>
  <text font-size="18.0622" style="fill: #000000;text-anchor:middle;font-family:sans-serif;font-style:normal;font-weight:normal" x="180" y="106.25">
    <tspan x="180" y="106.25">UART-&gt;WB converter</tspan>
  </text>
  <g>
    <rect style="fill: #ffffff" x="560" y="200" width="120" height="40"/>
    <rect style="fill: none; fill-opacity:0; stroke-width: 4; stroke: #5bbfde" x="560" y="200" width="120" height="40"/>
  </g>
  <text font-size="18.0622" style="fill: #000000;text-anchor:middle;font-family:sans-serif;font-style:normal;font-weight:normal" x="620" y="226.25">
    <tspan x="620" y="226.25">IO-Slave</tspan>
  </text>
  <g>
    <rect style="fill: #ffffff" x="200" y="200" width="120" height="40"/>
    <rect style="fill: none; fill-opacity:0; stroke-width: 2; stroke: #000000" x="200" y="200" width="120" height="40"/>
  </g>
  <g>
    <rect style="fill: #ffffcf" x="700" y="200" width="120" height="40"/>
    <rect style="fill: none; fill-opacity:0; stroke-width: 2; stroke: #000000" x="700" y="200" width="120" height="40"/>
  </g>
  <line style="fill: none; fill-opacity:0; stroke-width: 8; stroke: #5bbfde" x1="40" y1="160" x2="820" y2="160"/>
  <line style="fill: none; fill-opacity:0; stroke-width: 2; stroke: #000000" x1="280" y1="160" x2="260" y2="200"/>
  <line style="fill: none; fill-opacity:0; stroke-width: 2; stroke: #000000" x1="780" y1="160" x2="760" y2="200"/>
  <line style="fill: none; fill-opacity:0; stroke-width: 2; stroke-dasharray: 4; stroke: #000000" x1="180" y1="120" x2="160" y2="160"/>
  <text font-size="18.0622" style="fill: #000000;text-anchor:middle;font-family:sans-serif;font-style:normal;font-weight:normal" x="760" y="226.25">
    <tspan x="760" y="226.25">Scope</tspan>
  </text>
  <g>
    <rect style="fill: #ffa4a4" x="0" y="200" width="160" height="40"/>
    <rect style="fill: none; fill-opacity:0; stroke-width: 2; stroke: #000000" x="0" y="200" width="160" height="40"/>
  </g>
  <text font-size="18.0622" style="fill: #000000;text-anchor:middle;font-family:sans-serif;font-style:normal;font-weight:normal" x="80" y="226.25">
    <tspan x="80" y="226.25">Flash Data</tspan>
  </text>
  <g>
    <rect style="fill: #ffffff" x="380" y="200" width="120" height="40"/>
    <rect style="fill: none; fill-opacity:0; stroke-width: 2; stroke: #000000" x="380" y="200" width="120" height="40"/>
  </g>
  <line style="fill: none; fill-opacity:0; stroke-width: 2; stroke: #000000" x1="460" y1="160" x2="440" y2="200"/>
  <g>
    <rect style="fill: #ffffff" x="260" y="280" width="120" height="40"/>
    <rect style="fill: none; fill-opacity:0; stroke-width: 2; stroke: #000000" x="260" y="280" width="120" height="40"/>
  </g>
  <line style="fill: none; fill-opacity:0; stroke-width: 2; stroke: #000000" x1="380" y1="160" x2="320" y2="280"/>
  <text font-size="18.0622" style="fill: #000000;text-anchor:middle;font-family:sans-serif;font-style:normal;font-weight:normal" x="440" y="226.25">
    <tspan x="440" y="226.25">GPIO</tspan>
  </text>
  <g>
    <rect style="fill: #ffffff" x="440" y="280" width="120" height="40"/>
    <rect style="fill: none; fill-opacity:0; stroke-width: 4; stroke: #5bbfde" x="440" y="280" width="120" height="40"/>
  </g>
  <text font-size="36.1244" style="fill: #000000;text-anchor:middle;font-family:sans-serif;font-style:normal;font-weight:normal" x="140" y="412.5">
    <tspan x="140" y="412.5">CMod S6-SoC</tspan>
  </text>
  <line style="fill: none; fill-opacity:0; stroke-width: 2; stroke: #000000" x1="640" y1="160" x2="620" y2="200"/>
  <line style="fill: none; fill-opacity:0; stroke-width: 2; stroke: #000000" x1="560" y1="160" x2="500" y2="280"/>
  <g>
    <rect style="fill: #ffffff" x="320" y="420" width="120" height="40"/>
    <rect style="fill: none; fill-opacity:0; stroke-width: 2; stroke: #000000" x="320" y="420" width="120" height="40"/>
  </g>
  <text font-size="18.0622" style="fill: #000000;text-anchor:middle;font-family:sans-serif;font-style:normal;font-weight:normal" x="380" y="446.25">
    <tspan x="380" y="446.25">Version</tspan>
  </text>
  <g>
    <rect style="fill: #ffffff" x="520" y="420" width="120" height="40"/>
    <rect style="fill: none; fill-opacity:0; stroke-width: 2; stroke: #000000" x="520" y="420" width="120" height="40"/>
  </g>
  <text font-size="18.0622" style="fill: #000000;text-anchor:middle;font-family:sans-serif;font-style:normal;font-weight:normal" x="580" y="446.25">
    <tspan x="580" y="446.25">Watchdog</tspan>
  </text>
  <g>
    <rect style="fill: #ffffff" x="400" y="500" width="120" height="40"/>
    <rect style="fill: none; fill-opacity:0; stroke-width: 2; stroke: #000000" x="400" y="500" width="120" height="40"/>
  </g>
  <line style="fill: none; fill-opacity:0; stroke-width: 2; stroke: #000000" x1="400" y1="380" x2="380" y2="420"/>
  <line style="fill: none; fill-opacity:0; stroke-width: 2; stroke: #000000" x1="600" y1="380" x2="580" y2="420"/>
  <line style="fill: none; fill-opacity:0; stroke-width: 2; stroke: #000000" x1="520" y1="380" x2="460" y2="500"/>
  <g>
    <rect style="fill: #ffffff" x="580" y="500" width="120" height="40"/>
    <rect style="fill: none; fill-opacity:0; stroke-width: 2; stroke: #000000" x="580" y="500" width="120" height="40"/>
  </g>
  <line style="fill: none; fill-opacity:0; stroke-width: 2; stroke: #000000" x1="700" y1="380" x2="640" y2="500"/>
  <text font-size="18.0622" style="fill: #000000;text-anchor:middle;font-family:sans-serif;font-style:normal;font-weight:normal" x="640" y="526.25">
    <tspan x="640" y="526.25">Interrupts</tspan>
  </text>
  <line style="fill: none; fill-opacity:0; stroke-width: 4; stroke: #5bbfde" x1="360" y1="380" x2="800" y2="380"/>
  <line style="fill: none; fill-opacity:0; stroke-width: 4; stroke: #5bbfde" x1="620" y1="240" x2="560" y2="380"/>
  <g>
    <line style="fill: none; fill-opacity:0; stroke-width: 2; stroke: #000000" x1="140" y1="0" x2="140" y2="70.2639"/>
    <polygon style="fill: #000000" points="140,77.7639 135,67.7639 140,70.2639 145,67.7639 "/>
    <polygon style="fill: none; fill-opacity:0; stroke-width: 2; stroke: #000000" points="140,77.7639 135,67.7639 140,70.2639 145,67.7639 "/>
  </g>
  <g>
    <line style="fill: none; fill-opacity:0; stroke-width: 2; stroke: #000000" x1="220" y1="80" x2="220" y2="9.73607"/>
    <polygon style="fill: #000000" points="220,2.23607 225,12.2361 220,9.73607 215,12.2361 "/>
    <polygon style="fill: none; fill-opacity:0; stroke-width: 2; stroke: #000000" points="220,2.23607 225,12.2361 220,9.73607 215,12.2361 "/>
  </g>
  <line style="fill: none; fill-opacity:0; stroke-width: 2; stroke: #000000" x1="100" y1="160" x2="80" y2="200"/>
  <text font-size="18.0622" style="fill: #000000;text-anchor:middle;font-family:sans-serif;font-style:normal;font-weight:normal" x="260" y="226.25">
    <tspan x="260" y="226.25">Block RAM</tspan>
  </text>
  <text font-size="18.0622" style="fill: #000000;text-anchor:middle;font-family:sans-serif;font-style:normal;font-weight:normal" x="320" y="306.25">
    <tspan x="320" y="306.25">UART</tspan>
  </text>
  <text font-size="18.0622" style="fill: #000000;text-anchor:middle;font-family:sans-serif;font-style:normal;font-weight:normal" x="500" y="306.25">
    <tspan x="500" y="306.25">PWM Audio</tspan>
  </text>
  <text font-size="18.0622" style="fill: #000000;text-anchor:middle;font-family:sans-serif;font-style:normal;font-weight:normal" x="460" y="526.25">
    <tspan x="460" y="526.25">Timer</tspan>
  </text>
  <g>
    <rect style="fill: #ffffff" x="700" y="420" width="120" height="40"/>
    <rect style="fill: none; fill-opacity:0; stroke-width: 4; stroke: #5bbfde" x="700" y="420" width="120" height="40"/>
  </g>
  <text font-size="18.0622" style="fill: #000000;text-anchor:middle;font-family:sans-serif;font-style:normal;font-weight:normal" x="760" y="446.25">
    <tspan x="760" y="446.25">Btns/LEDs</tspan>
  </text>
  <line style="fill: none; fill-opacity:0; stroke-width: 2; stroke: #000000" x1="780" y1="380" x2="760" y2="420"/>
  <g>
    <g>
      <rect style="fill: #ffffff" x="420" y="80" width="200" height="40" rx="40" ry="40"/>
      <rect style="fill: none; fill-opacity:0; stroke-width: 2; stroke-linejoin: round; stroke: #000000" x="420" y="80" width="200" height="40" rx="40" ry="40"/>
    </g>
    <text font-size="18.0622" style="fill: #000000;text-anchor:middle;font-family:sans-serif;font-style:normal;font-weight:normal" x="520" y="106.25">
      <tspan x="520" y="106.25">ZipCPU</tspan>
    </text>
  </g>
  <line style="fill: none; fill-opacity:0; stroke-width: 2; stroke-linejoin: round; stroke: #000000" x1="520" y1="120" x2="500" y2="160"/>
</svg>
