<?xml version="1.0" encoding="UTF-8" standalone="no"?>
<!DOCTYPE svg PUBLIC "-//W3C//DTD SVG 1.0//EN" "http://www.w3.org/TR/2001/PR-SVG-20010719/DTD/svg10.dtd">
<svg width="31cm" height="46cm" viewBox="38 -5 603 906" xmlns="http://www.w3.org/2000/svg" xmlns:xlink="http://www.w3.org/1999/xlink">
  <g>
    <rect style="fill: #c8dfe6" x="40" y="20" width="600" height="880" rx="80" ry="80"/>
    <rect style="fill: none; fill-opacity:0; stroke-width: 2; stroke-linejoin: round; stroke: #000000" x="40" y="20" width="600" height="880" rx="80" ry="80"/>
  </g>
  <g>
    <rect style="fill: #ffffcf" x="100" y="140" width="480" height="540" rx="40" ry="40"/>
    <rect style="fill: none; fill-opacity:0; stroke-width: 2; stroke-linejoin: round; stroke: #000000" x="100" y="140" width="480" height="540" rx="40" ry="40"/>
  </g>
  <g>
    <rect style="fill: #ffffff" x="140" y="60" width="160" height="44"/>
    <rect style="fill: none; fill-opacity:0; stroke-width: 2; stroke: #000000" x="140" y="60" width="160" height="44"/>
  </g>
  <text font-size="18.0622" style="fill: #000000;text-anchor:middle;font-family:sans-serif;font-style:normal;font-weight:normal" x="220" y="88.25">
    <tspan x="220" y="88.25">RX UART Lite</tspan>
  </text>
  <g>
    <rect style="fill: #ffffff" x="140" y="280" width="160" height="40"/>
    <rect style="fill: none; fill-opacity:0; stroke-width: 2; stroke: #000000" x="140" y="280" width="160" height="40"/>
  </g>
  <text font-size="18.0622" style="fill: #000000;text-anchor:middle;font-family:sans-serif;font-style:normal;font-weight:normal" x="220" y="306.25">
    <tspan x="220" y="306.25">Create Words</tspan>
  </text>
  <g>
    <rect style="fill: #ffffff" x="140" y="480" width="160" height="40"/>
    <rect style="fill: none; fill-opacity:0; stroke-width: 2; stroke-dasharray: 4; stroke: #000000" x="140" y="480" width="160" height="40"/>
  </g>
  <text font-size="18.0622" style="fill: #000000;text-anchor:middle;font-family:sans-serif;font-style:normal;font-weight:normal" x="220" y="506.25">
    <tspan x="220" y="506.25">FIFO</tspan>
  </text>
  <g>
    <rect style="fill: #ffffff" x="140" y="560" width="400" height="80"/>
    <rect style="fill: none; fill-opacity:0; stroke-width: 2; stroke: #000000" x="140" y="560" width="400" height="80"/>
  </g>
  <text font-size="18.0622" style="fill: #000000;text-anchor:middle;font-family:sans-serif;font-style:normal;font-weight:normal" x="340" y="606.25">
    <tspan x="340" y="606.25">Wishbone Bus Master</tspan>
  </text>
  <g>
    <rect style="fill: #ffffff" x="380" y="480" width="160" height="40"/>
    <rect style="fill: none; fill-opacity:0; stroke-width: 2; stroke-dasharray: 4; stroke: #000000" x="380" y="480" width="160" height="40"/>
  </g>
  <text font-size="18.0622" style="fill: #000000;text-anchor:middle;font-family:sans-serif;font-style:normal;font-weight:normal" x="460" y="506.25">
    <tspan x="460" y="506.25">FIFO</tspan>
  </text>
  <g>
    <rect style="fill: #ffffff" x="380" y="400" width="160" height="40"/>
    <rect style="fill: none; fill-opacity:0; stroke-width: 2; stroke: #000000" x="380" y="400" width="160" height="40"/>
  </g>
  <text font-size="18.0622" style="fill: #000000;text-anchor:middle;font-family:sans-serif;font-style:normal;font-weight:normal" x="460" y="426.25">
    <tspan x="460" y="426.25">Add Interrupts</tspan>
  </text>
  <g>
    <rect style="fill: #ffffff" x="380" y="240" width="160" height="40"/>
    <rect style="fill: none; fill-opacity:0; stroke-width: 2; stroke: #000000" x="380" y="240" width="160" height="40"/>
  </g>
  <text font-size="18.0622" style="fill: #000000;text-anchor:middle;font-family:sans-serif;font-style:normal;font-weight:normal" x="460" y="266.25">
    <tspan x="460" y="266.25">Words to bytes</tspan>
  </text>
  <g>
    <rect style="fill: #ffffff" x="380" y="60" width="160" height="44"/>
    <rect style="fill: none; fill-opacity:0; stroke-width: 2; stroke: #000000" x="380" y="60" width="160" height="44"/>
  </g>
  <text font-size="18.0622" style="fill: #000000;text-anchor:middle;font-family:sans-serif;font-style:normal;font-weight:normal" x="460" y="88.25">
    <tspan x="460" y="88.25">TX UART Lite</tspan>
  </text>
  <g>
    <line style="fill: none; fill-opacity:0; stroke-width: 4; stroke: #000000" x1="220" y1="520" x2="220" y2="548.028"/>
    <polygon style="fill: #000000" points="220,555.528 215,545.528 220,548.028 225,545.528 "/>
    <polygon style="fill: none; fill-opacity:0; stroke-width: 4; stroke: #000000" points="220,555.528 215,545.528 220,548.028 225,545.528 "/>
  </g>
  <g>
    <line style="fill: none; fill-opacity:0; stroke-width: 4; stroke: #000000" x1="220" y1="320" x2="220" y2="468.028"/>
    <polygon style="fill: #000000" points="220,475.528 215,465.528 220,468.028 225,465.528 "/>
    <polygon style="fill: none; fill-opacity:0; stroke-width: 4; stroke: #000000" points="220,475.528 215,465.528 220,468.028 225,465.528 "/>
  </g>
  <g>
    <line style="fill: none; fill-opacity:0; stroke-width: 4; stroke: #000000" x1="220" y1="104" x2="220" y2="168.028"/>
    <polygon style="fill: #000000" points="220,175.528 215,165.528 220,168.028 225,165.528 "/>
    <polygon style="fill: none; fill-opacity:0; stroke-width: 4; stroke: #000000" points="220,175.528 215,165.528 220,168.028 225,165.528 "/>
  </g>
  <g>
    <line style="fill: none; fill-opacity:0; stroke-width: 4; stroke: #000000" x1="460" y1="400" x2="460" y2="371.972"/>
    <polygon style="fill: #000000" points="460,364.472 465,374.472 460,371.972 455,374.472 "/>
    <polygon style="fill: none; fill-opacity:0; stroke-width: 4; stroke: #000000" points="460,364.472 465,374.472 460,371.972 455,374.472 "/>
  </g>
  <g>
    <line style="fill: none; fill-opacity:0; stroke-width: 4; stroke: #000000" x1="460" y1="480" x2="460" y2="451.972"/>
    <polygon style="fill: #000000" points="460,444.472 465,454.472 460,451.972 455,454.472 "/>
    <polygon style="fill: none; fill-opacity:0; stroke-width: 4; stroke: #000000" points="460,444.472 465,454.472 460,451.972 455,454.472 "/>
  </g>
  <g>
    <line style="fill: none; fill-opacity:0; stroke-width: 4; stroke: #000000" x1="460" y1="560" x2="460" y2="531.972"/>
    <polygon style="fill: #000000" points="460,524.472 465,534.472 460,531.972 455,534.472 "/>
    <polygon style="fill: none; fill-opacity:0; stroke-width: 4; stroke: #000000" points="460,524.472 465,534.472 460,531.972 455,534.472 "/>
  </g>
  <line style="fill: none; fill-opacity:0; stroke-width: 2; stroke: #000000" x1="100" y1="740" x2="580" y2="740"/>
  <g>
    <line style="fill: none; fill-opacity:0; stroke-width: 2; stroke: #000000" x1="340" y1="649.736" x2="340" y2="740"/>
    <polygon style="fill: #000000" points="340,642.236 345,652.236 340,649.736 335,652.236 "/>
    <polygon style="fill: none; fill-opacity:0; stroke-width: 2; stroke: #000000" points="340,642.236 345,652.236 340,649.736 335,652.236 "/>
  </g>
  <g>
    <line style="fill: none; fill-opacity:0; stroke-width: 2; stroke: #000000" x1="560" y1="740" x2="526.884" y2="773.116"/>
    <polygon style="fill: #000000" points="521.581,778.419 525.117,767.812 526.884,773.116 532.188,774.883 "/>
    <polygon style="fill: none; fill-opacity:0; stroke-width: 2; stroke: #000000" points="521.581,778.419 525.117,767.812 526.884,773.116 532.188,774.883 "/>
  </g>
  <g>
    <line style="fill: none; fill-opacity:0; stroke-width: 2; stroke: #000000" x1="200" y1="740" x2="166.884" y2="773.116"/>
    <polygon style="fill: #000000" points="161.581,778.419 165.117,767.812 166.884,773.116 172.188,774.883 "/>
    <polygon style="fill: none; fill-opacity:0; stroke-width: 2; stroke: #000000" points="161.581,778.419 165.117,767.812 166.884,773.116 172.188,774.883 "/>
  </g>
  <g>
    <line style="fill: none; fill-opacity:0; stroke-width: 2; stroke: #000000" x1="380" y1="740" x2="346.884" y2="773.116"/>
    <polygon style="fill: #000000" points="341.581,778.419 345.117,767.812 346.884,773.116 352.188,774.883 "/>
    <polygon style="fill: none; fill-opacity:0; stroke-width: 2; stroke: #000000" points="341.581,778.419 345.117,767.812 346.884,773.116 352.188,774.883 "/>
  </g>
  <g>
    <rect style="fill: #ffffff" x="380" y="320" width="160" height="40"/>
    <rect style="fill: none; fill-opacity:0; stroke-width: 2; stroke: #000000" x="380" y="320" width="160" height="40"/>
  </g>
  <text font-size="18.0622" style="fill: #000000;text-anchor:middle;font-family:sans-serif;font-style:normal;font-weight:normal" x="460" y="346.25">
    <tspan x="460" y="346.25">Add Idles</tspan>
  </text>
  <g>
    <rect style="fill: #ffffff" x="380" y="160" width="160" height="40"/>
    <rect style="fill: none; fill-opacity:0; stroke-width: 2; stroke: #000000" x="380" y="160" width="160" height="40"/>
  </g>
  <text font-size="18.0622" style="fill: #000000;text-anchor:middle;font-family:sans-serif;font-style:normal;font-weight:normal" x="460" y="186.25">
    <tspan x="460" y="186.25">Add Newlines</tspan>
  </text>
  <g>
    <line style="fill: none; fill-opacity:0; stroke-width: 4; stroke: #000000" x1="460" y1="320" x2="460" y2="291.972"/>
    <polygon style="fill: #000000" points="460,284.472 465,294.472 460,291.972 455,294.472 "/>
    <polygon style="fill: none; fill-opacity:0; stroke-width: 4; stroke: #000000" points="460,284.472 465,294.472 460,291.972 455,294.472 "/>
  </g>
  <g>
    <line style="fill: none; fill-opacity:0; stroke-width: 4; stroke: #000000" x1="460" y1="240" x2="460" y2="211.972"/>
    <polygon style="fill: #000000" points="460,204.472 465,214.472 460,211.972 455,214.472 "/>
    <polygon style="fill: none; fill-opacity:0; stroke-width: 4; stroke: #000000" points="460,204.472 465,214.472 460,211.972 455,214.472 "/>
  </g>
  <g>
    <line style="fill: none; fill-opacity:0; stroke-width: 4; stroke: #000000" x1="460" y1="160" x2="460" y2="115.972"/>
    <polygon style="fill: #000000" points="460,108.472 465,118.472 460,115.972 455,118.472 "/>
    <polygon style="fill: none; fill-opacity:0; stroke-width: 4; stroke: #000000" points="460,108.472 465,118.472 460,115.972 455,118.472 "/>
  </g>
  <g>
    <rect style="fill: #ffffff" x="140" y="180" width="160" height="60"/>
    <rect style="fill: none; fill-opacity:0; stroke-width: 2; stroke: #000000" x="140" y="180" width="160" height="60"/>
  </g>
  <text font-size="18.0622" style="fill: #000000;text-anchor:middle;font-family:sans-serif;font-style:normal;font-weight:normal" x="220" y="204.961">
    <tspan x="220" y="204.961">Decode Chars</tspan>
    <tspan x="220" y="227.539">Handle Reset</tspan>
  </text>
  <g>
    <line style="fill: none; fill-opacity:0; stroke-width: 4; stroke: #000000" x1="220" y1="240" x2="220" y2="268.028"/>
    <polygon style="fill: #000000" points="220,275.528 215,265.528 220,268.028 225,265.528 "/>
    <polygon style="fill: none; fill-opacity:0; stroke-width: 4; stroke: #000000" points="220,275.528 215,265.528 220,268.028 225,265.528 "/>
  </g>
  <g>
    <rect style="fill: #ffffff" x="80" y="780" width="160" height="60"/>
    <rect style="fill: none; fill-opacity:0; stroke-width: 2; stroke: #000000" x="80" y="780" width="160" height="60"/>
  </g>
  <text font-size="18.0622" style="fill: #000000;text-anchor:middle;font-family:sans-serif;font-style:normal;font-weight:normal" x="160" y="804.961">
    <tspan x="160" y="804.961">Ad-Hoc User</tspan>
    <tspan x="160" y="827.539">Registers</tspan>
  </text>
  <g>
    <rect style="fill: #ffffff" x="260" y="780" width="160" height="60"/>
    <rect style="fill: none; fill-opacity:0; stroke-width: 2; stroke: #000000" x="260" y="780" width="160" height="60"/>
  </g>
  <text font-size="18.0622" style="fill: #000000;text-anchor:middle;font-family:sans-serif;font-style:normal;font-weight:normal" x="340" y="816.25">
    <tspan x="340" y="816.25">Block RAM</tspan>
  </text>
  <g>
    <rect style="fill: #ffffff" x="440" y="780" width="160" height="60"/>
    <rect style="fill: none; fill-opacity:0; stroke-width: 2; stroke: #000000" x="440" y="780" width="160" height="60"/>
  </g>
  <text font-size="18.0622" style="fill: #000000;text-anchor:middle;font-family:sans-serif;font-style:normal;font-weight:normal" x="520" y="816.25">
    <tspan x="520" y="816.25">Wishbone Scope</tspan>
  </text>
  <g>
    <line style="fill: none; fill-opacity:0; stroke-width: 4; stroke: #000000" x1="220" y1="0" x2="220" y2="48.0279"/>
    <polygon style="fill: #000000" points="220,55.5279 215,45.5279 220,48.0279 225,45.5279 "/>
    <polygon style="fill: none; fill-opacity:0; stroke-width: 4; stroke: #000000" points="220,55.5279 215,45.5279 220,48.0279 225,45.5279 "/>
  </g>
  <g>
    <line style="fill: none; fill-opacity:0; stroke-width: 4; stroke: #000000" x1="460" y1="60" x2="460" y2="11.9721"/>
    <polygon style="fill: #000000" points="460,4.47214 465,14.4721 460,11.9721 455,14.4721 "/>
    <polygon style="fill: none; fill-opacity:0; stroke-width: 4; stroke: #000000" points="460,4.47214 465,14.4721 460,11.9721 455,14.4721 "/>
  </g>
</svg>
