<?xml version="1.0" encoding="UTF-8" standalone="no"?>
<!DOCTYPE svg PUBLIC "-//W3C//DTD SVG 1.0//EN" "http://www.w3.org/TR/2001/PR-SVG-20010719/DTD/svg10.dtd">
<svg width="25cm" height="11cm" viewBox="-1 -2 484 212" xmlns="http://www.w3.org/2000/svg" xmlns:xlink="http://www.w3.org/1999/xlink">
  <g>
    <line style="fill: none; fill-opacity:0; stroke-width: 2; stroke: #000000" x1="0" y1="80" x2="470.264" y2="80"/>
    <polygon style="fill: #000000" points="477.764,80 467.764,85 470.264,80 467.764,75 "/>
    <polygon style="fill: none; fill-opacity:0; stroke-width: 2; stroke: #000000" points="477.764,80 467.764,85 470.264,80 467.764,75 "/>
  </g>
  <g>
    <rect style="fill: #90ee90" x="60" y="0" width="320" height="80"/>
    <rect style="fill: none; fill-opacity:0; stroke-width: 2; stroke: #000000" x="60" y="0" width="320" height="80"/>
  </g>
  <text font-size="18.0619" style="fill: #000000;text-anchor:middle;font-family:sans-serif;font-style:normal;font-weight:normal" x="220" y="34.9611">
    <tspan x="220" y="34.9611">Data in scope memory</tspan>
    <tspan x="220" y="57.5389">when it stops</tspan>
  </text>
  <g>
    <line style="fill: none; fill-opacity:0; stroke-width: 2; stroke: #000000" x1="380" y1="89.7361" x2="380" y2="180"/>
    <polygon style="fill: #000000" points="380,82.2361 385,92.2361 380,89.7361 375,92.2361 "/>
    <polygon style="fill: none; fill-opacity:0; stroke-width: 2; stroke: #000000" points="380,82.2361 385,92.2361 380,89.7361 375,92.2361 "/>
  </g>
  <text font-size="18.0619" style="fill: #000000;text-anchor:middle;font-family:sans-serif;font-style:normal;font-weight:normal" x="380" y="206.25">
    <tspan x="380" y="206.25">Trigger</tspan>
  </text>
  <text font-size="18.0619" style="fill: #000000;text-anchor:middle;font-family:sans-serif;font-style:normal;font-weight:normal" x="440" y="106.25">
    <tspan x="440" y="106.25">Time</tspan>
  </text>
</svg>
