<?xml version="1.0" encoding="UTF-8" standalone="no"?>
<!DOCTYPE svg PUBLIC "-//W3C//DTD SVG 1.0//EN" "http://www.w3.org/TR/2001/PR-SVG-20010719/DTD/svg10.dtd">
<svg width="15cm" height="24cm" viewBox="-2 -2 283 463" xmlns="http://www.w3.org/2000/svg" xmlns:xlink="http://www.w3.org/1999/xlink">
  <g>
    <rect style="fill: #ff0000" x="0" y="0" width="280" height="460" rx="40" ry="40"/>
    <rect style="fill: none; fill-opacity:0; stroke-width: 2; stroke-linejoin: round; stroke: #000000" x="0" y="0" width="280" height="460" rx="40" ry="40"/>
  </g>
  <g>
    <rect style="fill: #ffffff" x="40" y="40" width="200" height="60"/>
    <rect style="fill: none; fill-opacity:0; stroke-width: 2; stroke: #000000" x="40" y="40" width="200" height="60"/>
  </g>
  <text font-size="27.0933" style="fill: #000000;text-anchor:middle;font-family:sans-serif;font-style:normal;font-weight:normal" x="140" y="79.375">
    <tspan x="140" y="79.375">Design</tspan>
  </text>
  <g>
    <rect style="fill: #ffffff" x="40" y="140" width="200" height="80"/>
    <rect style="fill: none; fill-opacity:0; stroke-width: 2; stroke: #000000" x="40" y="140" width="200" height="80"/>
  </g>
  <text font-size="27.0933" style="fill: #000000;text-anchor:middle;font-family:sans-serif;font-style:normal;font-weight:normal" x="140" y="172.442">
    <tspan x="140" y="172.442">Implement</tspan>
    <tspan x="140" y="206.308">on FPGA</tspan>
  </text>
  <g>
    <rect style="fill: #ffffff" x="40" y="260" width="200" height="60"/>
    <rect style="fill: none; fill-opacity:0; stroke-width: 2; stroke: #000000" x="40" y="260" width="200" height="60"/>
  </g>
  <text font-size="27.0933" style="fill: #000000;text-anchor:middle;font-family:sans-serif;font-style:normal;font-weight:normal" x="140" y="299.375">
    <tspan x="140" y="299.375">Test</tspan>
  </text>
  <g>
    <rect style="fill: #ffffff" x="40" y="360" width="200" height="60"/>
    <rect style="fill: none; fill-opacity:0; stroke-width: 2; stroke: #000000" x="40" y="360" width="200" height="60"/>
  </g>
  <text font-size="27.0933" style="fill: #000000;text-anchor:middle;font-family:sans-serif;font-style:normal;font-weight:normal" x="140" y="399.375">
    <tspan x="140" y="399.375">Huh?</tspan>
  </text>
  <g>
    <line style="fill: none; fill-opacity:0; stroke-width: 2; stroke: #000000" x1="140" y1="100" x2="140" y2="130.264"/>
    <polygon style="fill: #000000" points="140,137.764 135,127.764 140,130.264 145,127.764 "/>
    <polygon style="fill: none; fill-opacity:0; stroke-width: 2; stroke: #000000" points="140,137.764 135,127.764 140,130.264 145,127.764 "/>
  </g>
  <g>
    <line style="fill: none; fill-opacity:0; stroke-width: 2; stroke: #000000" x1="140" y1="220" x2="140" y2="250.264"/>
    <polygon style="fill: #000000" points="140,257.764 135,247.764 140,250.264 145,247.764 "/>
    <polygon style="fill: none; fill-opacity:0; stroke-width: 2; stroke: #000000" points="140,257.764 135,247.764 140,250.264 145,247.764 "/>
  </g>
  <g>
    <line style="fill: none; fill-opacity:0; stroke-width: 2; stroke: #000000" x1="140" y1="320" x2="140" y2="350.264"/>
    <polygon style="fill: #000000" points="140,357.764 135,347.764 140,350.264 145,347.764 "/>
    <polygon style="fill: none; fill-opacity:0; stroke-width: 2; stroke: #000000" points="140,357.764 135,347.764 140,350.264 145,347.764 "/>
  </g>
</svg>
