<?xml version="1.0" encoding="UTF-8" standalone="no"?>
<!DOCTYPE svg PUBLIC "-//W3C//DTD SVG 1.0//EN" "http://www.w3.org/TR/2001/PR-SVG-20010719/DTD/svg10.dtd">
<svg width="16cm" height="32cm" viewBox="18 -2 303 623" xmlns="http://www.w3.org/2000/svg" xmlns:xlink="http://www.w3.org/1999/xlink">
  <g>
    <g>
      <rect style="fill: #d8e5e5" x="20" y="0" width="300" height="280" rx="20" ry="20"/>
      <rect style="fill: none; fill-opacity:0; stroke-width: 2; stroke-linejoin: round; stroke: #000000" x="20" y="0" width="300" height="280" rx="20" ry="20"/>
    </g>
    <g>
      <rect style="fill: #90ee90" x="40" y="100" width="260" height="180"/>
      <rect style="fill: none; fill-opacity:0; stroke-width: 2; stroke: #000000" x="40" y="100" width="260" height="180"/>
    </g>
    <g>
      <rect style="fill: #ffff00" x="40" y="520" width="260" height="100" rx="20" ry="20"/>
      <rect style="fill: none; fill-opacity:0; stroke-width: 2; stroke-linejoin: round; stroke: #000000" x="40" y="520" width="260" height="100" rx="20" ry="20"/>
    </g>
    <text font-size="18.0619" style="fill: #000000;text-anchor:middle;font-family:sans-serif;font-style:normal;font-weight:normal" x="170" y="576.25">
      <tspan x="170" y="576.25">FPGA</tspan>
    </text>
    <g>
      <rect style="fill: #ffa4a4" x="40" y="420" width="260" height="80"/>
      <rect style="fill: none; fill-opacity:0; stroke-width: 2; stroke: #000000" x="40" y="420" width="260" height="80"/>
    </g>
    <text font-size="18.0619" style="fill: #000000;text-anchor:middle;font-family:sans-serif;font-style:normal;font-weight:normal" x="170" y="466.25">
      <tspan x="170" y="466.25">PC host</tspan>
    </text>
    <g>
      <rect style="fill: #ffffff" x="60" y="480" width="220" height="60"/>
      <rect style="fill: none; fill-opacity:0; stroke-width: 2; stroke: #000000" x="60" y="480" width="220" height="60"/>
    </g>
    <text font-size="18.0619" style="fill: #000000;text-anchor:middle;font-family:sans-serif;font-style:normal;font-weight:normal" x="170" y="516.25">
      <tspan x="170" y="516.25">DBGBUS interface</tspan>
    </text>
    <g>
      <rect style="fill: #ffffff" x="60" y="380" width="220" height="60"/>
      <rect style="fill: none; fill-opacity:0; stroke-width: 2; stroke: #000000" x="60" y="380" width="220" height="60"/>
    </g>
    <text font-size="18.0619" style="fill: #000000;text-anchor:middle;font-family:sans-serif;font-style:normal;font-weight:normal" x="170" y="404.961">
      <tspan x="170" y="404.961">Network TCP/IP</tspan>
      <tspan x="170" y="427.539">Interface</tspan>
    </text>
    <g>
      <line style="fill: none; fill-opacity:0; stroke-width: 2; stroke: #000000" x1="170" y1="309.736" x2="170" y2="370.264"/>
      <polygon style="fill: #000000" points="170,302.236 175,312.236 170,309.736 165,312.236 "/>
      <polygon style="fill: none; fill-opacity:0; stroke-width: 2; stroke: #000000" points="170,302.236 175,312.236 170,309.736 165,312.236 "/>
      <polygon style="fill: #000000" points="170,377.764 165,367.764 170,370.264 175,367.764 "/>
      <polygon style="fill: none; fill-opacity:0; stroke-width: 2; stroke: #000000" points="170,377.764 165,367.764 170,370.264 175,367.764 "/>
    </g>
    <g>
      <rect style="fill: #ffffff" x="60" y="240" width="220" height="60"/>
      <rect style="fill: none; fill-opacity:0; stroke-width: 2; stroke: #000000" x="60" y="240" width="220" height="60"/>
    </g>
    <text font-size="18.0619" style="fill: #000000;text-anchor:middle;font-family:sans-serif;font-style:normal;font-weight:normal" x="170" y="276.25">
      <tspan x="170" y="276.25">LLCOMMS Interface</tspan>
    </text>
    <g>
      <rect style="fill: #ffffff" x="60" y="160" width="220" height="60"/>
      <rect style="fill: none; fill-opacity:0; stroke-width: 2; stroke: #000000" x="60" y="160" width="220" height="60"/>
    </g>
    <text font-size="18.0619" style="fill: #000000;text-anchor:middle;font-family:sans-serif;font-style:normal;font-weight:normal" x="170" y="196.25">
      <tspan x="170" y="196.25">HEXBUS interface</tspan>
    </text>
    <text font-size="18.0619" style="fill: #000000;text-anchor:middle;font-family:sans-serif;font-style:normal;font-weight:normal" x="160" y="146.25">
      <tspan x="160" y="146.25">Generic DEVBUS interface</tspan>
    </text>
    <g>
      <rect style="fill: #ffffff" x="40" y="40" width="260" height="60"/>
      <rect style="fill: none; fill-opacity:0; stroke-width: 2; stroke: #000000" x="40" y="40" width="260" height="60"/>
    </g>
    <text font-size="18.0619" style="fill: #000000;text-anchor:middle;font-family:sans-serif;font-style:normal;font-weight:normal" x="170" y="76.25">
      <tspan x="170" y="76.25">User software (ex wbregs)</tspan>
    </text>
    <text font-size="18.0619" style="fill: #000000;text-anchor:middle;font-family:sans-serif;font-style:normal;font-weight:normal" x="100" y="26.25">
      <tspan x="100" y="26.25">PC Controller</tspan>
    </text>
  </g>
</svg>
