<?xml version="1.0" encoding="UTF-8"?>
<svg xmlns="http://www.w3.org/2000/svg" xmlns:xlink="http://www.w3.org/1999/xlink" width="202pt" height="443pt" viewBox="0 0 202 443" version="1.1">
<g id="surface522407">
<rect x="0" y="0" width="202" height="443" style="fill:rgb(100%,100%,100%);fill-opacity:1;stroke:none;"/>
<path style="fill-rule:evenodd;fill:rgb(100%,100%,100%);fill-opacity:1;stroke-width:0.1;stroke-linecap:butt;stroke-linejoin:miter;stroke:rgb(0%,0%,0%);stroke-opacity:1;stroke-miterlimit:10;" d="M 3 2 L 13 2 L 13 5 L 3 5 Z M 3 2 " transform="matrix(20,0,0,20,-59,1)"/>
<path style="fill:none;stroke-width:0.1;stroke-linecap:butt;stroke-linejoin:miter;stroke:rgb(0%,0%,0%);stroke-opacity:1;stroke-miterlimit:10;" d="M 8 5 L 8 6.513281 " transform="matrix(20,0,0,20,-59,1)"/>
<path style="fill-rule:evenodd;fill:rgb(0%,0%,0%);fill-opacity:1;stroke-width:0.1;stroke-linecap:butt;stroke-linejoin:miter;stroke:rgb(0%,0%,0%);stroke-opacity:1;stroke-miterlimit:10;" d="M 8 6.888281 L 7.75 6.388281 L 8 6.513281 L 8.25 6.388281 Z M 8 6.888281 " transform="matrix(20,0,0,20,-59,1)"/>
<path style="fill-rule:evenodd;fill:rgb(100%,100%,100%);fill-opacity:1;stroke-width:0.1;stroke-linecap:butt;stroke-linejoin:miter;stroke:rgb(0%,0%,0%);stroke-opacity:1;stroke-miterlimit:10;" d="M 3 7 L 13 7 L 13 10 L 3 10 Z M 3 7 " transform="matrix(20,0,0,20,-59,1)"/>
<path style="fill:none;stroke-width:0.1;stroke-linecap:butt;stroke-linejoin:miter;stroke:rgb(0%,0%,0%);stroke-opacity:1;stroke-miterlimit:10;" d="M 8 10 L 8 11.513281 " transform="matrix(20,0,0,20,-59,1)"/>
<path style="fill-rule:evenodd;fill:rgb(0%,0%,0%);fill-opacity:1;stroke-width:0.1;stroke-linecap:butt;stroke-linejoin:miter;stroke:rgb(0%,0%,0%);stroke-opacity:1;stroke-miterlimit:10;" d="M 8 11.888281 L 7.75 11.388281 L 8 11.513281 L 8.25 11.388281 Z M 8 11.888281 " transform="matrix(20,0,0,20,-59,1)"/>
<path style="fill-rule:evenodd;fill:rgb(100%,100%,100%);fill-opacity:1;stroke-width:0.1;stroke-linecap:butt;stroke-linejoin:miter;stroke:rgb(0%,0%,0%);stroke-opacity:1;stroke-miterlimit:10;" d="M 3 12 L 13 12 L 13 15 L 3 15 Z M 3 12 " transform="matrix(20,0,0,20,-59,1)"/>
<path style="fill:none;stroke-width:0.1;stroke-linecap:butt;stroke-linejoin:miter;stroke:rgb(0%,0%,0%);stroke-opacity:1;stroke-miterlimit:10;" d="M 8 15 L 8 16.513281 " transform="matrix(20,0,0,20,-59,1)"/>
<path style="fill-rule:evenodd;fill:rgb(0%,0%,0%);fill-opacity:1;stroke-width:0.1;stroke-linecap:butt;stroke-linejoin:miter;stroke:rgb(0%,0%,0%);stroke-opacity:1;stroke-miterlimit:10;" d="M 8 16.888281 L 7.75 16.388281 L 8 16.513281 L 8.25 16.388281 Z M 8 16.888281 " transform="matrix(20,0,0,20,-59,1)"/>
<path style="fill-rule:evenodd;fill:rgb(100%,100%,100%);fill-opacity:1;stroke-width:0.1;stroke-linecap:butt;stroke-linejoin:miter;stroke:rgb(0%,0%,0%);stroke-opacity:1;stroke-miterlimit:10;" d="M 3 17 L 13 17 L 13 20 L 3 20 Z M 3 17 " transform="matrix(20,0,0,20,-59,1)"/>
<path style="fill:none;stroke-width:0.1;stroke-linecap:butt;stroke-linejoin:miter;stroke:rgb(0%,0%,0%);stroke-opacity:1;stroke-miterlimit:10;" d="M 8 20 L 8 21.513281 " transform="matrix(20,0,0,20,-59,1)"/>
<path style="fill-rule:evenodd;fill:rgb(0%,0%,0%);fill-opacity:1;stroke-width:0.1;stroke-linecap:butt;stroke-linejoin:miter;stroke:rgb(0%,0%,0%);stroke-opacity:1;stroke-miterlimit:10;" d="M 8 21.888281 L 7.75 21.388281 L 8 21.513281 L 8.25 21.388281 Z M 8 21.888281 " transform="matrix(20,0,0,20,-59,1)"/>
<path style="fill:none;stroke-width:0.1;stroke-linecap:butt;stroke-linejoin:miter;stroke:rgb(0%,0%,0%);stroke-opacity:1;stroke-miterlimit:10;" d="M 8 0 L 8 1.513281 " transform="matrix(20,0,0,20,-59,1)"/>
<path style="fill-rule:evenodd;fill:rgb(0%,0%,0%);fill-opacity:1;stroke-width:0.1;stroke-linecap:butt;stroke-linejoin:miter;stroke:rgb(0%,0%,0%);stroke-opacity:1;stroke-miterlimit:10;" d="M 8 1.888281 L 7.75 1.388281 L 8 1.513281 L 8.25 1.388281 Z M 8 1.888281 " transform="matrix(20,0,0,20,-59,1)"/>
</g>
</svg>
