<?xml version="1.0" encoding="UTF-8" standalone="no"?>
<!DOCTYPE svg PUBLIC "-//W3C//DTD SVG 1.0//EN" "http://www.w3.org/TR/2001/PR-SVG-20010719/DTD/svg10.dtd">
<svg width="41cm" height="8cm" viewBox="40 39 808 149" xmlns="http://www.w3.org/2000/svg" xmlns:xlink="http://www.w3.org/1999/xlink">
  <g>
    <rect style="fill: #ffffff" x="200" y="80" width="80" height="40"/>
    <rect style="fill: none; fill-opacity:0; stroke-width: 2; stroke: #000000" x="200" y="80" width="80" height="40"/>
  </g>
  <g>
    <rect style="fill: #ffffff" x="280" y="80" width="80" height="40"/>
    <rect style="fill: none; fill-opacity:0; stroke-width: 2; stroke: #000000" x="280" y="80" width="80" height="40"/>
  </g>
  <g>
    <rect style="fill: #ffffff" x="360" y="80" width="80" height="40"/>
    <rect style="fill: none; fill-opacity:0; stroke-width: 2; stroke: #000000" x="360" y="80" width="80" height="40"/>
  </g>
  <g>
    <rect style="fill: #ffffff" x="440" y="80" width="80" height="40"/>
    <rect style="fill: none; fill-opacity:0; stroke-width: 2; stroke: #000000" x="440" y="80" width="80" height="40"/>
  </g>
  <g>
    <rect style="fill: #ffffff" x="520" y="80" width="80" height="40"/>
    <rect style="fill: none; fill-opacity:0; stroke-width: 2; stroke: #000000" x="520" y="80" width="80" height="40"/>
  </g>
  <g>
    <rect style="fill: #ffffff" x="600" y="80" width="80" height="40"/>
    <rect style="fill: none; fill-opacity:0; stroke-width: 2; stroke: #000000" x="600" y="80" width="80" height="40"/>
  </g>
  <g>
    <rect style="fill: #ffffff" x="680" y="80" width="80" height="40"/>
    <rect style="fill: none; fill-opacity:0; stroke-width: 2; stroke: #000000" x="680" y="80" width="80" height="40"/>
  </g>
  <g>
    <rect style="fill: #ffffff" x="760" y="80" width="80" height="40"/>
    <rect style="fill: none; fill-opacity:0; stroke-width: 2; stroke: #000000" x="760" y="80" width="80" height="40"/>
  </g>
  <g>
    <line style="fill: none; fill-opacity:0; stroke-width: 2; stroke: #000000" x1="280" y1="40" x2="280" y2="70.2639"/>
    <polygon style="fill: #000000" points="280,77.7639 275,67.7639 280,70.2639 285,67.7639 "/>
    <polygon style="fill: none; fill-opacity:0; stroke-width: 2; stroke: #000000" points="280,77.7639 275,67.7639 280,70.2639 285,67.7639 "/>
  </g>
  <g>
    <line style="fill: none; fill-opacity:0; stroke-width: 2; stroke: #000000" x1="360" y1="40" x2="360" y2="70.2639"/>
    <polygon style="fill: #000000" points="360,77.7639 355,67.7639 360,70.2639 365,67.7639 "/>
    <polygon style="fill: none; fill-opacity:0; stroke-width: 2; stroke: #000000" points="360,77.7639 355,67.7639 360,70.2639 365,67.7639 "/>
  </g>
  <g>
    <line style="fill: none; fill-opacity:0; stroke-width: 2; stroke: #000000" x1="440" y1="40" x2="440" y2="70.2639"/>
    <polygon style="fill: #000000" points="440,77.7639 435,67.7639 440,70.2639 445,67.7639 "/>
    <polygon style="fill: none; fill-opacity:0; stroke-width: 2; stroke: #000000" points="440,77.7639 435,67.7639 440,70.2639 445,67.7639 "/>
  </g>
  <g>
    <line style="fill: none; fill-opacity:0; stroke-width: 2; stroke: #000000" x1="520" y1="40" x2="520" y2="70.2639"/>
    <polygon style="fill: #000000" points="520,77.7639 515,67.7639 520,70.2639 525,67.7639 "/>
    <polygon style="fill: none; fill-opacity:0; stroke-width: 2; stroke: #000000" points="520,77.7639 515,67.7639 520,70.2639 525,67.7639 "/>
  </g>
  <g>
    <line style="fill: none; fill-opacity:0; stroke-width: 2; stroke: #000000" x1="600" y1="40" x2="600" y2="70.2639"/>
    <polygon style="fill: #000000" points="600,77.7639 595,67.7639 600,70.2639 605,67.7639 "/>
    <polygon style="fill: none; fill-opacity:0; stroke-width: 2; stroke: #000000" points="600,77.7639 595,67.7639 600,70.2639 605,67.7639 "/>
  </g>
  <g>
    <line style="fill: none; fill-opacity:0; stroke-width: 2; stroke: #000000" x1="680" y1="40" x2="680" y2="70.2639"/>
    <polygon style="fill: #000000" points="680,77.7639 675,67.7639 680,70.2639 685,67.7639 "/>
    <polygon style="fill: none; fill-opacity:0; stroke-width: 2; stroke: #000000" points="680,77.7639 675,67.7639 680,70.2639 685,67.7639 "/>
  </g>
  <g>
    <line style="fill: none; fill-opacity:0; stroke-width: 2; stroke: #000000" x1="760" y1="40" x2="760" y2="70.2639"/>
    <polygon style="fill: #000000" points="760,77.7639 755,67.7639 760,70.2639 765,67.7639 "/>
    <polygon style="fill: none; fill-opacity:0; stroke-width: 2; stroke: #000000" points="760,77.7639 755,67.7639 760,70.2639 765,67.7639 "/>
  </g>
  <g>
    <line style="fill: none; fill-opacity:0; stroke-width: 2; stroke: #000000" x1="840" y1="40" x2="840" y2="70.2639"/>
    <polygon style="fill: #000000" points="840,77.7639 835,67.7639 840,70.2639 845,67.7639 "/>
    <polygon style="fill: none; fill-opacity:0; stroke-width: 2; stroke: #000000" points="840,77.7639 835,67.7639 840,70.2639 845,67.7639 "/>
  </g>
  <text font-size="18.0619" style="fill: #000000;text-anchor:start;font-family:sans-serif;font-style:normal;font-weight:normal" x="40" y="60">
    <tspan x="40" y="60">Input sample clock</tspan>
  </text>
  <text font-size="18.0619" style="fill: #000000;text-anchor:start;font-family:sans-serif;font-style:normal;font-weight:normal" x="40" y="100">
    <tspan x="40" y="100">Input samples</tspan>
  </text>
  <g>
    <line style="fill: none; fill-opacity:0; stroke-width: 2; stroke: #000000" x1="300" y1="120" x2="300" y2="150.264"/>
    <polygon style="fill: #000000" points="300,157.764 295,147.764 300,150.264 305,147.764 "/>
    <polygon style="fill: none; fill-opacity:0; stroke-width: 2; stroke: #000000" points="300,157.764 295,147.764 300,150.264 305,147.764 "/>
  </g>
  <g>
    <line style="fill: none; fill-opacity:0; stroke-width: 2; stroke: #000000" x1="360" y1="120" x2="360" y2="150.264"/>
    <polygon style="fill: #000000" points="360,157.764 355,147.764 360,150.264 365,147.764 "/>
    <polygon style="fill: none; fill-opacity:0; stroke-width: 2; stroke: #000000" points="360,157.764 355,147.764 360,150.264 365,147.764 "/>
  </g>
  <g>
    <line style="fill: none; fill-opacity:0; stroke-width: 2; stroke: #000000" x1="420" y1="120" x2="420" y2="150.264"/>
    <polygon style="fill: #000000" points="420,157.764 415,147.764 420,150.264 425,147.764 "/>
    <polygon style="fill: none; fill-opacity:0; stroke-width: 2; stroke: #000000" points="420,157.764 415,147.764 420,150.264 425,147.764 "/>
  </g>
  <g>
    <line style="fill: none; fill-opacity:0; stroke-width: 2; stroke: #000000" x1="480" y1="120" x2="480" y2="150.264"/>
    <polygon style="fill: #000000" points="480,157.764 475,147.764 480,150.264 485,147.764 "/>
    <polygon style="fill: none; fill-opacity:0; stroke-width: 2; stroke: #000000" points="480,157.764 475,147.764 480,150.264 485,147.764 "/>
  </g>
  <g>
    <line style="fill: none; fill-opacity:0; stroke-width: 2; stroke: #000000" x1="540" y1="120" x2="540" y2="150.264"/>
    <polygon style="fill: #000000" points="540,157.764 535,147.764 540,150.264 545,147.764 "/>
    <polygon style="fill: none; fill-opacity:0; stroke-width: 2; stroke: #000000" points="540,157.764 535,147.764 540,150.264 545,147.764 "/>
  </g>
  <g>
    <line style="fill: none; fill-opacity:0; stroke-width: 2; stroke: #000000" x1="600" y1="120" x2="600" y2="150.264"/>
    <polygon style="fill: #000000" points="600,157.764 595,147.764 600,150.264 605,147.764 "/>
    <polygon style="fill: none; fill-opacity:0; stroke-width: 2; stroke: #000000" points="600,157.764 595,147.764 600,150.264 605,147.764 "/>
  </g>
  <g>
    <line style="fill: none; fill-opacity:0; stroke-width: 2; stroke: #000000" x1="660" y1="120" x2="660" y2="150.264"/>
    <polygon style="fill: #000000" points="660,157.764 655,147.764 660,150.264 665,147.764 "/>
    <polygon style="fill: none; fill-opacity:0; stroke-width: 2; stroke: #000000" points="660,157.764 655,147.764 660,150.264 665,147.764 "/>
  </g>
  <g>
    <line style="fill: none; fill-opacity:0; stroke-width: 2; stroke: #000000" x1="720" y1="120" x2="720" y2="150.264"/>
    <polygon style="fill: #000000" points="720,157.764 715,147.764 720,150.264 725,147.764 "/>
    <polygon style="fill: none; fill-opacity:0; stroke-width: 2; stroke: #000000" points="720,157.764 715,147.764 720,150.264 725,147.764 "/>
  </g>
  <g>
    <line style="fill: none; fill-opacity:0; stroke-width: 2; stroke: #000000" x1="780" y1="120" x2="780" y2="150.264"/>
    <polygon style="fill: #000000" points="780,157.764 775,147.764 780,150.264 785,147.764 "/>
    <polygon style="fill: none; fill-opacity:0; stroke-width: 2; stroke: #000000" points="780,157.764 775,147.764 780,150.264 785,147.764 "/>
  </g>
  <g>
    <line style="fill: none; fill-opacity:0; stroke-width: 2; stroke: #000000" x1="840" y1="120" x2="840" y2="150.264"/>
    <polygon style="fill: #000000" points="840,157.764 835,147.764 840,150.264 845,147.764 "/>
    <polygon style="fill: none; fill-opacity:0; stroke-width: 2; stroke: #000000" points="840,157.764 835,147.764 840,150.264 845,147.764 "/>
  </g>
  <text font-size="18.0619" style="fill: #000000;text-anchor:start;font-family:sans-serif;font-style:normal;font-weight:normal" x="40" y="160">
    <tspan x="40" y="160">Output sample clock</tspan>
    <tspan x="40" y="182.578">  V/Ts = 3/4</tspan>
  </text>
</svg>
