<?xml version="1.0" encoding="UTF-8" standalone="no"?>
<!DOCTYPE svg PUBLIC "-//W3C//DTD SVG 1.0//EN" "http://www.w3.org/TR/2001/PR-SVG-20010719/DTD/svg10.dtd">
<svg width="47cm" height="20cm" viewBox="18 18 923 383" xmlns="http://www.w3.org/2000/svg" xmlns:xlink="http://www.w3.org/1999/xlink">
  <g>
    <rect style="fill: #ffa4a4" x="20" y="180" width="320" height="180"/>
    <rect style="fill: none; fill-opacity:0; stroke-width: 2; stroke: #ffa4a4" x="20" y="180" width="320" height="180"/>
  </g>
  <g>
    <rect style="fill: #90ee90" x="20" y="20" width="920" height="100" rx="8" ry="8"/>
    <rect style="fill: none; fill-opacity:0; stroke-width: 2; stroke-linejoin: round; stroke: #000000" x="20" y="20" width="920" height="100" rx="8" ry="8"/>
  </g>
  <g>
    <rect style="fill: #add8e6" x="20" y="180" width="320" height="220" rx="10" ry="10"/>
    <rect style="fill: none; fill-opacity:0; stroke-width: 2; stroke-linejoin: round; stroke: #000000" x="20" y="180" width="320" height="220" rx="10" ry="10"/>
  </g>
  <g>
    <rect style="fill: #c8dfe6" x="40" y="240" width="280" height="140" rx="4" ry="4"/>
    <rect style="fill: none; fill-opacity:0; stroke-width: 2; stroke-linejoin: round; stroke: #000000" x="40" y="240" width="280" height="140" rx="4" ry="4"/>
  </g>
  <text font-size="27.0933" style="fill: #000000;text-anchor:middle;font-family:sans-serif;font-style:normal;font-weight:normal" x="180" y="229.375">
    <tspan x="180" y="229.375">Verilator</tspan>
  </text>
  <text font-size="27.0933" style="fill: #000000;text-anchor:middle;font-family:sans-serif;font-style:normal;font-weight:normal" x="140" y="289.375">
    <tspan x="140" y="289.375">FPGA Design</tspan>
  </text>
  <g>
    <rect style="fill: #000099" x="680" y="100" width="260" height="80"/>
    <rect style="fill: none; fill-opacity:0; stroke-width: 2; stroke: #000000" x="680" y="100" width="260" height="80"/>
  </g>
  <text font-size="27.0933" style="fill: #ffffff;text-anchor:middle;font-family:sans-serif;font-style:normal;font-weight:normal" x="810" y="132.442">
    <tspan x="810" y="132.442">ncurses</tspan>
    <tspan x="810" y="166.308">Library</tspan>
  </text>
  <text font-size="27.0933" style="fill: #000000;text-anchor:middle;font-family:sans-serif;font-style:normal;font-weight:normal" x="480" y="79.375">
    <tspan x="480" y="79.375">Debugger Display</tspan>
  </text>
  <g>
    <rect style="fill: #ffa4a4" x="20" y="100" width="660" height="80"/>
    <rect style="fill: none; fill-opacity:0; stroke-width: 2; stroke: #000000" x="20" y="100" width="660" height="80"/>
  </g>
  <text font-size="27.0933" style="fill: #000000;text-anchor:middle;font-family:sans-serif;font-style:normal;font-weight:normal" x="350" y="149.375">
    <tspan x="350" y="149.375">Traditional Verilator Test-bench/Harness</tspan>
  </text>
  <g>
    <g>
      <rect style="fill: #ffff00" x="80" y="300" width="220" height="60" rx="8" ry="8"/>
      <rect style="fill: none; fill-opacity:0; stroke-width: 2; stroke-linejoin: round; stroke: #000000" x="80" y="300" width="220" height="60" rx="8" ry="8"/>
    </g>
    <text font-size="27.0933" style="fill: #000000;text-anchor:middle;font-family:sans-serif;font-style:normal;font-weight:normal" x="190" y="339.375">
      <tspan x="190" y="339.375">Soft-Core CPU</tspan>
    </text>
  </g>
  <g>
    <g>
      <rect style="fill: #ffffcf" x="440" y="280" width="260" height="80" rx="8" ry="8"/>
      <rect style="fill: none; fill-opacity:0; stroke-width: 2; stroke-linejoin: round; stroke: #000000" x="440" y="280" width="260" height="80" rx="8" ry="8"/>
    </g>
    <g>
      <rect style="fill: #ffffcf" x="420" y="260" width="260" height="80" rx="8" ry="8"/>
      <rect style="fill: none; fill-opacity:0; stroke-width: 2; stroke-linejoin: round; stroke: #000000" x="420" y="260" width="260" height="80" rx="8" ry="8"/>
    </g>
    <g>
      <rect style="fill: #ffffcf" x="400" y="240" width="260" height="80" rx="8" ry="8"/>
      <rect style="fill: none; fill-opacity:0; stroke-width: 2; stroke-linejoin: round; stroke: #000000" x="400" y="240" width="260" height="80" rx="8" ry="8"/>
    </g>
    <g>
      <rect style="fill: #ffffcf" x="380" y="220" width="260" height="80" rx="8" ry="8"/>
      <rect style="fill: none; fill-opacity:0; stroke-width: 2; stroke-linejoin: round; stroke: #000000" x="380" y="220" width="260" height="80" rx="8" ry="8"/>
    </g>
    <g>
      <rect style="fill: #ffffcf" x="360" y="200" width="260" height="80" rx="8" ry="8"/>
      <rect style="fill: none; fill-opacity:0; stroke-width: 2; stroke-linejoin: round; stroke: #000000" x="360" y="200" width="260" height="80" rx="8" ry="8"/>
    </g>
    <text font-size="27.0933" style="fill: #000000;text-anchor:middle;font-family:sans-serif;font-style:normal;font-weight:normal" x="490" y="232.442">
      <tspan x="490" y="232.442">Peripheral</tspan>
      <tspan x="490" y="266.308">Simulator(s)</tspan>
    </text>
  </g>
</svg>
