<?xml version="1.0" encoding="UTF-8" standalone="no"?>
<!DOCTYPE svg PUBLIC "-//W3C//DTD SVG 1.0//EN" "http://www.w3.org/TR/2001/PR-SVG-20010719/DTD/svg10.dtd">
<svg width="50cm" height="19cm" viewBox="78 58 990 363" xmlns="http://www.w3.org/2000/svg" xmlns:xlink="http://www.w3.org/1999/xlink">
  <g>
    <ellipse style="fill: #ffffff" cx="213.5" cy="262.5" rx="133.5" ry="62.5"/>
    <ellipse style="fill: none; fill-opacity:0; stroke-width: 2; stroke: #000000" cx="213.5" cy="262.5" rx="133.5" ry="62.5"/>
  </g>
  <g>
    <rect style="fill: #ffffff" x="80" y="60" width="200" height="60" rx="40" ry="40"/>
    <rect style="fill: none; fill-opacity:0; stroke-width: 2; stroke-linejoin: round; stroke: #000000" x="80" y="60" width="200" height="60" rx="40" ry="40"/>
  </g>
  <text font-size="27.0933" style="fill: #000000;text-anchor:middle;font-family:sans-serif;font-style:normal;font-weight:normal" x="180" y="99.375">
    <tspan x="180" y="99.375">Reset</tspan>
  </text>
  <text font-size="27.0933" style="fill: #000000;text-anchor:middle;font-family:sans-serif;font-style:normal;font-weight:normal" x="213.5" y="254.942">
    <tspan x="213.5" y="254.942">Idle</tspan>
    <tspan x="213.5" y="288.808">CYC=STB=0</tspan>
  </text>
  <g>
    <ellipse style="fill: #ffffff" cx="573.5" cy="262.5" rx="133.5" ry="62.5"/>
    <ellipse style="fill: none; fill-opacity:0; stroke-width: 2; stroke-linejoin: round; stroke: #000000" cx="573.5" cy="262.5" rx="133.5" ry="62.5"/>
  </g>
  <g>
    <path style="fill: none; fill-opacity:0; stroke-width: 2; stroke-linejoin: round; stroke: #000000" d="M 472.332,211.346 A 114.8,114.8 0 0 0 307.898,218.306"/>
    <polygon style="fill: #000000" points="477.612,216.639 467.221,212.514 472.615,211.046 474.677,205.85 "/>
    <polygon style="fill: none; fill-opacity:0; stroke-width: 2; stroke: #000000" points="477.612,216.639 467.221,212.514 472.615,211.046 474.677,205.85 "/>
  </g>
  <text font-size="27.0933" style="fill: #000000;text-anchor:middle;font-family:sans-serif;font-style:normal;font-weight:normal" x="573.5" y="254.942">
    <tspan x="573.5" y="254.942">Bus Request</tspan>
    <tspan x="573.5" y="288.808">CYC=STB=1</tspan>
  </text>
  <g>
    <ellipse style="fill: #ffffff" cx="933.5" cy="262.5" rx="133.5" ry="62.5"/>
    <ellipse style="fill: none; fill-opacity:0; stroke-width: 2; stroke: #000000" cx="933.5" cy="262.5" rx="133.5" ry="62.5"/>
  </g>
  <g>
    <path style="fill: none; fill-opacity:0; stroke-width: 2; stroke: #000000" d="M 832.332,211.346 A 114.8,114.8 0 0 0 667.898,218.306"/>
    <polygon style="fill: #000000" points="837.612,216.639 827.221,212.514 832.615,211.046 834.677,205.85 "/>
    <polygon style="fill: none; fill-opacity:0; stroke-width: 2; stroke: #000000" points="837.612,216.639 827.221,212.514 832.615,211.046 834.677,205.85 "/>
  </g>
  <text font-size="27.0933" style="fill: #000000;text-anchor:middle;font-family:sans-serif;font-style:normal;font-weight:normal" x="933.5" y="254.942">
    <tspan x="933.5" y="254.942">Bus Wait</tspan>
    <tspan x="933.5" y="288.808">CYC=1, STB=0</tspan>
  </text>
  <g>
    <path style="fill: none; fill-opacity:0; stroke-width: 2; stroke: #000000" d="M 315.563,312.694 A 424.68,424.68 0 0 0 839.102,306.694"/>
    <polygon style="fill: #000000" points="309.643,308.092 320.573,310.445 315.495,312.783 314.319,318.248 "/>
    <polygon style="fill: none; fill-opacity:0; stroke-width: 2; stroke: #000000" points="309.643,308.092 320.573,310.445 315.495,312.783 314.319,318.248 "/>
  </g>
  <text font-size="18.0622" style="fill: #000000;text-anchor:middle;font-family:sans-serif;font-style:normal;font-weight:normal" x="380" y="166.25">
    <tspan x="380" y="166.25">On request</tspan>
  </text>
  <text font-size="18.0622" style="fill: #000000;text-anchor:middle;font-family:sans-serif;font-style:normal;font-weight:normal" x="760" y="134.961">
    <tspan x="760" y="134.961">(o_stb_stb)&amp;&amp;(!i_wb_stall)</tspan>
    <tspan x="760" y="157.539">for the last request</tspan>
  </text>
  <text font-size="18.0622" style="fill: #000000;text-anchor:middle;font-family:sans-serif;font-style:normal;font-weight:normal" x="340" y="394.961">
    <tspan x="340" y="394.961">(i_wb_ack)</tspan>
    <tspan x="340" y="417.539">When the last ack has been received</tspan>
  </text>
  <g>
    <line style="fill: none; fill-opacity:0; stroke-width: 2; stroke: #000000" x1="180" y1="120" x2="209.739" y2="191.02"/>
    <polygon style="fill: #000000" points="212.636,197.937 204.162,190.645 209.739,191.02 213.386,186.782 "/>
    <polygon style="fill: none; fill-opacity:0; stroke-width: 2; stroke: #000000" points="212.636,197.937 204.162,190.645 209.739,191.02 213.386,186.782 "/>
  </g>
  <g>
    <path style="fill: none; fill-opacity:0; stroke-width: 2; stroke: #000000" d="M 315.422,312.863 A 222.97,222.97 0 0 0 573.5,325"/>
    <polygon style="fill: #000000" points="309.596,308.149 320.442,310.86 315.29,313.03 313.935,318.453 "/>
    <polygon style="fill: none; fill-opacity:0; stroke-width: 2; stroke: #000000" points="309.596,308.149 320.442,310.86 315.29,313.03 313.935,318.453 "/>
  </g>
</svg>
