<?xml version="1.0" encoding="UTF-8" standalone="no"?>
<!DOCTYPE svg PUBLIC "-//W3C//DTD SVG 1.0//EN" "http://www.w3.org/TR/2001/PR-SVG-20010719/DTD/svg10.dtd">
<svg width="25cm" height="44cm" viewBox="-2 -1 483 863" xmlns="http://www.w3.org/2000/svg" xmlns:xlink="http://www.w3.org/1999/xlink">
  <g>
    <rect style="fill: #ccc4b0" x="0" y="20" width="480" height="840" rx="40" ry="40"/>
    <rect style="fill: none; fill-opacity:0; stroke-width: 2; stroke-linejoin: round; stroke: #000000" x="0" y="20" width="480" height="840" rx="40" ry="40"/>
  </g>
  <g>
    <rect style="fill: #ffffff" x="40" y="0" width="160" height="44"/>
    <rect style="fill: none; fill-opacity:0; stroke-width: 2; stroke: #000000" x="40" y="0" width="160" height="44"/>
  </g>
  <text font-size="18.0619" style="fill: #000000;text-anchor:middle;font-family:sans-serif;font-style:normal;font-weight:normal" x="120" y="28.25">
    <tspan x="120" y="28.25">RX Transport</tspan>
  </text>
  <g>
    <rect style="fill: #ffffff" x="40" y="260" width="160" height="40"/>
    <rect style="fill: none; fill-opacity:0; stroke-width: 2; stroke: #000000" x="40" y="260" width="160" height="40"/>
  </g>
  <text font-size="18.0619" style="fill: #000000;text-anchor:middle;font-family:sans-serif;font-style:normal;font-weight:normal" x="120" y="286.25">
    <tspan x="120" y="286.25">Create Words</tspan>
  </text>
  <g>
    <rect style="fill: #ffffff" x="40" y="540" width="160" height="40"/>
    <rect style="fill: none; fill-opacity:0; stroke-width: 2; stroke: #000000" x="40" y="540" width="160" height="40"/>
  </g>
  <text font-size="18.0619" style="fill: #000000;text-anchor:middle;font-family:sans-serif;font-style:normal;font-weight:normal" x="120" y="566.25">
    <tspan x="120" y="566.25">FIFO</tspan>
  </text>
  <g>
    <rect style="fill: #ffffff" x="40" y="620" width="400" height="80"/>
    <rect style="fill: none; fill-opacity:0; stroke-width: 2; stroke: #000000" x="40" y="620" width="400" height="80"/>
  </g>
  <text font-size="18.0619" style="fill: #000000;text-anchor:middle;font-family:sans-serif;font-style:normal;font-weight:normal" x="240" y="666.25">
    <tspan x="240" y="666.25">Wishbone Bus Master</tspan>
  </text>
  <g>
    <rect style="fill: #ffffff" x="40" y="80" width="160" height="44"/>
    <rect style="fill: none; fill-opacity:0; stroke-width: 2; stroke: #000000" x="40" y="80" width="160" height="44"/>
  </g>
  <text font-size="18.0619" style="fill: #000000;text-anchor:middle;font-family:sans-serif;font-style:normal;font-weight:normal" x="120" y="108.25">
    <tspan x="120" y="108.25">Char to bits</tspan>
  </text>
  <g>
    <rect style="fill: #ffffff" x="40" y="340" width="160" height="60"/>
    <rect style="fill: none; fill-opacity:0; stroke-width: 2; stroke: #000000" x="40" y="340" width="160" height="60"/>
  </g>
  <text font-size="18.0619" style="fill: #000000;text-anchor:middle;font-family:sans-serif;font-style:normal;font-weight:normal" x="120" y="376.25">
    <tspan x="120" y="376.25">Decompress</tspan>
  </text>
  <g>
    <rect style="fill: #ffffff" x="280" y="540" width="160" height="40"/>
    <rect style="fill: none; fill-opacity:0; stroke-width: 2; stroke: #000000" x="280" y="540" width="160" height="40"/>
  </g>
  <text font-size="18.0619" style="fill: #000000;text-anchor:middle;font-family:sans-serif;font-style:normal;font-weight:normal" x="360" y="566.25">
    <tspan x="360" y="566.25">FIFO</tspan>
  </text>
  <g>
    <rect style="fill: #ffffff" x="280" y="440" width="160" height="60"/>
    <rect style="fill: none; fill-opacity:0; stroke-width: 2; stroke: #000000" x="280" y="440" width="160" height="60"/>
  </g>
  <text font-size="18.0619" style="fill: #000000;text-anchor:middle;font-family:sans-serif;font-style:normal;font-weight:normal" x="360" y="464.961">
    <tspan x="360" y="464.961">Add Resets</tspan>
    <tspan x="360" y="487.539">and Interrupts</tspan>
  </text>
  <g>
    <rect style="fill: #ffffff" x="280" y="340" width="160" height="60"/>
    <rect style="fill: none; fill-opacity:0; stroke-width: 2; stroke: #000000" x="280" y="340" width="160" height="60"/>
  </g>
  <text font-size="18.0619" style="fill: #000000;text-anchor:middle;font-family:sans-serif;font-style:normal;font-weight:normal" x="360" y="376.25">
    <tspan x="360" y="376.25">Compress</tspan>
  </text>
  <g>
    <rect style="fill: #ffffff" x="280" y="260" width="160" height="40"/>
    <rect style="fill: none; fill-opacity:0; stroke-width: 2; stroke: #000000" x="280" y="260" width="160" height="40"/>
  </g>
  <text font-size="18.0619" style="fill: #000000;text-anchor:middle;font-family:sans-serif;font-style:normal;font-weight:normal" x="360" y="286.25">
    <tspan x="360" y="286.25">Words to bytes</tspan>
  </text>
  <g>
    <rect style="fill: #ffffff" x="280" y="160" width="160" height="60"/>
    <rect style="fill: none; fill-opacity:0; stroke-width: 2; stroke: #000000" x="280" y="160" width="160" height="60"/>
  </g>
  <text font-size="18.0619" style="fill: #000000;text-anchor:middle;font-family:sans-serif;font-style:normal;font-weight:normal" x="360" y="184.961">
    <tspan x="360" y="184.961">Assemble into</tspan>
    <tspan x="360" y="207.539">lines</tspan>
  </text>
  <g>
    <rect style="fill: #ffffff" x="280" y="80" width="160" height="44"/>
    <rect style="fill: none; fill-opacity:0; stroke-width: 2; stroke: #000000" x="280" y="80" width="160" height="44"/>
  </g>
  <text font-size="18.0619" style="fill: #000000;text-anchor:middle;font-family:sans-serif;font-style:normal;font-weight:normal" x="360" y="108.25">
    <tspan x="360" y="108.25">Bits to chars</tspan>
  </text>
  <g>
    <rect style="fill: #ffffff" x="280" y="0" width="160" height="44"/>
    <rect style="fill: none; fill-opacity:0; stroke-width: 2; stroke: #000000" x="280" y="0" width="160" height="44"/>
  </g>
  <text font-size="18.0619" style="fill: #000000;text-anchor:middle;font-family:sans-serif;font-style:normal;font-weight:normal" x="360" y="28.25">
    <tspan x="360" y="28.25">TX Transport</tspan>
  </text>
  <g>
    <line style="fill: none; fill-opacity:0; stroke-width: 4; stroke: #000000" x1="360" y1="80" x2="360" y2="55.9721"/>
    <polygon style="fill: #000000" points="360,48.4721 365,58.4721 360,55.9721 355,58.4721 "/>
    <polygon style="fill: none; fill-opacity:0; stroke-width: 4; stroke: #000000" points="360,48.4721 365,58.4721 360,55.9721 355,58.4721 "/>
  </g>
  <g>
    <line style="fill: none; fill-opacity:0; stroke-width: 4; stroke: #000000" x1="120" y1="44" x2="120" y2="68.0279"/>
    <polygon style="fill: #000000" points="120,75.5279 115,65.5279 120,68.0279 125,65.5279 "/>
    <polygon style="fill: none; fill-opacity:0; stroke-width: 4; stroke: #000000" points="120,75.5279 115,65.5279 120,68.0279 125,65.5279 "/>
  </g>
  <g>
    <line style="fill: none; fill-opacity:0; stroke-width: 4; stroke: #000000" x1="120" y1="124" x2="120" y2="248.028"/>
    <polygon style="fill: #000000" points="120,255.528 115,245.528 120,248.028 125,245.528 "/>
    <polygon style="fill: none; fill-opacity:0; stroke-width: 4; stroke: #000000" points="120,255.528 115,245.528 120,248.028 125,245.528 "/>
  </g>
  <g>
    <line style="fill: none; fill-opacity:0; stroke-width: 4; stroke: #000000" x1="120" y1="300" x2="120" y2="328.028"/>
    <polygon style="fill: #000000" points="120,335.528 115,325.528 120,328.028 125,325.528 "/>
    <polygon style="fill: none; fill-opacity:0; stroke-width: 4; stroke: #000000" points="120,335.528 115,325.528 120,328.028 125,325.528 "/>
  </g>
  <g>
    <line style="fill: none; fill-opacity:0; stroke-width: 4; stroke: #000000" x1="120" y1="580" x2="120" y2="608.028"/>
    <polygon style="fill: #000000" points="120,615.528 115,605.528 120,608.028 125,605.528 "/>
    <polygon style="fill: none; fill-opacity:0; stroke-width: 4; stroke: #000000" points="120,615.528 115,605.528 120,608.028 125,605.528 "/>
  </g>
  <g>
    <line style="fill: none; fill-opacity:0; stroke-width: 4; stroke: #000000" x1="120" y1="400" x2="120" y2="528.028"/>
    <polygon style="fill: #000000" points="120,535.528 115,525.528 120,528.028 125,525.528 "/>
    <polygon style="fill: none; fill-opacity:0; stroke-width: 4; stroke: #000000" points="120,535.528 115,525.528 120,528.028 125,525.528 "/>
  </g>
  <g>
    <line style="fill: none; fill-opacity:0; stroke-width: 4; stroke: #000000" x1="360" y1="160" x2="360" y2="135.972"/>
    <polygon style="fill: #000000" points="360,128.472 365,138.472 360,135.972 355,138.472 "/>
    <polygon style="fill: none; fill-opacity:0; stroke-width: 4; stroke: #000000" points="360,128.472 365,138.472 360,135.972 355,138.472 "/>
  </g>
  <g>
    <line style="fill: none; fill-opacity:0; stroke-width: 4; stroke: #000000" x1="360" y1="260" x2="360" y2="231.972"/>
    <polygon style="fill: #000000" points="360,224.472 365,234.472 360,231.972 355,234.472 "/>
    <polygon style="fill: none; fill-opacity:0; stroke-width: 4; stroke: #000000" points="360,224.472 365,234.472 360,231.972 355,234.472 "/>
  </g>
  <g>
    <line style="fill: none; fill-opacity:0; stroke-width: 4; stroke: #000000" x1="360" y1="340" x2="360" y2="311.972"/>
    <polygon style="fill: #000000" points="360,304.472 365,314.472 360,311.972 355,314.472 "/>
    <polygon style="fill: none; fill-opacity:0; stroke-width: 4; stroke: #000000" points="360,304.472 365,314.472 360,311.972 355,314.472 "/>
  </g>
  <g>
    <line style="fill: none; fill-opacity:0; stroke-width: 4; stroke: #000000" x1="360" y1="440" x2="360" y2="411.972"/>
    <polygon style="fill: #000000" points="360,404.472 365,414.472 360,411.972 355,414.472 "/>
    <polygon style="fill: none; fill-opacity:0; stroke-width: 4; stroke: #000000" points="360,404.472 365,414.472 360,411.972 355,414.472 "/>
  </g>
  <g>
    <line style="fill: none; fill-opacity:0; stroke-width: 4; stroke: #000000" x1="360" y1="540" x2="360" y2="511.972"/>
    <polygon style="fill: #000000" points="360,504.472 365,514.472 360,511.972 355,514.472 "/>
    <polygon style="fill: none; fill-opacity:0; stroke-width: 4; stroke: #000000" points="360,504.472 365,514.472 360,511.972 355,514.472 "/>
  </g>
  <g>
    <line style="fill: none; fill-opacity:0; stroke-width: 4; stroke: #000000" x1="360" y1="620" x2="360" y2="591.972"/>
    <polygon style="fill: #000000" points="360,584.472 365,594.472 360,591.972 355,594.472 "/>
    <polygon style="fill: none; fill-opacity:0; stroke-width: 4; stroke: #000000" points="360,584.472 365,594.472 360,591.972 355,594.472 "/>
  </g>
  <line style="fill: none; fill-opacity:0; stroke-width: 2; stroke: #000000" x1="40" y1="760" x2="440" y2="760"/>
  <g>
    <line style="fill: none; fill-opacity:0; stroke-width: 2; stroke: #000000" x1="240" y1="709.736" x2="240" y2="760"/>
    <polygon style="fill: #000000" points="240,702.236 245,712.236 240,709.736 235,712.236 "/>
    <polygon style="fill: none; fill-opacity:0; stroke-width: 2; stroke: #000000" points="240,702.236 245,712.236 240,709.736 235,712.236 "/>
  </g>
  <g>
    <line style="fill: none; fill-opacity:0; stroke-width: 2; stroke: #000000" x1="440" y1="760" x2="406.884" y2="793.116"/>
    <polygon style="fill: #000000" points="401.581,798.419 405.117,787.812 406.884,793.116 412.188,794.883 "/>
    <polygon style="fill: none; fill-opacity:0; stroke-width: 2; stroke: #000000" points="401.581,798.419 405.117,787.812 406.884,793.116 412.188,794.883 "/>
  </g>
  <g>
    <line style="fill: none; fill-opacity:0; stroke-width: 2; stroke: #000000" x1="100" y1="760" x2="66.8844" y2="793.116"/>
    <polygon style="fill: #000000" points="61.5811,798.419 65.1167,787.812 66.8844,793.116 72.1877,794.883 "/>
    <polygon style="fill: none; fill-opacity:0; stroke-width: 2; stroke: #000000" points="61.5811,798.419 65.1167,787.812 66.8844,793.116 72.1877,794.883 "/>
  </g>
  <g>
    <line style="fill: none; fill-opacity:0; stroke-width: 2; stroke: #000000" x1="180" y1="760" x2="146.884" y2="793.116"/>
    <polygon style="fill: #000000" points="141.581,798.419 145.117,787.812 146.884,793.116 152.188,794.883 "/>
    <polygon style="fill: none; fill-opacity:0; stroke-width: 2; stroke: #000000" points="141.581,798.419 145.117,787.812 146.884,793.116 152.188,794.883 "/>
  </g>
  <g>
    <line style="fill: none; fill-opacity:0; stroke-width: 2; stroke: #000000" x1="340" y1="760" x2="306.884" y2="793.116"/>
    <polygon style="fill: #000000" points="301.581,798.419 305.117,787.812 306.884,793.116 312.188,794.883 "/>
    <polygon style="fill: none; fill-opacity:0; stroke-width: 2; stroke: #000000" points="301.581,798.419 305.117,787.812 306.884,793.116 312.188,794.883 "/>
  </g>
  <g>
    <line style="fill: none; fill-opacity:0; stroke-width: 2; stroke: #000000" x1="260" y1="760" x2="226.884" y2="793.116"/>
    <polygon style="fill: #000000" points="221.581,798.419 225.117,787.812 226.884,793.116 232.188,794.883 "/>
    <polygon style="fill: none; fill-opacity:0; stroke-width: 2; stroke: #000000" points="221.581,798.419 225.117,787.812 226.884,793.116 232.188,794.883 "/>
  </g>
</svg>
