<?xml version="1.0" encoding="UTF-8" standalone="no"?>
<!DOCTYPE svg PUBLIC "-//W3C//DTD SVG 1.0//EN" "http://www.w3.org/TR/2001/PR-SVG-20010719/DTD/svg10.dtd">
<svg width="65cm" height="48cm" viewBox="-2 -3 1286 944" xmlns="http://www.w3.org/2000/svg" xmlns:xlink="http://www.w3.org/1999/xlink">
  <g>
    <rect style="fill: #ffffcf" x="1150" y="610" width="120" height="40"/>
    <rect style="fill: none; fill-opacity:0; stroke-width: 2; stroke: #000000" x="1150" y="610" width="120" height="40"/>
  </g>
  <g>
    <rect style="fill: #ffffff" x="580" y="80" width="200" height="40"/>
    <rect style="fill: none; fill-opacity:0; stroke-width: 4; stroke: #5bbfde" x="580" y="80" width="200" height="40"/>
  </g>
  <text font-size="18.0622" style="fill: #000000;text-anchor:middle;font-family:sans-serif;font-style:normal;font-weight:normal" x="680" y="106.25">
    <tspan x="680" y="106.25">JTAG-&gt;WB converter</tspan>
  </text>
  <g>
    <rect style="fill: #ffffff" x="760" y="600" width="120" height="40"/>
    <rect style="fill: none; fill-opacity:0; stroke-width: 2; stroke: #000000" x="760" y="600" width="120" height="40"/>
  </g>
  <text font-size="18.0622" style="fill: #000000;text-anchor:middle;font-family:sans-serif;font-style:normal;font-weight:normal" x="820" y="626.25">
    <tspan x="820" y="626.25">UART</tspan>
  </text>
  <g>
    <rect style="fill: #ffffff" x="960" y="600" width="120" height="40"/>
    <rect style="fill: none; fill-opacity:0; stroke-width: 4; stroke: #5bbfde" x="960" y="600" width="120" height="40"/>
  </g>
  <text font-size="18.0622" style="fill: #000000;text-anchor:middle;font-family:sans-serif;font-style:normal;font-weight:normal" x="1020" y="626.25">
    <tspan x="1020" y="626.25">IO-Slave</tspan>
  </text>
  <g>
    <rect style="fill: #ffffff" x="400" y="600" width="120" height="40"/>
    <rect style="fill: none; fill-opacity:0; stroke-width: 4; stroke: #5bbfde" x="400" y="600" width="120" height="40"/>
  </g>
  <g>
    <rect style="fill: #ffffcf" x="1140" y="600" width="120" height="40"/>
    <rect style="fill: none; fill-opacity:0; stroke-width: 2; stroke: #000000" x="1140" y="600" width="120" height="40"/>
  </g>
  <line style="fill: none; fill-opacity:0; stroke-width: 8; stroke: #5bbfde" x1="80" y1="560" x2="1280" y2="560"/>
  <line style="fill: none; fill-opacity:0; stroke-width: 2; stroke: #000000" x1="120" y1="560" x2="100" y2="600"/>
  <line style="fill: none; fill-opacity:0; stroke-width: 2; stroke: #000000" x1="840" y1="560" x2="820" y2="600"/>
  <line style="fill: none; fill-opacity:0; stroke-width: 2; stroke: #000000" x1="480" y1="560" x2="460" y2="600"/>
  <line style="fill: none; fill-opacity:0; stroke-width: 2; stroke: #000000" x1="1220" y1="560" x2="1200" y2="600"/>
  <line style="fill: none; fill-opacity:0; stroke-width: 2; stroke: #000000" x1="680" y1="120" x2="660" y2="160"/>
  <text font-size="18.0622" style="fill: #000000;text-anchor:middle;font-family:sans-serif;font-style:normal;font-weight:normal" x="1200" y="626.25">
    <tspan x="1200" y="626.25">Scope</tspan>
  </text>
  <g>
    <rect style="fill: #ffa4a4" x="0" y="600" width="380" height="80" rx="20" ry="20"/>
    <rect style="fill: none; fill-opacity:0; stroke-width: 2; stroke-linejoin: round; stroke: #000000" x="0" y="600" width="380" height="80" rx="20" ry="20"/>
  </g>
  <g>
    <rect style="fill: #ffffff" x="20" y="620" width="160" height="40"/>
    <rect style="fill: none; fill-opacity:0; stroke-width: 2; stroke: #000000" x="20" y="620" width="160" height="40"/>
  </g>
  <text font-size="18.0622" style="fill: #000000;text-anchor:middle;font-family:sans-serif;font-style:normal;font-weight:normal" x="100" y="646.25">
    <tspan x="100" y="646.25">Flash Control</tspan>
  </text>
  <g>
    <rect style="fill: #ffffff" x="200" y="620" width="160" height="40"/>
    <rect style="fill: none; fill-opacity:0; stroke-width: 2; stroke: #000000" x="200" y="620" width="160" height="40"/>
  </g>
  <text font-size="18.0622" style="fill: #000000;text-anchor:middle;font-family:sans-serif;font-style:normal;font-weight:normal" x="280" y="646.25">
    <tspan x="280" y="646.25">Flash Data</tspan>
  </text>
  <line style="fill: none; fill-opacity:0; stroke-width: 2; stroke: #000000" x1="100" y1="600" x2="100" y2="620"/>
  <line style="fill: none; fill-opacity:0; stroke-width: 2; stroke: #000000" x1="280" y1="600" x2="280" y2="620"/>
  <g>
    <rect style="fill: #90ee90" x="580" y="600" width="120" height="40"/>
    <rect style="fill: none; fill-opacity:0; stroke-width: 4; stroke: #5bbfde" x="580" y="600" width="120" height="40"/>
  </g>
  <line style="fill: none; fill-opacity:0; stroke-width: 2; stroke: #000000" x1="660" y1="560" x2="640" y2="600"/>
  <g>
    <rect style="fill: #ffffff" x="460" y="680" width="120" height="40"/>
    <rect style="fill: none; fill-opacity:0; stroke-width: 2; stroke: #000000" x="460" y="680" width="120" height="40"/>
  </g>
  <text font-size="18.0622" style="fill: #000000;text-anchor:middle;font-family:sans-serif;font-style:normal;font-weight:normal" x="640" y="626.25">
    <tspan x="640" y="626.25">SDRAM</tspan>
  </text>
  <line style="fill: none; fill-opacity:0; stroke-width: 2; stroke: #000000" x1="580" y1="560" x2="520" y2="680"/>
  <g>
    <rect style="fill: #ffffff" x="820" y="680" width="120" height="40"/>
    <rect style="fill: none; fill-opacity:0; stroke-width: 2; stroke: #000000" x="820" y="680" width="120" height="40"/>
  </g>
  <text font-size="18.0622" style="fill: #000000;text-anchor:middle;font-family:sans-serif;font-style:normal;font-weight:normal" x="880" y="706.25">
    <tspan x="880" y="706.25">GPIO</tspan>
  </text>
  <g>
    <rect style="fill: #ffffff" x="1020" y="680" width="120" height="40"/>
    <rect style="fill: none; fill-opacity:0; stroke-width: 4; stroke: #5bbfde" x="1020" y="680" width="120" height="40"/>
  </g>
  <text font-size="18.0622" style="fill: #000000;text-anchor:middle;font-family:sans-serif;font-style:normal;font-weight:normal" x="1080" y="706.25">
    <tspan x="1080" y="706.25">ICAPE Cfg</tspan>
  </text>
  <line style="fill: none; fill-opacity:0; stroke-width: 2; stroke: #000000" x1="1140" y1="560" x2="1080" y2="680"/>
  <g>
    <rect style="fill: #ffffff" x="640" y="680" width="120" height="40"/>
    <rect style="fill: none; fill-opacity:0; stroke-width: 2; stroke: #000000" x="640" y="680" width="120" height="40"/>
  </g>
  <text font-size="18.0622" style="fill: #000000;text-anchor:middle;font-family:sans-serif;font-style:normal;font-weight:normal" x="460" y="626.25">
    <tspan x="460" y="626.25">SD-Card</tspan>
  </text>
  <text font-size="36.1244" style="fill: #000000;text-anchor:middle;font-family:sans-serif;font-style:normal;font-weight:normal" x="120" y="52.5">
    <tspan x="120" y="52.5">XuLA2-LX25</tspan>
  </text>
  <line style="fill: none; fill-opacity:0; stroke-width: 2; stroke: #000000" x1="1040" y1="560" x2="1020" y2="600"/>
  <line style="fill: none; fill-opacity:0; stroke-width: 2; stroke: #000000" x1="760" y1="560" x2="700" y2="680"/>
  <line style="fill: none; fill-opacity:0; stroke-width: 2; stroke: #000000" x1="940" y1="560" x2="880" y2="680"/>
  <g>
    <rect style="fill: #ffffff" x="720" y="820" width="120" height="40"/>
    <rect style="fill: none; fill-opacity:0; stroke-width: 2; stroke: #000000" x="720" y="820" width="120" height="40"/>
  </g>
  <text font-size="18.0622" style="fill: #000000;text-anchor:middle;font-family:sans-serif;font-style:normal;font-weight:normal" x="780" y="846.25">
    <tspan x="780" y="846.25">Version</tspan>
  </text>
  <g>
    <rect style="fill: #ffffff" x="920" y="820" width="120" height="40"/>
    <rect style="fill: none; fill-opacity:0; stroke-width: 2; stroke: #000000" x="920" y="820" width="120" height="40"/>
  </g>
  <text font-size="18.0622" style="fill: #000000;text-anchor:middle;font-family:sans-serif;font-style:normal;font-weight:normal" x="980" y="846.25">
    <tspan x="980" y="846.25">Counter(s)</tspan>
  </text>
  <g>
    <rect style="fill: #ffffff" x="800" y="900" width="120" height="40"/>
    <rect style="fill: none; fill-opacity:0; stroke-width: 2; stroke: #000000" x="800" y="900" width="120" height="40"/>
  </g>
  <text font-size="18.0622" style="fill: #000000;text-anchor:middle;font-family:sans-serif;font-style:normal;font-weight:normal" x="860" y="926.25">
    <tspan x="860" y="926.25">UART Setup</tspan>
  </text>
  <line style="fill: none; fill-opacity:0; stroke-width: 2; stroke: #000000" x1="800" y1="780" x2="780" y2="820"/>
  <line style="fill: none; fill-opacity:0; stroke-width: 2; stroke: #000000" x1="1000" y1="780" x2="980" y2="820"/>
  <line style="fill: none; fill-opacity:0; stroke-width: 2; stroke: #000000" x1="920" y1="780" x2="860" y2="900"/>
  <g>
    <rect style="fill: #ffffff" x="980" y="900" width="120" height="40"/>
    <rect style="fill: none; fill-opacity:0; stroke-width: 2; stroke: #000000" x="980" y="900" width="120" height="40"/>
  </g>
  <line style="fill: none; fill-opacity:0; stroke-width: 2; stroke: #000000" x1="1100" y1="780" x2="1040" y2="900"/>
  <text font-size="18.0622" style="fill: #000000;text-anchor:middle;font-family:sans-serif;font-style:normal;font-weight:normal" x="1040" y="926.25">
    <tspan x="1040" y="926.25">Interrupts</tspan>
  </text>
  <line style="fill: none; fill-opacity:0; stroke-width: 4; stroke: #5bbfde" x1="760" y1="780" x2="1160" y2="780"/>
  <line style="fill: none; fill-opacity:0; stroke-width: 4; stroke: #5bbfde" x1="1020" y1="640" x2="960" y2="780"/>
  <g>
    <line style="fill: none; fill-opacity:0; stroke-width: 2; stroke: #000000" x1="640" y1="0" x2="640" y2="70.2639"/>
    <polygon style="fill: #000000" points="640,77.7639 635,67.7639 640,70.2639 645,67.7639 "/>
    <polygon style="fill: none; fill-opacity:0; stroke-width: 2; stroke: #000000" points="640,77.7639 635,67.7639 640,70.2639 645,67.7639 "/>
  </g>
  <g>
    <line style="fill: none; fill-opacity:0; stroke-width: 2; stroke: #000000" x1="720" y1="80" x2="720" y2="9.73607"/>
    <polygon style="fill: #000000" points="720,2.23607 725,12.2361 720,9.73607 715,12.2361 "/>
    <polygon style="fill: none; fill-opacity:0; stroke-width: 2; stroke: #000000" points="720,2.23607 725,12.2361 720,9.73607 715,12.2361 "/>
  </g>
  <text font-size="18.0622" style="fill: #000000;text-anchor:middle;font-family:sans-serif;font-style:normal;font-weight:normal" x="760" y="26.25">
    <tspan x="760" y="26.25">JTAG</tspan>
  </text>
  <line style="fill: none; fill-opacity:0; stroke-width: 2; stroke: #000000" x1="300" y1="560" x2="280" y2="600"/>
  <text font-size="18.0622" style="fill: #000000;text-anchor:middle;font-family:sans-serif;font-style:normal;font-weight:normal" x="700" y="706.25">
    <tspan x="700" y="706.25">RTC</tspan>
  </text>
  <text font-size="18.0622" style="fill: #000000;text-anchor:middle;font-family:sans-serif;font-style:normal;font-weight:normal" x="520" y="706.25">
    <tspan x="520" y="706.25">Block RAM</tspan>
  </text>
  <line style="fill: none; fill-opacity:0; stroke-width: 4; stroke: #5bbfde" x1="20" y1="720" x2="420" y2="720"/>
  <line style="fill: none; fill-opacity:0; stroke-width: 2; stroke: #000000" x1="440" y1="640" x2="400" y2="720"/>
  <line style="fill: none; fill-opacity:0; stroke-width: 2; stroke: #000000" x1="180" y1="680" x2="160" y2="720"/>
  <line style="fill: none; fill-opacity:0; stroke-width: 2; stroke: #000000" x1="220" y1="720" x2="200" y2="760"/>
  <text font-size="18.0622" style="fill: #000000;text-anchor:middle;font-family:sans-serif;font-style:normal;font-weight:normal" x="200" y="786.25">
    <tspan x="200" y="786.25">SPI Bus</tspan>
  </text>
  <g>
    <rect style="fill: #ffffff" x="520" y="400" width="200" height="40"/>
    <rect style="fill: none; fill-opacity:0; stroke-width: 4; stroke: #5bbfde" x="520" y="400" width="200" height="40"/>
  </g>
  <text font-size="18.0622" style="fill: #000000;text-anchor:middle;font-family:sans-serif;font-style:normal;font-weight:normal" x="620" y="426.25">
    <tspan x="620" y="426.25">Arbiter</tspan>
  </text>
  <line style="fill: none; fill-opacity:0; stroke-width: 2; stroke: #000000" x1="640" y1="440" x2="620" y2="480"/>
  <line style="fill: none; fill-opacity:0; stroke-width: 4; stroke: #5bbfde" x1="460" y1="360" x2="760" y2="360"/>
  <line style="fill: none; fill-opacity:0; stroke-width: 2; stroke: #000000" x1="640" y1="360" x2="620" y2="400"/>
  <line style="fill: none; fill-opacity:0; stroke-width: 2; stroke: #000000" x1="480" y1="320" x2="460" y2="360"/>
  <line style="fill: none; fill-opacity:0; stroke-width: 4; stroke: #5bbfde" x1="850" y1="160" x2="760" y2="360"/>
  <line style="fill: none; fill-opacity:0; stroke-width: 4; stroke: #5bbfde" x1="500" y1="160" x2="850" y2="160"/>
  <line style="fill: none; fill-opacity:0; stroke-width: 2; stroke: #000000" x1="500" y1="160" x2="480" y2="200"/>
  <g>
    <rect style="fill: #ffffff" x="520" y="480" width="200" height="40"/>
    <rect style="fill: none; fill-opacity:0; stroke-width: 4; stroke: #5bbfde" x="520" y="480" width="200" height="40"/>
  </g>
  <text font-size="18.0622" style="fill: #000000;text-anchor:middle;font-family:sans-serif;font-style:normal;font-weight:normal" x="620" y="506.25">
    <tspan x="620" y="506.25">Bus Delay</tspan>
  </text>
  <line style="fill: none; fill-opacity:0; stroke-width: 2; stroke: #000000" x1="640" y1="520" x2="620" y2="560"/>
  <g>
    <g>
      <rect style="fill: #ffffff" x="300" y="200" width="320" height="120" rx="40" ry="40"/>
      <rect style="fill: none; fill-opacity:0; stroke-width: 4; stroke-linejoin: round; stroke: #5bbfde" x="300" y="200" width="320" height="120" rx="40" ry="40"/>
    </g>
    <g>
      <g>
        <rect style="fill: #ffffff" x="400" y="210" width="200" height="40" rx="40" ry="40"/>
        <rect style="fill: none; fill-opacity:0; stroke-width: 4; stroke-linejoin: round; stroke: #5bbfde" x="400" y="210" width="200" height="40" rx="40" ry="40"/>
      </g>
      <text font-size="18.0622" style="fill: #000000;text-anchor:middle;font-family:sans-serif;font-style:normal;font-weight:normal" x="500" y="236.25">
        <tspan x="500" y="236.25">ZipCPU</tspan>
      </text>
    </g>
    <g>
      <line style="fill: none; fill-opacity:0; stroke-width: 4; stroke-linejoin: round; stroke: #5bbfde" x1="500" y1="250" x2="490" y2="270"/>
      <line style="fill: none; fill-opacity:0; stroke-width: 4; stroke-linejoin: round; stroke: #5bbfde" x1="430" y1="270" x2="540" y2="270"/>
      <line style="fill: none; fill-opacity:0; stroke-width: 4; stroke-linejoin: round; stroke: #5bbfde" x1="540" y1="270" x2="500" y2="320"/>
      <g>
        <line style="fill: none; fill-opacity:0; stroke-width: 4; stroke-linejoin: round; stroke: #5bbfde" x1="360" y1="280" x2="480" y2="280"/>
        <g>
          <rect style="fill: #ffffff" x="340" y="290" width="20" height="20"/>
          <rect style="fill: none; fill-opacity:0; stroke-width: 4; stroke: #5bbfde" x="340" y="290" width="20" height="20"/>
        </g>
        <g>
          <rect style="fill: #ffffff" x="370" y="290" width="20" height="20"/>
          <rect style="fill: none; fill-opacity:0; stroke-width: 4; stroke: #5bbfde" x="370" y="290" width="20" height="20"/>
        </g>
        <g>
          <rect style="fill: #ffffff" x="400" y="290" width="20" height="20"/>
          <rect style="fill: none; fill-opacity:0; stroke-width: 4; stroke: #5bbfde" x="400" y="290" width="20" height="20"/>
        </g>
        <g>
          <rect style="fill: #ffffff" x="430" y="290" width="20" height="20"/>
          <rect style="fill: none; fill-opacity:0; stroke-width: 4; stroke: #5bbfde" x="430" y="290" width="20" height="20"/>
        </g>
        <g>
          <rect style="fill: #ffffff" x="460" y="290" width="20" height="20"/>
          <rect style="fill: none; fill-opacity:0; stroke-width: 4; stroke: #5bbfde" x="460" y="290" width="20" height="20"/>
        </g>
        <line style="fill: none; fill-opacity:0; stroke-width: 4; stroke: #5bbfde" x1="430" y1="270" x2="420" y2="280"/>
        <line style="fill: none; fill-opacity:0; stroke-width: 4; stroke: #5bbfde" x1="360" y1="280" x2="350" y2="290"/>
        <line style="fill: none; fill-opacity:0; stroke-width: 4; stroke: #5bbfde" x1="390" y1="280" x2="380" y2="290"/>
        <line style="fill: none; fill-opacity:0; stroke-width: 4; stroke: #5bbfde" x1="420" y1="280" x2="410" y2="290"/>
        <line style="fill: none; fill-opacity:0; stroke-width: 4; stroke: #5bbfde" x1="450" y1="280" x2="440" y2="290"/>
        <line style="fill: none; fill-opacity:0; stroke-width: 4; stroke: #5bbfde" x1="480" y1="280" x2="470" y2="290"/>
      </g>
    </g>
  </g>
</svg>
